<svg width="60" height="60" viewBox="0 0 60 60" fill="none" xmlns="http://www.w3.org/2000/svg">
<g clip-path="url(#clip0_2839_1944)">
<path d="M58.3665 39.8286L55.2303 39.0443C54.9681 38.1784 54.6199 37.3404 54.1911 36.5439L55.8554 33.7706C56.0918 33.377 56.0298 32.873 55.7055 32.5483L52.584 29.4229C52.2592 29.0981 51.7553 29.0366 51.3617 29.273L48.5883 30.9372C48.2284 30.7443 47.8583 30.5661 47.4813 30.404C47.0242 30.2101 46.5568 30.0411 46.0812 29.898L45.2969 26.7614C45.186 26.316 44.7861 26.0035 44.327 26.0035H39.9153C39.4563 26.0035 39.0563 26.316 38.945 26.7614L38.1612 29.898C37.2948 30.1603 36.4573 30.5085 35.6608 30.9372L32.8875 29.273C32.4939 29.0366 31.9899 29.0981 31.6652 29.4229L28.5398 32.5444C28.215 32.8691 28.1535 33.3731 28.3898 33.7667L30.0541 36.54C29.6249 37.3365 29.2772 38.174 29.0149 39.0404L25.8783 39.8242C25.4329 39.9355 25.1204 40.3355 25.1204 40.7945V45.2092C25.1204 45.6682 25.4329 46.0682 25.8783 46.179L29.0149 46.9633C29.2772 47.8291 29.6249 48.6667 30.0541 49.4636L28.3898 52.237C28.1535 52.6306 28.215 53.1345 28.5398 53.4593L31.6613 56.5808C31.986 56.9051 32.49 56.9671 32.8831 56.7307L35.6564 55.0664C36.4534 55.4952 37.2909 55.8434 38.1568 56.1056L38.9411 59.2418C39.0524 59.6872 39.4523 59.9997 39.9114 60.0002H44.326C44.7851 59.9997 45.185 59.6872 45.2959 59.2418L46.0802 56.1056C46.946 55.8434 47.7835 55.4952 48.5805 55.0664L51.3538 56.7307C51.7474 56.9671 52.2514 56.9051 52.5762 56.5808L55.6972 53.4593C56.0219 53.1345 56.084 52.6306 55.8476 52.237L54.1833 49.4636C54.6121 48.6667 54.9603 47.8291 55.2225 46.9633L58.3587 46.179C58.8041 46.0682 59.1166 45.6682 59.1166 45.2092V40.7984C59.1176 40.3418 58.8089 39.9423 58.3665 39.8286ZM57.1246 44.4317L54.1814 45.1681C53.8234 45.257 53.5441 45.5349 53.4532 45.8924C53.1778 46.976 52.7476 48.0142 52.1747 48.9743C51.9862 49.2908 51.9862 49.6849 52.1747 50.0008L53.737 52.6013L51.724 54.6225L49.1236 53.0603C48.8076 52.8713 48.4135 52.8713 48.0975 53.0603C47.137 53.6326 46.0987 54.0634 45.0151 54.3383C44.6576 54.4291 44.3798 54.709 44.2909 55.0664L43.5486 58.0077H40.6962L39.9602 55.0645C39.8714 54.707 39.593 54.4272 39.236 54.3364C38.1524 54.0609 37.1141 53.6307 36.1536 53.0579C35.8376 52.8694 35.4435 52.8694 35.1276 53.0579L32.5271 54.6201L30.5058 52.6071L32.0681 50.0067C32.2571 49.6907 32.2571 49.2966 32.0681 48.9807C31.4957 48.0201 31.065 46.9819 30.7901 45.8982C30.6992 45.5412 30.4194 45.2629 30.0619 45.174L27.1206 44.4317V41.5798L30.0639 40.8433C30.4214 40.7545 30.7012 40.4766 30.792 40.1191C31.067 39.0355 31.4977 37.9973 32.07 37.0372C32.259 36.7207 32.259 36.3266 32.07 36.0107L30.5078 33.4102L32.5212 31.389L35.1217 32.9512C35.4377 33.1402 35.8317 33.1402 36.1477 32.9512C37.1083 32.3788 38.1465 31.9481 39.2302 31.6732C39.5871 31.5823 39.8655 31.3025 39.9544 30.9451L40.6962 28.0037H43.5486L44.285 30.947C44.3739 31.3045 44.6518 31.5843 45.0088 31.6751C46.0924 31.9496 47.1306 32.3798 48.0902 32.9526C48.4067 33.1416 48.8013 33.1416 49.1177 32.9526L51.7177 31.3904L53.7389 33.4044L52.1767 36.0048C51.9882 36.3208 51.9882 36.7149 52.1767 37.0308C52.7495 37.9914 53.1798 39.0296 53.4552 40.1133C53.546 40.4703 53.8254 40.7486 54.1833 40.8375L57.1246 41.5798V44.4317Z" fill="#D93232"/>
<path d="M42.1226 35.0047C37.7036 35.0047 34.1216 38.5867 34.1216 43.0057C34.1216 47.4248 37.7036 51.0068 42.1226 51.0068C46.5412 51.0068 50.1237 47.4248 50.1237 43.0057C50.1188 38.5891 46.5393 35.0096 42.1226 35.0047ZM42.1226 49.0065C38.8082 49.0065 36.1218 46.3197 36.1218 43.0057C36.1218 39.6918 38.8082 37.0049 42.1226 37.0049C45.4366 37.0049 48.1234 39.6918 48.1234 43.0057C48.12 46.3187 45.4351 49.0031 42.1226 49.0065Z" fill="#D93232"/>
<path d="M47.1233 12.0016H49.1236V28.0037H47.1233V12.0016Z" fill="#D93232"/>
<path d="M5.11772 51.0068V55.0073C5.11772 55.5597 5.56553 56.0075 6.11785 56.0075H27.1207V54.0072H7.11799V51.0068H19.1196C19.2744 51.0083 19.4272 50.9741 19.5664 50.9067L23.567 48.9064C23.9064 48.7375 24.1212 48.3907 24.1212 48.0113C24.1212 47.6323 23.9064 47.2856 23.567 47.1161L19.5664 45.1159C19.4282 45.0451 19.2749 45.0075 19.1196 45.006H7.11799V11.0015H45.1231C47.3323 11.0015 49.1236 9.21021 49.1236 7.00093V5.00067C49.1236 4.44835 48.6758 4.00053 48.1235 4.00053H45.1231V6.0008H47.1233V7.00093C47.1233 8.10557 46.2277 9.0012 45.1231 9.0012C44.0184 9.0012 43.1228 8.10557 43.1228 7.00093V4.00053C43.1228 2.89589 44.0184 2.00027 45.1231 2.00027H49.1236C50.2282 2.00027 51.1239 2.89589 51.1239 4.00053V27.0036H53.1241V4.00053C53.1241 1.79125 51.3329 0 49.1236 0H5.11772C2.90795 0 1.11719 1.79125 1.11719 4.00053V7.00093C1.11719 9.21021 2.90795 11.0015 5.11772 11.0015V45.006H4.11759C2.46063 45.006 1.11719 46.3494 1.11719 48.0064C1.11719 49.6634 2.46063 51.0068 4.11759 51.0068H5.11772ZM3.11745 7.00093V4.00053C3.11745 2.89589 4.01308 2.00027 5.11772 2.00027H41.6783C41.3183 2.60582 41.1264 3.29634 41.1225 4.00053V7.00093C41.1264 7.70513 41.3183 8.39565 41.6783 9.0012H5.11772C4.01308 9.0012 3.11745 8.10557 3.11745 7.00093ZM20.8835 48.0064L18.8832 49.0065H18.1195V47.0063H18.8832L20.8835 48.0064ZM3.11745 48.0064C3.11745 47.4541 3.56527 47.0063 4.11759 47.0063H16.1192V49.0065H4.11759C3.56527 49.0065 3.11745 48.5587 3.11745 48.0064Z" fill="#D93232"/>
<path d="M1.11719 15.002H3.11745V35.0047H1.11719V15.002Z" fill="#D93232"/>
<path d="M40.1225 16.0021V14.0019H27.1208C26.8556 14.0019 26.6012 14.1073 26.4137 14.2949L24.5863 16.1223C20.2175 12.9202 14.1655 13.3875 10.3402 17.2225C9.95006 17.6127 9.95006 18.2461 10.3402 18.6363L17.4125 25.7085C17.5995 25.8965 17.8539 26.003 18.1196 26.0035H28.1209C28.6733 26.0035 29.1211 25.5556 29.1211 25.0033C29.1201 22.188 28.036 19.4811 26.0923 17.4442L27.5349 16.0021H40.1225ZM27.0646 24.0032H18.5337L12.5007 17.9702C15.5753 15.5084 19.8962 15.3404 23.153 17.5556L20.4129 20.2957L21.8271 21.7099L24.6835 18.8536C26.0137 20.2673 26.8493 22.0742 27.0646 24.0032Z" fill="#D93232"/>
<path d="M42.1228 14.0019H44.1231V16.0021H42.1228V14.0019Z" fill="#D93232"/>
<path d="M12.1187 29.0039H14.1189V31.0041H12.1187V29.0039Z" fill="#D93232"/>
<path d="M16.1191 29.0039H26.1205V31.0041H16.1191V29.0039Z" fill="#D93232"/>
<path d="M10.1184 33.0044H26.1205V35.0047H10.1184V33.0044Z" fill="#D93232"/>
<path d="M32.1213 18.0024H34.1216V20.0027H32.1213V18.0024Z" fill="#D93232"/>
<path d="M36.1218 18.0024H44.1229V20.0027H36.1218V18.0024Z" fill="#D93232"/>
<path d="M32.1213 22.0029H44.1229V24.0032H32.1213V22.0029Z" fill="#D93232"/>
<path d="M10.1184 37.0049H23.1201V39.0052H10.1184V37.0049Z" fill="#D93232"/>
</g>
<defs>
<clipPath id="clip0_2839_1944">
<rect width="60" height="60" fill="white"/>
</clipPath>
</defs>
</svg>
