<svg width="59" height="59" viewBox="0 0 59 59" fill="none" xmlns="http://www.w3.org/2000/svg">
<g clip-path="url(#clip0_2849_1777)">
<path d="M51.6997 22.6242C52.1689 22.6242 52.5493 22.2426 52.5493 21.7716V20.5531C52.5493 20.0822 52.1689 19.7006 51.6997 19.7006C51.2305 19.7006 50.8501 20.0822 50.8501 20.5531V21.7716C50.8501 22.2426 51.2305 22.6242 51.6997 22.6242Z" fill="#D93232"/>
<path d="M50.8501 26.2397C50.8501 26.7106 51.2305 27.0922 51.6997 27.0922C52.1689 27.0922 52.5493 26.7106 52.5493 26.2397V25.0211C52.5493 24.5502 52.1689 24.1686 51.6997 24.1686C51.2305 24.1686 50.8501 24.5502 50.8501 25.0211V26.2397Z" fill="#D93232"/>
<path d="M7.2998 24.1686C6.83059 24.1686 6.4502 24.5502 6.4502 25.0211V26.2397C6.4502 26.7106 6.83059 27.0922 7.2998 27.0922C7.76902 27.0922 8.14941 26.7106 8.14941 26.2397V25.0211C8.14941 24.5502 7.76902 24.1686 7.2998 24.1686Z" fill="#D93232"/>
<path d="M8.14941 20.5531C8.14941 20.0822 7.76902 19.7006 7.2998 19.7006C6.83059 19.7006 6.4502 20.0822 6.4502 20.5531V21.7716C6.4502 22.2426 6.83059 22.6242 7.2998 22.6242C7.76902 22.6242 8.14941 22.2426 8.14941 21.7716V20.5531Z" fill="#D93232"/>
<path d="M30.1787 31.615H28.8213C28.3521 31.615 27.9717 31.9966 27.9717 32.4675C27.9717 32.9385 28.3521 33.32 28.8213 33.32H30.1787C30.6479 33.32 31.0283 32.9385 31.0283 32.4675C31.0283 31.9966 30.6479 31.615 30.1787 31.615Z" fill="#D93232"/>
<path d="M38.7764 33.32H40.1339C40.6031 33.32 40.9835 32.9385 40.9835 32.4675C40.9835 31.9966 40.6031 31.615 40.1339 31.615H38.7764C38.3072 31.615 37.9268 31.9966 37.9268 32.4675C37.9268 32.9385 38.3072 33.32 38.7764 33.32Z" fill="#D93232"/>
<path d="M43.7539 31.615C43.2847 31.615 42.9043 31.9966 42.9043 32.4675C42.9043 32.9385 43.2847 33.32 43.7539 33.32H45.1115C45.5807 33.32 45.9611 32.9385 45.9611 32.4675C45.9611 31.9966 45.5807 31.615 45.1115 31.615H43.7539Z" fill="#D93232"/>
<path d="M15.2457 31.615H13.8882C13.419 31.615 13.0386 31.9966 13.0386 32.4675C13.0386 32.9385 13.419 33.32 13.8882 33.32H15.2457C15.715 33.32 16.0954 32.9385 16.0954 32.4675C16.0954 31.9966 15.7151 31.615 15.2457 31.615Z" fill="#D93232"/>
<path d="M33.7988 33.32H35.1564C35.6256 33.32 36.006 32.9385 36.006 32.4675C36.006 31.9966 35.6256 31.615 35.1564 31.615H33.7988C33.3296 31.615 32.9492 31.9966 32.9492 32.4675C32.9492 32.9385 33.3296 33.32 33.7988 33.32Z" fill="#D93232"/>
<path d="M23.8437 33.32H25.2012C25.6704 33.32 26.0508 32.9385 26.0508 32.4675C26.0508 31.9966 25.6704 31.615 25.2012 31.615H23.8437C23.3745 31.615 22.9941 31.9966 22.9941 32.4675C22.9941 32.9385 23.3745 33.32 23.8437 33.32Z" fill="#D93232"/>
<path d="M18.8662 31.615C18.397 31.615 18.0166 31.9966 18.0166 32.4675C18.0166 32.9385 18.397 33.32 18.8662 33.32H20.2237C20.6929 33.32 21.0733 32.9385 21.0733 32.4675C21.0733 31.9966 20.6929 31.615 20.2237 31.615H18.8662Z" fill="#D93232"/>
<path d="M40.1339 13.4727H38.7764C38.3072 13.4727 37.9268 13.8542 37.9268 14.3252C37.9268 14.7961 38.3072 15.1777 38.7764 15.1777H40.1339C40.6031 15.1777 40.9835 14.7961 40.9835 14.3252C40.9835 13.8542 40.6031 13.4727 40.1339 13.4727Z" fill="#D93232"/>
<path d="M33.7988 15.1777H35.1564C35.6256 15.1777 36.006 14.7961 36.006 14.3252C36.006 13.8542 35.6256 13.4727 35.1564 13.4727H33.7988C33.3296 13.4727 32.9492 13.8542 32.9492 14.3252C32.9492 14.796 33.3296 15.1777 33.7988 15.1777Z" fill="#D93232"/>
<path d="M45.1115 15.1777C45.5807 15.1777 45.9611 14.7961 45.9611 14.3252C45.9611 13.8542 45.5807 13.4727 45.1115 13.4727H43.7539C43.2847 13.4727 42.9043 13.8542 42.9043 14.3252C42.9043 14.7961 43.2847 15.1777 43.7539 15.1777H45.1115Z" fill="#D93232"/>
<path d="M25.2012 15.1777C25.6704 15.1777 26.0508 14.7961 26.0508 14.3252C26.0508 13.8542 25.6704 13.4727 25.2012 13.4727H23.8437C23.3745 13.4727 22.9941 13.8542 22.9941 14.3252C22.9941 14.7961 23.3745 15.1777 23.8437 15.1777H25.2012Z" fill="#D93232"/>
<path d="M18.8662 15.1777H20.2237C20.6929 15.1777 21.0733 14.7961 21.0733 14.3252C21.0733 13.8542 20.6929 13.4727 20.2237 13.4727H18.8662C18.397 13.4727 18.0166 13.8542 18.0166 14.3252C18.0166 14.796 18.397 15.1777 18.8662 15.1777Z" fill="#D93232"/>
<path d="M15.2457 15.1777C15.715 15.1777 16.0954 14.7961 16.0954 14.3252C16.0954 13.8542 15.715 13.4727 15.2457 13.4727H13.8882C13.419 13.4727 13.0386 13.8542 13.0386 14.3252C13.0386 14.7961 13.419 15.1777 13.8882 15.1777H15.2457Z" fill="#D93232"/>
<path d="M28.8213 15.1777H30.1787C30.6479 15.1777 31.0283 14.7961 31.0283 14.3252C31.0283 13.8542 30.6479 13.4727 30.1787 13.4727H28.8213C28.3521 13.4727 27.9717 13.8542 27.9717 14.3252C27.9717 14.796 28.3521 15.1777 28.8213 15.1777Z" fill="#D93232"/>
<path d="M1.34961 36.7558C1.81882 36.7558 2.19922 36.3742 2.19922 35.9032V9.20669H56.8007V17.7325C56.8007 18.2035 57.1811 18.5851 57.6503 18.5851C58.1195 18.5851 58.4999 18.2035 58.4999 17.7325V2.61266C58.4999 1.25623 57.4003 0.152832 56.0485 0.152832H18.8401C18.3709 0.152832 17.9905 0.534424 17.9905 1.00536C17.9905 1.4763 18.3709 1.85789 18.8401 1.85789H56.0484C56.4632 1.85789 56.8005 2.19651 56.8005 2.61266V7.50163H2.19922V2.61266C2.19922 2.19651 2.53668 1.85789 2.95141 1.85789H14.8754C15.3446 1.85789 15.725 1.4763 15.725 1.00536C15.725 0.534424 15.3446 0.152832 14.8754 0.152832H2.95141C1.59962 0.152832 0.5 1.25623 0.5 2.61266V35.9032C0.5 36.3742 0.880398 36.7558 1.34961 36.7558Z" fill="#D93232"/>
<path d="M31.8267 27.8638C32.2632 27.6909 32.4773 27.1956 32.305 26.7578L29.4139 19.409C29.2859 19.0834 28.9725 18.8695 28.6237 18.8695C28.2749 18.8695 27.9615 19.0834 27.8334 19.409L24.9424 26.7578C24.7701 27.1958 24.9842 27.6909 25.4207 27.8638C25.857 28.0366 26.3506 27.8219 26.5229 27.3838L27.0205 26.1188H30.227L30.7246 27.3838C30.8565 27.719 31.1765 27.9235 31.5151 27.9235C31.6187 27.9235 31.7243 27.9043 31.8267 27.8638ZM27.6913 24.4138L28.6237 22.0436L29.5561 24.4138H27.6913Z" fill="#D93232"/>
<path d="M39.5603 27.9234C39.6455 27.9234 39.7318 27.9104 39.8162 27.8836C40.1697 27.7716 40.4098 27.4425 40.4098 27.0707V19.7219C40.4098 19.251 40.0294 18.8694 39.5602 18.8694C39.091 18.8694 38.7106 19.251 38.7106 19.7219V24.3727L35.1235 19.2459C34.9107 18.9413 34.5254 18.8107 34.1722 18.9228C33.8188 19.0348 33.5786 19.3639 33.5786 19.7357V27.0707C33.5786 27.5416 33.959 27.9232 34.4282 27.9232C34.8974 27.9232 35.2778 27.5416 35.2778 27.0707V22.4336L38.8649 27.5605C39.027 27.7923 39.2887 27.9234 39.5603 27.9234Z" fill="#D93232"/>
<path d="M48.3192 23.3963C48.3192 20.6887 46.7892 18.8694 44.5122 18.8694H42.438C42.2123 18.8694 41.996 18.9594 41.8366 19.1197C41.6772 19.28 41.5879 19.4972 41.5884 19.7236L41.6032 27.0724C41.6037 27.2987 41.6938 27.5156 41.8538 27.6752C42.0131 27.834 42.2284 27.9232 42.4528 27.9232H42.456C42.5186 27.923 43.9973 27.9173 44.5877 27.9069C46.7499 27.8691 48.3192 25.9721 48.3192 23.3963ZM44.5579 26.2022C44.2703 26.2073 43.7516 26.2112 43.3006 26.214L43.2892 20.5746H44.5121C46.0662 20.5746 46.6199 22.0323 46.6199 23.3964C46.62 25.3096 45.5844 26.1841 44.5579 26.2022Z" fill="#D93232"/>
<path d="M15.751 22.8446C16.029 22.4365 16.1919 21.9435 16.1919 21.4129C16.1919 20.0104 15.0548 18.8694 13.6571 18.8694H11.5298C11.0606 18.8694 10.6802 19.251 10.6802 19.7219V27.0707C10.6802 27.2975 10.7702 27.5148 10.9303 27.6749C11.0896 27.8339 11.3051 27.9232 11.5297 27.9232H11.5334C11.5335 27.9232 13.4894 27.9146 14.0285 27.9146C15.584 27.9146 16.8495 26.6448 16.8495 25.084C16.8496 24.1735 16.4186 23.3627 15.751 22.8446ZM13.6572 20.5744C14.1179 20.5744 14.4928 20.9506 14.4928 21.4129C14.4928 21.8752 14.1179 22.2514 13.6572 22.2514C13.5009 22.2514 12.3795 22.2535 12.3795 22.2535V20.5746H13.6572V20.5744ZM14.0287 26.2095C13.7262 26.2095 12.979 26.2122 12.3794 26.2147V23.9603C12.5439 23.9597 14.0287 23.9584 14.0287 23.9584C14.6472 23.9584 15.1504 24.4632 15.1504 25.0839C15.1504 25.7045 14.6472 26.2095 14.0287 26.2095Z" fill="#D93232"/>
<path d="M22.853 27.9232C23.0524 27.9232 23.2526 27.8532 23.414 27.7107C23.7662 27.3997 23.8005 26.8609 23.4905 26.5075L21.5596 24.306C22.7906 23.9976 23.7023 22.9156 23.7023 21.6317C23.7023 20.1085 22.4189 18.8693 20.8416 18.8693H18.8954C18.4265 18.8693 18.0461 19.2506 18.0458 19.7212L18.0435 27.0706C18.0435 27.5415 18.4239 27.9231 18.8931 27.9231C19.3623 27.9231 19.7427 27.5415 19.7427 27.0706V24.8153L22.2149 27.6338C22.3828 27.8255 22.6173 27.9232 22.853 27.9232ZM19.7445 20.5744H20.8416C21.4712 20.5744 22.0031 21.0587 22.0031 21.6318C22.0031 22.205 21.4712 22.6893 20.8416 22.6893C20.5881 22.6893 20.144 22.6912 19.7432 22.693L19.7445 20.5744Z" fill="#D93232"/>
<path d="M54.8381 12.7175C54.8381 11.8675 54.149 11.176 53.3019 11.176H50.0977C49.2506 11.176 48.5615 11.8675 48.5615 12.7175V13.4897C48.1738 13.5687 47.8818 13.9126 47.8818 14.325C47.8818 14.7374 48.1738 15.0814 48.5615 15.1604V15.9326C48.5615 16.7826 49.2506 17.4741 50.0977 17.4741H50.8673C50.946 17.8633 51.2888 18.1561 51.6998 18.1561C52.1107 18.1561 52.4535 17.8633 52.5323 17.4741H53.3018C54.1489 17.4741 54.838 16.7826 54.838 15.9326V12.7175H54.8381ZM53.1389 15.7691H50.2607V14.3263C50.2607 14.326 50.2607 14.3256 50.2607 14.3252C50.2607 14.3247 50.2607 14.3245 50.2607 14.324V12.8812H53.1389V15.7691Z" fill="#D93232"/>
<path d="M8.90199 11.1761H5.69783C4.85071 11.1761 4.16162 11.8676 4.16162 12.7176V15.9328C4.16162 16.7828 4.85071 17.4743 5.69783 17.4743H6.46735C6.54608 17.8635 6.88887 18.1563 7.29985 18.1563C7.71084 18.1563 8.05362 17.8635 8.13236 17.4743H8.90187C9.74899 17.4743 10.4381 16.7828 10.4381 15.9328V15.1606C10.8258 15.0816 11.1178 14.7377 11.1178 14.3253C11.1178 13.9129 10.8258 13.5688 10.4381 13.4899V12.7177C10.4382 11.8676 9.74899 11.1761 8.90199 11.1761ZM8.73898 15.7691H5.86084V12.8812H8.73898V15.7691Z" fill="#D93232"/>
<path d="M50.0976 35.6166H53.3018C54.1489 35.6166 54.838 34.9251 54.838 34.0752V30.8601C54.838 30.0101 54.1489 29.3186 53.3018 29.3186H52.5323C52.4535 28.9294 52.1107 28.6366 51.6998 28.6366C51.2888 28.6366 50.946 28.9294 50.8673 29.3186H50.0977C49.2506 29.3186 48.5615 30.0102 48.5615 30.8601V31.6322C48.1738 31.7112 47.8818 32.0551 47.8818 32.4675C47.8818 32.8799 48.1738 33.2239 48.5615 33.3029V34.075C48.5614 34.9251 49.2505 35.6166 50.0976 35.6166ZM53.1387 31.0236V33.9116H50.2605V32.4687C50.2605 32.4683 50.2605 32.468 50.2605 32.4675C50.2605 32.4671 50.2605 32.4668 50.2605 32.4664V31.0236H53.1387Z" fill="#D93232"/>
<path d="M4.16162 34.075C4.16162 34.9251 4.85071 35.6165 5.69783 35.6165H8.90199C9.7491 35.6165 10.4382 34.925 10.4382 34.075V33.3029C10.826 33.2239 11.1179 32.8799 11.1179 32.4675C11.1179 32.0551 10.826 31.711 10.4382 31.6322V30.8601C10.4382 30.0101 9.7491 29.3186 8.90199 29.3186H8.13247C8.05374 28.9294 7.71095 28.6366 7.29996 28.6366C6.88898 28.6366 6.54619 28.9294 6.46746 29.3186H5.69794C4.85082 29.3186 4.16173 30.0102 4.16173 30.8601V34.075H4.16162ZM5.86084 31.0236H8.73898V33.9116H5.86084V31.0236Z" fill="#D93232"/>
<path d="M58.0623 50.6472L53.7507 48.248H56.0484C57.4002 48.248 58.4998 47.144 58.4998 45.7871V21.7113C58.4998 21.2404 58.1194 20.8588 57.6502 20.8588C57.181 20.8588 56.8006 21.2404 56.8006 21.7113V45.7869C56.8006 46.2038 56.4631 46.5428 56.0484 46.5428H52.1354C52.0517 46.2903 51.9116 46.0525 51.7116 45.8518L50.5789 44.7153C50.2587 44.3939 49.8367 44.2131 49.386 44.1991L49.4247 40.8322C49.4365 39.805 48.8017 38.8696 47.845 38.5045L37.4403 34.5323C36.6773 34.2409 35.8112 34.427 35.234 35.0063C34.6567 35.5857 34.4712 36.4546 34.7616 37.2203L38.2964 46.5428H2.95141C2.53657 46.5428 2.19922 46.2038 2.19922 45.7869V39.8818C2.19922 39.4108 1.81882 39.0292 1.34961 39.0292C0.880398 39.0292 0.5 39.4108 0.5 39.8818V45.7869C0.5 47.1439 1.59962 48.2479 2.95141 48.2479H39.0429C39.4987 48.8633 40.2263 49.246 41.0118 49.2459C41.021 49.2459 41.0306 49.2458 41.0398 49.2457L44.3955 49.2068C44.4093 49.659 44.5895 50.0824 44.9098 50.4039L46.0427 51.5406C46.3868 51.8858 46.8387 52.0585 47.2907 52.0585C47.385 52.0585 47.4791 52.0492 47.5724 52.034L50.8213 57.9129C50.9765 58.1936 51.2663 58.352 51.5652 58.352C51.7045 58.352 51.846 58.3175 51.9764 58.2449C52.3868 58.0165 52.535 57.4977 52.3074 57.0859L48.9916 51.0861L51.2591 48.8108L57.2383 52.1379C57.3688 52.2107 57.5102 52.245 57.6495 52.245C57.9483 52.245 58.2381 52.0866 58.3933 51.8059C58.6208 51.3943 58.4726 50.8755 58.0623 50.6472ZM41.0203 47.541C41.0174 47.541 41.0145 47.541 41.0116 47.541C40.7009 47.541 40.4191 47.3463 40.3084 47.0544L36.789 37.7724L40.5584 41.5548C40.0592 42.5614 40.225 43.8184 41.0599 44.6563C41.5825 45.1805 42.2688 45.4427 42.9553 45.4427C43.6418 45.4427 44.3282 45.1805 44.8507 44.6563C45.357 44.1481 45.6359 43.4728 45.6359 42.7543C45.6359 42.0359 45.3571 41.3604 44.8507 40.8524C44.0158 40.0147 42.7632 39.8482 41.76 40.3492L37.9905 36.5668L47.2409 40.0983C47.5344 40.2104 47.7292 40.4975 47.7256 40.8126L47.676 45.1234L45.3161 47.4914L41.0203 47.541ZM42.9553 41.7699C43.2066 41.7699 43.458 41.866 43.6492 42.0577C43.8346 42.2438 43.9367 42.4911 43.9367 42.7541C43.9367 43.0171 43.8346 43.2644 43.6493 43.4503C43.2667 43.8344 42.6441 43.8343 42.2615 43.4503C41.8789 43.0665 41.8789 42.4417 42.2615 42.0579C42.4528 41.8659 42.7041 41.7699 42.9553 41.7699ZM46.092 49.1516C46.092 49.1243 46.1064 49.1098 46.1111 49.105L49.2841 45.921C49.2889 45.9161 49.3034 45.9015 49.3307 45.9015C49.358 45.9015 49.3725 45.9161 49.3772 45.921L50.51 47.0577C50.5358 47.0835 50.5358 47.1253 50.51 47.151L47.337 50.335C47.3112 50.3608 47.2695 50.3608 47.2438 50.335L46.1111 49.1984C46.1066 49.1936 46.092 49.179 46.092 49.1516Z" fill="#D93232"/>
<path d="M5.46924 5.53233C5.93846 5.53233 6.31885 5.15064 6.31885 4.6798C6.31885 4.20896 5.93846 3.82727 5.46924 3.82727C5.00001 3.82727 4.61963 4.20896 4.61963 4.6798C4.61963 5.15064 5.00001 5.53233 5.46924 5.53233Z" fill="#D93232"/>
<path d="M9.35986 5.53233C9.82909 5.53233 10.2095 5.15064 10.2095 4.6798C10.2095 4.20896 9.82909 3.82727 9.35986 3.82727C8.89064 3.82727 8.51025 4.20896 8.51025 4.6798C8.51025 5.15064 8.89064 5.53233 9.35986 5.53233Z" fill="#D93232"/>
<path d="M13.2505 5.53233C13.7197 5.53233 14.1001 5.15064 14.1001 4.6798C14.1001 4.20896 13.7197 3.82727 13.2505 3.82727C12.7813 3.82727 12.4009 4.20896 12.4009 4.6798C12.4009 5.15064 12.7813 5.53233 13.2505 5.53233Z" fill="#D93232"/>
</g>
<defs>
<clipPath id="clip0_2849_1777">
<rect width="58" height="58.1993" fill="white" transform="translate(0.5 0.152832)"/>
</clipPath>
</defs>
</svg>
