<svg width="58" height="59" viewBox="0 0 58 59" fill="none" xmlns="http://www.w3.org/2000/svg">
<g clip-path="url(#clip0_2913_2072)">
<path fill-rule="evenodd" clip-rule="evenodd" d="M34.1481 40.7286C33.9334 39.9559 33.1189 39.5027 31.8786 39.5756L20.2564 40.2579L9.33429 46.3335H7.41456V56.4537H8.93119L19.8671 51.526L33.0053 52.7804L40.7014 48.7877L41.4839 50.296L33.3428 54.5196L20.1542 53.2603L9.29636 58.1529H5.71533V44.6343H8.89348L19.7694 38.5843L31.7789 37.8793C31.7789 37.8793 31.7788 37.8793 31.7789 37.8793C33.3372 37.7878 35.2494 38.3453 35.7853 40.2736C36.296 42.1116 35.1688 43.8792 33.4604 44.4456L33.4105 44.4621L29.718 45.1968L33.7792 46.6361L46.2725 40.1545C48.3483 39.0776 50.9228 39.8933 51.9997 41.969C52.6462 43.2151 52.1568 44.7589 50.9109 45.4052C50.9109 45.4052 50.9109 45.4052 50.9109 45.4052L42.9923 49.5134L42.2098 48.005L50.1284 43.8969C50.5414 43.6827 50.7056 43.1645 50.4914 42.7516C49.8467 41.5088 48.2978 41.0181 47.0551 41.6629L33.9069 48.4841L26.4601 45.845L22.2207 46.6884L21.8891 45.0218L32.9713 42.817C33.894 42.4873 34.3842 41.5781 34.1481 40.7286Z" fill="#D93232"/>
<path fill-rule="evenodd" clip-rule="evenodd" d="M5.59535 0.152832H16.9925V21.3932H0V12.0474H1.69923V19.694H15.2933V1.85206H6.29919L1.69923 6.45203V10.3481H0V5.74818L5.59535 0.152832ZM26.099 0.152832H37.4962V21.3932H20.5037V5.74818L26.099 0.152832ZM26.8029 1.85206L22.2029 6.45202V19.694H35.797V1.85206H26.8029ZM46.6028 0.152832H58V21.3932H41.0075V5.74818L46.6028 0.152832ZM47.3067 1.85206L42.7067 6.45202V19.694H56.3008V1.85206H47.3067ZM10.1957 5.2505H8.49644V3.55127H10.1957V5.2505ZM13.5941 5.2505H11.8949V3.55127H13.5941V5.2505ZM30.6993 5.2505H29.0001V3.55127H30.6993V5.2505ZM34.0978 5.2505H32.3986V3.55127H34.0978V5.2505ZM51.2031 5.2505H49.5039V3.55127H51.2031V5.2505ZM54.6016 5.2505H52.9024V3.55127H54.6016V5.2505ZM7.64672 10.3484H3.39844V8.64915H7.64672V10.3484ZM13.5941 10.3484H9.34594V8.64915H13.5941V10.3484ZM34.0978 10.3484H23.9021V8.64915H34.0978V10.3484ZM54.6016 10.3484H44.4059V8.64915H54.6016V10.3484ZM13.5941 13.7468H3.39844V12.0476H13.5941V13.7468ZM28.1504 13.7468H23.9021V12.0476H28.1504V13.7468ZM34.0978 13.7468H29.8496V12.0476H34.0978V13.7468ZM54.6016 13.7468H44.4059V12.0476H54.6016V13.7468ZM13.5941 17.1451H3.39844V15.4459H13.5941V17.1451ZM34.0978 17.1451H23.9021V15.4459H34.0978V17.1451ZM48.6541 17.1451H44.4059V15.4459H48.6541V17.1451ZM54.6016 17.1451H50.3533V15.4459H54.6016V17.1451ZM9.34583 26.604V23.0923H7.6466V28.3032H28.1504V33.004L27.1976 32.0513L25.9961 33.2529L29 36.2567L32.0038 33.2529L30.8023 32.0513L29.8496 33.004V28.3032H50.3533V23.0923H48.6541V26.604H29.8496V23.0923H28.1504V26.604H9.34583ZM44.0374 40.3569C43.3926 39.1143 41.8438 38.6235 40.6011 39.2682L35.4489 41.9412L34.6663 40.4329L39.8186 37.7599C41.8944 36.683 44.4688 37.4988 45.5457 39.5744C46.1921 40.8205 45.7028 42.3643 44.457 43.0106L43.6745 41.5022C44.0873 41.2881 44.2516 40.7699 44.0374 40.3569Z" fill="#D93232"/>
</g>
<defs>
<clipPath id="clip0_2913_2072">
<rect width="58" height="58" fill="white" transform="translate(0 0.152832)"/>
</clipPath>
</defs>
</svg>
