<svg width="60" height="60" viewBox="0 0 60 60" fill="none" xmlns="http://www.w3.org/2000/svg">
<path d="M16.875 19.6875C16.875 19.9361 16.9738 20.1746 17.1496 20.3504C17.3254 20.5262 17.5639 20.625 17.8125 20.625H34.6875C34.9361 20.625 35.1746 20.5262 35.3504 20.3504C35.5262 20.1746 35.625 19.9361 35.625 19.6875C35.625 19.4389 35.5262 19.2004 35.3504 19.0246C35.1746 18.8488 34.9361 18.75 34.6875 18.75H17.8125C17.5639 18.75 17.3254 18.8488 17.1496 19.0246C16.9738 19.2004 16.875 19.4389 16.875 19.6875Z" fill="#D93232"/>
<path d="M8.4375 26.25H23.4375C23.6861 26.25 23.9246 26.1512 24.1004 25.9754C24.2762 25.7996 24.375 25.5611 24.375 25.3125C24.375 25.0639 24.2762 24.8254 24.1004 24.6496C23.9246 24.4738 23.6861 24.375 23.4375 24.375H8.4375C8.18886 24.375 7.9504 24.4738 7.77459 24.6496C7.59877 24.8254 7.5 25.0639 7.5 25.3125C7.5 25.5611 7.59877 25.7996 7.77459 25.9754C7.9504 26.1512 8.18886 26.25 8.4375 26.25Z" fill="#D93232"/>
<path d="M29.0625 30H23.4375C23.1889 30 22.9504 30.0988 22.7746 30.2746C22.5988 30.4504 22.5 30.6889 22.5 30.9375C22.5 31.1861 22.5988 31.4246 22.7746 31.6004C22.9504 31.7762 23.1889 31.875 23.4375 31.875H29.0625C29.3111 31.875 29.5496 31.7762 29.7254 31.6004C29.9012 31.4246 30 31.1861 30 30.9375C30 30.6889 29.9012 30.4504 29.7254 30.2746C29.5496 30.0988 29.3111 30 29.0625 30Z" fill="#D93232"/>
<path d="M19.6875 35.625H8.4375C8.18886 35.625 7.9504 35.7238 7.77459 35.8996C7.59877 36.0754 7.5 36.3139 7.5 36.5625C7.5 36.8111 7.59877 37.0496 7.77459 37.2254C7.9504 37.4012 8.18886 37.5 8.4375 37.5H19.6875C19.9361 37.5 20.1746 37.4012 20.3504 37.2254C20.5262 37.0496 20.625 36.8111 20.625 36.5625C20.625 36.3139 20.5262 36.0754 20.3504 35.8996C20.1746 35.7238 19.9361 35.625 19.6875 35.625Z" fill="#D93232"/>
<path d="M8.4375 20.625H14.0625C14.3111 20.625 14.5496 20.5262 14.7254 20.3504C14.9012 20.1746 15 19.9361 15 19.6875C15 19.4389 14.9012 19.2004 14.7254 19.0246C14.5496 18.8488 14.3111 18.75 14.0625 18.75H8.4375C8.18886 18.75 7.9504 18.8488 7.77459 19.0246C7.59877 19.2004 7.5 19.4389 7.5 19.6875C7.5 19.9361 7.59877 20.1746 7.77459 20.3504C7.9504 20.5262 8.18886 20.625 8.4375 20.625Z" fill="#D93232"/>
<path d="M30.9375 24.375H27.1875C26.9389 24.375 26.7004 24.4738 26.5246 24.6496C26.3488 24.8254 26.25 25.0639 26.25 25.3125C26.25 25.5611 26.3488 25.7996 26.5246 25.9754C26.7004 26.1512 26.9389 26.25 27.1875 26.25H30.9375C31.1861 26.25 31.4246 26.1512 31.6004 25.9754C31.7762 25.7996 31.875 25.5611 31.875 25.3125C31.875 25.0639 31.7762 24.8254 31.6004 24.6496C31.4246 24.4738 31.1861 24.375 30.9375 24.375Z" fill="#D93232"/>
<path d="M19.6875 30H8.4375C8.18886 30 7.9504 30.0988 7.77459 30.2746C7.59877 30.4504 7.5 30.6889 7.5 30.9375C7.5 31.1861 7.59877 31.4246 7.77459 31.6004C7.9504 31.7762 8.18886 31.875 8.4375 31.875H19.6875C19.9361 31.875 20.1746 31.7762 20.3504 31.6004C20.5262 31.4246 20.625 31.1861 20.625 30.9375C20.625 30.6889 20.5262 30.4504 20.3504 30.2746C20.1746 30.0988 19.9361 30 19.6875 30Z" fill="#D93232"/>
<path d="M14.0625 41.25H8.4375C8.18886 41.25 7.9504 41.3488 7.77459 41.5246C7.59877 41.7004 7.5 41.9389 7.5 42.1875C7.5 42.4361 7.59877 42.6746 7.77459 42.8504C7.9504 43.0262 8.18886 43.125 8.4375 43.125H14.0625C14.3111 43.125 14.5496 43.0262 14.7254 42.8504C14.9012 42.6746 15 42.4361 15 42.1875C15 41.9389 14.9012 41.7004 14.7254 41.5246C14.5496 41.3488 14.3111 41.25 14.0625 41.25Z" fill="#D93232"/>
<path d="M8.4375 15H19.6875C19.9361 15 20.1746 14.9012 20.3504 14.7254C20.5262 14.5496 20.625 14.3111 20.625 14.0625C20.625 13.8139 20.5262 13.5754 20.3504 13.3996C20.1746 13.2238 19.9361 13.125 19.6875 13.125H8.4375C8.18886 13.125 7.9504 13.2238 7.77459 13.3996C7.59877 13.5754 7.5 13.8139 7.5 14.0625C7.5 14.3111 7.59877 14.5496 7.77459 14.7254C7.9504 14.9012 8.18886 15 8.4375 15Z" fill="#D93232"/>
<path d="M19.6875 41.25H17.8125C17.5639 41.25 17.3254 41.3488 17.1496 41.5246C16.9738 41.7004 16.875 41.9389 16.875 42.1875C16.875 42.4361 16.9738 42.6746 17.1496 42.8504C17.3254 43.0262 17.5639 43.125 17.8125 43.125H19.6875C19.9361 43.125 20.1746 43.0262 20.3504 42.8504C20.5262 42.6746 20.625 42.4361 20.625 42.1875C20.625 41.9389 20.5262 41.7004 20.3504 41.5246C20.1746 41.3488 19.9361 41.25 19.6875 41.25Z" fill="#D93232"/>
<path d="M57.1875 35.625H41.25V30.4938C42.8018 30.2431 44.367 30.0839 45.9375 30.0171V31.875C45.9375 32.0543 45.9889 32.2299 46.0856 32.3808C46.1824 32.5318 46.3204 32.6519 46.4833 32.7268C46.6462 32.8017 46.8272 32.8284 47.0047 32.8035C47.1823 32.7787 47.3491 32.7035 47.4852 32.5868L54.0477 26.9618C54.1504 26.8738 54.2328 26.7646 54.2893 26.6417C54.3458 26.5189 54.3751 26.3852 54.3751 26.25C54.3751 26.1148 54.3458 25.9811 54.2893 25.8583C54.2328 25.7354 54.1504 25.6262 54.0477 25.5382L47.4852 19.9132C47.3491 19.7965 47.1823 19.7213 47.0047 19.6965C46.8272 19.6716 46.6462 19.6983 46.4833 19.7732C46.3204 19.8481 46.1824 19.9682 46.0856 20.1192C45.9889 20.2701 45.9375 20.4457 45.9375 20.625V22.5289C44.3411 22.6339 42.7652 22.9471 41.25 23.4607V14.0625C41.25 13.9394 41.2258 13.8175 41.1786 13.7037C41.1315 13.59 41.0625 13.4866 40.9754 13.3996L31.6004 4.02457C31.5134 3.93752 31.41 3.86846 31.2963 3.82135C31.1825 3.77424 31.0606 3.75 30.9375 3.75H6.5625C5.31973 3.7514 4.12825 4.2457 3.24948 5.12448C2.3707 6.00325 1.8764 7.19473 1.875 8.4375V47.8125C1.8764 49.0553 2.3707 50.2467 3.24948 51.1255C4.12825 52.0043 5.31973 52.4986 6.5625 52.5H24.375V57.1875C24.375 57.4361 24.4738 57.6746 24.6496 57.8504C24.8254 58.0262 25.0639 58.125 25.3125 58.125H57.1875C57.4361 58.125 57.6746 58.0262 57.8504 57.8504C58.0262 57.6746 58.125 57.4361 58.125 57.1875V36.5625C58.125 36.3139 58.0262 36.0754 57.8504 35.8996C57.6746 35.7238 57.4361 35.625 57.1875 35.625ZM54.8235 37.5L41.25 50.2751L27.6765 37.5H54.8235ZM46.875 24.375C47.1236 24.375 47.3621 24.2762 47.5379 24.1004C47.7137 23.9246 47.8125 23.6861 47.8125 23.4375V22.6634L51.997 26.25L47.8125 29.8366V29.0625C47.8125 28.8139 47.7137 28.5754 47.5379 28.3996C47.3621 28.2238 47.1236 28.125 46.875 28.125C42.7354 28.125 38.1775 29.095 35.8952 29.6537C37.1385 26.7002 42.4375 24.375 46.875 24.375ZM31.875 6.95074L38.0493 13.125H34.6875C33.9418 13.1242 33.227 12.8276 32.6997 12.3003C32.1724 11.773 31.8758 11.0582 31.875 10.3125V6.95074ZM24.375 36.5625V50.625H6.5625C5.81684 50.6242 5.10195 50.3276 4.57469 49.8003C4.04742 49.273 3.75084 48.5582 3.75 47.8125V8.4375C3.75084 7.69184 4.04742 6.97695 4.57469 6.44969C5.10195 5.92242 5.81684 5.62584 6.5625 5.625H30V10.3125C30.0014 11.5553 30.4957 12.7467 31.3745 13.6255C32.2533 14.5043 33.4447 14.9986 34.6875 15H39.375V24.2122C38.9705 24.4025 38.5775 24.6055 38.2021 24.8229C35.3311 26.4854 33.75 28.657 33.75 30.9375C33.75 31.0826 33.7837 31.2258 33.8484 31.3557C33.9131 31.4856 34.0072 31.5987 34.123 31.6861C34.2389 31.7735 34.3735 31.8327 34.5162 31.8593C34.6589 31.8858 34.8058 31.8788 34.9453 31.8389C34.9796 31.8292 36.8314 31.3058 39.375 30.82V35.6246H25.3125C25.1894 35.6246 25.0674 35.6489 24.9537 35.696C24.8399 35.7432 24.7365 35.8123 24.6495 35.8994C24.5624 35.9865 24.4934 36.0898 24.4463 36.2036C24.3992 36.3174 24.375 36.4394 24.375 36.5625ZM56.25 56.25H26.25V38.7323L40.6075 52.2452C40.7814 52.4089 41.0112 52.5001 41.25 52.5001C41.4888 52.5001 41.7186 52.4089 41.8925 52.2452L56.25 38.7323V56.25Z" fill="#D93232"/>
</svg>
