<svg width="58" height="59" viewBox="0 0 58 59" fill="none" xmlns="http://www.w3.org/2000/svg">
<g clip-path="url(#clip0_2849_1716)">
<path d="M14.7147 5.75513C12.734 5.75513 11.1226 7.36655 11.1226 9.34728C11.1226 11.328 12.734 12.9395 14.7147 12.9395C16.6954 12.9395 18.307 11.328 18.307 9.34728C18.307 7.36655 16.6954 5.75513 14.7147 5.75513ZM14.7147 11.2403C13.6709 11.2403 12.8218 10.3912 12.8218 9.34728C12.8218 8.3035 13.6709 7.45435 14.7147 7.45435C15.7586 7.45435 16.6078 8.3035 16.6078 9.34728C16.6076 10.3912 15.7585 11.2403 14.7147 11.2403Z" fill="#DA2222"/>
<path d="M18.3068 25.4378V22.1537C18.3068 21.6844 17.9266 21.3041 17.4572 21.3041H8.80322C8.3339 21.3041 7.95361 21.6844 7.95361 22.1537V25.4378C7.95361 25.9071 8.3339 26.2874 8.80322 26.2874H17.4573C17.9266 26.2874 18.3068 25.9071 18.3068 25.4378ZM16.6076 24.5882H9.65283V23.0033H16.6077V24.5882H16.6076Z" fill="#DA2222"/>
<path d="M54.1215 7.2055H48.7285C47.7893 7.2055 46.9701 7.72818 46.5458 8.49769H23.9091V7.95904C23.9091 7.55723 23.6277 7.21048 23.2345 7.12767L21.1642 6.69177C21.1605 6.6827 21.1567 6.67364 21.1529 6.66458L22.3087 4.89241C22.5282 4.55585 22.4819 4.11156 22.1978 3.82756L20.2345 1.86417C19.9504 1.58006 19.5062 1.53362 19.1696 1.75327L17.3973 2.90919C17.3882 2.90545 17.3793 2.90171 17.3702 2.89786L16.9343 0.827422C16.8516 0.434223 16.5047 0.152832 16.1029 0.152832H13.3263C12.9245 0.152832 12.5777 0.434223 12.4949 0.827422L12.059 2.89786C12.0499 2.9016 12.041 2.90534 12.0319 2.90919L10.2598 1.75327C9.92321 1.53373 9.47892 1.58029 9.19481 1.86417L7.23142 3.82745C6.94731 4.11167 6.90109 4.55596 7.12052 4.89241L8.27644 6.66469C8.2727 6.67375 8.26896 6.6827 8.26511 6.69177L6.19467 7.12767C5.80147 7.21037 5.52008 7.55723 5.52008 7.95904V8.49769H5.49753C3.24358 8.49769 1.40967 10.3315 1.40967 12.5856V39.0144C1.40967 41.2684 3.24346 43.1023 5.49753 43.1023H8.71631C9.12707 46.0627 11.7271 48.3103 14.7143 48.3103C15.5952 48.3103 16.4318 48.1197 17.1876 47.7803L15.266 55.2993C14.5029 58.2845 19.2591 59.2986 19.9921 56.4321L23.3989 43.1025H26.1649V55.8657C26.1649 57.1096 27.2083 58.1529 28.4522 58.1529C29.6962 58.1529 30.7394 57.1096 30.7394 55.8657V43.1023H33.5056L36.9124 56.4318C37.6447 59.2977 42.4017 58.2853 41.6384 55.2991L38.5214 43.1023H51.4071C53.6611 43.1023 55.495 41.2685 55.495 39.0144V20.6567C55.495 20.1874 55.1147 19.8071 54.6454 19.8071C54.1761 19.8071 53.7958 20.1874 53.7958 20.6567V39.0144C53.7958 40.3315 52.7243 41.4031 51.4071 41.4031L20.7119 41.4032C20.2974 38.464 17.7665 36.1952 14.7144 36.1952C11.7271 36.1952 9.12718 38.4423 8.71642 41.4031H5.49753C4.18041 41.4031 3.10889 40.3315 3.10889 39.0144V14.3378H6.98673C7.00316 14.5323 7.08517 14.721 7.23142 14.8673L9.19481 16.8306C9.4788 17.1144 9.92287 17.161 10.2597 16.9415L12.0318 15.7855C12.0409 15.7893 12.0499 15.793 12.059 15.7969L12.4949 17.8673C12.5776 18.2605 12.9245 18.5419 13.3263 18.5419H16.1029C16.5047 18.5419 16.8515 18.2605 16.9343 17.8673L17.3702 15.7969C17.3793 15.7931 17.3883 15.7894 17.3974 15.7855L19.1696 16.9415C19.5063 17.1611 19.9506 17.1145 20.2345 16.8306L22.1978 14.8673C22.344 14.721 22.4259 14.5323 22.4424 14.3378H45.9333L38.013 22.2581L33.9448 18.1911C33.3116 17.5551 32.2596 17.5554 31.6254 18.1898L28.9844 20.8307C28.6524 21.1625 28.6525 21.7005 28.9843 22.0322C29.3161 22.3639 29.854 22.3641 30.1857 22.0323L32.7845 19.4338L36.8539 23.5021C37.4875 24.1353 38.5391 24.1372 39.1722 23.502L50.7346 11.9395C50.9776 11.6964 51.0502 11.3311 50.9187 11.0136C50.7873 10.696 50.4773 10.4891 50.1337 10.4891H48.7283C47.7065 10.4891 47.7075 8.90472 48.7283 8.90472H54.1212C54.5457 8.90472 54.8911 9.24954 54.8911 9.67333V15.0663C54.8911 15.4989 54.5308 15.8592 54.0983 15.8592C53.6612 15.8592 53.3055 15.5035 53.3055 15.0663V13.6621C53.3055 13.3185 53.0985 13.0086 52.781 12.8771C52.4635 12.7454 52.0982 12.8182 51.8552 13.0612L38.0136 26.9017L33.9437 22.8329C33.3055 22.1949 32.2661 22.1945 31.6253 22.833L24.6525 29.8069C23.9387 30.5218 22.8086 29.4101 23.5324 28.6858L27.3542 24.8641C27.686 24.5322 27.686 23.9943 27.3542 23.6625C27.0224 23.331 26.4845 23.3307 26.1528 23.6625L22.3309 27.4842C21.3409 28.4744 21.3816 30.1261 22.4039 31.0753C23.3716 31.974 24.9214 31.9429 25.8547 31.0079L32.7846 24.077L36.854 28.1453C37.4849 28.7783 38.5405 28.7806 39.1722 28.1464L51.6743 15.6454C51.9359 16.7413 52.9235 17.5586 54.0984 17.5586C55.4557 17.5586 56.5904 16.4242 56.5904 15.0665V9.67333C56.5906 8.31248 55.4829 7.2055 54.1215 7.2055ZM18.3458 56.011C18.1574 56.7481 16.6982 56.5574 16.9124 55.72L19.3628 46.1321C20.0701 45.2861 20.5506 44.2451 20.7118 43.1024H21.6451L18.3458 56.011ZM29.0403 55.8656C29.0403 56.6222 27.8641 56.6234 27.8641 55.8656V43.1023H29.0403V55.8656ZM39.9922 55.7199C40.2059 56.5553 38.7472 56.7475 38.5589 56.011L35.2597 43.1023H36.7676L39.9922 55.7199ZM13.7307 38.0054C14.052 37.9318 14.383 37.8944 14.7144 37.8944C17.1176 37.8944 19.0726 39.8487 19.0734 42.2512L19.0733 42.2527L19.0734 42.2542C19.0726 44.6566 17.1175 46.6109 14.7144 46.6109C12.3299 46.6109 10.3562 44.6352 10.3562 42.2526C10.3562 40.2098 11.7442 38.4632 13.7307 38.0054ZM3.10889 12.5856C3.10889 11.2684 4.18041 10.1969 5.49753 10.1969H5.52008V10.7357C5.52008 11.1375 5.80147 11.4842 6.19467 11.5671L8.26511 12.003C8.26885 12.012 8.27259 12.021 8.27644 12.03L7.8795 12.6386H3.10889V12.5856ZM19.5204 15.1414L17.9332 14.1061C17.3568 13.7305 15.9437 14.3234 15.8037 14.9886L15.4135 16.8424H14.0157L13.6255 14.9886C13.4839 14.3153 12.0652 13.7349 11.496 14.1061L9.90882 15.1414L8.92033 14.153L9.95561 12.5659C10.3311 11.9896 9.73845 10.5763 9.07326 10.4364L7.2193 10.0461V8.64847L9.07326 8.25822C9.74671 8.11662 10.3266 6.698 9.95561 6.12876L8.92033 4.54157L9.90882 3.55308L11.496 4.58836C12.0723 4.964 13.4856 4.3712 13.6255 3.70601L14.0158 1.85205H15.4136L15.8039 3.70601C15.9455 4.37936 17.3641 4.95947 17.9333 4.58836L19.5205 3.55308L20.5089 4.54157L19.4736 6.12876C19.0979 6.70491 19.691 8.11843 20.3561 8.25822L22.2099 8.64847V10.0463L20.3561 10.4365C19.6828 10.578 19.1024 11.9968 19.4736 12.566L20.5089 14.1531L19.5204 15.1414ZM48.15 12.1211L47.6326 12.6385H21.5497L21.1529 12.03C21.1566 12.021 21.1604 12.0119 21.1642 12.0028L23.2345 11.5669C23.6277 11.4842 23.9091 11.1374 23.9091 10.7356V10.1968H46.288C46.4778 11.134 47.2192 11.901 48.15 12.1211Z" fill="#DA2222"/>
<path d="M49.4727 35.7252H33.3706C32.9013 35.7252 32.521 36.1055 32.521 36.5748C32.521 37.0442 32.9013 37.4244 33.3706 37.4244H49.4727C49.9421 37.4244 50.3224 37.0442 50.3224 36.5748C50.3224 36.1055 49.942 35.7252 49.4727 35.7252Z" fill="#DA2222"/>
<path d="M49.4726 31.9977H39.9263C39.4569 31.9977 39.0767 32.378 39.0767 32.8473C39.0767 33.3166 39.4569 33.6969 39.9263 33.6969H49.4726C49.9419 33.6969 50.3222 33.3166 50.3222 32.8473C50.3222 32.378 49.9418 31.9977 49.4726 31.9977Z" fill="#DA2222"/>
<path d="M8.80322 27.8148C8.3339 27.8148 7.95361 28.1951 7.95361 28.6644C7.95361 29.1338 8.3339 29.514 8.80322 29.514H14.7147C15.184 29.514 15.5643 29.1338 15.5643 28.6644C15.5643 28.1951 15.184 27.8148 14.7147 27.8148H8.80322Z" fill="#DA2222"/>
<path d="M14.7148 44.248C15.1842 44.248 15.5645 43.8677 15.5645 43.3984V41.1069C15.5645 40.6376 15.1842 40.2573 14.7148 40.2573C14.2455 40.2573 13.8652 40.6376 13.8652 41.1069V43.3984C13.8652 43.8676 14.2455 44.248 14.7148 44.248Z" fill="#DA2222"/>
</g>
<defs>
<clipPath id="clip0_2849_1716">
<rect width="58" height="58" fill="white" transform="translate(0 0.152832)"/>
</clipPath>
</defs>
</svg>
