<svg width="60" height="60" viewBox="0 0 60 60" fill="none" xmlns="http://www.w3.org/2000/svg">
<path fill-rule="evenodd" clip-rule="evenodd" d="M5.61514 1.75781C4.07672 1.75781 2.82959 3.00494 2.82959 4.54336V55.4566C2.82959 56.9951 4.07672 58.2422 5.61514 58.2422H45.5737C47.1122 58.2422 48.3593 56.9951 48.3593 55.4566V52.4238C48.3593 51.9384 48.7528 51.5449 49.2382 51.5449C49.7236 51.5449 50.1171 51.9384 50.1171 52.4238V55.4566C50.1171 57.9659 48.083 60 45.5737 60H5.61514C3.1059 60 1.07178 57.9659 1.07178 55.4566V4.54336C1.07178 2.03412 3.1059 0 5.61514 0H35.8366C37.0405 0 38.1971 0.477594 39.0491 1.33086C39.0493 1.33102 39.0495 1.33124 39.0496 1.33139L48.7862 11.068C49.639 11.9207 50.1171 13.0759 50.1171 14.2805V24.7371C50.1171 25.2225 49.7236 25.616 49.2382 25.616C48.7528 25.616 48.3593 25.2225 48.3593 24.7371V14.2805C48.3593 13.542 48.0663 12.834 47.5433 12.3109L37.8056 2.57329C37.2843 2.05108 36.5755 1.75781 35.8366 1.75781H5.61514Z" fill="#111D24"/>
<path fill-rule="evenodd" clip-rule="evenodd" d="M35.8359 8.75159C36.3213 8.75159 36.7148 9.14509 36.7148 9.63049V11.8371C36.7148 12.7012 37.4153 13.4016 38.2805 13.4016H49.2387C49.7241 13.4016 50.1176 13.7951 50.1176 14.2805C50.1176 14.7659 49.7241 15.1594 49.2387 15.1594H38.2805C36.4456 15.1594 34.957 13.6731 34.957 11.8371V9.63049C34.957 9.14509 35.3505 8.75159 35.8359 8.75159Z" fill="#111D24"/>
<path fill-rule="evenodd" clip-rule="evenodd" d="M35.8359 0C36.3213 0 36.7148 0.3935 36.7148 0.878906V5.52891C36.7148 6.01431 36.3213 6.40781 35.8359 6.40781C35.3505 6.40781 34.957 6.01431 34.957 5.52891V0.878906C34.957 0.3935 35.3505 0 35.8359 0Z" fill="#111D24"/>
<path fill-rule="evenodd" clip-rule="evenodd" d="M37.8786 43.7648C37.1803 43.7648 36.5652 44.2229 36.365 44.8903L35.322 48.3652C35.1825 48.8301 34.6924 49.0938 34.2275 48.9543C33.7626 48.8147 33.4989 48.3247 33.6384 47.8598L34.6813 44.3854C34.6813 44.3853 34.6814 44.3853 34.6814 44.3852C35.1047 42.9739 36.4044 42.007 37.8786 42.007H52.6501C54.1244 42.007 55.4241 42.9739 55.8474 44.3852C55.8474 44.3853 55.8474 44.3853 55.8475 44.3854L56.8904 47.8598C57.0299 48.3247 56.7662 48.8147 56.3013 48.9543C55.8363 49.0938 55.3463 48.8301 55.2068 48.3652L54.1638 44.8906L54.1637 44.8903C53.9636 44.2229 53.3485 43.7648 52.6501 43.7648H37.8786Z" fill="#111D24"/>
<path fill-rule="evenodd" clip-rule="evenodd" d="M25.0391 37.607C21.1765 33.7443 14.9126 33.7445 11.0512 37.6058C10.6459 38.0112 10.2831 38.443 9.96378 38.8946C9.68352 39.2909 9.13504 39.385 8.73871 39.1047C8.34239 38.8245 8.2483 38.276 8.52856 37.8796C8.90531 37.3469 9.33237 36.8388 9.80828 36.3629C14.3563 31.8149 21.7331 31.815 26.2821 36.3641C30.8312 40.9131 30.8312 48.2888 26.2821 52.8379C21.7331 57.3868 14.3575 57.3883 9.80828 52.839L9.80815 52.8389C6.82765 49.8572 5.801 45.6633 6.72435 41.8483C6.83853 41.3765 7.31356 41.0866 7.78534 41.2008C8.25713 41.315 8.54702 41.79 8.43283 42.2618C7.6476 45.5061 8.52168 49.0654 11.0512 51.5961C11.0513 51.5961 11.0513 51.5962 11.0514 51.5962M11.0514 51.5962C14.9139 55.4586 21.1764 55.4576 25.0391 51.5949C28.9018 47.7323 28.9018 41.4696 25.0391 37.607" fill="#111D24"/>
<path fill-rule="evenodd" clip-rule="evenodd" d="M25.8176 43.7225C26.303 43.7225 26.6965 44.116 26.6965 44.6014C26.6965 49.3798 22.8229 53.2526 18.0454 53.2526C17.56 53.2526 17.1665 52.8591 17.1665 52.3737C17.1665 51.8883 17.56 51.4948 18.0454 51.4948C21.8522 51.4948 24.9387 48.4089 24.9387 44.6014C24.9387 44.116 25.3322 43.7225 25.8176 43.7225Z" fill="#111D24"/>
<path fill-rule="evenodd" clip-rule="evenodd" d="M9.39307 44.6013C9.39307 39.823 13.2667 35.9493 18.045 35.9493C18.5304 35.9493 18.9239 36.3428 18.9239 36.8282C18.9239 37.3137 18.5304 37.7072 18.045 37.7072C14.2375 37.7072 11.1509 40.7938 11.1509 44.6013C11.1509 45.0867 10.7574 45.4802 10.272 45.4802C9.78657 45.4802 9.39307 45.0867 9.39307 44.6013Z" fill="#111D24"/>
<path fill-rule="evenodd" clip-rule="evenodd" d="M22.801 39.8548C22.3925 39.5921 21.8488 39.7103 21.5863 40.1184L18.2197 45.3525C18.0644 45.594 17.801 45.7444 17.514 45.7553C17.2271 45.7663 16.953 45.6364 16.7797 45.4075L15.3646 43.5376C15.0718 43.1507 14.5205 43.0743 14.1333 43.3673C13.7463 43.6601 13.6699 44.2114 13.9629 44.5985L16.8968 48.4747C16.8968 48.4748 16.8968 48.4747 16.8968 48.4747C17.0634 48.6947 17.323 48.8232 17.5975 48.8232C17.6097 48.8232 17.6219 48.8231 17.634 48.8227C17.9197 48.8109 18.1819 48.6607 18.3368 48.42C18.3369 48.42 18.3368 48.42 18.3368 48.42L23.0646 41.0694C23.3273 40.6612 23.2092 40.1173 22.801 39.8548ZM20.1079 39.1676C20.8956 37.9426 22.5271 37.5887 23.7518 38.3763C24.9767 39.164 25.3309 40.7956 24.5431 42.0203C24.543 42.0203 24.5431 42.0203 24.5431 42.0203L19.8153 49.3709C19.3493 50.0952 18.559 50.5465 17.6983 50.5794L17.6924 50.5796C17.6607 50.5806 17.629 50.581 17.5975 50.581C16.7735 50.581 15.9948 50.1955 15.4953 49.5357L12.5613 45.6593C12.5613 45.6593 12.5613 45.6593 12.5613 45.6593C11.6825 44.4982 11.9113 42.8444 13.0726 41.9656C14.2336 41.087 15.8873 41.3155 16.7662 42.4768C16.7662 42.4768 16.7662 42.4768 16.7662 42.4768L17.422 43.3433L20.1079 39.1676Z" fill="#111D24"/>
<path fill-rule="evenodd" clip-rule="evenodd" d="M31.6001 50.2651C31.6001 48.5875 32.9601 47.2277 34.6375 47.2277H55.8911C57.5687 47.2277 58.9285 48.5877 58.9285 50.2651C58.9285 51.9427 57.5685 53.3025 55.8911 53.3025H34.6375C32.96 53.3025 31.6001 51.9425 31.6001 50.2651ZM34.6375 48.9855C33.9308 48.9855 33.3579 49.5584 33.3579 50.2651C33.3579 50.9717 33.9309 51.5447 34.6375 51.5447H55.8911C56.5977 51.5447 57.1706 50.9718 57.1706 50.2651C57.1706 49.5584 56.5978 48.9855 55.8911 48.9855H34.6375Z" fill="#111D24"/>
<path fill-rule="evenodd" clip-rule="evenodd" d="M38.3059 30.5625C37.6231 26.2819 40.9305 22.4074 45.2652 22.4074C49.599 22.4074 52.9063 26.2821 52.2234 30.5627L51.8168 33.1182C51.7406 33.5975 51.2901 33.9243 50.8107 33.8481C50.3314 33.7718 50.0046 33.3213 50.0809 32.842L50.4875 30.2861L50.4875 30.2857C51 27.0733 48.5182 24.1652 45.2652 24.1652C42.011 24.1652 39.5293 27.0735 40.0418 30.2857L41.909 42.007H48.6203L49.4422 36.845C49.5185 36.3656 49.969 36.0389 50.4484 36.1152C50.9277 36.1915 51.2545 36.642 51.1781 37.1214L50.2383 43.0241C50.1704 43.4508 49.8024 43.7648 49.3703 43.7648H41.159C40.727 43.7648 40.359 43.4508 40.291 43.0242L38.3059 30.5627C38.3059 30.5626 38.3059 30.5625 38.3059 30.5625Z" fill="#111D24"/>
<path fill-rule="evenodd" clip-rule="evenodd" d="M18.6099 14.2805C18.6099 13.7951 19.0034 13.4016 19.4888 13.4016H31.701C32.1864 13.4016 32.5799 13.7951 32.5799 14.2805C32.5799 14.7659 32.1864 15.1594 31.701 15.1594H19.4888C19.0034 15.1594 18.6099 14.7659 18.6099 14.2805Z" fill="#111D24"/>
<path fill-rule="evenodd" clip-rule="evenodd" d="M8.47412 19.5029C8.47412 19.0175 8.86762 18.624 9.35303 18.624H41.8363C42.3218 18.624 42.7153 19.0175 42.7153 19.5029C42.7153 19.9883 42.3218 20.3818 41.8363 20.3818H9.35303C8.86762 20.3818 8.47412 19.9883 8.47412 19.5029Z" fill="#111D24"/>
<path fill-rule="evenodd" clip-rule="evenodd" d="M8.47412 24.7228C8.47412 24.2374 8.86762 23.8439 9.35303 23.8439H34.2256C34.711 23.8439 35.1045 24.2374 35.1045 24.7228C35.1045 25.2082 34.711 25.6017 34.2256 25.6017H9.35303C8.86762 25.6017 8.47412 25.2082 8.47412 24.7228Z" fill="#111D24"/>
</svg>
