<svg width="59" height="59" viewBox="0 0 59 59" fill="none" xmlns="http://www.w3.org/2000/svg">
<g clip-path="url(#clip0_2849_2093)">
<path d="M58.5 24.4754H56.3979L53.2649 26.1239C52.9122 25.9293 52.5454 25.7644 52.1499 25.6653L48.2088 24.6791V24.231C49.9523 23.0142 51.0161 21.0039 51.0161 18.8625V17.2272C51.0161 13.5931 48.1686 10.5519 44.6687 10.4459C44.491 10.4413 44.3161 10.4477 44.1402 10.4564L45.1621 8.06425L40.2083 3.11185L37.2881 5.01251C36.1786 4.38763 35.0051 3.90116 33.7864 3.55995L33.0652 0.152832H25.9358L25.2145 3.56086C23.9958 3.90208 22.8214 4.38855 21.7128 5.01342L18.7926 3.11276L13.843 8.06242L14.8474 10.4564C14.8091 10.4546 14.7725 10.4477 14.7342 10.4468C12.9427 10.3947 11.2553 11.0484 9.9736 12.2927C8.69005 13.536 7.98387 15.2046 7.98387 16.9915V18.8625C7.98387 21.0039 9.0468 23.0133 10.7903 24.2301V24.6791L8.21957 25.3218L3.55996 22.6044H0.5V41.9888L9.70319 45.0561H11.4956L11.7194 44.2722L14.5405 45.9655C14.5866 47.4994 15.8167 48.7336 17.3492 48.7875C17.4031 50.3136 18.6296 51.54 20.1557 51.5939C20.2096 53.12 21.436 54.3465 22.9621 54.4004C23.0178 55.9621 24.2968 57.2174 25.8713 57.2174C26.456 57.2174 27.0293 57.0351 27.5112 56.7103L28.3398 57.4421C28.8591 57.8993 29.5279 58.1528 30.2222 58.1528H30.3953C31.952 58.1528 33.2186 56.8944 33.2383 55.3427C34.7781 55.3231 36.0251 54.0761 36.0447 52.5363C37.5855 52.5166 38.8334 51.2678 38.8512 49.7271C40.4061 49.6905 41.6613 48.4202 41.6613 46.8567C41.6613 46.7626 41.6567 46.6699 41.6471 46.5762L58.5 38.1505V24.4754ZM49.1452 17.2272V18.8625C49.1452 20.5229 48.2481 22.0741 46.8037 22.9105L46.336 23.1809L46.3396 26.1413L51.0134 27.3088L40.7258 32.7235V30.2034C40.7258 28.9459 40.2179 27.7944 39.3861 26.9434L42.5968 26.1413V23.1786L42.13 22.9087C40.6865 22.0741 39.7903 20.5229 39.7903 18.8625V16.9915C39.7903 15.7158 40.2946 14.5227 41.2114 13.6342C42.1272 12.7462 43.3422 12.2675 44.6125 12.3169C47.1116 12.3918 49.1452 14.5948 49.1452 17.2272ZM30.9105 31.9881L26.6757 30.6346C24.7458 30.0161 22.657 29.9239 20.6814 30.3615L20.1452 30.4802V30.2034C20.1452 28.9135 21.0199 27.7935 22.2706 27.4801L27.629 26.1413V23.1786L27.1622 22.9087C25.7188 22.0741 24.8226 20.5229 24.8226 18.8625V16.9915C24.8226 15.7158 25.3269 14.5227 26.2436 13.6342C27.1595 12.7462 28.3823 12.2675 29.6448 12.3169C32.1438 12.3918 34.1774 14.5948 34.1774 17.2272V18.8625C34.1774 20.5229 33.2803 22.0741 31.836 22.9105L31.3682 23.1809L31.3719 26.1413L36.7295 27.4801C37.9801 27.7935 38.8548 28.9135 38.8548 30.2034V33.7088L38.6237 33.8303H38.0505L32.2991 32.1868C31.846 32.0584 31.3792 32.0059 30.9105 31.9881ZM20.3548 14.154C22.1116 10.7501 25.6475 8.57219 29.5 8.57219C33.3159 8.57219 36.8368 10.7209 38.6068 14.0787C38.1615 14.9717 37.9194 15.9606 37.9194 16.9915V18.8625C37.9194 21.0039 38.9823 23.0133 40.7258 24.2301V24.6791L36.9839 25.616L33.241 24.6791V24.231C34.9846 23.0142 36.0484 21.0039 36.0484 18.8625V17.2272C36.0484 13.5931 33.2008 10.5519 29.701 10.4459C27.9104 10.3934 26.2222 11.0475 24.9404 12.2917C23.6578 13.536 22.9516 15.2046 22.9516 16.9915V18.8625C22.9516 21.0039 24.0145 23.0133 25.7581 24.2301V24.6791L22.0161 25.616L18.2733 24.6791V24.231C20.0168 23.0142 21.0806 21.0039 21.0806 18.8625V17.2272C21.0806 16.1264 20.8157 15.0813 20.3548 14.154ZM16.0524 8.49636L19.0411 5.50766L21.6717 7.21966L22.1751 6.91088C23.4363 6.13801 24.7993 5.57206 26.2258 5.23085L26.8014 5.0929L27.4523 2.0238H31.5487L32.1977 5.09199L32.7733 5.22948C34.1998 5.57115 35.5628 6.1371 36.824 6.90997L37.3274 7.21875L39.958 5.50674L42.943 8.49271L41.8819 10.9771C41.1598 11.2877 40.4901 11.7249 39.9073 12.2899C39.8689 12.3274 39.836 12.3676 39.7985 12.4059C37.5946 8.90244 33.6983 6.70122 29.5 6.70122C25.2716 6.70122 21.3643 8.92299 19.1658 12.4621C18.5775 11.8464 17.8777 11.3476 17.1021 10.9991L16.0524 8.49636ZM12.6613 26.1413V23.1786L12.1945 22.9087C10.751 22.0741 9.85484 20.5229 9.85484 18.8625V16.9915C9.85484 15.7158 10.3591 14.5227 11.2759 13.6342C12.1917 12.7462 13.4095 12.2675 14.6771 12.3169C17.1761 12.3918 19.2097 14.5948 19.2097 17.2272V18.8625C19.2097 20.5229 18.3126 22.0741 16.8682 22.9105L16.4005 23.1809L16.4041 26.1413L19.6139 26.9434C18.7821 27.7944 18.2742 28.9459 18.2742 30.2034V30.8964L15.3563 31.545L15.4321 31.2801L15.4677 29.5511L10.5341 26.673L12.6613 26.1413ZM2.37097 24.4754H3.05294L9.78084 28.3996L6.38606 41.9783L2.37097 40.6395V24.4754ZM10.0065 43.1851L8.16521 42.5716L11.4632 29.3812L13.5968 30.6255V30.8927L10.0851 43.1851H10.0065ZM16.4032 45.8783C16.4032 45.6024 16.5147 45.332 16.7102 45.1365L18.3546 43.4921C18.5501 43.2966 18.8205 43.1851 19.0964 43.1851C19.6747 43.1851 20.1452 43.6556 20.1452 44.2339C20.1452 44.5098 20.0337 44.7802 19.8382 44.9757L18.1938 46.6201C17.9983 46.8156 17.7279 46.927 17.452 46.927C16.8737 46.927 16.4032 46.4566 16.4032 45.8783ZM19.2097 48.6847C19.2097 48.4088 19.3211 48.1384 19.5166 47.9429L21.161 46.2985C21.3565 46.103 21.627 45.9915 21.9029 45.9915C22.4811 45.9915 22.9516 46.462 22.9516 47.0403C22.9516 47.3162 22.8402 47.5866 22.6447 47.7821L21.0003 49.4265C20.8048 49.622 20.5343 49.7335 20.2584 49.7335C19.6802 49.7335 19.2097 49.263 19.2097 48.6847ZM22.0161 51.4912C22.0161 51.2153 22.1276 50.9449 22.3231 50.7494L23.9675 49.105C24.163 48.9095 24.4334 48.798 24.7093 48.798C25.2876 48.798 25.7581 49.2685 25.7581 49.8468C25.7581 50.1227 25.6466 50.3931 25.4511 50.5886L23.8067 52.233C23.6112 52.4285 23.3408 52.5399 23.0649 52.5399C22.4866 52.5399 22.0161 52.0695 22.0161 51.4912ZM25.8713 55.3464C25.2931 55.3464 24.8226 54.8759 24.8226 54.2976C24.8226 54.0217 24.934 53.7513 25.1295 53.5558L26.7739 51.9114C26.9694 51.7159 27.2399 51.6045 27.5158 51.6045C28.094 51.6045 28.5645 52.0749 28.5645 52.6532C28.5645 52.9291 28.4531 53.1995 28.2576 53.395L26.6132 55.0394C26.4177 55.2349 26.1472 55.3464 25.8713 55.3464ZM30.3953 56.2819H30.2222C29.9837 56.2819 29.7553 56.1951 29.5777 56.0375L28.8779 55.4204L29.5804 54.7179C29.8312 54.4671 30.0258 54.1688 30.1696 53.8486L31.0202 54.5566C31.2426 54.7421 31.371 55.0152 31.371 55.3062C31.371 55.8443 30.9334 56.2819 30.3953 56.2819ZM38.7845 47.8625H38.6228C38.388 47.8625 38.1587 47.7794 37.9792 47.6286L32.9062 43.4012L31.7076 44.8391L36.634 48.9437C36.8555 49.1292 36.9839 49.4023 36.9839 49.6933C36.9839 50.2314 36.5463 50.669 36.0082 50.669H35.804C35.577 50.669 35.355 50.5886 35.1801 50.4424L30.0988 46.2085L28.9003 47.6465L33.8266 51.7515C34.0491 51.9356 34.1774 52.2088 34.1774 52.4997C34.1774 53.0378 33.7398 53.4754 33.2017 53.4754C32.8427 53.4754 32.4928 53.348 32.2174 53.1191L30.1294 51.3788C29.6695 50.4388 28.7244 49.7833 27.6176 49.744C27.5637 48.2179 26.3373 46.9914 24.8112 46.9375C24.7573 45.4114 23.5308 44.185 22.0047 44.1311C21.9499 42.5694 20.6709 41.3141 19.0964 41.3141C18.3276 41.3141 17.5753 41.6257 17.0318 42.1692L15.3874 43.8136C15.2891 43.9118 15.2078 44.0233 15.1252 44.1338L12.2516 42.4095L14.7707 33.5927L21.0861 32.1886C22.7429 31.8181 24.4896 31.8985 26.1052 32.4156L27.4833 32.8564L22.8114 35.1924C21.7439 35.7273 21.0806 36.8011 21.0806 37.9952V38.1802C21.0806 39.9082 22.4866 41.3141 24.2146 41.3141C24.7824 41.3141 25.341 41.1597 25.8266 40.8669L29.31 38.7781C30.0098 38.3588 30.9489 38.4506 31.5532 38.9941L39.4573 46.1076C39.6688 46.2994 39.7903 46.5717 39.7903 46.8567C39.7903 47.4117 39.3395 47.8625 38.7845 47.8625ZM56.629 36.9939L40.8688 44.8747C40.8176 44.8204 40.7642 44.7687 40.708 44.7185L32.8053 37.6051C32.1128 36.9802 31.2175 36.6367 30.2847 36.6367C29.6028 36.6367 28.9331 36.8222 28.3466 37.1739L24.8619 39.2636C24.6664 39.3815 24.443 39.4432 24.2146 39.4432C23.5176 39.4432 22.9516 38.8772 22.9516 38.1802V37.9952C22.9516 37.5133 23.2193 37.0812 23.6496 36.866L28.8678 34.2569C29.7608 33.8097 30.821 33.7097 31.7834 33.9865L37.6622 35.6656L39.086 35.7012L56.629 26.4679V36.9939Z" fill="#D93232"/>
</g>
<defs>
<clipPath id="clip0_2849_2093">
<rect width="58" height="58" fill="white" transform="translate(0.5 0.152832)"/>
</clipPath>
</defs>
</svg>
