<svg width="60" height="60" viewBox="0 0 60 60" fill="none" xmlns="http://www.w3.org/2000/svg">
<path d="M3.75 47.8125C3.75 47.0666 4.04632 46.3512 4.57376 45.8238C5.10121 45.2963 5.81658 45 6.5625 45H16.0237C16.3939 44.9995 16.7558 45.1091 17.0634 45.315L21.9797 48.5963C22.0961 48.6739 22.2284 48.7245 22.3669 48.7444L28.125 49.5628V50.625H22.7213L17.2941 47.9063C17.1507 47.8346 16.9915 47.8009 16.8314 47.8084C16.6714 47.8158 16.5159 47.8642 16.3798 47.9488C16.2438 48.0334 16.1317 48.1515 16.0543 48.2918C15.9768 48.432 15.9366 48.5898 15.9375 48.75V58.125H17.8125V50.2669L22.0809 52.4063C22.2115 52.4695 22.3549 52.5016 22.5 52.5H29.0625C29.3111 52.5 29.5496 52.4012 29.7254 52.2254C29.9012 52.0496 30 51.8111 30 51.5625V48.75C30 48.5244 29.9187 48.3064 29.771 48.1359C29.6232 47.9654 29.4189 47.8539 29.1956 47.8219L22.8431 46.9144L18.1041 43.755C17.4884 43.3434 16.7643 43.1241 16.0237 43.125H13.7363C14.6355 42.4967 15.311 41.598 15.6644 40.5594C16.0179 39.5209 16.0309 38.3967 15.7015 37.3502C15.3722 36.3038 14.7177 35.3897 13.8331 34.7408C12.9486 34.0918 11.8802 33.7419 10.7831 33.7419C9.68609 33.7419 8.61764 34.0918 7.73311 34.7408C6.84857 35.3897 6.19406 36.3038 5.86472 37.3502C5.53538 38.3967 5.54837 39.5209 5.90181 40.5594C6.25524 41.598 6.93071 42.4967 7.83 43.125H6.5625C5.31975 43.1265 4.12834 43.6208 3.24958 44.4996C2.37083 45.3783 1.87649 46.5698 1.875 47.8125V58.125H3.75V47.8125ZM7.5 38.9063C7.5 38.2573 7.69244 37.6229 8.05299 37.0833C8.41354 36.5437 8.926 36.1231 9.52557 35.8748C10.1251 35.6264 10.7849 35.5614 11.4214 35.6881C12.0579 35.8147 12.6426 36.1272 13.1014 36.5861C13.5603 37.045 13.8728 37.6296 13.9995 38.2661C14.1261 38.9026 14.0611 39.5624 13.8127 40.1619C13.5644 40.7615 13.1438 41.274 12.6042 41.6345C12.0646 41.9951 11.4302 42.1875 10.7812 42.1875C9.91101 42.1875 9.07641 41.8418 8.46106 41.2265C7.8457 40.6111 7.5 39.7765 7.5 38.9063Z" fill="#D93232"/>
<path d="M54.375 43.125H51.705C52.6043 42.4967 53.2798 41.598 53.6332 40.5594C53.9866 39.5209 53.9996 38.3967 53.6703 37.3502C53.3409 36.3038 52.6864 35.3897 51.8019 34.7408C50.9174 34.0918 49.8489 33.7419 48.7519 33.7419C47.6548 33.7419 46.5864 34.0918 45.7019 34.7408C44.8173 35.3897 44.1628 36.3038 43.8335 37.3502C43.5041 38.3967 43.5171 39.5209 43.8706 40.5594C44.224 41.598 44.8995 42.4967 45.7988 43.125H43.125C42.1304 43.125 41.1766 43.5201 40.4734 44.2234C39.7701 44.9266 39.375 45.8804 39.375 46.875V58.125H41.25V46.875C41.25 46.3777 41.4475 45.9008 41.7992 45.5492C42.1508 45.1976 42.6277 45 43.125 45H54.375C54.8723 45 55.3492 45.1976 55.7008 45.5492C56.0525 45.9008 56.25 46.3777 56.25 46.875V58.125H58.125V46.875C58.125 45.8804 57.7299 44.9266 57.0266 44.2234C56.3234 43.5201 55.3696 43.125 54.375 43.125ZM48.75 42.1875C48.101 42.1875 47.4666 41.9951 46.927 41.6345C46.3874 41.274 45.9669 40.7615 45.7185 40.1619C45.4702 39.5624 45.4052 38.9026 45.5318 38.2661C45.6584 37.6296 45.9709 37.045 46.4298 36.5861C46.8887 36.1272 47.4734 35.8147 48.1099 35.6881C48.7464 35.5614 49.4061 35.6264 50.0057 35.8748C50.6053 36.1231 51.1177 36.5437 51.4783 37.0833C51.8388 37.6229 52.0312 38.2573 52.0312 38.9063C52.0312 39.7765 51.6855 40.6111 51.0702 41.2265C50.4548 41.8418 49.6202 42.1875 48.75 42.1875Z" fill="#D93232"/>
<path d="M54.375 47.8125H52.5V58.125H54.375V47.8125Z" fill="#D93232"/>
<path d="M45 47.8125H43.125V58.125H45V47.8125Z" fill="#D93232"/>
<path d="M4.6875 26.25H12.1875V30C12.1874 30.1943 12.2477 30.3839 12.3601 30.5424C12.4725 30.701 12.6313 30.8207 12.8147 30.885C12.9145 30.9195 13.0194 30.9372 13.125 30.9375C13.2656 30.9376 13.4044 30.906 13.5311 30.8451C13.6579 30.7843 13.7693 30.6957 13.8572 30.5859L17.325 26.25H23.4375C24.1834 26.25 24.8988 25.9537 25.4262 25.4262C25.9537 24.8988 26.25 24.1834 26.25 23.4375V20.625H24.375V23.4375C24.375 23.6861 24.2762 23.9246 24.1004 24.1004C23.9246 24.2762 23.6861 24.375 23.4375 24.375H16.875C16.7344 24.3749 16.5956 24.4065 16.4689 24.4674C16.3421 24.5282 16.2307 24.6168 16.1428 24.7266L14.0625 27.3272V25.3125C14.0625 25.0639 13.9637 24.8254 13.7879 24.6496C13.6121 24.4738 13.3736 24.375 13.125 24.375H4.6875C4.43886 24.375 4.2004 24.2762 4.02459 24.1004C3.84877 23.9246 3.75 23.6861 3.75 23.4375V4.6875C3.75 4.43886 3.84877 4.2004 4.02459 4.02459C4.2004 3.84877 4.43886 3.75 4.6875 3.75H23.4375C23.6861 3.75 23.9246 3.84877 24.1004 4.02459C24.2762 4.2004 24.375 4.43886 24.375 4.6875V7.5H26.25V4.6875C26.25 3.94158 25.9537 3.22621 25.4262 2.69876C24.8988 2.17132 24.1834 1.875 23.4375 1.875H4.6875C3.94158 1.875 3.22621 2.17132 2.69876 2.69876C2.17132 3.22621 1.875 3.94158 1.875 4.6875V23.4375C1.875 24.1834 2.17132 24.8988 2.69876 25.4262C3.22621 25.9537 3.94158 26.25 4.6875 26.25Z" fill="#D93232"/>
<path d="M55.3125 1.875H36.5625C35.8166 1.875 35.1012 2.17132 34.5738 2.69876C34.0463 3.22621 33.75 3.94158 33.75 4.6875V7.5H35.625V4.6875C35.625 4.43886 35.7238 4.2004 35.8996 4.02459C36.0754 3.84877 36.3139 3.75 36.5625 3.75H55.3125C55.5611 3.75 55.7996 3.84877 55.9754 4.02459C56.1512 4.2004 56.25 4.43886 56.25 4.6875V23.4375C56.25 23.6861 56.1512 23.9246 55.9754 24.1004C55.7996 24.2762 55.5611 24.375 55.3125 24.375H46.875C46.6264 24.375 46.3879 24.4738 46.2121 24.6496C46.0363 24.8254 45.9375 25.0639 45.9375 25.3125V27.3272L43.8572 24.7266C43.7693 24.6168 43.6579 24.5282 43.5311 24.4674C43.4044 24.4065 43.2656 24.3749 43.125 24.375H36.5625C36.3139 24.375 36.0754 24.2762 35.8996 24.1004C35.7238 23.9246 35.625 23.6861 35.625 23.4375V20.625H33.75V23.4375C33.75 24.1834 34.0463 24.8988 34.5738 25.4262C35.1012 25.9537 35.8166 26.25 36.5625 26.25H42.675L46.1438 30.5859C46.2315 30.6956 46.3428 30.7841 46.4694 30.8449C46.5959 30.9058 46.7346 30.9374 46.875 30.9375C46.9806 30.9372 47.0855 30.9195 47.1853 30.885C47.3687 30.8207 47.5275 30.701 47.6399 30.5424C47.7523 30.3839 47.8126 30.1943 47.8125 30V26.25H55.3125C56.0584 26.25 56.7738 25.9537 57.3012 25.4262C57.8287 24.8988 58.125 24.1834 58.125 23.4375V4.6875C58.125 3.94158 57.8287 3.22621 57.3012 2.69876C56.7738 2.17132 56.0584 1.875 55.3125 1.875Z" fill="#D93232"/>
<path d="M38.4899 15.7556C38.4354 15.9563 38.4225 16.1659 38.4518 16.3718C38.4812 16.5776 38.5522 16.7753 38.6605 16.9528L39.718 18.704C39.9377 19.0553 40.2834 19.3093 40.6843 19.4139C41.0852 19.5185 41.511 19.4658 41.8743 19.2665L42.1171 19.1315C42.482 19.3897 42.8724 19.6096 43.2824 19.7878V19.9959C43.2871 20.4155 43.458 20.816 43.7577 21.1097C44.0573 21.4034 44.4613 21.5662 44.8808 21.5625H46.9939C47.4129 21.565 47.8157 21.4015 48.1144 21.1077C48.4131 20.814 48.5832 20.4139 48.5877 19.995V19.7868C48.9971 19.6098 49.3875 19.3918 49.753 19.1362L49.9968 19.2703C50.3601 19.4695 50.7858 19.5222 51.1867 19.4176C51.5876 19.3131 51.9333 19.0591 52.153 18.7078L53.2096 16.9575C53.3183 16.78 53.3895 16.5821 53.419 16.3761C53.4485 16.1701 53.4356 15.9602 53.3811 15.7593C53.3256 15.5552 53.2296 15.3642 53.0988 15.1979C52.968 15.0315 52.8052 14.8931 52.6199 14.7909L52.4174 14.6793C52.4599 14.2717 52.4599 13.8607 52.4174 13.4531L52.6199 13.3415C52.8052 13.2393 52.968 13.1009 53.0988 12.9346C53.2296 12.7682 53.3256 12.5773 53.3811 12.3731C53.4356 12.1724 53.4485 11.9628 53.4192 11.7569C53.3899 11.5511 53.3189 11.3534 53.2105 11.1759L52.153 9.42466C51.9332 9.07354 51.5875 8.81971 51.1866 8.71514C50.7858 8.61057 50.3601 8.66317 49.9968 8.86216L49.7539 8.99716C49.3891 8.73899 48.9986 8.51908 48.5886 8.34091V8.12997C48.5842 7.71091 48.4139 7.31068 48.115 7.0169C47.8161 6.72312 47.413 6.55972 46.9939 6.56247H44.8808C44.4619 6.55997 44.0591 6.72348 43.7604 7.01723C43.4617 7.31099 43.2915 7.71107 43.2871 8.12997V8.3381C42.8777 8.51518 42.4873 8.73317 42.1218 8.98872L41.878 8.85466C41.5147 8.65567 41.089 8.60307 40.6882 8.70764C40.2873 8.81221 39.9416 9.06604 39.7218 9.41716L38.6652 11.1675C38.5565 11.345 38.4852 11.5428 38.4557 11.7488C38.4262 11.9549 38.4391 12.1647 38.4936 12.3656C38.5492 12.5698 38.6452 12.7607 38.776 12.9271C38.9067 13.0934 39.0696 13.2318 39.2549 13.334L39.4574 13.4456C39.4149 13.8532 39.4149 14.2642 39.4574 14.6718L39.2549 14.7834C39.0685 14.8857 38.9047 15.0245 38.7733 15.1915C38.6418 15.3586 38.5454 15.5504 38.4899 15.7556ZM41.2968 14.0625C41.297 13.8661 41.3111 13.67 41.339 13.4756C41.3797 13.1641 41.3252 12.8476 41.1826 12.5676C41.04 12.2877 40.8161 12.0574 40.5402 11.9072L40.4399 11.8528L41.1899 10.6162L41.3577 10.71C41.6324 10.8585 41.9438 10.9256 42.2554 10.9033C42.5669 10.8811 42.8656 10.7704 43.1165 10.5843C43.4346 10.3514 43.7812 10.1598 44.1477 10.0143C44.4444 9.90124 44.7002 9.70142 44.8818 9.44091C45.0634 9.1804 45.1624 8.87126 45.1658 8.55372V8.43747H46.724V8.55279C46.7272 8.87025 46.8261 9.17936 47.0077 9.43976C47.1894 9.70016 47.4453 9.89975 47.7421 10.0125C48.1084 10.1591 48.4549 10.3513 48.7733 10.5843C49.0244 10.7695 49.323 10.8795 49.6342 10.9015C49.9453 10.9236 50.2564 10.8568 50.5311 10.709L50.698 10.6153L51.448 11.8518L51.3486 11.9062C51.0726 12.0561 50.8484 12.2861 50.7056 12.5659C50.5629 12.8457 50.5082 13.1622 50.5489 13.4737C50.6052 13.8633 50.6052 14.2589 50.5489 14.6484C50.5082 14.9599 50.5627 15.2765 50.7053 15.5564C50.8479 15.8363 51.0718 16.0666 51.3477 16.2168L51.448 16.2712L50.698 17.5078L50.5302 17.414C50.2554 17.2657 49.944 17.1988 49.6326 17.221C49.3211 17.2433 49.0224 17.3538 48.7714 17.5397C48.4533 17.7726 48.1067 17.9642 47.7402 18.1097C47.4435 18.2228 47.1877 18.4226 47.0061 18.6831C46.8245 18.9436 46.7255 19.2528 46.7221 19.5703V19.6875H45.1583V19.5722C45.1551 19.2547 45.0562 18.9456 44.8745 18.6852C44.6929 18.4248 44.437 18.2252 44.1402 18.1125C43.7739 17.9658 43.4274 17.7737 43.109 17.5406C42.8578 17.3555 42.5593 17.2455 42.2481 17.2234C41.9369 17.2013 41.6259 17.2681 41.3511 17.4159L41.1843 17.5097L40.4343 16.2731L40.5336 16.2187C40.8097 16.0689 41.0339 15.8389 41.1767 15.559C41.3194 15.2792 41.374 14.9627 41.3333 14.6512C41.3073 14.4561 41.2951 14.2593 41.2968 14.0625Z" fill="#D93232"/>
<path d="M45.9375 17.3438C46.5865 17.3438 47.2209 17.1513 47.7605 16.7908C48.3001 16.4302 48.7206 15.9178 48.969 15.3182C49.2173 14.7186 49.2823 14.0589 49.1557 13.4224C49.0291 12.7859 48.7166 12.2012 48.2577 11.7423C47.7988 11.2834 47.2141 10.9709 46.5776 10.8443C45.9411 10.7177 45.2814 10.7827 44.6818 11.031C44.0822 11.2794 43.5698 11.6999 43.2092 12.2395C42.8487 12.7791 42.6563 13.4135 42.6562 14.0625C42.6563 14.9327 43.002 15.7673 43.6173 16.3827C44.2327 16.9981 45.0673 17.3438 45.9375 17.3438ZM45.9375 12.6563C46.2156 12.6563 46.4875 12.7387 46.7188 12.8932C46.95 13.0478 47.1303 13.2674 47.2367 13.5244C47.3431 13.7813 47.371 14.0641 47.3167 14.3368C47.2625 14.6096 47.1285 14.8602 46.9319 15.0569C46.7352 15.2535 46.4846 15.3875 46.2118 15.4417C45.9391 15.496 45.6563 15.4681 45.3994 15.3617C45.1424 15.2553 44.9228 15.075 44.7682 14.8438C44.6137 14.6125 44.5312 14.3406 44.5312 14.0625C44.5312 13.6895 44.6794 13.3319 44.9431 13.0681C45.2069 12.8044 45.5645 12.6563 45.9375 12.6563Z" fill="#D93232"/>
<path d="M13.2787 19.6331C12.7486 19.5593 12.2318 19.41 11.7441 19.1897L10.9688 20.8978C11.6196 21.1925 12.3095 21.392 13.0172 21.4903L13.2787 19.6331Z" fill="#D93232"/>
<path d="M14.8125 8.48722L15.059 6.62816C14.3523 6.53497 13.6359 6.54128 12.9309 6.64691L13.2122 8.50128C13.7423 8.42211 14.281 8.41738 14.8125 8.48722Z" fill="#D93232"/>
<path d="M6.87563 16.2131L8.67188 15.6759C8.51886 15.1632 8.43993 14.6313 8.4375 14.0963L6.5625 14.1047C6.56567 14.8188 6.67111 15.5289 6.87563 16.2131Z" fill="#D93232"/>
<path d="M9.17428 19.7512L10.393 18.3291C9.98609 17.9805 9.6315 17.575 9.34022 17.1253L7.76709 18.1472C8.15762 18.746 8.63144 19.2861 9.17428 19.7512Z" fill="#D93232"/>
<path d="M9.30851 11.055L7.72507 10.05C7.34198 10.6548 7.04773 11.3115 6.85132 12L8.65319 12.5156C8.80073 11.9999 9.02141 11.5081 9.30851 11.055Z" fill="#D93232"/>
<path d="M10.8918 7.26373C10.2457 7.56633 9.64598 7.95934 9.1106 8.43092L10.349 9.83717C10.7511 9.48341 11.2015 9.18888 11.6868 8.96248L10.8918 7.26373Z" fill="#D93232"/>
<path d="M20.3765 18.1116L18.7987 17.0981C18.5093 17.549 18.157 17.9563 17.7524 18.3075L18.9824 19.7231C19.5214 19.255 19.9908 18.7123 20.3765 18.1116Z" fill="#D93232"/>
<path d="M17.1937 20.8791L16.4062 19.1766C15.9202 19.4001 15.4046 19.5526 14.8752 19.6294L15.1452 21.4847C15.8537 21.3828 16.5437 21.1788 17.1937 20.8791Z" fill="#D93232"/>
<path d="M21.5626 14.0156V13.9688L19.6876 14.0625C19.688 14.5981 19.6119 15.1309 19.4617 15.645L21.2617 16.1719C21.4649 15.4713 21.5662 14.7451 21.5626 14.0156Z" fill="#D93232"/>
<path d="M18.917 8.34373C18.3727 7.88098 17.7654 7.49807 17.1132 7.20654L16.3501 8.92217C16.8392 9.14027 17.2947 9.4269 17.7029 9.77342L18.917 8.34373Z" fill="#D93232"/>
<path d="M21.2363 11.8697C21.0276 11.1865 20.722 10.5367 20.3288 9.94031L18.7632 10.9716C19.058 11.4179 19.2869 11.9045 19.4429 12.4162L21.2363 11.8697Z" fill="#D93232"/>
<path d="M36.2878 13.3997L32.5378 9.64966L31.2122 10.9753L33.3619 13.125H23.4375V15H33.3619L31.2122 17.1497L32.5378 18.4753L36.2878 14.7253C36.4636 14.5495 36.5623 14.3111 36.5623 14.0625C36.5623 13.8139 36.4636 13.5755 36.2878 13.3997Z" fill="#D93232"/>
</svg>
