<svg width="60" height="60" viewBox="0 0 60 60" fill="none" xmlns="http://www.w3.org/2000/svg">
<g clip-path="url(#clip0_2839_1942)">
<path fill-rule="evenodd" clip-rule="evenodd" d="M5.5323 29.915C3.44767 29.915 1.75781 31.6049 1.75781 33.6895V36.9374C1.75781 37.5248 2.23396 38.001 2.82141 38.001H15.3427C15.9301 38.001 16.4062 37.5248 16.4062 36.9374V33.6895C16.4062 31.6049 14.7164 29.915 12.6318 29.915H11.5234C11.038 29.915 10.6445 29.5215 10.6445 29.0361C10.6445 28.5507 11.038 28.1572 11.5234 28.1572H12.6318C15.6872 28.1572 18.1641 30.6341 18.1641 33.6895V36.9374C18.1641 38.4956 16.9009 39.7588 15.3427 39.7588H2.82141C1.26315 39.7588 0 38.4956 0 36.9374V33.6895C0 30.6341 2.47686 28.1572 5.5323 28.1572H6.67969C7.16509 28.1572 7.55859 28.5507 7.55859 29.0361C7.55859 29.5215 7.16509 29.915 6.67969 29.915H5.5323Z" fill="#D93232"/>
<path fill-rule="evenodd" clip-rule="evenodd" d="M6.615 35.4715C6.32709 35.4715 6.09375 35.7048 6.09375 35.9927V38.6521C6.09375 39.1375 5.70025 39.531 5.21484 39.531C4.72944 39.531 4.33594 39.1375 4.33594 38.6521V35.9927C4.33594 34.734 5.35627 33.7137 6.615 33.7137H11.5491C12.8078 33.7137 13.8281 34.734 13.8281 35.9927V38.5869C13.8281 39.0723 13.4346 39.4658 12.9492 39.4658C12.4638 39.4658 12.0703 39.0723 12.0703 38.5869V35.9927C12.0703 35.7048 11.837 35.4715 11.5491 35.4715H6.615Z" fill="#D93232"/>
<path fill-rule="evenodd" clip-rule="evenodd" d="M32.8711 1.75781C32.3209 1.75781 31.875 2.20373 31.875 2.75391V13.0664C31.875 13.6166 32.3209 14.0625 32.8711 14.0625H57.2461C57.7963 14.0625 58.2422 13.6166 58.2422 13.0664V2.75391C58.2422 2.20373 57.7963 1.75781 57.2461 1.75781H53.3593C52.8739 1.75781 52.4804 1.36431 52.4804 0.878906C52.4804 0.3935 52.8739 0 53.3593 0H57.2461C58.7671 0 60 1.23291 60 2.75391V13.0664C60 14.5874 58.7671 15.8203 57.2461 15.8203H32.8711C31.3501 15.8203 30.1172 14.5874 30.1172 13.0664V2.75391C30.1172 1.23291 31.3501 0 32.8711 0H49.1016C49.587 0 49.9805 0.3935 49.9805 0.878906C49.9805 1.36431 49.587 1.75781 49.1016 1.75781H32.8711Z" fill="#D93232"/>
<path fill-rule="evenodd" clip-rule="evenodd" d="M49.4531 5.27344V10.5469H54.7266V5.27344H49.4531ZM47.6953 4.86328C47.6953 4.11901 48.2987 3.51562 49.043 3.51562H55.1367C55.881 3.51562 56.4844 4.11901 56.4844 4.86328V10.957C56.4844 11.7013 55.881 12.3047 55.1367 12.3047H49.043C48.2987 12.3047 47.6953 11.7013 47.6953 10.957V4.86328Z" fill="#D93232"/>
<path fill-rule="evenodd" clip-rule="evenodd" d="M24.8992 7.85156C24.8992 7.36616 25.2927 6.97266 25.7781 6.97266H30.6641C31.1495 6.97266 31.543 7.36616 31.543 7.85156C31.543 8.33697 31.1495 8.73047 30.6641 8.73047H26.657V51.2695H30.6641C31.1495 51.2695 31.543 51.663 31.543 52.1484C31.543 52.6338 31.1495 53.0273 30.6641 53.0273H25.7781C25.2927 53.0273 24.8992 52.6338 24.8992 52.1484V7.85156Z" fill="#D93232"/>
<path fill-rule="evenodd" clip-rule="evenodd" d="M20.3452 30C20.3452 29.5146 20.7387 29.1211 21.2241 29.1211H30.664C31.1494 29.1211 31.5429 29.5146 31.5429 30C31.5429 30.4854 31.1494 30.8789 30.664 30.8789H21.2241C20.7387 30.8789 20.3452 30.4854 20.3452 30Z" fill="#D93232"/>
<path fill-rule="evenodd" clip-rule="evenodd" d="M35.6345 4.39453C35.6345 3.90912 36.028 3.51562 36.5134 3.51562H41.9041C42.3895 3.51562 42.783 3.90912 42.783 4.39453C42.783 4.87994 42.3895 5.27344 41.9041 5.27344H36.5134C36.028 5.27344 35.6345 4.87994 35.6345 4.39453Z" fill="#D93232"/>
<path fill-rule="evenodd" clip-rule="evenodd" d="M35.6345 7.91016C35.6345 7.42475 36.028 7.03125 36.5134 7.03125H43.8282C44.3136 7.03125 44.7071 7.42475 44.7071 7.91016C44.7071 8.39556 44.3136 8.78906 43.8282 8.78906H36.5134C36.028 8.78906 35.6345 8.39556 35.6345 7.91016Z" fill="#D93232"/>
<path fill-rule="evenodd" clip-rule="evenodd" d="M35.6345 11.4258C35.6345 10.9404 36.028 10.5469 36.5134 10.5469H43.8282C44.3136 10.5469 44.7071 10.9404 44.7071 11.4258C44.7071 11.9112 44.3136 12.3047 43.8282 12.3047H36.5134C36.028 12.3047 35.6345 11.9112 35.6345 11.4258Z" fill="#D93232"/>
<path fill-rule="evenodd" clip-rule="evenodd" d="M32.8711 23.8477C32.3209 23.8477 31.875 24.2936 31.875 24.8438V35.1562C31.875 35.7064 32.3209 36.1523 32.8711 36.1523H57.2461C57.7963 36.1523 58.2422 35.7064 58.2422 35.1562V24.8438C58.2422 24.2936 57.7963 23.8477 57.2461 23.8477H32.8711ZM30.1172 24.8438C30.1172 23.3228 31.3501 22.0898 32.8711 22.0898H57.2461C58.7671 22.0898 60 23.3228 60 24.8438V35.1562C60 36.6772 58.7671 37.9102 57.2461 37.9102H32.8711C31.3501 37.9102 30.1172 36.6772 30.1172 35.1562V24.8438Z" fill="#D93232"/>
<path fill-rule="evenodd" clip-rule="evenodd" d="M49.4531 27.3633V32.6367H54.7266V27.3633H49.4531ZM47.6953 26.9531C47.6953 26.2089 48.2987 25.6055 49.043 25.6055H55.1367C55.881 25.6055 56.4844 26.2089 56.4844 26.9531V33.0469C56.4844 33.7911 55.881 34.3945 55.1367 34.3945H49.043C48.2987 34.3945 47.6953 33.7911 47.6953 33.0469V26.9531Z" fill="#D93232"/>
<path fill-rule="evenodd" clip-rule="evenodd" d="M35.6345 26.4844C35.6345 25.999 36.028 25.6055 36.5134 25.6055H41.9041C42.3895 25.6055 42.783 25.999 42.783 26.4844C42.783 26.9698 42.3895 27.3633 41.9041 27.3633H36.5134C36.028 27.3633 35.6345 26.9698 35.6345 26.4844Z" fill="#D93232"/>
<path fill-rule="evenodd" clip-rule="evenodd" d="M35.6345 30C35.6345 29.5146 36.028 29.1211 36.5134 29.1211H43.8282C44.3136 29.1211 44.7071 29.5146 44.7071 30C44.7071 30.4854 44.3136 30.8789 43.8282 30.8789H36.5134C36.028 30.8789 35.6345 30.4854 35.6345 30Z" fill="#D93232"/>
<path fill-rule="evenodd" clip-rule="evenodd" d="M35.6345 33.5156C35.6345 33.0302 36.028 32.6367 36.5134 32.6367H43.8282C44.3136 32.6367 44.7071 33.0302 44.7071 33.5156C44.7071 34.001 44.3136 34.3945 43.8282 34.3945H36.5134C36.028 34.3945 35.6345 34.001 35.6345 33.5156Z" fill="#D93232"/>
<path fill-rule="evenodd" clip-rule="evenodd" d="M32.8711 45.9375C32.3209 45.9375 31.875 46.3834 31.875 46.9336V57.2461C31.875 57.7963 32.3209 58.2422 32.8711 58.2422H36.9336C37.419 58.2422 37.8125 58.6357 37.8125 59.1211C37.8125 59.6065 37.419 60 36.9336 60H32.8711C31.3501 60 30.1172 58.7671 30.1172 57.2461V46.9336C30.1172 45.4126 31.3501 44.1797 32.8711 44.1797H57.2461C58.7671 44.1797 60 45.4126 60 46.9336V57.2461C60 58.7671 58.7671 60 57.2461 60H41.0372C40.5518 60 40.1583 59.6065 40.1583 59.1211C40.1583 58.6357 40.5518 58.2422 41.0372 58.2422H57.2461C57.7963 58.2422 58.2422 57.7963 58.2422 57.2461V46.9336C58.2422 46.3834 57.7963 45.9375 57.2461 45.9375H32.8711Z" fill="#D93232"/>
<path fill-rule="evenodd" clip-rule="evenodd" d="M49.4531 49.4531V54.7266H54.7266V49.4531H49.4531ZM47.6953 49.043C47.6953 48.2987 48.2987 47.6953 49.043 47.6953H55.1367C55.881 47.6953 56.4844 48.2987 56.4844 49.043V55.1367C56.4844 55.881 55.881 56.4844 55.1367 56.4844H49.043C48.2987 56.4844 47.6953 55.881 47.6953 55.1367V49.043Z" fill="#D93232"/>
<path fill-rule="evenodd" clip-rule="evenodd" d="M35.6345 48.5742C35.6345 48.0888 36.028 47.6953 36.5134 47.6953H41.9041C42.3895 47.6953 42.783 48.0888 42.783 48.5742C42.783 49.0596 42.3895 49.4531 41.9041 49.4531H36.5134C36.028 49.4531 35.6345 49.0596 35.6345 48.5742Z" fill="#D93232"/>
<path fill-rule="evenodd" clip-rule="evenodd" d="M35.6345 52.0898C35.6345 51.6044 36.028 51.2109 36.5134 51.2109H43.8282C44.3136 51.2109 44.7071 51.6044 44.7071 52.0898C44.7071 52.5753 44.3136 52.9688 43.8282 52.9688H36.5134C36.028 52.9688 35.6345 52.5753 35.6345 52.0898Z" fill="#D93232"/>
<path fill-rule="evenodd" clip-rule="evenodd" d="M35.6345 55.6055C35.6345 55.1201 36.028 54.7266 36.5134 54.7266H43.8282C44.3136 54.7266 44.7071 55.1201 44.7071 55.6055C44.7071 56.0909 44.3136 56.4844 43.8282 56.4844H36.5134C36.028 56.4844 35.6345 56.0909 35.6345 55.6055Z" fill="#D93232"/>
<path fill-rule="evenodd" clip-rule="evenodd" d="M9.082 20.0714C7.39721 20.0714 6.03149 21.4371 6.03149 23.1219V25.8172C6.03149 27.4979 7.39393 28.8604 9.07462 28.8604C10.7634 28.8604 12.1325 27.4913 12.1325 25.8025V23.1219C12.1325 21.4371 10.7668 20.0714 9.082 20.0714ZM4.27368 23.1219C4.27368 20.4663 6.4264 18.3136 9.082 18.3136C11.7376 18.3136 13.8903 20.4663 13.8903 23.1219V25.8025C13.8903 28.4622 11.7342 30.6182 9.07462 30.6182C6.42312 30.6182 4.27368 28.4687 4.27368 25.8172V23.1219Z" fill="#D93232"/>
<path fill-rule="evenodd" clip-rule="evenodd" d="M4.47266 23.5138C4.47266 23.0284 4.86616 22.6349 5.35156 22.6349H12.8417C13.3271 22.6349 13.7206 23.0284 13.7206 23.5138C13.7206 23.9992 13.3271 24.3927 12.8417 24.3927H5.35156C4.86616 24.3927 4.47266 23.9992 4.47266 23.5138Z" fill="#D93232"/>
</g>
<defs>
<clipPath id="clip0_2839_1942">
<rect width="60" height="60" fill="white"/>
</clipPath>
</defs>
</svg>
