<svg width="60" height="60" viewBox="0 0 60 60" fill="none" xmlns="http://www.w3.org/2000/svg">
<g clip-path="url(#clip0_2839_1943)">
<path d="M59.0625 11.25C59.0625 5.56406 54.4359 0.9375 48.75 0.9375C44.0841 0.9375 40.1372 4.05469 38.8687 8.31469C37.6369 7.81031 36.3713 7.39969 35.0719 7.11281L25.3125 2.23312V5.12906C23.6644 5.44125 22.0322 5.93719 20.4375 6.59063C18.7322 3.24188 15.2587 0.9375 11.25 0.9375C5.56406 0.9375 0.9375 5.56406 0.9375 11.25C0.9375 15.9159 4.05469 19.8628 8.31375 21.1313C7.81031 22.3613 7.40156 23.6259 7.11469 24.9244L2.23312 34.6875H5.12812C6.0675 39.7116 8.46844 44.2659 12.1012 47.8988L12.7641 48.5616L14.1084 47.2172C16.305 49.2422 18.8925 50.8462 21.6694 51.9037C22.29 55.95 25.7831 59.0625 30 59.0625C34.2188 59.0625 37.7138 55.9472 38.3306 51.8981C39.8138 51.3328 41.2397 50.6306 42.5794 49.7766L52.9481 46.3209L50.9016 44.2734C53.79 40.0566 55.3125 35.1384 55.3125 30V29.0625H53.4122C53.3053 26.3147 52.7325 23.6541 51.6966 21.1284C55.9509 19.8563 59.0625 15.9122 59.0625 11.25ZM48.75 2.8125C53.4019 2.8125 57.1875 6.59812 57.1875 11.25C57.1875 15.9019 53.4019 19.6875 48.75 19.6875C44.0981 19.6875 40.3125 15.9019 40.3125 11.25C40.3125 6.59812 44.0981 2.8125 48.75 2.8125ZM26.3934 6.84562L27.1875 6.72188V5.26688L31.6537 7.5L27.1875 9.73312V8.59406L26.0803 8.7975C24.5091 9.08625 22.9772 9.55406 21.5072 10.1841C21.4416 9.5475 21.3122 8.93062 21.1359 8.33344C22.8544 7.62844 24.6178 7.12031 26.3934 6.84562ZM2.8125 11.25C2.8125 6.59812 6.59812 2.8125 11.25 2.8125C15.9019 2.8125 19.6875 6.59812 19.6875 11.25C19.6875 15.9019 15.9019 19.6875 11.25 19.6875C6.59812 19.6875 2.8125 15.9019 2.8125 11.25ZM6.84562 33.6066L6.72188 32.8125H5.26688L7.5 28.3463L9.73312 32.8125H8.59406L8.7975 33.9197C9.53344 37.9191 11.3616 41.5819 14.1047 44.5697L12.7772 45.8972C9.60844 42.4697 7.56281 38.2397 6.84562 33.6066ZM30 57.1875C26.3813 57.1875 23.4375 54.2428 23.4375 50.625C23.4375 47.0072 26.3813 44.0625 30 44.0625C33.6188 44.0625 36.5625 47.0072 36.5625 50.625C36.5625 54.2428 33.6188 57.1875 30 57.1875ZM48.9234 43.8225L48.4491 44.4713L49.4784 45.4997L44.7412 47.0794L46.3209 42.3422L47.1263 43.1466L47.7647 42.2203C50.0719 38.8734 51.3694 34.9894 51.5428 30.9375H53.4197C53.2369 35.6025 51.6919 40.0397 48.9234 43.8225ZM51.5372 29.0625H49.6875V30C49.6875 33.6281 48.705 37.1334 46.8356 40.2066L45.4997 38.8706L42.6356 47.4637C41.3128 48.4219 39.8934 49.2234 38.3981 49.8563C38.0081 45.5625 34.3931 42.1875 30 42.1875C25.605 42.1875 21.9891 45.5662 21.6009 49.8619C19.3472 48.9056 17.2481 47.5528 15.4341 45.8916L16.7409 44.5847L16.0781 43.9219C13.5122 41.3559 11.7281 38.1825 10.8769 34.6875H12.7659L8.71312 26.5828C8.99156 24.8334 9.49031 23.1319 10.1878 21.5072C10.5384 21.5438 10.8919 21.5625 11.25 21.5625C16.6003 21.5625 21.0094 17.4656 21.5119 12.2447C22.7334 11.6606 24.0037 11.1984 25.3125 10.8778V12.7669L33.4163 8.715C35.1656 8.99344 36.8662 9.49125 38.4919 10.1888C38.4562 10.5375 38.4375 10.8919 38.4375 11.25C38.4375 16.9359 43.0641 21.5625 48.75 21.5625C49.11 21.5625 49.4663 21.5428 49.8178 21.5072C50.8481 23.9053 51.4266 26.4394 51.5372 29.0625Z" fill="#D93232"/>
<path d="M37.7897 26.7731L39.1388 24.555L35.445 20.8613L33.2269 22.2103L32.6119 19.6875H27.3891L26.775 22.2103L24.5559 20.8613L20.8622 24.555L22.2112 26.7731L19.6875 27.3881V32.6119L22.2103 33.2259C22.2103 33.2259 22.2103 33.2269 22.2112 33.2269L20.8613 35.445L24.555 39.1378L26.7731 37.7887L27.3881 40.3125H32.6109L33.225 37.7897H33.2259L35.4441 39.1388L39.1378 35.4459L37.7878 33.2278L37.7887 33.2269L40.3125 32.6119V27.3881L37.7897 26.7731ZM38.4375 31.1381L36.3675 31.6425L36.2016 32.1291C36.1134 32.3869 36.0075 32.6372 35.8894 32.88L35.6634 33.3412L36.7716 35.1619L35.1619 36.7716L33.3403 35.6625L32.8791 35.8894C32.6362 36.0084 32.3859 36.1134 32.1272 36.2025L31.6425 36.3694L31.1381 38.4375H28.8609L28.3575 36.3694L27.8728 36.2025C27.6141 36.1134 27.3638 36.0084 27.1209 35.8894L26.6597 35.6625L24.8381 36.7716L23.2284 35.1619L24.3366 33.3412L24.1106 32.88C23.9916 32.6372 23.8866 32.3878 23.7984 32.1291L23.6325 31.6425L21.5625 31.1381V28.8619L23.6325 28.3575L23.7984 27.8719C23.8866 27.6141 23.9916 27.3638 24.1106 27.1219L24.3375 26.6606L23.2294 24.8391L24.8391 23.2294L26.6606 24.3375L27.1219 24.1106C27.3638 23.9916 27.6141 23.8866 27.8719 23.7984L28.3575 23.6325L28.8619 21.5625H31.1391L31.6434 23.6325L32.1291 23.7984C32.3869 23.8866 32.6372 23.9916 32.8791 24.1106L33.3403 24.3375L35.1619 23.2294L36.7716 24.8391L35.6634 26.6606L35.8903 27.1219C36.0094 27.3638 36.1144 27.6141 36.2025 27.8719L36.3684 28.3575L38.4375 28.8619V31.1381Z" fill="#D93232"/>
<path d="M30 25.3125C27.4153 25.3125 25.3125 27.4153 25.3125 30C25.3125 32.5847 27.4153 34.6875 30 34.6875C32.5847 34.6875 34.6875 32.5847 34.6875 30C34.6875 27.4153 32.5847 25.3125 30 25.3125ZM30 32.8125C28.4494 32.8125 27.1875 31.5506 27.1875 30C27.1875 28.4494 28.4494 27.1875 30 27.1875C31.5506 27.1875 32.8125 28.4494 32.8125 30C32.8125 31.5506 31.5506 32.8125 30 32.8125Z" fill="#D93232"/>
<path d="M49.6875 10.3125H51.5625V12.1875H49.6875V10.3125Z" fill="#D93232"/>
<path d="M53.4375 10.3125H55.3125V12.1875H53.4375V10.3125Z" fill="#D93232"/>
<path d="M45.9375 10.3125H47.8125V12.1875H45.9375V10.3125Z" fill="#D93232"/>
<path d="M42.1875 10.3125H44.0625V12.1875H42.1875V10.3125Z" fill="#D93232"/>
<path d="M16.875 14.0625H15V9.375H13.125V14.0625H11.25V7.5H9.375V14.0625H7.5V5.625H5.625V15.9375H16.875V14.0625Z" fill="#D93232"/>
<path d="M31.2122 48.4753L33.3618 50.625L31.2122 52.7747L32.5378 54.1003L36.0131 50.625L32.5378 47.1497L31.2122 48.4753Z" fill="#D93232"/>
<path d="M27.4621 47.1497L23.9868 50.625L27.4621 54.1003L28.7878 52.7747L26.6381 50.625L28.7878 48.4753L27.4621 47.1497Z" fill="#D93232"/>
</g>
<defs>
<clipPath id="clip0_2839_1943">
<rect width="60" height="60" fill="white"/>
</clipPath>
</defs>
</svg>
