<svg width="172" height="172" viewBox="0 0 172 172" fill="none" xmlns="http://www.w3.org/2000/svg">
<rect width="172" height="172" fill="white"/>
<g clip-path="url(#clip0)">
<path d="M21.4918 105.017C21.1181 105.017 20.8171 104.982 20.588 104.913C20.3589 104.843 20.1658 104.761 20.008 104.667L20.1185 104.342C20.2974 104.436 20.4947 104.515 20.7104 104.579C20.9261 104.643 21.1867 104.675 21.4918 104.675C21.6864 104.675 21.868 104.651 22.0364 104.604C22.2049 104.557 22.3481 104.485 22.4667 104.387C22.5849 104.29 22.6785 104.166 22.7469 104.016C22.8152 103.866 22.8497 103.686 22.8497 103.475C22.8497 103.258 22.8125 103.083 22.7391 102.949C22.6654 102.816 22.5656 102.706 22.4393 102.62C22.3131 102.534 22.1681 102.463 22.0052 102.408C21.8421 102.352 21.6737 102.294 21.5001 102.232C21.3213 102.171 21.1421 102.101 20.9636 102.02C20.7847 101.939 20.6242 101.839 20.4822 101.72C20.3399 101.6 20.2243 101.453 20.1349 101.278C20.0446 101.103 20 100.893 20 100.649C20 100.46 20.0288 100.281 20.0868 100.111C20.1444 99.9415 20.238 99.7941 20.3669 99.6691C20.4959 99.544 20.6614 99.4455 20.864 99.3731C21.0667 99.3008 21.31 99.2648 21.594 99.2648C21.8674 99.2648 22.1161 99.2981 22.3398 99.3648C22.5632 99.4315 22.7513 99.5065 22.904 99.5899L22.8015 99.8816C22.6384 99.7983 22.4488 99.7316 22.2331 99.6816C22.0174 99.6316 21.8071 99.6066 21.6018 99.6066C21.1599 99.6066 20.8414 99.7039 20.6468 99.8983C20.4522 100.093 20.3548 100.351 20.3548 100.674C20.3548 100.857 20.3851 101.011 20.4457 101.136C20.506 101.261 20.5916 101.37 20.7021 101.461C20.8126 101.553 20.9439 101.634 21.0967 101.703C21.2491 101.772 21.4202 101.841 21.6098 101.907C21.8148 101.98 22.0136 102.055 22.2055 102.132C22.3974 102.21 22.5671 102.306 22.7145 102.42C22.8618 102.534 22.9801 102.674 23.0695 102.841C23.159 103.008 23.2038 103.219 23.2038 103.475C23.2038 103.725 23.1628 103.946 23.0814 104.137C23 104.329 22.8841 104.49 22.7344 104.621C22.5843 104.751 22.404 104.85 22.1936 104.917C21.9836 104.983 21.7494 105.017 21.4918 105.017Z" fill="#111D24"/>
<path d="M25.9424 105.017C25.6265 105.017 25.3571 104.939 25.1333 104.783C24.9096 104.628 24.7295 104.419 24.5926 104.158V106.542H24.2295V100.924H24.4978L24.5926 101.716C24.6556 101.616 24.7334 101.514 24.8255 101.411C24.9176 101.309 25.024 101.217 25.1452 101.136C25.2661 101.056 25.4004 100.989 25.5478 100.936C25.6949 100.883 25.8556 100.857 26.0291 100.857C26.2395 100.857 26.4356 100.9 26.6171 100.986C26.7987 101.072 26.9564 101.202 27.0907 101.374C27.225 101.546 27.3302 101.761 27.4066 102.02C27.4826 102.278 27.521 102.58 27.521 102.924C27.521 103.297 27.48 103.615 27.3985 103.879C27.3171 104.143 27.2054 104.36 27.0631 104.529C26.9211 104.699 26.7538 104.822 26.5619 104.9C26.3699 104.978 26.1634 105.017 25.9424 105.017ZM25.9186 104.675C26.0713 104.675 26.2226 104.644 26.3723 104.583C26.5223 104.522 26.6552 104.422 26.771 104.283C26.8866 104.144 26.9802 103.964 27.0512 103.741C27.1222 103.519 27.1576 103.247 27.1576 102.924C27.1576 102.619 27.1273 102.357 27.067 102.141C27.0064 101.924 26.9246 101.746 26.8221 101.607C26.7196 101.468 26.5972 101.365 26.4552 101.299C26.3129 101.232 26.1631 101.199 26.0054 101.199C25.721 101.199 25.4596 101.279 25.2201 101.44C24.9806 101.602 24.7714 101.832 24.5926 102.132V103.183C24.5926 103.366 24.6202 103.547 24.6755 103.725C24.7307 103.903 24.8136 104.062 24.9242 104.204C25.0347 104.346 25.1728 104.46 25.3386 104.546C25.5044 104.632 25.6978 104.675 25.9186 104.675Z" fill="#111D24"/>
<path d="M28.6495 103.116C28.6706 103.583 28.7995 103.962 29.0363 104.254C29.2731 104.546 29.6309 104.692 30.1095 104.692C30.3095 104.692 30.4949 104.664 30.666 104.608C30.8369 104.553 30.9881 104.486 31.1197 104.408L31.2145 104.7C31.0829 104.783 30.9212 104.855 30.7293 104.917C30.5371 104.978 30.3255 105.008 30.0938 105.008C29.794 105.008 29.5307 104.957 29.3046 104.854C29.0785 104.751 28.8902 104.607 28.7404 104.421C28.5904 104.235 28.4786 104.015 28.405 103.762C28.331 103.509 28.2944 103.233 28.2944 102.933C28.2944 102.633 28.3301 102.356 28.4011 102.103C28.4721 101.85 28.5788 101.631 28.7208 101.445C28.8628 101.258 29.0405 101.114 29.2535 101.011C29.4666 100.908 29.7152 100.857 29.9993 100.857C30.4622 100.857 30.8149 100.996 31.0567 101.274C31.2986 101.552 31.4198 101.944 31.4198 102.449C31.4198 102.555 31.4106 102.672 31.3922 102.799C31.3738 102.927 31.3515 103.033 31.325 103.116H28.6495ZM29.999 101.165C29.7622 101.165 29.5596 101.207 29.3914 101.29C29.2229 101.374 29.0863 101.488 28.9811 101.632C28.8759 101.777 28.7969 101.952 28.7443 102.157C28.6917 102.363 28.6626 102.586 28.6575 102.824H31.0567C31.0671 102.774 31.0752 102.715 31.0805 102.645C31.0859 102.576 31.0885 102.51 31.0885 102.449C31.0885 102.01 31.0003 101.686 30.8241 101.478C30.6473 101.27 30.3725 101.165 29.999 101.165Z" fill="#111D24"/>
<path d="M32.5323 103.116C32.5534 103.583 32.6823 103.962 32.9191 104.254C33.156 104.546 33.5137 104.692 33.9923 104.692C34.1923 104.692 34.3777 104.664 34.5488 104.608C34.7197 104.553 34.8709 104.486 35.0025 104.408L35.0973 104.7C34.9657 104.783 34.8041 104.855 34.6121 104.917C34.4199 104.978 34.2083 105.008 33.9766 105.008C33.6768 105.008 33.4136 104.957 33.1874 104.854C32.9613 104.751 32.773 104.607 32.6232 104.421C32.4732 104.235 32.3615 104.015 32.2878 103.762C32.2138 103.509 32.1772 103.233 32.1772 102.933C32.1772 102.633 32.2129 102.356 32.2839 102.103C32.3549 101.85 32.4616 101.631 32.6036 101.445C32.7456 101.258 32.9233 101.114 33.1363 101.011C33.3494 100.908 33.5981 100.857 33.8821 100.857C34.345 100.857 34.6977 100.996 34.9395 101.274C35.1814 101.552 35.3026 101.944 35.3026 102.449C35.3026 102.555 35.2934 102.672 35.275 102.799C35.2566 102.927 35.2343 103.033 35.2078 103.116H32.5323ZM33.8821 101.165C33.6453 101.165 33.4427 101.207 33.2745 101.29C33.106 101.374 32.9694 101.488 32.8642 101.632C32.759 101.777 32.68 101.952 32.6274 102.157C32.5748 102.363 32.5457 102.586 32.5406 102.824H34.9398C34.9502 102.774 34.9583 102.715 34.9636 102.645C34.969 102.576 34.9716 102.51 34.9716 102.449C34.9716 102.01 34.8834 101.686 34.7072 101.478C34.5304 101.27 34.2553 101.165 33.8821 101.165Z" fill="#111D24"/>
<path d="M37.6938 105.017C37.4623 105.017 37.2478 104.978 37.0505 104.9C36.8532 104.822 36.6821 104.699 36.5374 104.529C36.3927 104.36 36.2795 104.143 36.1981 103.879C36.1164 103.615 36.0757 103.297 36.0757 102.924C36.0757 102.597 36.1179 102.305 36.202 102.049C36.286 101.794 36.4004 101.577 36.5454 101.399C36.6901 101.221 36.8571 101.086 37.0467 100.994C37.2362 100.903 37.4386 100.857 37.6543 100.857C37.8278 100.857 37.9859 100.883 38.1279 100.936C38.2699 100.989 38.3974 101.057 38.5106 101.14C38.6238 101.224 38.7209 101.315 38.8026 101.415C38.884 101.516 38.9512 101.616 39.0038 101.716V99.3314H39.3669V104.95H39.0986L39.0038 104.158C38.8671 104.419 38.6894 104.628 38.471 104.783C38.2527 104.939 37.9936 105.017 37.6938 105.017ZM37.7173 104.675C37.9276 104.675 38.1133 104.632 38.2738 104.546C38.4342 104.46 38.5685 104.346 38.6764 104.204C38.7842 104.062 38.8656 103.902 38.9209 103.725C38.9761 103.547 39.0038 103.366 39.0038 103.183V102.132C38.846 101.849 38.6567 101.623 38.4357 101.453C38.2146 101.284 37.9671 101.199 37.6938 101.199C37.5253 101.199 37.3661 101.234 37.2163 101.303C37.0663 101.372 36.9335 101.478 36.8179 101.62C36.702 101.761 36.6099 101.941 36.5416 102.157C36.4732 102.374 36.4388 102.63 36.4388 102.924C36.4388 103.247 36.4744 103.519 36.5454 103.741C36.6164 103.964 36.7112 104.144 36.8295 104.283C36.9477 104.422 37.0847 104.522 37.2398 104.583C37.3949 104.645 37.5544 104.675 37.7173 104.675Z" fill="#111D24"/>
<path d="M45.1677 102.266C45.1677 101.866 45.0795 101.585 44.9033 101.424C44.7268 101.263 44.4731 101.182 44.1418 101.182C43.8839 101.182 43.659 101.21 43.467 101.265C43.2751 101.321 43.1025 101.393 42.95 101.482L42.8633 101.199C43.0056 101.11 43.1868 101.031 43.4079 100.961C43.629 100.891 43.8735 100.857 44.1418 100.857C44.6047 100.857 44.9508 100.983 45.1796 101.236C45.4084 101.489 45.5228 101.832 45.5228 102.266V104.95H45.2625L45.1677 104.158C45.0257 104.43 44.8361 104.642 44.5993 104.792C44.3625 104.942 44.0812 105.017 43.7549 105.017C43.5865 105.017 43.4284 104.992 43.2813 104.942C43.134 104.892 43.0062 104.817 42.8983 104.717C42.7905 104.617 42.7064 104.494 42.6458 104.35C42.5852 104.205 42.5552 104.039 42.5552 103.85C42.5552 103.416 42.6972 103.091 42.9812 102.874C43.2656 102.658 43.6836 102.549 44.2363 102.549H45.1674V102.266H45.1677ZM45.1677 102.874H44.2366C43.763 102.874 43.4222 102.952 43.2145 103.108C43.0065 103.263 42.9028 103.511 42.9028 103.85C42.9028 103.994 42.9251 104.119 42.97 104.225C43.0145 104.33 43.0763 104.418 43.1554 104.487C43.2344 104.557 43.3262 104.608 43.4317 104.642C43.5369 104.675 43.6474 104.692 43.7633 104.692C43.9894 104.692 44.1896 104.651 44.3631 104.571C44.5367 104.49 44.6828 104.385 44.8014 104.254C44.9199 104.123 45.0106 103.977 45.0735 103.816C45.1368 103.655 45.1683 103.491 45.1683 103.324V102.874H45.1677Z" fill="#111D24"/>
<path d="M47.1643 104.95H46.8013V100.924H47.0696L47.1643 101.716C47.2434 101.61 47.334 101.506 47.4368 101.403C47.5393 101.3 47.6537 101.209 47.78 101.128C47.9062 101.047 48.0429 100.982 48.1903 100.932C48.3377 100.882 48.4928 100.857 48.6559 100.857C49.0555 100.857 49.3648 100.988 49.5832 101.249C49.8013 101.51 49.9106 101.882 49.9106 102.366V104.95H49.5475V102.366C49.5475 101.994 49.4646 101.706 49.2988 101.503C49.133 101.3 48.9084 101.199 48.6241 101.199C48.4714 101.199 48.3243 101.225 48.1823 101.278C48.0402 101.331 47.906 101.402 47.7797 101.49C47.6534 101.58 47.5378 101.68 47.4326 101.791C47.3275 101.902 47.238 102.016 47.1643 102.132V104.95Z" fill="#111D24"/>
<path d="M52.5546 105.017C52.3232 105.017 52.1087 104.978 51.9114 104.9C51.7141 104.822 51.5429 104.699 51.3982 104.529C51.2535 104.36 51.1403 104.143 51.0589 103.879C50.9772 103.615 50.9365 103.297 50.9365 102.924C50.9365 102.597 50.9787 102.305 51.0628 102.049C51.1469 101.794 51.2613 101.577 51.4063 101.399C51.551 101.221 51.7179 101.086 51.9075 100.994C52.0971 100.903 52.2994 100.857 52.5151 100.857C52.6886 100.857 52.8467 100.883 52.9887 100.936C53.1307 100.989 53.2582 101.057 53.3714 101.14C53.4846 101.224 53.5818 101.315 53.6635 101.415C53.7449 101.516 53.812 101.616 53.8646 101.716V99.3314H54.2277V104.95H53.9594L53.8646 104.158C53.7279 104.419 53.5503 104.628 53.3319 104.783C53.1135 104.939 52.8544 105.017 52.5546 105.017ZM52.5781 104.675C52.7885 104.675 52.9742 104.632 53.1346 104.546C53.295 104.46 53.4293 104.346 53.5372 104.204C53.645 104.062 53.7265 103.902 53.7817 103.725C53.837 103.547 53.8646 103.366 53.8646 103.183V102.132C53.7068 101.849 53.5176 101.623 53.2965 101.453C53.0755 101.284 52.828 101.199 52.5546 101.199C52.3862 101.199 52.2269 101.234 52.0772 101.303C51.9271 101.372 51.7943 101.478 51.6787 101.62C51.5628 101.761 51.4707 101.941 51.4024 102.157C51.3341 102.374 51.2996 102.63 51.2996 102.924C51.2996 103.247 51.3353 103.519 51.4063 103.741C51.4773 103.964 51.5721 104.144 51.6903 104.283C51.8086 104.422 51.9455 104.522 52.1006 104.583C52.256 104.645 52.4153 104.675 52.5781 104.675Z" fill="#111D24"/>
<path d="M58.2445 103.908C58.2445 104.192 58.2867 104.39 58.3708 104.504C58.4548 104.618 58.6022 104.675 58.8129 104.675C58.9338 104.675 59.0482 104.656 59.156 104.617C59.2639 104.578 59.3545 104.528 59.4285 104.467L59.531 104.742C59.4416 104.808 59.3349 104.868 59.2113 104.921C59.0874 104.974 58.9415 105 58.7734 105C58.4786 105 58.2576 104.917 58.1105 104.75C57.9631 104.583 57.8894 104.306 57.8894 103.916V101.24H57.2266V100.924H57.8817L58.008 99.7733H58.2448V100.924H59.4523V101.24H58.2448V103.908H58.2445Z" fill="#111D24"/>
<path d="M60.7464 104.95H60.3833V100.924H60.6516L60.7464 101.716C60.8094 101.599 60.8819 101.489 60.9633 101.386C61.0447 101.284 61.1356 101.193 61.2357 101.115C61.3356 101.038 61.4434 100.975 61.5593 100.928C61.6752 100.88 61.7961 100.857 61.9224 100.857C62.0329 100.857 62.1315 100.869 62.2183 100.894C62.3051 100.919 62.3773 100.949 62.4352 100.982L62.3404 101.349C62.2878 101.315 62.226 101.288 62.155 101.265C62.084 101.243 61.9931 101.232 61.8826 101.232C61.63 101.232 61.4116 101.318 61.2274 101.49C61.0432 101.663 60.8828 101.877 60.7458 102.132V104.95H60.7464Z" fill="#111D24"/>
<path d="M65.3713 102.266C65.3713 101.866 65.2831 101.585 65.1069 101.424C64.9304 101.263 64.6767 101.182 64.3454 101.182C64.0875 101.182 63.8626 101.21 63.6706 101.265C63.4787 101.321 63.3061 101.393 63.1537 101.482L63.0669 101.199C63.2092 101.11 63.3905 101.031 63.6115 100.961C63.8326 100.891 64.0771 100.857 64.3454 100.857C64.8083 100.857 65.1544 100.983 65.3832 101.236C65.612 101.489 65.7264 101.832 65.7264 102.266V104.95H65.4661L65.3713 104.158C65.2293 104.43 65.0398 104.642 64.803 104.792C64.5662 104.942 64.2848 105.017 63.9585 105.017C63.7901 105.017 63.632 104.992 63.4849 104.942C63.3376 104.892 63.2098 104.817 63.102 104.717C62.9941 104.617 62.91 104.494 62.8494 104.35C62.7888 104.205 62.7588 104.039 62.7588 103.85C62.7588 103.416 62.9008 103.091 63.1849 102.874C63.4692 102.658 63.8872 102.549 64.4399 102.549H65.371V102.266H65.3713ZM65.3713 102.874H64.4402C63.9666 102.874 63.6258 102.952 63.4181 103.108C63.2101 103.263 63.1064 103.511 63.1064 103.85C63.1064 103.994 63.1287 104.119 63.1736 104.225C63.2181 104.33 63.2799 104.418 63.359 104.487C63.438 104.557 63.5298 104.608 63.6353 104.642C63.7405 104.675 63.851 104.692 63.9669 104.692C64.193 104.692 64.3932 104.651 64.5667 104.571C64.7403 104.49 64.8864 104.385 65.005 104.254C65.1235 104.123 65.2142 103.977 65.2772 103.816C65.3404 103.655 65.3719 103.491 65.3719 103.324V102.874H65.3713Z" fill="#111D24"/>
<path d="M68.3148 99.5899C67.999 99.5899 67.7874 99.6843 67.6796 99.8733C67.5717 100.062 67.5179 100.332 67.5179 100.682V100.924H68.6939V101.24H67.5179V104.95H67.1629V101.24H66.5V100.924H67.1629V100.674C67.1629 100.245 67.2443 99.904 67.4074 99.6482C67.5705 99.3928 67.8495 99.2648 68.2441 99.2648C68.3808 99.2648 68.5097 99.2803 68.6306 99.3106C68.7516 99.3413 68.8567 99.3815 68.9465 99.4315L68.8674 99.7066C68.7884 99.6679 68.699 99.6384 68.5991 99.6191C68.499 99.5997 68.4042 99.5899 68.3148 99.5899Z" fill="#111D24"/>
<path d="M72.308 104.95H71.945V101.24H70.1771V104.95H69.822V101.24H69.1592V100.924H69.822V100.84C69.822 100.629 69.8467 100.428 69.8969 100.236C69.9468 100.044 70.0244 99.8763 70.1296 99.7316C70.2347 99.5872 70.3729 99.4732 70.544 99.3898C70.7149 99.3065 70.9217 99.2648 71.1635 99.2648C71.3528 99.2648 71.5251 99.2898 71.6805 99.3398C71.8356 99.3898 71.9687 99.4482 72.079 99.5149L71.9999 99.79C71.8947 99.7289 71.7697 99.6804 71.625 99.6441C71.4803 99.6077 71.337 99.5899 71.1947 99.5899C70.9897 99.5899 70.8213 99.6232 70.6896 99.6899C70.558 99.7566 70.454 99.8456 70.378 99.9567C70.3016 100.068 70.249 100.201 70.2202 100.357C70.1911 100.513 70.1768 100.677 70.1768 100.849V100.924H72.3077V104.95H72.308Z" fill="#111D24"/>
<path d="M75.134 101.174C74.8921 101.174 74.6815 101.217 74.5026 101.303C74.3237 101.389 74.1764 101.51 74.0608 101.666C73.9449 101.821 73.8596 102.007 73.8044 102.224C73.7491 102.441 73.7215 102.677 73.7215 102.933C73.7215 103.188 73.7503 103.424 73.8082 103.641C73.8662 103.858 73.9541 104.044 74.0727 104.2C74.1909 104.355 74.3422 104.476 74.5264 104.562C74.7106 104.649 74.929 104.692 75.1815 104.692C75.3497 104.692 75.5116 104.671 75.6667 104.629C75.8218 104.587 75.968 104.536 76.1047 104.475L76.1994 104.767C76.0628 104.839 75.9062 104.897 75.7297 104.942C75.5535 104.986 75.3654 105.008 75.1655 105.008C74.8657 105.008 74.6024 104.957 74.3763 104.854C74.1499 104.751 73.9618 104.607 73.8121 104.421C73.6624 104.235 73.5488 104.015 73.4728 103.762C73.3964 103.509 73.3584 103.233 73.3584 102.933C73.3584 102.633 73.3952 102.356 73.4689 102.103C73.5426 101.85 73.6543 101.631 73.8044 101.445C73.9541 101.259 74.1398 101.114 74.3609 101.011C74.5819 100.908 74.8395 100.857 75.1343 100.857C75.3289 100.857 75.5078 100.876 75.6709 100.915C75.834 100.954 75.9891 101.007 76.1365 101.074L76.0497 101.365C75.9285 101.304 75.7918 101.257 75.6394 101.224C75.4864 101.19 75.3179 101.174 75.134 101.174Z" fill="#111D24"/>
<path d="M80.7372 105.017C80.5058 105.017 80.2913 104.978 80.094 104.9C79.8967 104.822 79.7256 104.699 79.5809 104.529C79.4362 104.36 79.323 104.143 79.2415 103.879C79.1598 103.615 79.1191 103.297 79.1191 102.924C79.1191 102.597 79.1613 102.305 79.2454 102.049C79.3295 101.794 79.4439 101.577 79.5889 101.399C79.7336 101.221 79.9006 101.086 80.0901 100.994C80.2797 100.903 80.482 100.857 80.6977 100.857C80.8712 100.857 81.0293 100.883 81.1713 100.936C81.3134 100.989 81.4408 101.057 81.554 101.14C81.6672 101.224 81.7644 101.315 81.8461 101.415C81.9275 101.516 81.9946 101.616 82.0472 101.716V99.3314H82.4103V104.95H82.142L82.0472 104.158C81.9106 104.419 81.7329 104.628 81.5145 104.783C81.2961 104.939 81.037 105.017 80.7372 105.017ZM80.7607 104.675C80.9711 104.675 81.1568 104.632 81.3172 104.546C81.4777 104.46 81.612 104.346 81.7198 104.204C81.8277 104.062 81.9091 103.902 81.9643 103.725C82.0196 103.547 82.0472 103.366 82.0472 103.183V102.132C81.8895 101.849 81.7002 101.623 81.4791 101.453C81.2581 101.284 81.0106 101.199 80.7372 101.199C80.5688 101.199 80.4095 101.234 80.2598 101.303C80.1097 101.372 79.9769 101.478 79.8613 101.62C79.7455 101.761 79.6534 101.941 79.585 102.157C79.5167 102.374 79.4822 102.63 79.4822 102.924C79.4822 103.247 79.5179 103.519 79.5889 103.741C79.6599 103.964 79.7547 104.144 79.8729 104.283C79.9912 104.422 80.1282 104.522 80.2832 104.583C80.4386 104.645 80.5979 104.675 80.7607 104.675Z" fill="#111D24"/>
<path d="M83.7914 103.116C83.8125 103.583 83.9414 103.962 84.1782 104.254C84.415 104.546 84.7725 104.692 85.2517 104.692C85.4517 104.692 85.6371 104.664 85.8079 104.608C85.9788 104.553 86.1303 104.486 86.2616 104.408L86.3564 104.7C86.2248 104.783 86.0632 104.855 85.8709 104.917C85.679 104.978 85.4671 105.008 85.2354 105.008C84.9356 105.008 84.6723 104.957 84.4462 104.854C84.2201 104.751 84.0318 104.607 83.882 104.421C83.732 104.235 83.6203 104.015 83.5466 103.762C83.4726 103.509 83.436 103.233 83.436 102.933C83.436 102.633 83.4717 102.356 83.5427 102.103C83.6137 101.85 83.7204 101.631 83.8624 101.445C84.0044 101.258 84.1821 101.114 84.3951 101.011C84.6082 100.908 84.8569 100.857 85.1409 100.857C85.6038 100.857 85.9562 100.996 86.1986 101.274C86.4402 101.552 86.5617 101.944 86.5617 102.449C86.5617 102.555 86.5525 102.672 86.5341 102.799C86.5154 102.927 86.4931 103.033 86.4666 103.116H83.7914ZM85.1412 101.165C84.9044 101.165 84.7018 101.207 84.5336 101.29C84.3654 101.374 84.2284 101.488 84.1233 101.632C84.0181 101.777 83.9391 101.952 83.8865 102.157C83.8339 102.363 83.8048 102.586 83.7997 102.824H86.1989C86.2093 102.774 86.2174 102.715 86.2224 102.645C86.2278 102.576 86.2301 102.51 86.2301 102.449C86.2301 102.01 86.1422 101.686 85.9657 101.478C85.7892 101.27 85.5147 101.165 85.1412 101.165Z" fill="#111D24"/>
<path d="M88.1001 103.908C88.1001 104.192 88.1426 104.39 88.2267 104.504C88.3108 104.618 88.4582 104.675 88.6688 104.675C88.7895 104.675 88.9038 104.656 89.0117 104.617C89.1195 104.578 89.2102 104.528 89.2839 104.467L89.3867 104.742C89.2972 104.808 89.1906 104.868 89.067 104.921C88.9434 104.974 88.7978 105 88.6293 105C88.3346 105 88.1135 104.917 87.9661 104.75C87.8188 104.583 87.7451 104.306 87.7451 103.916V101.24H87.0825V100.924H87.7377L87.8636 99.7733H88.1004V100.924H89.3079V101.24H88.1004V103.908H88.1001Z" fill="#111D24"/>
<path d="M90.3261 103.116C90.3469 103.583 90.4758 103.962 90.7126 104.254C90.9494 104.546 91.3068 104.692 91.7861 104.692C91.9857 104.692 92.1714 104.664 92.342 104.608C92.5131 104.553 92.6647 104.486 92.7957 104.408L92.8908 104.7C92.7591 104.783 92.5972 104.855 92.405 104.917C92.213 104.978 92.0012 105.008 91.7694 105.008C91.47 105.008 91.2064 104.957 90.9803 104.854C90.7539 104.751 90.5658 104.607 90.4164 104.421C90.2669 104.235 90.1546 104.015 90.0809 103.762C90.0072 103.509 89.9707 103.233 89.9707 102.933C89.9707 102.633 90.0061 102.356 90.0768 102.103C90.1481 101.85 90.2545 101.631 90.3965 101.445C90.5385 101.258 90.7162 101.114 90.9292 101.011C91.1422 100.908 91.3912 100.857 91.675 100.857C92.1382 100.857 92.4903 100.996 92.733 101.274C92.9746 101.552 93.0958 101.944 93.0958 102.449C93.0958 102.555 93.0866 102.672 93.0684 102.799C93.0497 102.927 93.0271 103.033 93.001 103.116H90.3261ZM91.6753 101.165C91.4385 101.165 91.2358 101.207 91.0677 101.29C90.8995 101.374 90.7625 101.488 90.6573 101.632C90.5519 101.777 90.4728 101.952 90.4205 102.157C90.3677 102.363 90.3388 102.586 90.3335 102.824H92.733C92.7434 102.774 92.7511 102.715 92.7562 102.645C92.7615 102.576 92.7642 102.51 92.7642 102.449C92.7642 102.01 92.676 101.686 92.4995 101.478C92.3236 101.27 92.049 101.165 91.6753 101.165Z" fill="#111D24"/>
<path d="M95.6298 101.174C95.3873 101.174 95.1773 101.217 94.9984 101.303C94.8189 101.389 94.6716 101.51 94.5563 101.666C94.4401 101.821 94.3548 102.007 94.2999 102.224C94.2446 102.441 94.217 102.677 94.217 102.933C94.217 103.188 94.2461 103.424 94.304 103.641C94.3614 103.858 94.4496 104.044 94.5682 104.2C94.6864 104.355 94.8379 104.476 95.0219 104.562C95.2064 104.649 95.4245 104.692 95.677 104.692C95.8452 104.692 96.0071 104.671 96.1628 104.629C96.3176 104.587 96.4635 104.536 96.6004 104.475L96.6955 104.767C96.5585 104.839 96.402 104.897 96.2255 104.942C96.049 104.986 95.8609 105.008 95.6616 105.008C95.3615 105.008 95.0985 104.957 94.8724 104.854C94.646 104.751 94.4579 104.607 94.3085 104.421C94.1581 104.235 94.0449 104.015 93.9689 103.762C93.8922 103.509 93.8545 103.233 93.8545 102.933C93.8545 102.633 93.891 102.356 93.9647 102.103C94.0384 101.85 94.1504 101.631 94.3002 101.445C94.4499 101.258 94.6356 101.114 94.8567 101.011C95.0777 100.908 95.3353 100.857 95.6304 100.857C95.8247 100.857 96.0035 100.876 96.1667 100.915C96.3298 100.954 96.4852 101.007 96.6325 101.074L96.5455 101.365C96.4243 101.304 96.2879 101.257 96.1352 101.224C95.9818 101.19 95.8137 101.174 95.6298 101.174Z" fill="#111D24"/>
<path d="M98.1709 103.908C98.1709 104.192 98.2128 104.39 98.2975 104.504C98.381 104.618 98.5284 104.675 98.739 104.675C98.8603 104.675 98.9746 104.656 99.0825 104.617C99.1898 104.578 99.281 104.528 99.3547 104.467L99.4575 104.742C99.3674 104.808 99.2614 104.868 99.1378 104.921C99.0142 104.974 98.868 105 98.6995 105C98.4048 105 98.1837 104.917 98.0369 104.75C97.8896 104.583 97.8159 104.306 97.8159 103.916V101.24H97.1533V100.924H97.8079L97.9344 99.7733H98.1712V100.924H99.3787V101.24H98.1712V103.908H98.1709Z" fill="#111D24"/>
<path d="M100.515 99.2648C100.615 99.2648 100.692 99.2954 100.747 99.3565C100.803 99.4178 100.83 99.4928 100.83 99.5815C100.83 99.6706 100.802 99.7456 100.747 99.8066C100.692 99.868 100.615 99.8983 100.515 99.8983C100.415 99.8983 100.337 99.8677 100.282 99.8066C100.227 99.7456 100.199 99.6703 100.199 99.5815C100.199 99.4928 100.227 99.4178 100.282 99.3565C100.337 99.2954 100.415 99.2648 100.515 99.2648ZM100.697 104.95H100.333V100.924H100.697V104.95Z" fill="#111D24"/>
<path d="M103.459 100.857C103.748 100.857 103.999 100.908 104.213 101.011C104.426 101.114 104.603 101.259 104.745 101.445C104.887 101.631 104.994 101.85 105.064 102.103C105.136 102.356 105.171 102.633 105.171 102.933C105.171 103.233 105.136 103.509 105.064 103.762C104.994 104.015 104.887 104.235 104.745 104.421C104.603 104.607 104.426 104.751 104.213 104.854C103.999 104.957 103.748 105.008 103.459 105.008C103.169 105.008 102.918 104.957 102.705 104.854C102.492 104.751 102.315 104.607 102.172 104.421C102.03 104.235 101.924 104.015 101.853 103.762C101.782 103.509 101.747 103.233 101.747 102.933C101.747 102.633 101.782 102.356 101.853 102.103C101.924 101.85 102.03 101.631 102.172 101.445C102.314 101.258 102.492 101.114 102.705 101.011C102.918 100.908 103.169 100.857 103.459 100.857ZM103.459 104.692C103.696 104.692 103.899 104.649 104.071 104.562C104.241 104.476 104.381 104.355 104.489 104.2C104.596 104.044 104.677 103.858 104.729 103.641C104.782 103.424 104.808 103.188 104.808 102.933C104.808 102.677 104.782 102.441 104.729 102.224C104.677 102.007 104.597 101.821 104.489 101.666C104.381 101.51 104.241 101.389 104.071 101.303C103.9 101.217 103.696 101.174 103.459 101.174C103.222 101.174 103.018 101.217 102.847 101.303C102.676 101.389 102.537 101.51 102.429 101.666C102.321 101.821 102.241 102.007 102.188 102.224C102.135 102.441 102.109 102.677 102.109 102.933C102.109 103.188 102.135 103.424 102.188 103.641C102.241 103.858 102.321 104.044 102.429 104.2C102.537 104.355 102.676 104.476 102.847 104.562C103.018 104.649 103.222 104.692 103.459 104.692Z" fill="#111D24"/>
<path d="M106.561 104.95H106.197V100.924H106.465L106.56 101.716C106.639 101.61 106.73 101.506 106.833 101.403C106.935 101.3 107.049 101.209 107.175 101.128C107.302 101.047 107.439 100.982 107.586 100.932C107.733 100.882 107.889 100.857 108.052 100.857C108.451 100.857 108.761 100.988 108.979 101.249C109.197 101.51 109.306 101.882 109.306 102.366V104.95H108.944V102.366C108.944 101.994 108.861 101.706 108.695 101.503C108.529 101.3 108.304 101.199 108.02 101.199C107.867 101.199 107.72 101.225 107.578 101.278C107.436 101.331 107.302 101.402 107.175 101.49C107.049 101.58 106.934 101.68 106.828 101.791C106.723 101.902 106.633 102.016 106.56 102.132V104.95H106.561Z" fill="#111D24"/>
<path d="M113.308 103.908C113.308 104.192 113.35 104.39 113.434 104.504C113.518 104.618 113.666 104.675 113.876 104.675C113.997 104.675 114.111 104.656 114.219 104.617C114.327 104.578 114.418 104.528 114.491 104.467L114.594 104.742C114.505 104.808 114.398 104.868 114.274 104.921C114.151 104.974 114.005 105 113.837 105C113.542 105 113.321 104.917 113.174 104.75C113.026 104.583 112.953 104.306 112.953 103.916V101.24H112.29V100.924H112.945L113.071 99.7733H113.308V100.924H114.515V101.24H113.308V103.908H113.308Z" fill="#111D24"/>
<path d="M115.534 103.116C115.554 103.583 115.683 103.962 115.92 104.254C116.157 104.546 116.514 104.692 116.994 104.692C117.193 104.692 117.379 104.664 117.55 104.608C117.721 104.553 117.872 104.486 118.003 104.408L118.098 104.7C117.967 104.783 117.805 104.855 117.613 104.917C117.421 104.978 117.209 105.008 116.977 105.008C116.677 105.008 116.414 104.957 116.188 104.854C115.961 104.751 115.773 104.607 115.624 104.421C115.474 104.235 115.362 104.015 115.288 103.762C115.215 103.509 115.178 103.233 115.178 102.933C115.178 102.633 115.214 102.356 115.284 102.103C115.356 101.85 115.462 101.631 115.604 101.445C115.746 101.258 115.924 101.114 116.137 101.011C116.35 100.908 116.599 100.857 116.882 100.857C117.346 100.857 117.698 100.996 117.941 101.274C118.182 101.552 118.303 101.944 118.303 102.449C118.303 102.555 118.294 102.672 118.276 102.799C118.257 102.927 118.235 103.033 118.209 103.116H115.534ZM116.883 101.165C116.646 101.165 116.443 101.207 116.275 101.29C116.107 101.374 115.97 101.488 115.865 101.632C115.759 101.777 115.68 101.952 115.628 102.157C115.575 102.363 115.546 102.586 115.541 102.824H117.941C117.951 102.774 117.959 102.715 117.964 102.645C117.969 102.576 117.972 102.51 117.972 102.449C117.972 102.01 117.883 101.686 117.707 101.478C117.531 101.27 117.257 101.165 116.883 101.165Z" fill="#111D24"/>
<path d="M120.837 101.174C120.595 101.174 120.385 101.217 120.206 101.303C120.026 101.389 119.879 101.51 119.764 101.666C119.648 101.821 119.562 102.007 119.507 102.224C119.452 102.441 119.424 102.677 119.424 102.933C119.424 103.188 119.454 103.424 119.512 103.641C119.569 103.858 119.657 104.044 119.776 104.2C119.894 104.355 120.045 104.476 120.229 104.562C120.414 104.649 120.632 104.692 120.885 104.692C121.053 104.692 121.215 104.671 121.37 104.629C121.525 104.587 121.671 104.536 121.808 104.475L121.903 104.767C121.766 104.839 121.61 104.897 121.433 104.942C121.257 104.986 121.068 105.008 120.869 105.008C120.569 105.008 120.306 104.957 120.08 104.854C119.854 104.751 119.665 104.607 119.516 104.421C119.366 104.235 119.252 104.015 119.176 103.762C119.1 103.509 119.062 103.233 119.062 102.933C119.062 102.633 119.099 102.356 119.172 102.103C119.246 101.85 119.358 101.631 119.508 101.445C119.657 101.258 119.843 101.114 120.064 101.011C120.285 100.908 120.543 100.857 120.838 100.857C121.032 100.857 121.211 100.876 121.374 100.915C121.537 100.954 121.693 101.007 121.84 101.074L121.753 101.365C121.632 101.304 121.495 101.257 121.343 101.224C121.189 101.19 121.021 101.174 120.837 101.174Z" fill="#111D24"/>
<path d="M123.229 104.95H122.865V99.3314H123.229V101.716C123.308 101.61 123.398 101.506 123.501 101.403C123.604 101.3 123.719 101.209 123.848 101.128C123.977 101.047 124.115 100.982 124.262 100.932C124.41 100.882 124.565 100.857 124.728 100.857C125.127 100.857 125.439 100.988 125.659 101.249C125.88 101.51 125.991 101.882 125.991 102.366V104.95H125.628V102.366C125.628 101.994 125.543 101.706 125.375 101.503C125.206 101.3 124.98 101.199 124.696 101.199C124.543 101.199 124.396 101.225 124.255 101.278C124.112 101.331 123.976 101.402 123.848 101.49C123.719 101.58 123.602 101.68 123.497 101.791C123.391 101.902 123.302 102.016 123.229 102.132V104.95Z" fill="#111D24"/>
<path d="M127.632 104.95H127.269V100.924H127.537L127.632 101.716C127.711 101.61 127.801 101.506 127.904 101.403C128.007 101.3 128.121 101.209 128.247 101.128C128.374 101.047 128.511 100.982 128.658 100.932C128.805 100.882 128.961 100.857 129.123 100.857C129.523 100.857 129.833 100.988 130.051 101.249C130.269 101.51 130.378 101.882 130.378 102.366V104.95H130.015V102.366C130.015 101.994 129.932 101.706 129.766 101.503C129.601 101.3 129.376 101.199 129.092 101.199C128.939 101.199 128.792 101.225 128.65 101.278C128.507 101.331 128.373 101.402 128.247 101.49C128.121 101.58 128.005 101.68 127.9 101.791C127.795 101.902 127.705 102.016 127.632 102.132V104.95H127.632Z" fill="#111D24"/>
<path d="M133.101 100.857C133.391 100.857 133.642 100.908 133.855 101.011C134.068 101.114 134.246 101.259 134.388 101.445C134.53 101.631 134.636 101.85 134.708 102.103C134.778 102.356 134.814 102.633 134.814 102.933C134.814 103.233 134.778 103.509 134.708 103.762C134.636 104.015 134.53 104.235 134.388 104.421C134.246 104.607 134.068 104.751 133.855 104.854C133.642 104.957 133.391 105.008 133.101 105.008C132.812 105.008 132.561 104.957 132.348 104.854C132.135 104.751 131.957 104.607 131.815 104.421C131.673 104.235 131.567 104.015 131.496 103.762C131.425 103.509 131.389 103.233 131.389 102.933C131.389 102.633 131.425 102.356 131.496 102.103C131.567 101.85 131.674 101.631 131.815 101.445C131.957 101.259 132.135 101.114 132.348 101.011C132.561 100.908 132.812 100.857 133.101 100.857ZM133.101 104.692C133.338 104.692 133.542 104.649 133.713 104.562C133.884 104.476 134.024 104.355 134.132 104.2C134.239 104.044 134.32 103.858 134.373 103.641C134.425 103.424 134.452 103.188 134.452 102.933C134.452 102.677 134.425 102.441 134.373 102.224C134.32 102.007 134.24 101.821 134.132 101.666C134.024 101.51 133.884 101.389 133.713 101.303C133.543 101.217 133.338 101.174 133.101 101.174C132.865 101.174 132.661 101.217 132.49 101.303C132.319 101.389 132.179 101.51 132.071 101.666C131.964 101.821 131.883 102.007 131.831 102.224C131.778 102.441 131.752 102.677 131.752 102.933C131.752 103.188 131.778 103.424 131.831 103.641C131.883 103.858 131.964 104.044 132.071 104.2C132.179 104.355 132.319 104.476 132.49 104.562C132.661 104.649 132.865 104.692 133.101 104.692Z" fill="#111D24"/>
<path d="M136.227 104.95H135.864V99.3314H136.227V104.95Z" fill="#111D24"/>
<path d="M138.989 100.857C139.278 100.857 139.529 100.908 139.743 101.011C139.956 101.114 140.133 101.259 140.276 101.445C140.417 101.631 140.524 101.85 140.595 102.103C140.666 102.356 140.701 102.633 140.701 102.933C140.701 103.233 140.666 103.509 140.595 103.762C140.524 104.015 140.417 104.235 140.276 104.421C140.133 104.607 139.956 104.751 139.743 104.854C139.529 104.957 139.278 105.008 138.989 105.008C138.699 105.008 138.448 104.957 138.235 104.854C138.022 104.751 137.845 104.607 137.703 104.421C137.56 104.235 137.454 104.015 137.383 103.762C137.312 103.509 137.277 103.233 137.277 102.933C137.277 102.633 137.312 102.356 137.383 102.103C137.454 101.85 137.561 101.631 137.703 101.445C137.845 101.258 138.022 101.114 138.235 101.011C138.448 100.908 138.699 100.857 138.989 100.857ZM138.989 104.692C139.226 104.692 139.429 104.649 139.601 104.562C139.771 104.476 139.911 104.355 140.019 104.2C140.126 104.044 140.207 103.858 140.26 103.641C140.312 103.424 140.339 103.188 140.339 102.933C140.339 102.677 140.312 102.441 140.26 102.224C140.207 102.007 140.127 101.821 140.019 101.666C139.911 101.51 139.771 101.389 139.601 101.303C139.43 101.217 139.226 101.174 138.989 101.174C138.752 101.174 138.548 101.217 138.377 101.303C138.206 101.389 138.067 101.51 137.959 101.666C137.851 101.821 137.771 102.007 137.718 102.224C137.665 102.441 137.639 102.677 137.639 102.933C137.639 103.188 137.665 103.424 137.718 103.641C137.771 103.858 137.851 104.044 137.959 104.2C138.067 104.355 138.206 104.476 138.377 104.562C138.548 104.649 138.752 104.692 138.989 104.692Z" fill="#111D24"/>
<path d="M144.403 104.158C144.266 104.419 144.088 104.628 143.87 104.783C143.652 104.939 143.393 105.017 143.093 105.017C142.862 105.017 142.647 104.978 142.45 104.9C142.252 104.822 142.082 104.699 141.937 104.529C141.792 104.36 141.679 104.143 141.598 103.879C141.516 103.615 141.475 103.297 141.475 102.924C141.475 102.597 141.517 102.305 141.601 102.049C141.685 101.794 141.8 101.577 141.945 101.399C142.089 101.221 142.256 101.086 142.446 100.994C142.635 100.903 142.838 100.857 143.054 100.857C143.227 100.857 143.385 100.883 143.527 100.936C143.67 100.989 143.796 101.057 143.91 101.14C144.023 101.224 144.12 101.315 144.202 101.415C144.283 101.515 144.351 101.616 144.403 101.716L144.498 100.924H144.766V104.767C144.766 105.389 144.623 105.853 144.336 106.159C144.049 106.464 143.651 106.617 143.14 106.617C142.872 106.617 142.626 106.581 142.403 106.509C142.179 106.437 141.994 106.359 141.846 106.275L141.941 105.967C142.088 106.05 142.266 106.122 142.473 106.184C142.681 106.245 142.909 106.275 143.156 106.275C143.346 106.275 143.516 106.249 143.67 106.196C143.822 106.143 143.952 106.057 144.06 105.938C144.167 105.818 144.252 105.661 144.313 105.467C144.373 105.272 144.403 105.036 144.403 104.758V104.158H144.403ZM143.117 104.675C143.327 104.675 143.513 104.632 143.673 104.546C143.834 104.46 143.968 104.346 144.075 104.204C144.183 104.062 144.265 103.902 144.32 103.725C144.376 103.547 144.403 103.366 144.403 103.183V102.132C144.245 101.849 144.056 101.623 143.835 101.453C143.613 101.284 143.366 101.199 143.093 101.199C142.924 101.199 142.765 101.234 142.615 101.303C142.466 101.372 142.332 101.478 142.217 101.62C142.101 101.761 142.009 101.941 141.94 102.157C141.872 102.374 141.838 102.63 141.838 102.924C141.838 103.247 141.874 103.519 141.944 103.741C142.015 103.964 142.11 104.144 142.229 104.283C142.347 104.422 142.483 104.522 142.639 104.583C142.794 104.645 142.953 104.675 143.117 104.675Z" fill="#111D24"/>
<path d="M146.344 99.2648C146.444 99.2648 146.522 99.2954 146.577 99.3565C146.632 99.4178 146.66 99.4928 146.66 99.5815C146.66 99.6706 146.632 99.7456 146.577 99.8066C146.522 99.868 146.444 99.8983 146.344 99.8983C146.245 99.8983 146.167 99.8677 146.112 99.8066C146.056 99.7456 146.029 99.6703 146.029 99.5815C146.029 99.4928 146.057 99.4178 146.112 99.3565C146.167 99.2954 146.245 99.2648 146.344 99.2648ZM146.526 104.95H146.163V100.924H146.526V104.95Z" fill="#111D24"/>
<path d="M147.931 103.116C147.952 103.583 148.081 103.962 148.318 104.254C148.554 104.546 148.912 104.692 149.391 104.692C149.591 104.692 149.776 104.664 149.947 104.608C150.118 104.553 150.27 104.486 150.401 104.408L150.496 104.7C150.364 104.783 150.202 104.855 150.01 104.917C149.818 104.978 149.606 105.008 149.374 105.008C149.075 105.008 148.811 104.957 148.585 104.854C148.359 104.751 148.171 104.607 148.021 104.421C147.872 104.235 147.76 104.015 147.686 103.762C147.612 103.509 147.576 103.233 147.576 102.933C147.576 102.633 147.611 102.356 147.682 102.103C147.753 101.85 147.859 101.631 148.001 101.445C148.143 101.258 148.321 101.114 148.534 101.011C148.747 100.908 148.996 100.857 149.28 100.857C149.743 100.857 150.095 100.996 150.338 101.274C150.58 101.552 150.701 101.944 150.701 102.449C150.701 102.555 150.692 102.672 150.673 102.799C150.655 102.927 150.632 103.033 150.606 103.116H147.931ZM149.28 101.165C149.043 101.165 148.841 101.207 148.673 101.29C148.504 101.374 148.368 101.488 148.262 101.632C148.157 101.777 148.078 101.952 148.026 102.157C147.973 102.363 147.944 102.586 147.938 102.824H150.338C150.348 102.774 150.356 102.715 150.361 102.645C150.367 102.576 150.369 102.51 150.369 102.449C150.369 102.01 150.281 101.686 150.104 101.478C149.929 101.27 149.654 101.165 149.28 101.165Z" fill="#111D24"/>
<path d="M152.666 104.692C153.002 104.692 153.251 104.625 153.412 104.492C153.572 104.358 153.652 104.175 153.652 103.941C153.652 103.808 153.626 103.694 153.573 103.6C153.521 103.505 153.447 103.422 153.353 103.349C153.258 103.277 153.146 103.216 153.018 103.166C152.888 103.116 152.75 103.066 152.603 103.016C152.445 102.966 152.299 102.909 152.165 102.845C152.031 102.781 151.913 102.703 151.814 102.612C151.713 102.52 151.634 102.413 151.577 102.291C151.519 102.169 151.49 102.021 151.49 101.849C151.49 101.682 151.521 101.536 151.584 101.411C151.648 101.286 151.736 101.182 151.849 101.099C151.962 101.015 152.094 100.954 152.248 100.915C152.4 100.876 152.564 100.857 152.737 100.857C152.963 100.857 153.171 100.882 153.36 100.932C153.55 100.982 153.718 101.04 153.866 101.107L153.77 101.415C153.633 101.349 153.476 101.293 153.297 101.249C153.118 101.204 152.931 101.182 152.737 101.182C152.452 101.182 152.231 101.235 152.074 101.34C151.916 101.446 151.837 101.605 151.837 101.816C151.837 102.06 151.923 102.248 152.093 102.378C152.264 102.509 152.476 102.611 152.729 102.683C153.144 102.811 153.46 102.969 153.676 103.158C153.892 103.347 154 103.608 154 103.941C154 104.275 153.889 104.537 153.669 104.729C153.447 104.921 153.113 105.017 152.666 105.017C152.445 105.017 152.229 104.99 152.019 104.938C151.808 104.885 151.634 104.825 151.498 104.758L151.593 104.458C151.719 104.52 151.879 104.574 152.074 104.621C152.269 104.668 152.466 104.692 152.666 104.692Z" fill="#111D24"/>
<path d="M75.3327 67.0378V94.5012H71.6294V68.5056H70.2559V67.0378H75.3327Z" fill="#111D24"/>
<path d="M94.9433 77.6847C94.4305 76.902 93.7587 76.2348 92.9256 75.6846C92.0937 75.1308 91.1355 74.7122 90.0543 74.416C88.971 74.123 87.8482 73.9766 86.6823 73.9766C85.5176 73.9766 84.3945 74.1227 83.3115 74.416C82.2288 74.7122 81.2724 75.1308 80.4404 75.6846C79.607 76.2348 78.9418 76.902 78.4411 77.6847C77.9423 78.468 77.6924 79.3626 77.6924 80.3654V88.5515C77.6924 89.5572 77.9423 90.4566 78.4411 91.2528C78.9418 92.0483 79.607 92.7205 80.4404 93.2707C81.2724 93.8239 82.2291 94.238 83.3115 94.5208C84.3945 94.8013 85.5176 94.9427 86.6823 94.9427C87.8482 94.9427 88.971 94.8013 90.0543 94.5208C91.1355 94.2377 92.0937 93.8239 92.9256 93.2707C93.7587 92.7205 94.4305 92.0486 94.9433 91.2528C95.4565 90.4569 95.7149 89.5575 95.7149 88.5515V80.3657C95.7149 79.3626 95.4565 78.4683 94.9433 77.6847ZM92.0108 88.4432C92.0108 89.838 91.5511 91.0077 90.636 91.9494C89.7215 92.8923 88.4029 93.3642 86.6823 93.3642C84.9908 93.3642 83.6861 92.892 82.771 91.9494C81.855 91.0077 81.3971 89.838 81.3971 88.4432V80.4734C81.3971 79.7914 81.5148 79.1471 81.7513 78.546C81.9857 77.9476 82.3262 77.4272 82.771 76.9874C83.2149 76.5456 83.7693 76.2017 84.4352 75.9594C85.1016 75.7141 85.8509 75.5902 86.6823 75.5902C87.5418 75.5902 88.298 75.7141 88.9511 75.9594C89.6032 76.2017 90.1574 76.5456 90.6161 76.9874C91.0734 77.4272 91.4201 77.9476 91.6563 78.546C91.8913 79.1471 92.0105 79.7914 92.0105 80.4734V88.4432H92.0108Z" fill="#111D24"/>
<path d="M106.835 76.0683C105.962 76.1671 105.135 76.3946 104.36 76.7483C103.582 77.1043 102.938 77.617 102.423 78.2911C101.91 78.966 101.681 79.8621 101.736 80.989V87.9667C101.681 89.093 101.91 89.9915 102.423 90.6638C102.938 91.3387 103.582 91.8463 104.36 92.1875C105.135 92.5302 105.962 92.7576 106.835 92.8666C107.708 92.9783 108.479 93.0339 109.145 93.0339H114.056V93.9533C113.667 94.123 113.182 94.2585 112.6 94.3552C112.017 94.4538 111.211 94.5014 110.186 94.5014H108.021C107.466 94.5014 106.828 94.4785 106.107 94.4279C105.386 94.3799 104.651 94.2763 103.901 94.115C103.152 93.9584 102.416 93.7309 101.695 93.4359C100.974 93.145 100.343 92.7579 99.8019 92.2813C99.2617 91.8037 98.8238 91.2226 98.4913 90.5357C98.1588 89.8516 98.0058 89.0299 98.0334 88.0778V80.8425C98.0058 79.8877 98.1588 79.0693 98.4913 78.3825C98.8238 77.6974 99.2617 77.1145 99.8019 76.6369C100.343 76.1594 100.974 75.783 101.695 75.5002C102.416 75.2201 103.152 74.9997 103.901 74.8411C104.651 74.6794 105.386 74.5758 106.107 74.5281C106.828 74.4775 107.466 74.4546 108.021 74.4546L110.186 74.4165C111.211 74.4165 112.017 74.4725 112.6 74.5832C113.182 74.6922 113.667 74.8333 114.056 75.006V75.9224H109.145C108.479 75.9218 107.708 75.9727 106.835 76.0683Z" fill="#111D24"/>
<path d="M132.025 93.0334V79.4835C131.995 77.9427 131.455 76.7054 130.401 75.775C129.346 74.8455 127.945 74.3811 126.197 74.3811H121.745C120.745 74.3811 119.947 74.4591 119.351 74.6184C118.755 74.778 118.262 74.9444 117.873 75.1129V75.9954L126.49 76.0332C127.043 76.0582 127.488 76.2606 127.821 76.6366C128.153 77.018 128.32 77.4173 128.32 77.8311V81.2469C126.572 81.1483 124.837 81.1683 123.118 81.2996C121.398 81.4362 119.851 81.7592 118.477 82.2749C117.104 82.7873 115.98 83.5101 115.105 84.4396C114.232 85.3718 113.782 86.5844 113.754 88.0769C113.725 89.5197 114.072 90.6635 114.793 91.5099C115.515 92.3534 116.396 92.9956 117.436 93.435C118.477 93.8768 119.579 94.165 120.744 94.2984C121.91 94.435 122.923 94.5008 123.784 94.5008H133.397V93.0334H132.025ZM128.32 93.0334H124.866C124.199 93.0334 123.436 92.9777 122.577 92.866C121.716 92.7571 120.898 92.5299 120.121 92.1869C119.344 91.8458 118.699 91.3381 118.186 90.6632C117.673 89.9912 117.43 89.0927 117.457 87.9661C117.484 86.8393 117.804 85.9139 118.415 85.1941C119.024 84.4721 119.83 83.9139 120.829 83.5221C121.827 83.1311 122.972 82.8727 124.263 82.7515C125.552 82.6277 126.906 82.6057 128.32 82.6783V93.0334Z" fill="#111D24"/>
<path d="M142.467 74.6363C143.575 74.5148 144.533 74.4543 145.338 74.4543V75.9596C144.673 76.0076 143.978 76.1189 143.257 76.2877C142.535 76.4604 141.877 76.7304 141.279 77.0966C140.683 77.4652 140.192 77.9657 139.802 78.6022C139.414 79.2393 139.234 80.0348 139.261 80.989V94.5011H135.599L135.558 76.0335H133.56V74.4546H139.261V75.4446C140.287 75.0275 141.356 74.7601 142.467 74.6363Z" fill="#111D24"/>
<path d="M45.8554 82.1815H64.0928C62.3038 80.0974 60.0148 80.0974 60.0148 80.0974H59.7376H43.0215L45.8554 82.1815Z" fill="#111D24"/>
<path d="M53.6432 76.6197C53.6432 76.6197 58.3852 76.8525 59.9264 76.999C66.7001 77.635 67.3781 85.159 67.3781 85.159H39.665L42.8867 87.2743L49.1125 87.3886C52.4158 96.5766 59.8738 95.1282 59.8738 95.1282L62.7059 92.9322C54.1614 94.0942 51.5182 87.541 51.5182 87.541H69.8341C69.9113 87.541 69.6237 84.058 69.5735 83.7701C69.408 82.8308 69.1231 81.4622 68.7618 80.5958C67.7658 78.2134 66.1299 76.3163 64.0034 75.1543C62.1001 74.1165 60.1816 73.934 58.0905 73.9289C55.5231 73.9239 52.9542 73.9319 50.3853 73.9319L53.6432 76.6197Z" fill="#111D24"/>
<path d="M41.1724 83.9412H44.6085L44.8866 83.1454L42.0352 81.0488L41.1724 83.9412Z" fill="#111D24"/>
<path d="M42.4575 88.6628L40.1516 87.1489L39.4394 89.6179L32.8217 67H28.5352V68.4675H29.5751L37.3168 94.5011H41.3124L43.1002 88.6747L42.4575 88.6628Z" fill="#111D24"/>
<path d="M46.2114 78.704L49.761 67H46.0985L42.7104 78.704H46.2114Z" fill="#111D24"/>
</g>
<defs>
<clipPath id="clip0">
<rect width="134" height="38" fill="white" transform="translate(20 67)"/>
</clipPath>
</defs>
</svg>
