<svg width="64" height="64" viewBox="0 0 64 64" fill="none" xmlns="http://www.w3.org/2000/svg">
<path d="M2 41.999C1.99938 42.9024 2.24368 43.789 2.70689 44.5646C3.1701 45.3401 3.83489 45.9756 4.63054 46.4034C5.42619 46.8311 6.32293 47.0352 7.22533 46.9938C8.12774 46.9525 9.00205 46.6673 9.75525 46.1685L17.8303 54.2435C17.4242 54.8585 17.1592 55.5556 17.0541 56.285C16.949 57.0144 17.0065 57.758 17.2224 58.4626C17.4383 59.1671 17.8073 59.8153 18.303 60.3606C18.7987 60.9059 19.4088 61.3348 20.0896 61.6167C20.7705 61.8987 21.5053 62.0266 22.2413 61.9913C22.9774 61.9561 23.6966 61.7585 24.3474 61.4128C24.9981 61.0671 25.5645 60.5818 26.0058 59.9916C26.4471 59.4015 26.7524 58.721 26.9 57.999H37.1012C37.248 58.7219 37.5528 59.4034 37.994 59.9946C38.4351 60.5858 39.0015 61.072 39.6527 61.4185C40.3039 61.765 41.0237 61.9631 41.7604 61.9986C42.4972 62.0342 43.2327 61.9062 43.9142 61.624C44.5957 61.3418 45.2064 60.9124 45.7023 60.3664C46.1983 59.8204 46.5673 59.1714 46.7829 58.466C46.9986 57.7606 47.0554 57.0162 46.9495 56.2863C46.8435 55.5563 46.5774 54.8588 46.1701 54.2438L50.5201 49.8938L49.1059 48.4795L44.7559 52.8295C44.0738 52.3778 43.2912 52.1004 42.4769 52.0218C41.6625 51.9432 40.8414 52.0658 40.0855 52.3787C39.3296 52.6917 38.6621 53.1855 38.1416 53.8167C37.6212 54.448 37.2637 55.1973 37.1006 55.999H26.9C26.6319 54.6972 25.8577 53.5551 24.7476 52.824L25.3291 51.3703L23.4721 50.6275L22.8913 52.0799C21.6247 51.8487 20.3178 52.1175 19.2454 52.8299L11.1704 44.7549C11.8828 43.6825 12.1516 42.3756 11.9204 41.109L19.3728 38.1282L18.63 36.2712L11.175 39.2522C10.4439 38.1421 9.30187 37.3678 8 37.0997V26.899C9.30187 26.6309 10.4439 25.8566 11.175 24.7465L18.6288 27.7282L19.3715 25.8712L11.919 22.8897C12.1502 21.6231 11.8814 20.3162 11.169 19.2438L17.394 13.0188L15.9804 11.6044L9.75538 17.8294C9.14041 17.4233 8.44326 17.1582 7.71385 17.0531C6.98443 16.948 6.2408 17.0054 5.53618 17.2213C4.83156 17.4372 4.18339 17.8062 3.63807 18.3019C3.09275 18.7976 2.66377 19.4077 2.38184 20.0886C2.09991 20.7695 1.97201 21.5043 2.00728 22.2404C2.04256 22.9765 2.24015 23.6957 2.5859 24.3465C2.93166 24.9973 3.41702 25.5636 4.00725 26.0049C4.59748 26.4462 5.27797 26.7515 6 26.899V37.1003C4.87158 37.3323 3.85762 37.9461 3.129 38.8385C2.40038 39.7308 2.00165 40.847 2 41.999ZM42 53.999C42.5933 53.999 43.1734 54.175 43.6667 54.5046C44.1601 54.8343 44.5446 55.3028 44.7716 55.851C44.9987 56.3992 45.0581 57.0024 44.9424 57.5843C44.8266 58.1663 44.5409 58.7008 44.1213 59.1204C43.7018 59.5399 43.1672 59.8256 42.5853 59.9414C42.0033 60.0572 41.4001 59.9977 40.852 59.7707C40.3038 59.5436 39.8352 59.1591 39.5056 58.6657C39.1759 58.1724 39 57.5924 39 56.999C39.0009 56.2037 39.3173 55.4412 39.8797 54.8787C40.4421 54.3163 41.2046 54 42 53.999ZM22 53.999C22.5933 53.999 23.1734 54.175 23.6667 54.5046C24.1601 54.8343 24.5446 55.3028 24.7716 55.851C24.9987 56.3992 25.0581 57.0024 24.9424 57.5843C24.8266 58.1663 24.5409 58.7008 24.1213 59.1204C23.7018 59.5399 23.1672 59.8256 22.5853 59.9414C22.0033 60.0572 21.4001 59.9977 20.852 59.7707C20.3038 59.5436 19.8352 59.1591 19.5056 58.6657C19.1759 58.1724 19 57.5924 19 56.999C19.0009 56.2037 19.3173 55.4412 19.8797 54.8787C20.4421 54.3163 21.2046 54 22 53.999ZM4 21.999C4 21.4057 4.17595 20.8257 4.50559 20.3323C4.83524 19.839 5.30377 19.4545 5.85195 19.2274C6.40013 19.0003 7.00333 18.9409 7.58527 19.0567C8.16721 19.1724 8.70176 19.4582 9.12132 19.8777C9.54088 20.2973 9.8266 20.8318 9.94236 21.4138C10.0581 21.9957 9.9987 22.5989 9.77164 23.1471C9.54458 23.6953 9.16006 24.1638 8.66671 24.4934C8.17336 24.8231 7.59334 24.999 7 24.999C6.20464 24.9981 5.44211 24.6817 4.8797 24.1193C4.3173 23.5569 4.00093 22.7944 4 21.999ZM7 38.999C7.59334 38.999 8.17336 39.175 8.66671 39.5046C9.16006 39.8343 9.54458 40.3028 9.77164 40.851C9.9987 41.3992 10.0581 42.0024 9.94236 42.5843C9.8266 43.1663 9.54088 43.7008 9.12132 44.1204C8.70176 44.5399 8.16721 44.8256 7.58527 44.9414C7.00333 45.0572 6.40013 44.9977 5.85195 44.7707C5.30377 44.5436 4.83524 44.1591 4.50559 43.6657C4.17595 43.1724 4 42.5924 4 41.999C4.00093 41.2037 4.3173 40.4412 4.8797 39.8787C5.44211 39.3163 6.20464 39 7 38.999ZM62 21.999C62.0006 21.0957 61.7563 20.2091 61.2931 19.4335C60.8299 18.658 60.1651 18.0225 59.3695 17.5947C58.5738 17.167 57.6771 16.9629 56.7747 17.0042C55.8723 17.0456 54.9979 17.3308 54.2448 17.8295L46.1698 9.75454C46.576 9.13959 46.8413 8.44241 46.9466 7.71293C47.0519 6.98345 46.9946 6.23971 46.7788 5.53497C46.563 4.83024 46.194 4.18194 45.6983 3.63651C45.2025 3.09108 44.5924 2.66201 43.9114 2.38002C43.2304 2.09803 42.4955 1.97011 41.7593 2.00541C41.0231 2.04071 40.3038 2.23836 39.653 2.58421C39.0021 2.93006 38.4358 3.41554 37.9945 4.0059C37.5533 4.59626 37.248 5.27689 37.1006 5.99904H26.9C26.7041 5.03297 26.2274 4.14624 25.5295 3.45006C24.8317 2.75389 23.9438 2.27926 22.9772 2.08572C22.0107 1.89217 21.0085 1.98832 20.0964 2.36211C19.1843 2.73589 18.4029 3.37067 17.8501 4.18683C17.2973 5.00299 16.9979 5.9642 16.9893 6.94989C16.9806 7.93558 17.2633 8.90187 17.8017 9.72757C18.3401 10.5533 19.1103 11.2016 20.0157 11.5913C20.9211 11.981 21.9215 12.0946 22.8913 11.918L23.4721 13.3704L25.3291 12.6277L24.747 11.174C25.8573 10.4431 26.6317 9.30099 26.9 7.99904H37.1012C37.3694 9.30089 38.1436 10.4429 39.2536 11.174L38.2721 13.6278L40.129 14.3705L41.11 11.9182C42.3766 12.1494 43.6834 11.8806 44.7559 11.1682L52.8309 19.2432C52.1185 20.3156 51.8496 21.6225 52.0809 22.889L44.6285 25.8699L45.3713 27.7269L52.825 24.7453C53.1869 25.2952 53.6535 25.7684 54.1983 26.138C54.7431 26.5075 55.3553 26.7661 56 26.899V37.1003C54.6981 37.3684 53.5561 38.1427 52.825 39.2528L49.8713 38.0712L49.1285 39.9282L52.0809 41.109C51.8496 42.3756 52.1185 43.6825 52.8309 44.7549L50.8559 46.7299L52.2701 48.1442L54.2451 46.1692C54.8601 46.5754 55.5573 46.8406 56.2868 46.9458C57.0162 47.0509 57.7599 46.9936 58.4646 46.7777C59.1693 46.5618 59.8176 46.1928 60.3629 45.697C60.9083 45.2013 61.3373 44.5911 61.6192 43.9101C61.9012 43.2291 62.029 42.4943 61.9937 41.7581C61.9584 41.0219 61.7607 40.3027 61.4148 39.6518C61.0689 39.001 60.5835 38.4347 59.9931 37.9935C59.4027 37.5523 58.7221 37.247 58 37.0997V26.899C59.1286 26.667 60.1427 26.053 60.8714 25.1604C61.6 24.2678 61.9986 23.1513 62 21.999ZM22 9.99904C21.4067 9.99904 20.8266 9.82309 20.3333 9.49345C19.8399 9.1638 19.4554 8.69527 19.2284 8.14709C19.0013 7.59891 18.9419 6.99571 19.0576 6.41377C19.1734 5.83182 19.4591 5.29728 19.8787 4.87772C20.2982 4.45816 20.8328 4.17244 21.4147 4.05668C21.9967 3.94093 22.5999 4.00034 23.1481 4.2274C23.6962 4.45446 24.1648 4.83898 24.4944 5.33233C24.8241 5.82567 25 6.40569 25 6.99904C24.9991 7.7944 24.6827 8.55693 24.1203 9.11934C23.5579 9.68174 22.7954 9.99811 22 9.99904ZM42 9.99904C41.4067 9.99904 40.8266 9.82309 40.3333 9.49345C39.8399 9.1638 39.4554 8.69527 39.2284 8.14709C39.0013 7.59891 38.9419 6.99571 39.0576 6.41377C39.1734 5.83182 39.4591 5.29728 39.8787 4.87772C40.2982 4.45816 40.8328 4.17244 41.4147 4.05668C41.9967 3.94093 42.5999 4.00034 43.148 4.2274C43.6962 4.45446 44.1648 4.83898 44.4944 5.33233C44.8241 5.82567 45 6.40569 45 6.99904C44.9991 7.7944 44.6827 8.55693 44.1203 9.11934C43.5579 9.68174 42.7954 9.99811 42 9.99904ZM60 41.999C60 42.5924 59.8241 43.1724 59.4944 43.6657C59.1648 44.1591 58.6962 44.5436 58.148 44.7707C57.5999 44.9977 56.9967 45.0572 56.4147 44.9414C55.8328 44.8256 55.2982 44.5399 54.8787 44.1204C54.4591 43.7008 54.1734 43.1663 54.0576 42.5843C53.9419 42.0024 54.0013 41.3992 54.2284 40.851C54.4554 40.3028 54.8399 39.8343 55.3333 39.5046C55.8266 39.175 56.4067 38.999 57 38.999C57.7954 39 58.5579 39.3163 59.1203 39.8787C59.6827 40.4412 59.9991 41.2037 60 41.999ZM57 24.999C56.4067 24.999 55.8266 24.8231 55.3333 24.4934C54.8399 24.1638 54.4554 23.6953 54.2284 23.1471C54.0013 22.5989 53.9419 21.9957 54.0576 21.4138C54.1734 20.8318 54.4591 20.2973 54.8787 19.8777C55.2982 19.4582 55.8328 19.1724 56.4147 19.0567C56.9967 18.9409 57.5999 19.0003 58.148 19.2274C58.6962 19.4545 59.1648 19.839 59.4944 20.3323C59.8241 20.8257 60 21.4057 60 21.999C59.9991 22.7944 59.6827 23.5569 59.1203 24.1193C58.5579 24.6817 57.7954 24.9981 57 24.999ZM23 22.999V45.999C23.0006 46.5293 23.2115 47.0376 23.5865 47.4126C23.9614 47.7875 24.4698 47.9984 25 47.999H36V49.999H25C23.9395 49.9978 22.9228 49.576 22.1729 48.8261C21.423 48.0763 21.0012 47.0595 21 45.999V22.999H23ZM46 46.999V36.07C46.0014 35.5446 45.8986 35.024 45.6976 34.5385C45.4965 34.053 45.2011 33.6122 44.8285 33.2417L43 31.4133V38.5848L44.7071 40.2919L43.2929 41.7062L41.2929 39.7062L37.9141 36.3274C37.81 36.2233 37.6864 36.1407 37.5503 36.0844C37.4143 36.028 37.2685 35.999 37.1212 35.9991C36.974 35.9991 36.8282 36.0281 36.6921 36.0844C36.5561 36.1408 36.4325 36.2234 36.3284 36.3275C36.2243 36.4317 36.1417 36.5553 36.0853 36.6913C36.029 36.8274 36 36.9732 36 37.1204C36 37.2677 36.029 37.4135 36.0854 37.5495C36.1418 37.6856 36.2244 37.8092 36.3285 37.9133L39.7071 41.2919C39.8706 41.4554 39.9724 41.6704 39.9952 41.9005C40.018 42.1306 39.9604 42.3614 39.8321 42.5538C39.3235 43.3189 39.0257 44.2047 38.9686 45.1217C38.9116 46.0387 39.0973 46.9545 39.5071 47.7768L39.8946 48.5518C39.964 48.6907 40.0001 48.8438 40 48.999V49.999H38V49.2352L37.718 48.6712C37.2137 47.6593 36.9537 46.5432 36.9589 45.4126C36.9641 44.282 37.2343 43.1684 37.7479 42.1612L34.9141 39.3274C34.3329 38.7412 34.0076 37.9486 34.0094 37.123C34.0112 36.2975 34.34 35.5063 34.9237 34.9226C35.5075 34.3389 36.2987 34.0102 37.1242 34.0085C37.9497 34.0067 38.7423 34.3321 39.3285 34.9133L41 36.5848V18.999C40.9994 18.4688 40.7885 17.9605 40.4135 17.5855C40.0386 17.2106 39.5302 16.9997 39 16.999H36.618L35.8944 18.4463C35.8113 18.6124 35.6837 18.7521 35.5257 18.8497C35.3677 18.9473 35.1857 18.999 35 18.999H29C28.8143 18.999 28.6323 18.9473 28.4743 18.8497C28.3163 18.7521 28.1887 18.6124 28.1056 18.4463L27.382 16.999H25C24.4698 16.9997 23.9614 17.2106 23.5865 17.5855C23.2115 17.9605 23.0006 18.4688 23 18.999V20.999H21V18.999C21.0012 17.9385 21.423 16.9218 22.1729 16.1719C22.9228 15.422 23.9395 15.0002 25 14.999H39C40.0605 15.0002 41.0772 15.422 41.8271 16.1719C42.577 16.9218 42.9988 17.9385 43 18.999V28.5848L46.2426 31.8274C46.8015 32.3833 47.2446 33.0444 47.5463 33.7727C47.8479 34.5009 48.0021 35.2818 48 36.07V46.999H46ZM30 43.999H34V45.999H30V43.999ZM34.2929 31.7062C33.6843 31.0989 32.8597 30.7579 32 30.7579C31.1403 30.7579 30.3157 31.0989 29.7071 31.7062L28.2929 30.2919C29.2768 29.3102 30.61 28.7588 32 28.7588C33.39 28.7588 34.7232 29.3102 35.7071 30.2919L34.2929 31.7062ZM37.2929 29.1914C36.5978 28.4963 35.7726 27.945 34.8645 27.5688C33.9563 27.1926 32.983 26.999 32 26.999C31.017 26.999 30.0437 27.1926 29.1355 27.5688C28.2274 27.945 27.4022 28.4963 26.7071 29.1914L25.2929 27.7773C27.0731 26.0011 29.4852 25.0035 32 25.0035C34.5148 25.0035 36.9269 26.0011 38.7071 27.7773L37.2929 29.1914ZM33 34.999V36.999H31V34.999H33ZM27 34.999H29V36.999H27V34.999Z" fill="white"/>
</svg>
