<svg width="181" height="16" viewBox="0 0 181 16" fill="none" xmlns="http://www.w3.org/2000/svg">
<path d="M7.39153 3.83442L7.39153 4.92721C7.39153 5.56681 6.9754 5.9802 6.35306 5.9802C5.70995 5.9802 5.31534 5.56681 5.31534 4.92721L5.31534 3.48294C5.31534 2.63775 4.85841 2.22436 4.13074 2.22436C3.40456 2.22436 2.9684 2.63775 2.9684 3.48294L2.9684 12.2311C2.9684 13.077 3.40456 13.4897 4.13074 13.4897C4.85767 13.4897 5.31534 13.077 5.31534 12.2311L5.31534 10.7868C5.31534 10.1472 5.70995 9.73457 6.35306 9.73457C6.97614 9.73457 7.39153 10.1472 7.39153 10.7868L7.39153 11.8803C7.39153 13.9841 6.24921 15.3665 4.10997 15.3665C1.92994 15.3665 0.766113 14.0261 0.766113 11.8803L0.766113 3.83369C0.766113 1.68792 1.92919 0.346802 4.10997 0.346802C6.24921 0.346802 7.39153 1.72918 7.39153 3.83442Z" fill="white"/>
<path d="M14.7437 3.79243C14.7437 1.70929 16.0729 0.346802 18.1914 0.346802C20.3091 0.346802 21.6383 1.70929 21.6383 3.79243L21.6383 11.9216C21.6383 14.0055 20.3091 15.3672 18.1914 15.3672C16.0729 15.3672 14.7437 14.0055 14.7437 11.9216L14.7437 3.79243V3.79243ZM19.4375 3.48294C19.4375 2.74017 18.9591 2.22436 18.1914 2.22436C17.4229 2.22436 16.9452 2.74017 16.9452 3.48294L16.9452 12.2311C16.9452 12.9739 17.4229 13.4897 18.1914 13.4897C18.9591 13.4897 19.4375 12.9739 19.4375 12.2311L19.4375 3.48294Z" fill="white"/>
<path d="M30.5488 0.636108L32.4595 0.636108C35.035 0.636108 36.2403 2.14227 36.2403 4.4531L36.2403 11.2618C36.2403 13.5726 35.035 15.0788 32.4595 15.0788L30.5488 15.0788C29.9049 15.0788 29.4487 14.6249 29.4487 13.9853L29.4487 1.72962C29.4487 1.08928 29.9049 0.636108 30.5488 0.636108ZM32.4811 13.16C33.5195 13.16 34.0388 12.5403 34.0388 11.5912L34.0388 4.12225C34.0388 3.17316 33.5203 2.55418 32.4811 2.55418L31.6503 2.55418L31.6503 13.16L32.4811 13.16Z" fill="white"/>
<path d="M44.0493 1.52345C44.0493 0.88384 44.4855 0.429932 45.1501 0.429932C45.7932 0.429932 46.2502 0.88384 46.2502 1.52345L46.2502 14.191C46.2502 14.8306 45.7932 15.2845 45.1501 15.2845C44.4855 15.2845 44.0493 14.8306 44.0493 14.191L44.0493 1.52345Z" fill="white"/>
<path d="M60.6845 3.83442L60.6845 4.9272C60.6845 5.56681 60.2683 5.9802 59.646 5.9802C59.0029 5.9802 58.6083 5.56681 58.6083 4.9272L58.6083 3.48294C58.6083 2.63775 58.1514 2.22436 57.4237 2.22436C56.6975 2.22436 56.2614 2.63775 56.2614 3.48294L56.2614 12.2311C56.2614 13.077 56.6975 13.4897 57.4237 13.4897C58.1506 13.4897 58.6083 13.077 58.6083 12.2311L58.6083 10.7868C58.6083 10.1472 59.0029 9.73456 59.646 9.73456C60.2691 9.73456 60.6845 10.1472 60.6845 10.7868L60.6845 11.8803C60.6845 13.9841 59.5422 15.3665 57.4029 15.3665C55.2229 15.3665 54.0591 14.0261 54.0591 11.8803L54.0591 3.83369C54.0591 1.68792 55.2222 0.346802 57.4029 0.346802C59.5422 0.346802 60.6845 1.72918 60.6845 3.83442Z" fill="white"/>
<path d="M68.3276 1.72889C68.3276 1.08929 68.7846 0.636108 69.4277 0.636108L73.5823 0.636108C74.1638 0.636108 74.5577 1.04876 74.5577 1.6051C74.5577 2.1828 74.1638 2.57482 73.5823 2.57482L70.5292 2.57482L70.5292 6.78383L72.8962 6.78383C73.4577 6.78383 73.8723 7.19648 73.8723 7.75282C73.8723 8.33053 73.4569 8.72254 72.8962 8.72254L70.5292 8.72254L70.5292 13.1379L73.6038 13.1379C74.1846 13.1379 74.58 13.5505 74.58 14.1069C74.58 14.6647 74.1846 15.0766 73.6038 15.0766L69.4284 15.0766C68.7853 15.0766 68.3284 14.6227 68.3284 13.9831L68.3284 1.72889L68.3276 1.72889Z" fill="white"/>
<path d="M84.1552 9.38425L84.1552 14.1909C84.1552 14.8305 83.6975 15.2844 83.0544 15.2844C82.4105 15.2844 81.9536 14.8305 81.9536 14.1909L81.9536 1.72889C81.9536 1.08929 82.4105 0.636108 83.0544 0.636108L85.0067 0.636108C87.2706 0.636108 88.5783 1.77089 88.5783 4.16425L88.5783 5.8141C88.5783 7.98051 87.1252 9.38425 84.9652 9.38425L84.1552 9.38425ZM86.3768 4.12225C86.3768 3.15327 85.8776 2.57482 84.9437 2.57482L84.1552 2.57482L84.1552 7.44334L84.9029 7.44334C85.8375 7.44334 86.3768 6.88626 86.3768 5.8959L86.3768 4.12225V4.12225Z" fill="white"/>
<path d="M95.9502 1.52345C95.9502 0.883841 96.4071 0.429932 97.051 0.429932C97.6941 0.429932 98.1517 0.883841 98.1517 1.52345L98.1517 13.1395L100.851 13.1395C101.413 13.1395 101.827 13.5522 101.827 14.1085C101.827 14.6663 101.412 15.0782 100.851 15.0782L97.051 15.0782C96.4071 15.0782 95.9502 14.6243 95.9502 13.9847L95.9502 1.52345V1.52345Z" fill="white"/>
<path d="M115.826 13.9648C115.993 14.81 115.39 15.2853 114.788 15.2853C114.29 15.2853 113.791 14.9551 113.688 14.2536L113.334 11.7365L111.154 11.7365L110.821 14.2536C110.718 14.9551 110.26 15.2853 109.721 15.2853C109.119 15.2853 108.517 14.81 108.684 13.9648L111.093 1.46155C111.237 0.760046 111.591 0.429932 112.255 0.429932C112.919 0.429932 113.273 0.760046 113.417 1.46155L115.826 13.9648ZM111.424 9.83757L113.085 9.83757L112.337 4.30809C112.317 4.1224 112.275 3.87481 112.254 3.60659C112.234 3.87481 112.192 4.14377 112.171 4.30809L111.424 9.83757Z" fill="white"/>
<path d="M122.909 11.4258C122.909 10.7243 123.303 10.3735 123.926 10.3735C124.59 10.3735 124.986 10.7862 124.986 11.4258L124.986 11.921C124.986 12.8288 125.276 13.531 126.21 13.531C127.062 13.531 127.416 12.9113 127.416 11.9011C127.416 10.3529 126.564 9.54898 125.587 8.66179C124.072 7.30005 122.804 5.91767 122.804 3.85443C122.804 1.5237 124.072 0.346924 126.086 0.346924C128.017 0.346924 129.285 1.5856 129.285 3.58621L129.285 4.30761C129.285 4.92658 128.869 5.3186 128.246 5.3186C127.644 5.3186 127.208 4.92658 127.208 4.30761L127.208 3.64738C127.208 2.76018 126.834 2.223 126.086 2.223C125.276 2.223 124.965 2.80071 124.965 3.6879C124.965 5.02901 125.713 5.83367 126.669 6.72086C127.853 7.83501 129.576 9.40308 129.576 11.6933C129.576 13.839 128.246 15.3651 126.169 15.3651C124.113 15.3651 122.909 13.9208 122.909 12.0028L122.909 11.4258V11.4258Z" fill="white"/>
<path d="M140.584 2.57579L140.584 14.1918C140.584 14.8315 140.126 15.2854 139.483 15.2854C138.819 15.2854 138.382 14.8315 138.382 14.1918L138.382 2.57579L136.825 2.57579C136.264 2.57579 135.849 2.18377 135.849 1.60606C135.849 1.04899 136.265 0.637085 136.825 0.637085L142.142 0.637085C142.723 0.637085 143.118 1.04972 143.118 1.60606C143.118 2.18377 142.723 2.57579 142.142 2.57579L140.584 2.57579Z" fill="white"/>
<path d="M150.117 1.52345C150.117 0.88384 150.553 0.429932 151.216 0.429932C151.861 0.429932 152.318 0.88384 152.318 1.52345L152.318 14.191C152.318 14.8306 151.861 15.2845 151.216 15.2845C150.552 15.2845 150.117 14.8306 150.117 14.191L150.117 1.52345Z" fill="white"/>
<path d="M166.752 3.83442L166.752 4.9272C166.752 5.56681 166.336 5.9802 165.714 5.9802C165.071 5.9802 164.675 5.56681 164.675 4.9272L164.675 3.48294C164.675 2.63775 164.219 2.22436 163.492 2.22436C162.765 2.22436 162.328 2.63775 162.328 3.48294L162.328 12.2311C162.328 13.077 162.765 13.4897 163.492 13.4897C164.218 13.4897 164.675 13.077 164.675 12.2311L164.675 10.7868C164.675 10.1472 165.071 9.73456 165.714 9.73456C166.337 9.73456 166.752 10.1472 166.752 10.7868L166.752 11.8803C166.752 13.9841 165.61 15.3665 163.471 15.3665C161.291 15.3665 160.127 14.0261 160.127 11.8803L160.127 3.83369C160.127 1.68792 161.29 0.346802 163.471 0.346802C165.61 0.346802 166.752 1.72918 166.752 3.83442Z" fill="white"/>
<path d="M174.105 3.79243C174.105 1.70929 175.434 0.346802 177.552 0.346802C179.671 0.346802 181 1.70929 181 3.79243L181 11.9216C181 14.0055 179.671 15.3672 177.552 15.3672C175.434 15.3672 174.105 14.0055 174.105 11.9216L174.105 3.79243ZM178.799 3.48294C178.799 2.74017 178.321 2.22436 177.552 2.22436C176.784 2.22436 176.306 2.74017 176.306 3.48294L176.306 12.2311C176.306 12.9739 176.784 13.4897 177.552 13.4897C178.321 13.4897 178.799 12.9739 178.799 12.2311L178.799 3.48294Z" fill="white"/>
</svg>
