<svg width="57" height="69" viewBox="0 0 57 69" fill="none" xmlns="http://www.w3.org/2000/svg">
<path d="M21.68 39.9052C21.8256 39.7869 21.9748 39.6732 22.1199 39.559C21.9733 39.6737 21.8266 39.7859 21.68 39.9052ZM18.2178 64.4518C18.0873 63.5763 17.2795 62.9746 16.4142 63.1062C16.2797 63.1271 16.1532 63.1658 16.0332 63.2173C16.3759 63.5855 16.7025 63.9358 17.0003 64.2555C17.5012 64.7945 17.8807 65.0596 18.168 65.1504C18.233 64.9306 18.2536 64.694 18.2178 64.4518ZM20.1787 60.3312C19.3134 60.4633 18.7193 61.2807 18.8488 62.1557C18.9808 63.0307 19.7876 63.6329 20.6529 63.5008C21.5182 63.3688 22.1134 62.5519 21.9828 61.6764C21.8523 60.8004 21.044 60.1992 20.1787 60.3312ZM24.9213 46.4387C25.0443 47.2597 25.8012 47.8251 26.6126 47.7002C27.4239 47.5768 27.9823 46.8099 27.8598 45.9895C27.8452 45.8875 27.8195 45.7896 27.7863 45.6973C27.5746 45.1119 27.0213 44.7157 26.4009 44.7121C26.3243 44.7116 26.2467 44.7157 26.1686 44.7279C25.3573 44.8519 24.7989 45.6177 24.9213 46.4387ZM26.0769 50.9973C26.8993 50.8714 27.4648 50.0953 27.3403 49.2636C27.2153 48.4314 26.4483 47.8593 25.6264 47.9847C24.8039 48.1107 24.2385 48.8873 24.363 49.719C24.4869 50.5506 25.255 51.1233 26.0769 50.9973ZM25.5412 54.2944C26.3737 54.1664 26.9467 53.3796 26.8207 52.5372C26.6947 51.6944 25.9171 51.1146 25.0846 51.2421C24.2521 51.3695 23.6786 52.1558 23.8046 52.9992C23.9306 53.8416 24.7082 54.4214 25.5412 54.2944ZM25.005 57.59C25.8486 57.461 26.4286 56.6645 26.3011 55.8109C26.1737 54.9573 25.3865 54.3699 24.5429 54.4989C23.6988 54.6284 23.1187 55.4249 23.2462 56.2785C23.3737 57.1326 24.1614 57.719 25.005 57.59ZM25.7816 59.085C25.6526 58.2207 24.8548 57.6256 24.0001 57.7562C23.1464 57.8872 22.5588 58.6944 22.6878 59.5582C22.8169 60.423 23.6141 61.0181 24.4683 60.887C25.3225 60.756 25.9106 59.9493 25.7816 59.085ZM23.4584 61.0135C22.5926 61.1456 21.998 61.9624 22.1285 62.838C22.259 63.7135 23.0668 64.3157 23.9321 64.1831C24.7974 64.0505 25.3925 63.2342 25.2615 62.3586C25.131 61.4831 24.3237 60.8814 23.4584 61.0135ZM28.4112 46.9195C28.5145 47.6095 29.1505 48.0842 29.8313 47.9797C30.3569 47.8991 30.755 47.4973 30.8629 47.0011C30.0742 46.7951 29.2996 46.5024 28.5528 46.1226C28.4253 46.3571 28.3678 46.6345 28.4112 46.9195ZM29.2941 51.2671C29.9815 51.1615 30.4547 50.5129 30.3509 49.8169C30.2465 49.1219 29.6055 48.643 28.9176 48.7481C28.2303 48.8536 27.757 49.5022 27.8609 50.1983C27.9657 50.8943 28.6072 51.3721 29.2941 51.2671ZM27.3116 53.4765C27.4164 54.1781 28.0634 54.6605 28.7569 54.5545C29.4498 54.4484 29.927 53.7942 29.8217 53.0925C29.7174 52.3909 29.0703 51.9085 28.3769 52.0146C27.684 52.1206 27.2067 52.7754 27.3116 53.4765ZM27.8367 55.2806C27.1367 55.3876 26.6564 56.048 26.7618 56.7557C26.8676 57.463 27.5197 57.9494 28.2197 57.8429C28.9186 57.7358 29.3999 57.0755 29.2941 56.3677C29.1883 55.6599 28.5351 55.1735 27.8367 55.2806ZM27.2954 58.5471C26.5904 58.6541 26.1056 59.3206 26.2119 60.0334C26.3188 60.7468 26.9769 61.2379 27.682 61.1298C28.3865 61.0217 28.8718 60.3562 28.7654 59.6424C28.6586 58.93 28.0005 58.439 27.2954 58.5471ZM26.7547 61.813C26.0441 61.9222 25.5538 62.5937 25.6621 63.3127C25.77 64.0317 26.4332 64.5268 27.1442 64.4182C27.8548 64.3085 28.3441 63.638 28.2368 62.9185C28.1295 62.199 27.4658 61.7039 26.7547 61.813ZM32.9074 48.3009C33.3831 48.228 33.7344 47.8425 33.7903 47.3815C33.0933 47.3805 32.3954 47.3173 31.7045 47.1908C31.7004 47.2632 31.7034 47.3367 31.7145 47.4111C31.8012 47.9904 32.3349 48.3886 32.9074 48.3009ZM32.3813 51.6056C32.9749 51.5149 33.3826 50.955 33.2934 50.3543C33.2037 49.7541 32.6499 49.3416 32.0562 49.4324C31.4631 49.5232 31.0554 50.0836 31.1446 50.6837C31.2348 51.2839 31.7881 51.6974 32.3813 51.6056ZM31.8551 54.9114C32.4694 54.8176 32.8928 54.2373 32.7995 53.6162C32.7063 52.9941 32.1333 52.5663 31.5185 52.6606C30.9042 52.755 30.4819 53.3353 30.5751 53.9563C30.6683 54.5774 31.2413 55.0052 31.8551 54.9114ZM32.3062 56.8761C32.2104 56.2336 31.6173 55.7915 30.9818 55.8884C30.3463 55.9858 29.9094 56.5859 30.0057 57.2284C30.1014 57.8709 30.6935 58.3135 31.3295 58.2161C31.965 58.1192 32.4014 57.5191 32.3062 56.8761ZM30.4441 59.1176C29.788 59.2176 29.3364 59.8376 29.4357 60.5016C29.535 61.1655 30.1473 61.6218 30.8039 61.5214C31.4595 61.4209 31.9111 60.8019 31.8118 60.138C31.7125 59.4741 31.1002 59.0167 30.4441 59.1176ZM29.9069 62.3459C29.2296 62.4489 28.7634 63.0888 28.8662 63.7737C28.969 64.4595 29.6005 64.9306 30.2783 64.8271C30.9551 64.7231 31.4212 64.0832 31.3184 63.3984C31.2156 62.7135 30.5842 62.2414 29.9069 62.3459ZM35.3404 47.871C35.3959 48.2423 35.7385 48.4977 36.1054 48.4416C36.4728 48.3855 36.7248 48.0388 36.6693 47.6671C36.6305 47.4086 36.4506 47.2087 36.2218 47.1286C36.1231 47.0944 36.0152 47.0797 35.9043 47.0965C35.7784 47.1159 35.668 47.1709 35.5768 47.2479C35.4024 47.3953 35.3041 47.6268 35.3404 47.871ZM35.5904 51.8218C36.0197 51.7566 36.3151 51.3512 36.2501 50.9178C36.185 50.4833 35.7844 50.1845 35.3561 50.2503C34.9277 50.3161 34.6319 50.7214 34.6969 51.1549C34.7619 51.5893 35.162 51.8881 35.5904 51.8218ZM35.0764 55.202C35.5672 55.1276 35.9049 54.6631 35.8303 54.1669C35.7562 53.6698 35.2981 53.3286 34.8073 53.4036C34.3159 53.4785 33.9783 53.9426 34.0523 54.4387C34.1269 54.9354 34.585 55.277 35.0764 55.202ZM34.2585 56.5569C33.7056 56.6415 33.3246 57.1627 33.4083 57.723C33.492 58.2824 34.008 58.6674 34.5608 58.5828C35.1142 58.4981 35.4951 57.976 35.4115 57.4166C35.3278 56.8567 34.8113 56.4722 34.2585 56.5569ZM33.7097 59.7097C33.0943 59.8035 32.671 60.3843 32.7648 61.0069C32.858 61.6295 33.4315 62.0573 34.0468 61.963C34.6621 61.8691 35.0849 61.2883 34.9922 60.6657C34.8985 60.0431 34.325 59.6153 33.7097 59.7097ZM33.1614 62.8624C32.4831 62.966 32.0179 63.6054 32.1207 64.2907C32.2235 64.976 32.855 65.4472 33.5323 65.3432C34.2096 65.2391 34.6757 64.6002 34.5729 63.9149C34.4701 63.2296 33.8382 62.7584 33.1614 62.8624ZM39.309 48.8001C39.5106 48.7685 39.6507 48.5778 39.6199 48.3733C39.5892 48.1688 39.4002 48.0271 39.1981 48.0587C38.9956 48.0893 38.8565 48.281 38.8872 48.4855C38.9179 48.69 39.1069 48.8307 39.309 48.8001ZM38.7824 52.1905C39.058 52.1482 39.248 51.8876 39.2062 51.6082C39.1649 51.3293 38.9074 51.137 38.6307 51.1788C38.355 51.2212 38.165 51.4817 38.2074 51.7612C38.2492 52.0406 38.5067 52.2328 38.7824 52.1905ZM38.0648 54.3C37.7155 54.353 37.4746 54.6835 37.5281 55.0368C37.5805 55.3897 37.907 55.6334 38.2563 55.5794C38.605 55.5263 38.8459 55.1964 38.7925 54.8431C38.739 54.4897 38.4135 54.247 38.0648 54.3ZM37.4973 57.4202C37.0745 57.4849 36.7837 57.8847 36.8477 58.312C36.9117 58.7403 37.3063 59.0345 37.7296 58.9698C38.1525 58.905 38.4432 58.5063 38.3792 58.0779C38.3152 57.6506 37.9201 57.3559 37.4973 57.4202ZM36.9304 60.5413C36.4345 60.6168 36.0928 61.0859 36.1679 61.5882C36.243 62.0904 36.7056 62.4362 37.203 62.3607C37.6989 62.2847 38.0406 61.8161 37.9655 61.3133C37.8904 60.8106 37.4268 60.4653 36.9304 60.5413ZM36.3634 63.662C35.7935 63.7497 35.4019 64.2882 35.4881 64.8638C35.5743 65.4411 36.1064 65.8373 36.6759 65.7496C37.2453 65.6629 37.6379 65.1249 37.5512 64.5482C37.4656 63.9715 36.9329 63.5748 36.3634 63.662ZM42.5348 49.0387C42.6068 49.0275 42.6557 48.9597 42.6456 48.8863C42.6345 48.8134 42.5675 48.7634 42.4955 48.7746C42.4234 48.7853 42.3735 48.8536 42.3841 48.9266C42.3947 48.9995 42.4617 49.0494 42.5348 49.0387ZM42.2435 52.1278C42.2203 51.9733 42.0777 51.8662 41.9245 51.8897C41.7728 51.9131 41.6665 52.0579 41.6897 52.2124C41.7128 52.3674 41.8554 52.4735 42.0081 52.45C42.1608 52.4261 42.2662 52.2823 42.2435 52.1278ZM41.3545 55.0052C41.1207 55.0404 40.9599 55.2617 40.9952 55.4983C41.031 55.7339 41.2492 55.8965 41.4825 55.8614C41.7159 55.8257 41.8766 55.6049 41.8413 55.3683C41.8061 55.1317 41.5879 54.97 41.3545 55.0052ZM40.7841 58.1203C40.4696 58.1687 40.2534 58.466 40.3013 58.7831C40.3486 59.1013 40.6419 59.3206 40.9559 59.2727C41.2704 59.2242 41.4866 58.9275 41.4392 58.6093C41.3918 58.2911 41.0985 58.0723 40.7841 58.1203ZM40.2136 61.2358C39.819 61.2965 39.5474 61.6703 39.6068 62.0695C39.6663 62.4688 40.0357 62.7441 40.4303 62.6835C40.8254 62.6233 41.097 62.25 41.0375 61.8508C40.9776 61.451 40.6087 61.1757 40.2136 61.2358ZM39.6436 64.3514C39.1679 64.4243 38.8403 64.8735 38.9124 65.3549C38.9845 65.8362 39.4279 66.1677 39.9042 66.0948C40.3799 66.0213 40.7075 65.5731 40.6354 65.0908C40.5633 64.6099 40.1199 64.279 39.6436 64.3514ZM45.2248 52.6137C45.1528 52.6244 45.1034 52.6928 45.1145 52.7657C45.125 52.8386 45.1921 52.8886 45.2641 52.8774C45.3367 52.8666 45.3861 52.7988 45.3755 52.7254C45.3644 52.6525 45.2964 52.602 45.2248 52.6137ZM44.6307 55.7211C44.4679 55.7456 44.356 55.8996 44.3807 56.0643C44.4054 56.229 44.5576 56.3417 44.7199 56.3172C44.8822 56.2917 44.9945 56.1387 44.9693 55.9735C44.9451 55.8093 44.793 55.6972 44.6307 55.7211ZM44.036 58.829C43.783 58.8678 43.6087 59.1069 43.647 59.3634C43.6853 59.6194 43.9216 59.7963 44.1756 59.7566C44.4286 59.7183 44.603 59.4787 44.5642 59.2227C44.5259 58.9667 44.2895 58.7908 44.036 58.829ZM43.4419 61.9375C43.0977 61.99 42.8613 62.3148 42.9132 62.6626C42.9651 63.0103 43.2861 63.2495 43.6298 63.1975C43.9735 63.1444 44.2104 62.8201 44.1585 62.4719C44.1066 62.1241 43.7856 61.8844 43.4419 61.9375ZM42.8477 65.0454C42.4133 65.1122 42.1145 65.5221 42.1805 65.9622C42.246 66.4012 42.6517 66.7041 43.0856 66.6373C43.52 66.5705 43.8193 66.1605 43.7533 65.7205C43.6873 65.2809 43.2821 64.9791 42.8477 65.0454ZM15.5429 61.7111C15.4426 61.9135 15.303 62.095 15.1352 62.2465C14.3667 61.4112 13.5785 60.5388 12.8962 59.7459C12.8488 59.703 12.8014 59.6597 12.7546 59.6174C12.5081 59.3971 12.2657 59.1748 12.0284 58.9484C12.0017 58.9229 11.975 58.8984 11.9488 58.8739L11.8122 59.4338C11.8122 59.4338 11.4745 62.4963 10.0136 59.4664C9.91785 59.2681 9.81857 59.0605 9.71778 58.8474C8.94826 57.2238 8.04821 55.2316 7.32908 53.5846C7.32908 53.5846 7.08366 53.0196 6.97077 52.7565C6.80951 52.499 6.65076 52.2395 6.49756 51.9784L6.11809 52.7366C6.11809 52.7366 5.09004 55.1837 4.61331 52.3216C4.23132 50.0295 3.60794 46.6804 3.28995 44.4694C3.22998 44.2578 3.17152 44.0457 3.11508 43.833L2.3521 44.6775C2.3521 44.6775 0.745523 46.6564 1.14666 43.395C1.44097 41.0132 1.74737 37.6998 2.03008 35.5954C2.02958 35.4241 2.03059 35.2538 2.0326 35.083L1.29331 35.4664C1.29331 35.4664 -0.776394 36.8503 0.320697 34.002C1.14263 31.8685 2.33547 28.8233 3.18764 26.8606C3.23149 26.7026 3.27432 26.5455 3.32018 26.3885L2.58644 26.5425C2.58644 26.5425 0.286427 27.1849 1.79978 25.1065C3.15338 23.2479 5.25131 20.4954 6.65631 18.7765C6.73744 18.6419 6.81858 18.5068 6.90223 18.3721L5.212 18.1789C5.212 18.1789 3.63515 17.9193 5.84496 16.2703C7.85167 14.7722 10.7438 12.7963 12.4356 11.6418L10.6612 11.1656C10.6612 11.1656 8.97799 10.7683 10.8471 10.0331C13.2348 9.0938 17.4317 7.41976 19.64 6.68089L17.5657 5.16289C17.5657 5.16289 16.4772 4.44595 18.5807 4.34397C21.1614 4.21802 25.5956 3.99468 27.873 3.89678L27.8588 3.90239C27.8694 3.90035 27.879 3.89831 27.8891 3.89627L26.3954 2.08557C26.3954 2.08557 25.068 0.677705 27.2103 1.23096C29.8318 1.90812 34.2968 2.89582 36.5454 3.43531L35.4064 1.23759C35.4064 1.23759 34.2569 -0.771464 36.0848 0.329945C38.5128 1.79288 42.9263 4.1859 45.0187 5.36328L44.2013 1.81838C44.2013 1.81838 43.4892 -0.718943 45.3695 1.44206C47.4714 3.857 50.9512 7.83126 52.5961 9.50784C54.6002 11.0554 56.0375 13.3592 56.4447 16.0801C57.2762 21.6427 53.4941 26.8341 47.9965 27.6755C45.0706 28.1237 42.2485 27.2482 40.1229 25.4931C37.7296 23.947 34.899 23.3331 32.0653 23.7665C28.965 24.2412 26.2331 25.9086 24.372 28.4623C22.0494 31.6508 21.5424 35.6347 22.6541 39.147C22.7972 39.5982 22.9675 40.0413 23.1641 40.4748C23.1716 40.4921 23.1792 40.5079 23.1873 40.5253C23.6559 41.5481 24.2718 42.5114 25.0297 43.3792C24.7762 43.6969 24.4174 43.9289 23.9946 44.0131C24.431 44.2731 24.753 44.7223 24.8347 45.2679C24.9783 46.2312 24.3237 47.1291 23.3727 47.275C23.3692 47.2755 23.3662 47.2755 23.3621 47.276C23.8298 47.5223 24.179 47.9827 24.2637 48.5502C24.4053 49.4956 23.7628 50.3773 22.8285 50.52C22.7886 50.5267 22.7488 50.5292 22.709 50.5318C23.2175 50.7592 23.6045 51.2344 23.6937 51.8315C23.8323 52.7591 23.2014 53.6254 22.2852 53.7656C22.1935 53.7794 22.1043 53.7835 22.0156 53.7824C22.5835 53.9742 23.028 54.4729 23.1233 55.1133C23.2593 56.023 22.6405 56.8725 21.7409 57.0107C20.8913 57.1412 20.0961 56.589 19.896 55.7604C19.6571 56.2015 19.2484 56.5426 18.742 56.6772C19.1239 56.9475 19.4001 57.3681 19.4752 57.8714C19.4797 57.903 19.4817 57.9341 19.4848 57.9663C19.7035 57.4788 20.1525 57.1086 20.7134 57.0229C21.5963 56.8878 22.4192 57.5022 22.5528 58.3946C22.6868 59.288 22.0796 60.1212 21.1972 60.2558C20.3148 60.3904 19.4913 59.777 19.3583 58.8841C19.3553 58.8678 19.3553 58.852 19.3532 58.8352C19.1209 59.3869 18.6225 59.8081 17.9931 59.905C17.9805 59.907 17.9674 59.907 17.9538 59.9085C18.4164 60.1492 18.7626 60.6015 18.8463 61.1619C18.9849 62.0869 18.3549 62.9512 17.4408 63.0909C16.5412 63.2286 15.7006 62.6131 15.5429 61.7111ZM17.2417 56.4228C16.9424 56.2214 16.7035 55.9348 16.5599 55.5901C16.3406 55.8665 16.0499 56.0857 15.7082 56.2112C15.9768 56.4432 16.1809 56.7532 16.2842 57.1147C16.5105 56.7879 16.8436 56.539 17.2417 56.4228ZM17.5874 53.116C17.3773 52.9447 17.2024 52.73 17.0764 52.4822C16.892 52.6841 16.6667 52.8483 16.4122 52.9635C16.6027 53.1542 16.7559 53.3852 16.8562 53.6463C17.0497 53.4148 17.2981 53.2312 17.5874 53.116ZM17.9568 49.8123C17.8167 49.6792 17.6937 49.5262 17.5945 49.3564C17.4493 49.4971 17.2845 49.6185 17.1026 49.7134C17.2306 49.8587 17.339 50.0224 17.4226 50.2029C17.5763 50.0453 17.7557 49.9117 17.9568 49.8123ZM18.3464 46.5147C18.2612 46.4239 18.1846 46.3255 18.1155 46.221C18.0127 46.3117 17.9014 46.3933 17.7824 46.4652C17.8585 46.5616 17.9261 46.6656 17.986 46.7752C18.0954 46.6753 18.2163 46.5881 18.3464 46.5147ZM18.7445 43.215C18.6674 43.1238 18.5973 43.0264 18.5343 42.9229C18.4779 42.9789 18.4204 43.0361 18.364 43.0921C18.432 43.1748 18.4955 43.2635 18.552 43.3563C18.6129 43.3058 18.6769 43.2584 18.7445 43.215ZM21.5081 53.6978C21.0193 53.5346 20.6212 53.1486 20.4483 52.6413C20.222 53.0002 19.8834 53.2853 19.4727 53.4357C19.7806 53.7014 20.0033 54.0695 20.087 54.4979C20.3309 54.0904 20.7456 53.7916 21.2481 53.7146C21.3353 53.7009 21.4219 53.6973 21.5081 53.6978ZM21.8926 50.3946C21.5021 50.2222 21.1816 49.9056 21.0067 49.4997C20.7991 49.7954 20.5143 50.0351 20.1772 50.1876C20.4156 50.4267 20.5955 50.7281 20.6872 51.0723C20.9422 50.725 21.3272 50.4757 21.7838 50.4058C21.8195 50.4002 21.8558 50.3977 21.8926 50.3946ZM22.3164 47.0975C21.9995 46.9328 21.7369 46.6707 21.5686 46.3449C21.3826 46.5891 21.1448 46.7926 20.8686 46.9379C21.052 47.147 21.1947 47.3953 21.2828 47.6732C21.5404 47.3744 21.8982 47.1618 22.3164 47.0975ZM22.7634 43.807C22.5064 43.6561 22.2887 43.4425 22.1325 43.1819C21.9692 43.3823 21.7722 43.5536 21.5469 43.6882C21.687 43.8657 21.8029 44.0651 21.8825 44.2853C22.1164 44.0487 22.4182 43.8784 22.7634 43.807ZM13.8224 55.8914C13.6123 55.7201 13.4369 55.5054 13.3109 55.2576C13.1265 55.4595 12.9017 55.6242 12.6472 55.7395C12.8372 55.9297 12.9899 56.1602 13.0907 56.4223C13.2847 56.1908 13.5332 56.0067 13.8224 55.8914ZM14.1913 52.5882C14.0507 52.4557 13.9288 52.3027 13.829 52.1329C13.6843 52.2736 13.5191 52.3945 13.3376 52.4898C13.4651 52.6346 13.5735 52.7983 13.6576 52.9788C13.8118 52.8213 13.9907 52.6872 14.1913 52.5882ZM14.5809 49.2901C14.4967 49.1994 14.4196 49.1015 14.3501 48.9969C14.2467 49.0877 14.1359 49.1693 14.0175 49.2402C14.0936 49.337 14.1611 49.4411 14.221 49.5507C14.3304 49.4507 14.4503 49.3641 14.5809 49.2901ZM15.7067 60.5378C15.9456 60.0748 16.39 60.06 16.9393 59.5501L16.9444 59.5501C16.5261 59.5501 16.195 59.0539 16.0474 58.5802C15.8029 58.9535 15.4285 59.238 14.977 59.3578C15.3549 59.626 15.6286 60.0411 15.7067 60.5378ZM21.5615 65.0882C21.4275 64.1928 20.602 63.5768 19.7171 63.713C18.9642 63.8282 18.4134 64.4508 18.3479 65.1866C18.9188 65.2233 19.0347 64.4416 19.0559 64.0164C19.515 64.2606 19.9776 64.4911 20.4438 64.7098C20.8061 64.951 21.1866 65.1989 21.5751 65.4472C21.5832 65.3299 21.5797 65.2101 21.5615 65.0882ZM24.6432 65.6236C24.5187 64.7899 23.7507 64.2168 22.9262 64.3427C22.2943 64.4396 21.815 64.9215 21.682 65.516C22.4928 66.0346 23.3339 66.5537 24.116 67.0228C24.5076 66.6924 24.7253 66.1708 24.6432 65.6236ZM27.7253 66.159C27.6094 65.387 26.8973 64.8567 26.1359 64.974C25.3729 65.0908 24.8483 65.8107 24.9642 66.5817C25.0796 67.3537 25.7917 67.8835 26.5531 67.7668C26.8978 67.7137 27.1921 67.5378 27.4028 67.2895C27.3806 67.189 27.3544 67.0932 27.3282 67.0096C27.4068 67.0259 27.4859 67.0401 27.564 67.0554C27.7087 66.7923 27.7727 66.4803 27.7253 66.159ZM30.8059 66.6944C30.7001 65.9851 30.045 65.4966 29.3445 65.6037C28.6425 65.7113 28.1602 66.3742 28.2665 67.083C28.2721 67.1207 28.2801 67.1574 28.2892 67.1946C28.5568 67.2421 28.8249 67.2869 29.094 67.3272C29.5481 67.4664 30.0223 67.6072 30.502 67.7454C30.7419 67.468 30.8649 67.0881 30.8059 66.6944ZM33.8876 67.2303C33.7913 66.5822 33.1926 66.1366 32.5531 66.2345C31.9131 66.3329 31.4721 66.9372 31.5694 67.5847C31.5986 67.7821 31.6752 67.9595 31.7841 68.1099C32.2648 68.2446 32.7365 68.3746 33.1871 68.498C33.6673 68.292 33.9697 67.777 33.8876 67.2303ZM35.7617 66.8652C35.1832 66.954 34.7846 67.5006 34.8718 68.087C34.9594 68.6724 35.4997 69.0757 36.0792 68.988C36.1528 68.9768 36.2238 68.9569 36.2909 68.9324C36.6512 68.6402 36.3141 67.9784 36.0691 67.5949C36.3473 67.575 36.624 67.5495 36.9012 67.5215C36.7212 67.0728 36.2561 66.7893 35.7617 66.8652ZM46.7382 62.6661C46.4615 62.7079 46.2715 62.9695 46.3129 63.2495C46.3552 63.5294 46.6132 63.7211 46.8899 63.6793C47.1665 63.6365 47.3565 63.3759 47.3142 63.0955C47.2729 62.816 47.0138 62.6238 46.7382 62.6661ZM50.031 63.3673C49.8329 63.3978 49.6974 63.5845 49.7266 63.7838C49.7412 63.8807 49.7936 63.9618 49.8642 64.0174C49.9392 64.0765 50.0365 64.1066 50.1378 64.0908C50.2729 64.0704 50.3752 63.974 50.4195 63.8527C50.4392 63.7971 50.4513 63.7369 50.4422 63.6737C50.412 63.4743 50.2275 63.3372 50.031 63.3673ZM50.5818 60.2803C50.4865 60.2945 50.4205 60.3853 50.4351 60.4822C50.4487 60.5796 50.539 60.6459 50.6347 60.6321C50.7305 60.6168 50.7965 60.527 50.7818 60.4297C50.7682 60.3317 50.6785 60.2655 50.5818 60.2803ZM47.3046 59.5342C47.096 59.5664 46.9524 59.7632 46.9836 59.9743C47.0148 60.1854 47.2099 60.3307 47.4185 60.2991C47.6271 60.2675 47.7708 60.0697 47.7395 59.8585C47.7083 59.648 47.5133 59.5021 47.3046 59.5342ZM47.8716 56.4738C47.7904 56.486 47.735 56.5625 47.7471 56.6441C47.7592 56.7251 47.8348 56.7823 47.9159 56.769C47.9955 56.7573 48.052 56.6808 48.0389 56.5992C48.0268 56.5176 47.9522 56.4615 47.8716 56.4738Z" fill="white"/>
</svg>
