<?xml version="1.0" encoding="UTF-8" standalone="no"?><!DOCTYPE svg PUBLIC "-//W3C//DTD SVG 1.1//EN" "http://www.w3.org/Graphics/SVG/1.1/DTD/svg11.dtd"><svg width="100%" height="100%" viewBox="0 0 1209 1152" version="1.1" xmlns="http://www.w3.org/2000/svg" xmlns:xlink="http://www.w3.org/1999/xlink" xml:space="preserve" xmlns:serif="http://www.serif.com/" style="fill-rule:evenodd;clip-rule:evenodd;">
<rect x="34.585" y="34.585" width="168.365" height="168.365" style="fill:#111d24;stroke:#111d24;stroke-width:1.56px;"/>
<rect x="9.642" y="9.642" width="218.252" height="218.252" style="fill:none;stroke:#383635;stroke-width:4.68px;"/>
<rect x="36.143" y="983.979" width="1162.97" height="157.453" style="fill:none;stroke:#383635;stroke-width:4.68px;"/>
<rect x="283.235" y="33.805" width="169.924" height="169.924" style="fill:#da2222;"/>
<rect x="532.666" y="273.882" width="169.924" height="169.924" style="fill:#111d24;"/>
<rect x="782.096" y="273.882" width="169.924" height="169.924" style="fill:#da2222;"/>
<rect x="1031.53" y="273.882" width="169.924" height="169.924" style="fill:#da2222;"/>
<rect x="33.805" y="273.882" width="419.355" height="410.001" style="fill:#da2222;"/>
<rect x="532.666" y="513.958" width="169.924" height="169.924" style="fill:#da2222;"/>
<rect x="782.096" y="513.958" width="169.924" height="169.924" style="fill:#111d24;"/>
<rect x="1033.87" y="516.297" width="165.248" height="165.248" style="fill:none;stroke:#da2222;stroke-width:4.68px;"/>
<rect x="33.805" y="754.035" width="169.924" height="169.924" style="fill:#da2222;"/>
<rect x="283.235" y="754.035" width="169.924" height="169.924" style="fill:#da2222;"/>
<rect x="283.235" y="754.035" width="419.355" height="169.924" style="fill:#111d24;"/>
<rect x="782.096" y="754.035" width="169.924" height="169.924" style="fill:#da2222;"/>
<rect x="1031.53" y="754.035" width="169.924" height="169.924" style="fill:#da2222;"/>
<path d="M121.885,900.575l0,81.065" style="fill:none;fill-rule:nonzero;stroke:#da2222;stroke-width:4.68px;"/><path d="M618.746,359.623l-0,472.359" style="fill:none;fill-rule:nonzero;stroke:#111d24;stroke-width:4.68px;"/><path d="M1153.12,361.962l-347.644,-0" style="fill:none;fill-rule:nonzero;stroke:#da2222;stroke-width:4.68px;"/><path d="M1114.93,403.274l-0,-347.644" style="fill:none;fill-rule:nonzero;stroke:#da2222;stroke-width:4.68px;"/><path d="M1119.61,902.134l0,79.506" style="fill:none;fill-rule:nonzero;stroke:#da2222;stroke-width:4.68px;"/>
<rect x="532.666" y="33.805" width="668.785" height="169.924" style="fill:#da2222;"/></svg>