<svg width="60" height="61" viewBox="0 0 60 61" fill="none" xmlns="http://www.w3.org/2000/svg">
<path d="M59.0625 11.4028C59.0625 5.71689 54.4359 1.09033 48.75 1.09033C44.0841 1.09033 40.1372 4.20752 38.8687 8.46752C37.6369 7.96314 36.3713 7.55252 35.0719 7.26564L25.3125 2.38596V5.28189C23.6644 5.59408 22.0322 6.09002 20.4375 6.74346C18.7322 3.39471 15.2587 1.09033 11.25 1.09033C5.56406 1.09033 0.9375 5.71689 0.9375 11.4028C0.9375 16.0688 4.05469 20.0156 8.31375 21.2841C7.81031 22.5141 7.40156 23.7788 7.11469 25.0772L2.23312 34.8403H5.12812C6.0675 39.8644 8.46844 44.4188 12.1012 48.0516L12.7641 48.7144L14.1084 47.37C16.305 49.395 18.8925 50.9991 21.6694 52.0566C22.29 56.1028 25.7831 59.2153 30 59.2153C34.2188 59.2153 37.7138 56.1 38.3306 52.051C39.8138 51.4856 41.2397 50.7835 42.5794 49.9294L52.9481 46.4738L50.9016 44.4263C53.79 40.2094 55.3125 35.2913 55.3125 30.1528V29.2153H53.4122C53.3053 26.4675 52.7325 23.8069 51.6966 21.2813C55.9509 20.0091 59.0625 16.065 59.0625 11.4028ZM48.75 2.96533C53.4019 2.96533 57.1875 6.75096 57.1875 11.4028C57.1875 16.0547 53.4019 19.8403 48.75 19.8403C44.0981 19.8403 40.3125 16.0547 40.3125 11.4028C40.3125 6.75096 44.0981 2.96533 48.75 2.96533ZM26.3934 6.99846L27.1875 6.87471V5.41971L31.6537 7.65283L27.1875 9.88596V8.74689L26.0803 8.95033C24.5091 9.23908 22.9772 9.70689 21.5072 10.3369C21.4416 9.70033 21.3122 9.08346 21.1359 8.48627C22.8544 7.78127 24.6178 7.27314 26.3934 6.99846ZM2.8125 11.4028C2.8125 6.75096 6.59812 2.96533 11.25 2.96533C15.9019 2.96533 19.6875 6.75096 19.6875 11.4028C19.6875 16.0547 15.9019 19.8403 11.25 19.8403C6.59812 19.8403 2.8125 16.0547 2.8125 11.4028ZM6.84562 33.7594L6.72188 32.9653H5.26688L7.5 28.4991L9.73312 32.9653H8.59406L8.7975 34.0725C9.53344 38.0719 11.3616 41.7347 14.1047 44.7225L12.7772 46.05C9.60844 42.6225 7.56281 38.3925 6.84562 33.7594ZM30 57.3403C26.3813 57.3403 23.4375 54.3956 23.4375 50.7778C23.4375 47.16 26.3813 44.2153 30 44.2153C33.6188 44.2153 36.5625 47.16 36.5625 50.7778C36.5625 54.3956 33.6188 57.3403 30 57.3403ZM48.9234 43.9753L48.4491 44.6241L49.4784 45.6525L44.7412 47.2322L46.3209 42.495L47.1263 43.2994L47.7647 42.3731C50.0719 39.0263 51.3694 35.1422 51.5428 31.0903H53.4197C53.2369 35.7553 51.6919 40.1925 48.9234 43.9753ZM51.5372 29.2153H49.6875V30.1528C49.6875 33.781 48.705 37.2863 46.8356 40.3594L45.4997 39.0235L42.6356 47.6166C41.3128 48.5747 39.8934 49.3763 38.3981 50.0091C38.0081 45.7153 34.3931 42.3403 30 42.3403C25.605 42.3403 21.9891 45.7191 21.6009 50.0147C19.3472 49.0585 17.2481 47.7056 15.4341 46.0444L16.7409 44.7375L16.0781 44.0747C13.5122 41.5088 11.7281 38.3353 10.8769 34.8403H12.7659L8.71312 26.7356C8.99156 24.9863 9.49031 23.2847 10.1878 21.66C10.5384 21.6966 10.8919 21.7153 11.25 21.7153C16.6003 21.7153 21.0094 17.6185 21.5119 12.3975C22.7334 11.8135 24.0037 11.3513 25.3125 11.0306V12.9197L33.4163 8.86783C35.1656 9.14627 36.8662 9.64408 38.4919 10.3416C38.4562 10.6903 38.4375 11.0447 38.4375 11.4028C38.4375 17.0888 43.0641 21.7153 48.75 21.7153C49.11 21.7153 49.4663 21.6956 49.8178 21.66C50.8481 24.0581 51.4266 26.5922 51.5372 29.2153Z" fill="#D93232"/>
<path d="M49.6875 10.4653H51.5625V12.3403H49.6875V10.4653Z" fill="#D93232"/>
<path d="M53.4375 10.4653H55.3125V12.3403H53.4375V10.4653Z" fill="#D93232"/>
<path d="M45.9375 10.4653H47.8125V12.3403H45.9375V10.4653Z" fill="#D93232"/>
<path d="M42.1875 10.4653H44.0625V12.3403H42.1875V10.4653Z" fill="#D93232"/>
<path d="M16.875 14.2153H15V9.52783H13.125V14.2153H11.25V7.65283H9.375V14.2153H7.5V5.77783H5.625V16.0903H16.875V14.2153Z" fill="#D93232"/>
<path d="M31.2122 48.6281L33.3618 50.7778L31.2122 52.9275L32.5378 54.2531L36.0131 50.7778L32.5378 47.3025L31.2122 48.6281Z" fill="#D93232"/>
<path d="M27.4621 47.3025L23.9868 50.7778L27.4621 54.2531L28.7878 52.9275L26.6381 50.7778L28.7878 48.6281L27.4621 47.3025Z" fill="#D93232"/>
</svg>
