<svg width="58" height="59" viewBox="0 0 58 59" fill="none" xmlns="http://www.w3.org/2000/svg">
<path d="M53.4092 4.3623C33.9349 4.9709 23.8949 12.0148 14.5245 34.0821C14.3356 34.5647 14.2923 35.0921 14.3997 35.5992C14.5071 36.1062 14.7606 36.5707 15.1289 36.9353L21.825 43.5536C22.1913 43.9138 22.654 44.1603 23.1572 44.2634C23.6605 44.3664 24.1828 44.3217 24.6612 44.1345C30.7839 41.7413 39.5462 36.9654 45.7742 30.7374C54.218 22.2932 54.3153 5.95951 54.3153 5.2684C54.3154 5.1494 54.2919 5.03156 54.2464 4.92161C54.2009 4.81166 54.1341 4.71176 54.05 4.62762C53.9658 4.54347 53.8659 4.47673 53.756 4.43121C53.646 4.38569 53.5282 4.36227 53.4092 4.3623ZM24.001 42.447C23.8491 42.5069 23.6831 42.5215 23.5231 42.489C23.3631 42.4566 23.2159 42.3786 23.0993 42.2643L16.4032 35.6461C15.7892 34.9875 16.5275 34.1629 16.7353 33.4509L25.2315 41.947C24.8114 42.1233 24.3997 42.2912 24.001 42.447ZM44.4928 29.4561C39.4184 34.5298 32.595 38.6091 27.0106 41.1634L17.5176 31.6705C21.3793 23.7656 27.0889 13.4685 36.0233 9.72382C41.6452 12.5552 46.1612 17.1819 48.8557 22.8706C47.8112 25.3113 46.333 27.5425 44.4928 29.4561ZM49.7515 20.6571C47.0917 15.7227 43.1026 11.6323 38.2365 8.84951C42.8353 7.30283 47.6291 6.41144 52.4765 6.20158C52.2651 11.1257 51.3474 15.9939 49.7515 20.6571Z" fill="#D93232"/>
<path d="M11.345 33.7461C11.516 33.9104 11.7447 34.001 11.9818 33.9986C12.219 33.9961 12.4457 33.9008 12.6134 33.7331C12.7811 33.5654 12.8764 33.3387 12.8788 33.1015C12.8812 32.8644 12.7905 32.6358 12.6263 32.4647L10.6769 30.5149L16.6234 19.085C16.9338 18.3608 17.5168 17.7879 18.2463 17.4903C18.9758 17.1927 19.7931 17.1943 20.5215 17.4948C20.6325 17.5743 20.7597 17.6282 20.8941 17.6527C21.0284 17.6771 21.1665 17.6715 21.2984 17.6361C21.4303 17.6008 21.5527 17.5367 21.6569 17.4484C21.761 17.3601 21.8443 17.2498 21.9007 17.1254C21.9571 17.0011 21.9852 16.8657 21.9831 16.7292C21.9809 16.5927 21.9485 16.4583 21.8882 16.3358C21.8279 16.2133 21.7412 16.1057 21.6343 16.0207C21.5274 15.9358 21.403 15.8755 21.27 15.8444C20.1097 15.3457 18.7995 15.3244 17.6235 15.7852C16.4476 16.2461 15.5007 17.1519 14.9881 18.3062L8.7628 30.2671C8.67366 30.438 8.64138 30.6329 8.67067 30.8234C8.69997 31.0139 8.7893 31.1901 8.92567 31.3264L11.345 33.7461Z" fill="#D93232"/>
<path d="M41.1665 38.1233C41.3225 38.4899 41.4038 38.8839 41.4059 39.2824C41.4079 39.6808 41.3305 40.0756 41.1783 40.4438C41.026 40.812 40.802 41.1462 40.5192 41.4268C40.2364 41.7074 39.9005 41.9289 39.5311 42.0783L28.1592 47.9971L26.2186 46.0569C26.0474 45.8932 25.8189 45.8029 25.582 45.8055C25.3452 45.8082 25.1187 45.9034 24.9512 46.0709C24.7837 46.2384 24.6885 46.4649 24.6858 46.7018C24.6832 46.9386 24.7735 47.1671 24.9373 47.3383L27.3477 49.7483C27.484 49.8846 27.6602 49.9738 27.8506 50.0032C28.0411 50.0325 28.2359 50.0005 28.4069 49.9116L40.3081 43.7146C40.9051 43.4574 41.4438 43.0817 41.8915 42.6103C42.3391 42.139 42.6865 41.5817 42.9126 40.9721C43.1387 40.3626 43.2388 39.7136 43.2068 39.0643C43.1748 38.415 43.0114 37.7789 42.7265 37.1946C42.6692 37.0851 42.5902 36.9884 42.4943 36.9105C42.3983 36.8326 42.2875 36.775 42.1686 36.7414C42.0497 36.7077 41.9252 36.6987 41.8027 36.7148C41.6801 36.7309 41.5622 36.7718 41.456 36.835C41.3498 36.8982 41.2576 36.9824 41.1851 37.0824C41.1125 37.1825 41.0611 37.2963 41.034 37.4168C41.0069 37.5374 41.0047 37.6622 41.0275 37.7837C41.0502 37.9052 41.0975 38.0207 41.1665 38.1233Z" fill="#D93232"/>
<path d="M17.7941 45.1199C17.5525 45.377 11.9227 51.4599 15.2341 54.8349C15.4034 55.0013 15.6314 55.0946 15.8688 55.0947C16.1063 55.0948 16.3342 55.0017 16.5038 54.8354C16.6733 54.6691 16.7707 54.443 16.7752 54.2056C16.7797 53.9682 16.6908 53.7385 16.5277 53.5659C14.7925 51.797 17.8932 47.6667 19.1162 46.3593C19.2749 46.183 19.3581 45.9515 19.3481 45.7146C19.338 45.4776 19.2355 45.254 19.0624 45.0918C18.8894 44.9295 18.6597 44.8416 18.4225 44.8469C18.1854 44.8522 17.9598 44.9502 17.7941 45.1199Z" fill="#D93232"/>
<path d="M13.6784 41.0032C13.8531 40.8386 13.9554 40.6115 13.9628 40.3716C13.9702 40.1318 13.8822 39.8988 13.7181 39.7237C13.554 39.5486 13.3271 39.4458 13.0872 39.4378C12.8474 39.4297 12.6142 39.5172 12.4387 39.6809C11.1317 40.9047 7.0027 44.0063 5.23199 42.2697C5.05936 42.1069 4.8298 42.0184 4.5926 42.023C4.3554 42.0277 4.12948 42.1251 3.96336 42.2945C3.79723 42.4639 3.70415 42.6917 3.7041 42.9289C3.70405 43.1661 3.79704 43.3939 3.96309 43.5634C6.94335 46.7667 13.1357 41.6257 13.6784 41.0032Z" fill="#D93232"/>
<path d="M16.3375 42.3404C16.2534 42.2563 16.1535 42.1895 16.0436 42.144C15.9336 42.0984 15.8158 42.075 15.6968 42.075C15.5778 42.075 15.46 42.0984 15.3501 42.144C15.2401 42.1895 15.1403 42.2563 15.0562 42.3404L11.6077 45.7889C11.5235 45.873 11.4568 45.9729 11.4113 46.0829C11.3657 46.1928 11.3423 46.3106 11.3423 46.4296C11.3423 46.5486 11.3657 46.6664 11.4113 46.7763C11.4568 46.8862 11.5235 46.9861 11.6077 47.0703C11.6918 47.1544 11.7917 47.2211 11.9016 47.2667C12.0115 47.3122 12.1294 47.3356 12.2483 47.3356C12.3673 47.3356 12.4851 47.3122 12.5951 47.2667C12.705 47.2211 12.8049 47.1544 12.889 47.0703L16.3375 43.6218C16.4217 43.5377 16.4884 43.4378 16.534 43.3279C16.5795 43.2179 16.603 43.1001 16.603 42.9811C16.603 42.8621 16.5795 42.7443 16.534 42.6344C16.4884 42.5244 16.4217 42.4246 16.3375 42.3404Z" fill="#D93232"/>
<path d="M36.857 17.9885C31.8043 18.1144 31.8047 25.5274 36.8571 25.6527C41.9118 25.5287 41.9098 18.1116 36.857 17.9885ZM38.2852 23.2484C37.9043 23.6168 37.394 23.8208 36.8641 23.8164C36.3342 23.8121 35.8273 23.5996 35.4526 23.225C35.0778 22.8503 34.8654 22.3434 34.8609 21.8135C34.8565 21.2836 35.0604 20.7732 35.4288 20.3923C35.8096 20.0237 36.3201 19.8196 36.85 19.8239C37.38 19.8282 37.8871 20.0406 38.2618 20.4154C38.6366 20.7901 38.8491 21.2971 38.8535 21.8271C38.8579 22.3571 38.6538 22.8675 38.2852 23.2484Z" fill="#D93232"/>
</svg>
