<svg width="58" height="59" viewBox="0 0 58 59" fill="none" xmlns="http://www.w3.org/2000/svg">
<path d="M45.3125 43.6528C45.3125 44.6524 44.4996 45.4653 43.5 45.4653C42.5004 45.4653 41.6875 44.6524 41.6875 43.6528V42.7466H38.0625V40.819C39.6249 40.4166 40.7812 38.9947 40.7812 37.3091C40.7812 35.6235 39.6249 34.2016 38.0625 33.7992V30.0591H27.1875C25.1883 30.0591 23.5625 31.6849 23.5625 33.6841V42.7466V44.5591V53.6216C23.5625 55.6208 25.1883 57.2466 27.1875 57.2466H36.25H38.0625H47.125C49.1242 57.2466 50.75 55.6208 50.75 53.6216V42.7466H45.3125V43.6528ZM25.375 33.6841C25.375 32.6845 26.1879 31.8716 27.1875 31.8716H36.25V35.4966H37.1562C38.1558 35.4966 38.9688 36.3095 38.9688 37.3091C38.9688 38.3087 38.1558 39.1216 37.1562 39.1216H36.25V42.7466H34.3224C33.92 41.1842 32.4981 40.0278 30.8125 40.0278C29.1269 40.0278 27.705 41.1842 27.3026 42.7466H25.375V33.6841ZM27.1875 55.4341C26.1879 55.4341 25.375 54.6212 25.375 53.6216V44.5591H29V43.6528C29 42.6532 29.8129 41.8403 30.8125 41.8403C31.8121 41.8403 32.625 42.6532 32.625 43.6528V44.5591H36.25V46.4867C34.6876 46.889 33.5312 48.311 33.5312 49.9966C33.5312 51.6822 34.6876 53.1041 36.25 53.5065V55.4341H27.1875ZM47.0099 44.5591H48.9375V53.6216C48.9375 54.6212 48.1246 55.4341 47.125 55.4341H38.0625V51.8091H37.1562C36.1567 51.8091 35.3438 50.9962 35.3438 49.9966C35.3438 48.997 36.1567 48.1841 37.1562 48.1841H38.0625V44.5591H39.9901C40.3925 46.1215 41.8144 47.2778 43.5 47.2778C45.1856 47.2778 46.6075 46.1215 47.0099 44.5591Z" fill="#D93232"/>
<path d="M38.9688 14.6528C38.9688 13.6532 39.7817 12.8403 40.7812 12.8403C41.7808 12.8403 42.5938 13.6532 42.5938 14.6528V15.5591H48.0312V11.9341C50.0304 11.9341 51.6562 10.3083 51.6562 8.30908C51.6562 6.30989 50.0304 4.68408 48.0312 4.68408V1.05908H37.1562C35.1571 1.05908 33.5312 2.68489 33.5312 4.68408V15.5591H38.9688V14.6528ZM37.2713 13.7466H35.3438V4.68408C35.3438 3.68449 36.1567 2.87158 37.1562 2.87158H46.2188V6.49658H48.0312C49.0308 6.49658 49.8438 7.30949 49.8438 8.30908C49.8438 9.30868 49.0308 10.1216 48.0312 10.1216H46.2188V13.7466H44.2912C43.8888 12.1842 42.4669 11.0278 40.7812 11.0278C39.0956 11.0278 37.6737 12.1842 37.2713 13.7466Z" fill="#D93232"/>
<path d="M48.0312 20.9966C46.5323 20.9966 45.3125 22.2164 45.3125 23.7153V24.6216H47.125V23.7153C47.125 23.2151 47.531 22.8091 48.0312 22.8091C48.5315 22.8091 48.9375 23.2151 48.9375 23.7153V23.8712C48.9375 24.1096 48.8414 24.3434 48.672 24.5119L47.9216 25.2623C47.4078 25.7752 47.125 26.4585 47.125 27.1845V28.2466H48.9375V27.1845C48.9375 26.9461 49.0336 26.7123 49.203 26.5437L49.9534 25.7934C50.4672 25.2804 50.75 24.5971 50.75 23.8712V23.7153C50.75 22.2164 49.5302 20.9966 48.0312 20.9966Z" fill="#D93232"/>
<path d="M47.125 30.0591H48.9375V31.8716H47.125V30.0591Z" fill="#D93232"/>
<path d="M48.0312 17.3716C43.0342 17.3716 38.9688 21.437 38.9688 26.4341C38.9688 30.0437 41.1283 33.3007 44.4062 34.7317V39.2439L48.9719 35.4395C53.5503 34.9637 57.0938 31.065 57.0938 26.4341C57.0938 21.437 53.0283 17.3716 48.0312 17.3716ZM48.546 33.6578L48.2542 33.6777L46.2188 35.3742V33.4756L45.6152 33.2627C42.7242 32.2377 40.7812 29.4945 40.7812 26.4341C40.7812 22.4366 44.0338 19.1841 48.0312 19.1841C52.0287 19.1841 55.2812 22.4366 55.2812 26.4341C55.2812 30.2186 52.3223 33.3914 48.546 33.6578Z" fill="#D93232"/>
<path d="M39.875 52.7153H41.6875V54.5278H39.875V52.7153Z" fill="#D93232"/>
<path d="M43.5 52.7153H45.3125V54.5278H43.5V52.7153Z" fill="#D93232"/>
<path d="M26.2812 46.3716H28.0938V48.1841H26.2812V46.3716Z" fill="#D93232"/>
<path d="M26.2812 49.9966H28.0938V51.8091H26.2812V49.9966Z" fill="#D93232"/>
<path d="M37.1562 4.68408H38.9688V6.49658H37.1562V4.68408Z" fill="#D93232"/>
<path d="M40.7812 4.68408H42.5938V6.49658H40.7812V4.68408Z" fill="#D93232"/>
<path d="M27.1875 33.6841H29V35.4966H27.1875V33.6841Z" fill="#D93232"/>
<path d="M30.8125 33.6841H32.625V35.4966H30.8125V33.6841Z" fill="#D93232"/>
<path d="M29.9062 14.9972V4.23096C29.9062 2.48189 28.4834 1.05908 26.7344 1.05908C24.9853 1.05908 23.5625 2.48189 23.5625 4.23096V12.9192L18.3534 13.395C19.3367 12.2776 19.9375 10.8167 19.9375 9.21533C19.9375 5.71811 17.091 2.87158 13.5938 2.87158C10.0965 2.87158 7.25 5.71811 7.25 9.21533C7.25 11.0614 8.04841 12.7216 9.31172 13.8816C4.55662 14.6356 0.90625 18.7518 0.90625 23.7153V26.4341C0.90625 28.9326 2.93897 30.9653 5.4375 30.9653H6.34375V34.5903V35.4966V53.1685C6.34375 55.4169 8.17347 57.2466 10.4219 57.2466C11.7097 57.2466 12.8461 56.6349 13.5938 55.7005C14.3414 56.6349 15.4778 57.2466 16.7656 57.2466C19.014 57.2466 20.8438 55.4169 20.8438 53.1685V20.0042L25.8263 19.5058C28.1517 19.2729 29.9062 17.3344 29.9062 14.9972ZM9.0625 9.21533C9.0625 6.7168 11.0952 4.68408 13.5938 4.68408C16.0923 4.68408 18.125 6.7168 18.125 9.21533C18.125 11.7139 16.0923 13.7466 13.5938 13.7466C11.0952 13.7466 9.0625 11.7139 9.0625 9.21533ZM12.2344 30.9653C13.9834 30.9653 15.4062 29.5425 15.4062 27.7935C15.4062 26.0444 13.9834 24.6216 12.2344 24.6216H8.15625V22.8091H15.4062V27.7935V33.6841H8.15625V30.9653H12.2344ZM10.4219 55.4341C9.17216 55.4341 8.15625 54.4182 8.15625 53.1685V35.4966H12.6875V53.1685C12.6875 54.4182 11.6716 55.4341 10.4219 55.4341ZM19.0312 18.3639V53.1685C19.0312 54.4182 18.0153 55.4341 16.7656 55.4341C15.5159 55.4341 14.5 54.4182 14.5 53.1685V35.4966H17.2188V20.9966H6.34375V24.6216H4.53125V26.4341H12.2344C12.9838 26.4341 13.5938 27.044 13.5938 27.7935C13.5938 28.5429 12.9838 29.1528 12.2344 29.1528H5.4375C3.93856 29.1528 2.71875 27.933 2.71875 26.4341V23.7153C2.71875 19.2176 6.37728 15.5591 10.875 15.5591L13.543 15.5564C13.5602 15.5564 13.5765 15.5591 13.5938 15.5591C13.611 15.5591 13.6282 15.5564 13.6463 15.5564L14.5825 15.5555L25.375 14.574V4.23096C25.375 3.48149 25.9849 2.87158 26.7344 2.87158C27.4838 2.87158 28.0938 3.48149 28.0938 4.23096V14.9972C28.0938 16.4001 27.0416 17.5628 25.646 17.7024L19.0312 18.3639Z" fill="#D93232"/>
</svg>
