<svg width="60" height="60" viewBox="0 0 60 60" fill="none" xmlns="http://www.w3.org/2000/svg">
<g clip-path="url(#clip0_2839_1760)">
<path d="M26.1289 38.7097H28.0644V40.6451H26.1289V38.7097Z" fill="#D93232"/>
<path d="M22.2583 38.7097H24.1938V40.6451H22.2583V38.7097Z" fill="#D93232"/>
<path d="M22.2583 54.1935H24.1938V56.129H22.2583V54.1935Z" fill="#D93232"/>
<path d="M26.1289 54.1935H28.0644V56.129H26.1289V54.1935Z" fill="#D93232"/>
<path d="M31.9336 46.4516H33.8691V48.3871H31.9336V46.4516Z" fill="#D93232"/>
<path d="M35.8047 46.4516H37.7402V48.3871H35.8047V46.4516Z" fill="#D93232"/>
<path d="M27.0967 3.87097H32.9031V5.80646H27.0967V3.87097Z" fill="#D93232"/>
<path d="M27.0967 7.74194H32.9031V9.67743H27.0967V7.74194Z" fill="#D93232"/>
<path d="M58.0645 17.4194H52.2581V13.5484H58.0645V0H44.5161V13.5484H50.3226V18.1587L48.7568 21.2903H44.5161C43.4487 21.2903 42.5806 22.1584 42.5806 23.2258V29.0323C42.5806 30.0997 43.4487 30.9677 44.5161 30.9677H50.3226V45.4839C50.3226 46.0181 49.8881 46.4516 49.3548 46.4516H41.6129V37.7419C41.6129 36.1413 40.3103 34.8387 38.7097 34.8387H30.9677V30.9677H36.7742C37.8416 30.9677 38.7097 30.0997 38.7097 29.0323V19.3548C38.7097 18.2874 37.8416 17.4194 36.7742 17.4194H30.9677V13.5484H36.7742V0H23.2258V13.5484H29.0323V18.1587L27.4665 21.2903H23.2258C22.1584 21.2903 21.2903 22.1584 21.2903 23.2258V29.0323C21.2903 30.0997 22.1584 30.9677 23.2258 30.9677H29.0323V34.8387H21.2903C19.6897 34.8387 18.3871 36.1413 18.3871 37.7419V46.4516H10.6452C10.1119 46.4516 9.67742 46.0181 9.67742 45.4839V30.9677H15.4839C16.5513 30.9677 17.4194 30.0997 17.4194 29.0323V19.3548C17.4194 18.2874 16.5513 17.4194 15.4839 17.4194H9.67742V13.5484H15.4839V0H1.93548V13.5484H7.74194V18.1587L6.17613 21.2903H1.93548C0.868064 21.2903 0 22.1584 0 23.2258V29.0323C0 30.0997 0.868064 30.9677 1.93548 30.9677H7.74194V45.4839C7.74194 47.0845 9.04452 48.3871 10.6452 48.3871H18.3871V57.0968C18.3871 58.6974 19.6897 60 21.2903 60H38.7097C40.3103 60 41.6129 58.6974 41.6129 57.0968V48.3871H49.3548C50.9555 48.3871 52.2581 47.0845 52.2581 45.4839V30.9677H58.0645C59.1319 30.9677 60 30.0997 60 29.0323V19.3548C60 18.2874 59.1319 17.4194 58.0645 17.4194ZM46.4516 1.93548H56.129V11.6129H46.4516V1.93548ZM25.1613 1.93548H34.8387V11.6129H25.1613V1.93548ZM36.7742 21.2903H29.6303L30.5981 19.3548H36.7742V21.2903ZM23.2258 23.2258H28.0645H28.6626H36.7742V29.0323H23.2258V23.2258ZM3.87097 1.93548H13.5484V11.6129H3.87097V1.93548ZM15.4839 21.2903H8.34L9.30774 19.3548H15.4839V21.2903ZM1.93548 23.2258H6.77419H7.37226H15.4839V29.0323H1.93548V23.2258ZM21.2903 36.7742H38.7097C39.2429 36.7742 39.6774 37.2077 39.6774 37.7419V42.5806H20.3226V37.7419C20.3226 37.2077 20.7571 36.7742 21.2903 36.7742ZM39.6774 44.5161V50.3226H20.3226V44.5161H39.6774ZM38.7097 58.0645H21.2903C20.7571 58.0645 20.3226 57.631 20.3226 57.0968V52.2581H39.6774V57.0968C39.6774 57.631 39.2429 58.0645 38.7097 58.0645ZM58.0645 21.2903H50.9206L51.8884 19.3548H58.0645V21.2903ZM44.5161 29.0323V23.2258H49.3548H49.9529H58.0645V29.0323H44.5161Z" fill="#D93232"/>
<path d="M48.3872 3.87097H54.1937V5.80646H48.3872V3.87097Z" fill="#D93232"/>
<path d="M48.3872 7.74194H54.1937V9.67743H48.3872V7.74194Z" fill="#D93232"/>
<path d="M5.80664 3.87097H11.6131V5.80646H5.80664V3.87097Z" fill="#D93232"/>
<path d="M5.80664 7.74194H11.6131V9.67743H5.80664V7.74194Z" fill="#D93232"/>
</g>
<defs>
<clipPath id="clip0_2839_1760">
<rect width="60" height="60" fill="white"/>
</clipPath>
</defs>
</svg>
