<svg width="60" height="60" viewBox="0 0 60 60" fill="none" xmlns="http://www.w3.org/2000/svg">
<g clip-path="url(#clip0_2839_1712)">
<path d="M30 23.4375C26.3813 23.4375 23.4375 26.3822 23.4375 30C23.4375 33.6178 26.3813 36.5625 30 36.5625C33.6187 36.5625 36.5625 33.6178 36.5625 30C36.5625 26.3822 33.6187 23.4375 30 23.4375ZM30 34.6875C27.4153 34.6875 25.3125 32.5847 25.3125 30C25.3125 27.4153 27.4153 25.3125 30 25.3125C32.5847 25.3125 34.6875 27.4153 34.6875 30C34.6875 32.5847 32.5847 34.6875 30 34.6875Z" fill="#111D24"/>
<path d="M30 27.1875C28.4494 27.1875 27.1875 28.4494 27.1875 30C27.1875 31.5506 28.4494 32.8125 30 32.8125C31.5506 32.8125 32.8125 31.5506 32.8125 30C32.8125 28.4494 31.5506 27.1875 30 27.1875ZM30 30.9375C29.4834 30.9375 29.0625 30.5175 29.0625 30C29.0625 29.4825 29.4834 29.0625 30 29.0625C30.5166 29.0625 30.9375 29.4825 30.9375 30C30.9375 30.5175 30.5166 30.9375 30 30.9375Z" fill="#111D24"/>
<path d="M13.125 38.4375C9.50625 38.4375 6.5625 41.3822 6.5625 45C6.5625 47.2847 7.73812 49.2984 9.51375 50.4741L10.1803 53.8059C10.3547 54.6788 11.1281 55.3125 12.0187 55.3125H14.2313C15.1219 55.3125 15.8953 54.6788 16.0697 53.8059L16.7362 50.4741C18.5119 49.2984 19.6875 47.2847 19.6875 45C19.6875 41.3822 16.7437 38.4375 13.125 38.4375ZM14.2313 53.4375H12.0187L11.6072 51.3778C12.0947 51.4941 12.6019 51.5625 13.125 51.5625C13.6481 51.5625 14.1553 51.4941 14.6437 51.3778L14.2313 53.4375ZM12.1875 45C12.1875 44.4825 12.6084 44.0625 13.125 44.0625C13.6416 44.0625 14.0625 44.4825 14.0625 45C14.0625 45.5175 13.6416 45.9375 13.125 45.9375C12.6084 45.9375 12.1875 45.5175 12.1875 45ZM14.0625 49.5928V47.64C15.1509 47.2519 15.9375 46.2206 15.9375 45C15.9375 43.4494 14.6756 42.1875 13.125 42.1875C11.5744 42.1875 10.3125 43.4494 10.3125 45C10.3125 46.2206 11.0991 47.2519 12.1875 47.64V49.5928C10.0509 49.1569 8.4375 47.2631 8.4375 45C8.4375 42.4153 10.5403 40.3125 13.125 40.3125C15.7097 40.3125 17.8125 42.4153 17.8125 45C17.8125 47.2631 16.1991 49.1569 14.0625 49.5928Z" fill="#111D24"/>
<path d="M57.1875 25.3125C58.2216 25.3125 59.0625 24.4716 59.0625 23.4375V2.8125C59.0625 1.77844 58.2216 0.9375 57.1875 0.9375H36.5625C35.5284 0.9375 34.6875 1.77844 34.6875 2.8125V20.5941C34.4334 20.5978 34.1756 20.5678 33.9234 20.4628C33.2484 20.1825 32.8125 19.5291 32.8125 18.75V17.8125H30.9375V13.89C32.0259 13.5019 32.8125 12.4706 32.8125 11.25C32.8125 9.69937 31.5506 8.4375 30 8.4375C28.4494 8.4375 27.1875 9.69937 27.1875 11.25C27.1875 12.4706 27.9741 13.5019 29.0625 13.89V17.8125H28.125L27.1875 17.8369V18.7744C27.1875 19.5197 26.7431 20.1863 26.055 20.4713C25.8141 20.5716 25.5628 20.5978 25.3125 20.5922V2.8125C25.3125 1.77844 24.4716 0.9375 23.4375 0.9375H2.8125C1.77844 0.9375 0.9375 1.77844 0.9375 2.8125V23.4375C0.9375 24.4716 1.77844 25.3125 2.8125 25.3125H20.5941C20.5987 25.5619 20.5725 25.8131 20.4722 26.0541C20.1862 26.7422 19.5197 27.1875 18.75 27.1875H17.8125V29.0625H13.89C13.5019 27.9741 12.4706 27.1875 11.25 27.1875C9.69937 27.1875 8.4375 28.4494 8.4375 30C8.4375 31.5506 9.69937 32.8125 11.25 32.8125C12.4706 32.8125 13.5019 32.0259 13.89 30.9375H17.8125V31.875L17.8378 32.8125H18.7753C19.5197 32.8125 20.1862 33.2578 20.4722 33.9459C20.5716 34.1859 20.5988 34.4372 20.5922 34.6875H2.8125C1.77844 34.6875 0.9375 35.5284 0.9375 36.5625V57.1875C0.9375 58.2216 1.77844 59.0625 2.8125 59.0625H23.4375C24.4716 59.0625 25.3125 58.2216 25.3125 57.1875V39.4059C25.5619 39.4013 25.8141 39.4284 26.055 39.5288C26.7431 39.8138 27.1875 40.4803 27.1875 41.25V42.1875H29.0625V46.11C27.9741 46.4981 27.1875 47.5294 27.1875 48.75C27.1875 50.3006 28.4494 51.5625 30 51.5625C31.5506 51.5625 32.8125 50.3006 32.8125 48.75C32.8125 47.5294 32.0259 46.4981 30.9375 46.11V42.1875H31.875L32.8125 42.1631V41.2256C32.8125 40.4803 33.2569 39.8138 33.945 39.5288C34.1859 39.4275 34.4372 39.4003 34.6875 39.4059V57.1875C34.6875 58.2216 35.5284 59.0625 36.5625 59.0625H57.1875C58.2216 59.0625 59.0625 58.2216 59.0625 57.1875V36.5625C59.0625 35.5284 58.2216 34.6875 57.1875 34.6875H39.4059C39.4013 34.4381 39.4275 34.1869 39.5278 33.9459C39.8137 33.2578 40.4803 32.8125 41.2247 32.8125H42.1875V30.9375H46.11C46.4981 32.0259 47.5294 32.8125 48.75 32.8125C50.3006 32.8125 51.5625 31.5506 51.5625 30C51.5625 28.4494 50.3006 27.1875 48.75 27.1875C47.5294 27.1875 46.4981 27.9741 46.11 29.0625H42.1875V28.125L42.1622 27.1875H41.2247C40.4803 27.1875 39.8137 26.7422 39.5278 26.0541C39.4284 25.8141 39.4012 25.5628 39.4078 25.3125H57.1875ZM30 10.3125C30.5166 10.3125 30.9375 10.7325 30.9375 11.25C30.9375 11.7675 30.5166 12.1875 30 12.1875C29.4834 12.1875 29.0625 11.7675 29.0625 11.25C29.0625 10.7325 29.4834 10.3125 30 10.3125ZM11.25 30.9375C10.7334 30.9375 10.3125 30.5175 10.3125 30C10.3125 29.4825 10.7334 29.0625 11.25 29.0625C11.7666 29.0625 12.1875 29.4825 12.1875 30C12.1875 30.5175 11.7666 30.9375 11.25 30.9375ZM30 49.6875C29.4834 49.6875 29.0625 49.2675 29.0625 48.75C29.0625 48.2325 29.4834 47.8125 30 47.8125C30.5166 47.8125 30.9375 48.2325 30.9375 48.75C30.9375 49.2675 30.5166 49.6875 30 49.6875ZM48.75 29.0625C49.2666 29.0625 49.6875 29.4825 49.6875 30C49.6875 30.5175 49.2666 30.9375 48.75 30.9375C48.2334 30.9375 47.8125 30.5175 47.8125 30C47.8125 29.4825 48.2334 29.0625 48.75 29.0625ZM57.1875 2.8125V23.4375H40.5253L40.5984 23.3625L37.2919 20.0569L36.6028 19.4203L36.5625 19.4606V2.8125H57.1875ZM2.8125 2.8125H23.4375V19.4756L23.3616 19.4016L20.0559 22.7072L19.4109 23.3887L19.4597 23.4375H2.8125V2.8125ZM2.8125 57.1875V36.5625H19.4747L19.4016 36.6375L22.7072 39.9431L23.3878 40.5881L23.4375 40.5403V57.1875H2.8125ZM57.1875 57.1875H36.5625V40.5403L36.6291 40.6069L39.9441 37.2928L40.5891 36.6112L40.5403 36.5625H57.1875V57.1875ZM40.3125 28.9462V31.05C39.1931 31.3322 38.2538 32.1244 37.7963 33.2259C37.3388 34.3275 37.4409 35.5509 38.0353 36.5484L36.5494 38.0344C35.5575 37.44 34.3294 37.3378 33.2269 37.7963C32.1291 38.2509 31.3378 39.1856 31.0538 40.3125H28.95C28.6678 39.1931 27.8756 38.2538 26.7741 37.7963C25.6725 37.3388 24.4481 37.44 23.4516 38.0353L21.9656 36.5494C22.5591 35.5566 22.6622 34.3303 22.2038 33.2259C21.7481 32.1291 20.8144 31.3378 19.6875 31.0538V28.95C20.8069 28.6678 21.7463 27.8756 22.2038 26.7741C22.6613 25.6725 22.5591 24.4491 21.9647 23.4516L23.4506 21.9656C24.4434 22.5591 25.6706 22.6622 26.7731 22.2038C27.8709 21.7491 28.6622 20.8144 28.9462 19.6875H31.0453C31.3219 20.8031 32.115 21.7416 33.2362 22.2075C34.3303 22.6641 35.5453 22.5628 36.5466 21.9637L38.0344 23.4506C37.4409 24.4434 37.3378 25.6697 37.7963 26.7741C38.2519 27.8709 39.1866 28.6612 40.3125 28.9462Z" fill="#111D24"/>
<path d="M44.0627 53.8256L55.9755 41.9128L54.6499 40.5872L44.0627 51.1743L40.9755 48.0872L39.6499 49.4128L44.0627 53.8256Z" fill="#111D24"/>
<path d="M43.125 14.0625C43.6428 14.0625 44.0625 13.6428 44.0625 13.125C44.0625 12.6072 43.6428 12.1875 43.125 12.1875C42.6072 12.1875 42.1875 12.6072 42.1875 13.125C42.1875 13.6428 42.6072 14.0625 43.125 14.0625Z" fill="#111D24"/>
<path d="M43.125 17.8125C45.3881 17.8125 47.2819 16.1991 47.7178 14.0625H55.3125V8.4375H53.4375V12.1875H51.5625V10.3125H49.6875V12.1875H47.7178C47.2819 10.0509 45.3881 8.4375 43.125 8.4375C40.5403 8.4375 38.4375 10.5403 38.4375 13.125C38.4375 15.7097 40.5403 17.8125 43.125 17.8125ZM43.125 10.3125C44.6756 10.3125 45.9375 11.5744 45.9375 13.125C45.9375 14.6756 44.6756 15.9375 43.125 15.9375C41.5744 15.9375 40.3125 14.6756 40.3125 13.125C40.3125 11.5744 41.5744 10.3125 43.125 10.3125Z" fill="#111D24"/>
<path d="M19.6875 4.6875H14.0625V8.4375H10.3125V12.1875H6.5625V21.5625H19.6875V4.6875ZM8.4375 14.0625H10.3125V19.6875H8.4375V14.0625ZM12.1875 19.6875V10.3125H14.0625V19.6875H12.1875ZM17.8125 19.6875H15.9375V6.5625H17.8125V19.6875Z" fill="#111D24"/>
</g>
<defs>
<clipPath id="clip0_2839_1712">
<rect width="60" height="60" fill="white"/>
</clipPath>
</defs>
</svg>
