<svg width="60" height="60" viewBox="0 0 60 60" fill="none" xmlns="http://www.w3.org/2000/svg">
<g clip-path="url(#clip0_2839_1817)">
<path d="M14.0625 28.89V30.9375H15.9375V29.0625H17.8125V26.25C17.8125 24.6994 16.5506 23.4375 15 23.4375C14.4834 23.4375 14.0625 23.0175 14.0625 22.5V21.5625H15C15.5166 21.5625 15.9375 21.9825 15.9375 22.5V23.4375H17.8125V22.5C17.8125 21.2794 17.0259 20.2481 15.9375 19.86V17.8125H14.0625V19.6875H12.1875V22.5C12.1875 24.0506 13.4494 25.3125 15 25.3125C15.5166 25.3125 15.9375 25.7325 15.9375 26.25V27.1875H15C14.4834 27.1875 14.0625 26.7675 14.0625 26.25V25.3125H12.1875V26.25C12.1875 27.4706 12.9741 28.5019 14.0625 28.89Z" fill="#DA2222"/>
<path d="M57.1547 30.9375C57.165 30.6244 57.1875 30.3113 57.1875 30C57.1875 28.2159 57.0131 26.4309 56.67 24.6956L56.4881 23.7759L49.1316 25.2394L49.3134 26.1581C49.5619 27.4144 49.6875 28.7072 49.6875 30C49.6875 30.3131 49.6603 30.6244 49.6453 30.9375H44.0297C44.0503 30.6253 44.0625 30.3122 44.0625 30C44.0625 22.2459 37.7541 15.9375 30 15.9375C27.7209 15.9375 25.485 16.4916 23.4834 17.5406L19.9275 13.0959C22.9678 11.28 26.43 10.3125 30 10.3125H30.9375V2.8125H30C27.1022 2.8125 24.2662 3.26719 21.5475 4.15688C21.5531 4.02094 21.5625 3.88594 21.5625 3.75V3.36188L21.2878 3.08719C21.0684 2.86781 18.9694 0.9375 13.125 0.9375H12.1875V1.875C12.1875 2.19187 12.1969 2.50969 12.2156 2.82562C10.6444 2.895 9.24562 3.78844 8.53687 5.205L8.32687 5.625L10.3125 9.59625V12.7959L5.14687 19.2525C3.64125 21.135 2.8125 23.4984 2.8125 25.9088C2.8125 26.1656 2.83406 26.4169 2.85188 26.6691L2.00344 28.0266C1.30594 29.1422 0.9375 30.4266 0.9375 31.7419C0.9375 32.5622 1.07906 33.3684 1.35938 34.1391L4.6875 43.29V59.0625H21.5625V55.8497C24.2766 56.7366 27.1078 57.1875 30 57.1875C30.3141 57.1875 30.6244 57.165 30.9375 57.1547V59.0625H31.875C46.8666 59.0625 59.0625 46.8656 59.0625 31.875V30.9375H57.1547ZM51.3141 26.7159L54.9956 25.9837C55.2066 27.3056 55.3125 28.6528 55.3125 30C55.3125 30.3103 55.2909 30.6244 55.2797 30.9375H51.5203C51.5334 30.6244 51.5625 30.3131 51.5625 30C51.5625 28.8994 51.4791 27.7987 51.3141 26.7159ZM30 17.8125C36.72 17.8125 42.1875 23.28 42.1875 30C42.1875 30.3122 42.1734 30.6253 42.15 30.9375H30.9375V42.1388C28.1203 42.3553 25.3444 41.5978 23.0391 39.9872C23.2978 38.9953 23.4375 37.9725 23.4375 36.9328V34.0078C25.7278 32.0522 27.1875 29.1497 27.1875 25.9088C27.1875 23.4994 26.3587 21.135 24.8531 19.2525L24.6816 19.0378C26.3306 18.2372 28.1475 17.8125 30 17.8125ZM30.9375 49.6453C30.6244 49.6603 30.3131 49.6875 30 49.6875C27.0394 49.6875 24.2053 49.0416 21.5625 47.7844V43.3894C21.8794 42.8878 22.1578 42.3666 22.3959 41.8294C24.66 43.2928 27.2644 44.0625 30 44.0625C30.3113 44.0625 30.6244 44.0503 30.9375 44.0297V49.6453ZM21.2447 6.25875C23.7525 5.33344 26.3728 4.80188 29.0625 4.70438V8.45813C25.7634 8.59969 22.5684 9.495 19.6875 11.0672V9.66L19.845 9.42375C20.4956 8.44688 20.9616 7.37813 21.2447 6.25875ZM19.6753 4.20563C19.5947 5.69719 19.1184 7.1325 18.285 8.38219L18.2484 8.4375H15.5869C14.7328 6.69094 14.22 4.77375 14.0934 2.83219C17.3775 2.97375 19.0556 3.81 19.6753 4.20563ZM17.8125 10.3125V12.1875H12.1875V10.3125H17.8125ZM12.4088 4.6875H12.4294C12.6488 5.97375 13.0153 7.23563 13.5234 8.4375H11.8294L10.4447 5.66906C10.9031 5.055 11.6222 4.6875 12.4088 4.6875ZM6.61125 20.4244L11.7009 14.0625H18.2991L23.3888 20.4244C24.6291 21.9741 25.3125 23.9231 25.3125 25.9088C25.3125 30.7491 21.3741 34.6875 16.5337 34.6875H13.4672C12.7406 34.6875 12.0244 34.5797 11.3259 34.4044C10.7072 33.2025 9.78281 32.1666 8.60438 31.4222L10.1334 26.0691C10.2525 25.6547 10.3125 25.2244 10.3125 24.7922C10.3125 23.0119 8.86312 21.5625 7.08187 21.5625C6.43219 21.5625 5.83781 21.8916 5.49187 22.4428L5.25844 22.8169C5.58094 21.9581 6.03281 21.1472 6.61125 20.4244ZM3.12187 33.4978C2.91656 32.9344 2.8125 32.3438 2.8125 31.7419C2.8125 30.7781 3.0825 29.8369 3.59344 29.0194L7.08187 23.4375C7.83 23.4375 8.4375 24.045 8.4375 24.7922C8.4375 25.05 8.40187 25.3069 8.33062 25.5544L6.38438 32.3653L7.08 32.7131C9.07406 33.7097 10.3125 35.7141 10.3125 37.9425V38.4375H12.1875V37.9425C12.1875 37.4372 12.1247 36.9459 12.0309 36.4631C12.5053 36.5269 12.9844 36.5625 13.4663 36.5625H16.5328C18.3506 36.5625 20.0625 36.1031 21.5616 35.2969V36.9328C21.5616 38.7928 21.0609 40.6003 20.1084 42.1875H6.28125L3.12187 33.4978ZM6.5625 57.1875V44.0625H19.6875V57.1875H6.5625ZM30 55.3125C27.0975 55.3125 24.2663 54.8072 21.5625 53.85V49.8441C24.2259 50.9822 27.0562 51.5625 30 51.5625C30.3131 51.5625 30.6244 51.5334 30.9375 51.5203V55.2797C30.6244 55.2909 30.3141 55.3125 30 55.3125ZM32.8125 57.1697V32.8125H57.1706C56.6878 46.0275 46.0275 56.6878 32.8125 57.1697Z" fill="#DA2222"/>
<path d="M45 44.0625C43.4494 44.0625 42.1875 45.3244 42.1875 46.875C42.1875 48.4256 43.4494 49.6875 45 49.6875C46.5506 49.6875 47.8125 48.4256 47.8125 46.875C47.8125 45.3244 46.5506 44.0625 45 44.0625ZM45 47.8125C44.4834 47.8125 44.0625 47.3925 44.0625 46.875C44.0625 46.3575 44.4834 45.9375 45 45.9375C45.5166 45.9375 45.9375 46.3575 45.9375 46.875C45.9375 47.3925 45.5166 47.8125 45 47.8125Z" fill="#DA2222"/>
<path d="M37.5 40.3125C39.0506 40.3125 40.3125 39.0506 40.3125 37.5C40.3125 35.9494 39.0506 34.6875 37.5 34.6875C35.9494 34.6875 34.6875 35.9494 34.6875 37.5C34.6875 39.0506 35.9494 40.3125 37.5 40.3125ZM37.5 36.5625C38.0166 36.5625 38.4375 36.9825 38.4375 37.5C38.4375 38.0175 38.0166 38.4375 37.5 38.4375C36.9834 38.4375 36.5625 38.0175 36.5625 37.5C36.5625 36.9825 36.9834 36.5625 37.5 36.5625Z" fill="#DA2222"/>
<path d="M34.9094 48.1575L46.163 35.037L47.5861 36.2576L36.3325 49.3781L34.9094 48.1575Z" fill="#DA2222"/>
<path d="M48.194 22.4644L48.553 23.3306L55.484 20.459L55.1249 19.5928C51.6327 11.1731 44.2227 5.09436 35.3033 3.32999L34.3846 3.14905L32.9211 10.5065L33.8418 10.6884C40.3002 11.9644 45.6655 16.3669 48.194 22.4644ZM44.578 14.0962C43.9977 13.5637 43.3893 13.065 42.7546 12.6L44.8396 9.47905C45.6758 10.0837 46.4746 10.74 47.2311 11.4431L44.578 14.0962ZM41.1908 11.564C40.5196 11.1572 39.8258 10.7869 39.1105 10.454L40.5468 6.98624C41.489 7.41655 42.3993 7.90311 43.2758 8.44217L41.1908 11.564ZM49.5486 20.8884C49.214 20.1703 48.8418 19.4775 48.4358 18.8081L51.5558 16.7231C52.093 17.5969 52.5833 18.5053 53.0165 19.4503L49.5486 20.8884ZM50.5115 15.1678L47.3905 17.2528C46.9246 16.6162 46.4258 16.0069 45.8961 15.4284L48.5511 12.7744C49.2515 13.529 49.9058 14.3278 50.5115 15.1678ZM35.8555 5.36811C36.8671 5.60717 37.8543 5.91092 38.8171 6.26717L37.3808 9.73405C36.6458 9.4678 35.893 9.23811 35.1243 9.05061L35.8555 5.36811Z" fill="#DA2222"/>
</g>
<defs>
<clipPath id="clip0_2839_1817">
<rect width="60" height="60" fill="white"/>
</clipPath>
</defs>
</svg>
