<svg width="172" height="172" viewBox="0 0 172 172" fill="none" xmlns="http://www.w3.org/2000/svg">
<rect width="172" height="172" fill="white"/>
<g clip-path="url(#clip0)">
<path d="M27 61.6434H34.0539L37.3243 72.4687C37.4303 72.7912 37.5378 73.1456 37.6468 73.532C37.7558 73.9184 37.8845 74.3368 38.0329 74.7871C39.0798 78.0144 39.9143 81.3074 40.531 84.6448C40.9156 81.9826 41.2366 80.1251 41.494 79.0724L42.5205 74.6273L42.9066 72.8885L45.6591 61.6434H52.6177L43.9876 89.9935V111.384H37.3243V89.9935L27 61.6434Z" fill="#111D24"/>
<path d="M80.6425 87.7391C80.6425 96.5228 79.6705 102.76 77.7264 106.45C75.7824 110.141 72.5212 111.985 67.9427 111.982C63.1341 111.982 59.7472 110.004 57.7819 106.049C55.8349 102.154 54.8613 95.2449 54.8613 85.3203C54.8613 76.4727 55.8227 70.2112 57.7456 66.5358C59.6684 62.8605 62.9615 61.0152 67.6247 61C71.7702 61 74.8482 62.4285 76.8589 65.2854C78.1852 67.1961 79.1466 69.913 79.7431 73.4362C80.3427 76.7009 80.6425 81.4685 80.6425 87.7391ZM73.6521 88.4464C73.6521 79.8331 73.2676 74.1208 72.4984 71.3095C71.7293 68.4983 70.1577 67.0804 67.7837 67.0561C65.4097 67.0561 63.8275 68.3553 63.0372 70.9536C62.2468 73.5519 61.8623 78.8139 61.8835 86.7396C61.8835 94.0203 62.2892 99.0678 63.1008 101.882C63.9335 104.544 65.4945 105.875 67.7837 105.875C70.0729 105.875 71.6127 104.63 72.4031 102.138C73.2358 99.6702 73.6521 95.1065 73.6521 88.4464Z" fill="#111D24"/>
<path d="M112.033 87.7391C112.033 96.5228 111.061 102.76 109.117 106.45C107.173 110.141 103.912 111.985 99.3336 111.982C94.525 111.982 91.1381 110.004 89.1729 106.049C87.2289 102.161 86.2568 95.2556 86.2568 85.334C86.2568 76.4864 87.2183 70.2249 89.1411 66.5495C91.0639 62.8742 94.3615 61.0243 99.0339 61C103.179 61 106.257 62.4285 108.268 65.2854C109.594 67.1961 110.556 69.913 111.152 73.4362C111.74 76.7009 112.033 81.4685 112.033 87.7391ZM105.043 88.4464C105.043 79.8331 104.659 74.1208 103.889 71.3095C103.12 68.4983 101.549 67.0804 99.1747 67.0561C96.8006 67.0561 95.2185 68.3553 94.4281 70.9536C93.6378 73.5519 93.2532 78.8139 93.2744 86.7396C93.2744 94.0203 93.6802 99.0678 94.4917 101.882C95.3245 104.544 96.8854 105.875 99.1747 105.875C101.464 105.875 103.004 104.63 103.794 102.138C104.627 99.6702 105.043 95.1065 105.043 88.4464Z" fill="#111D24"/>
<path d="M114.632 61.6435H121.109L124.538 71.2776C125.885 75.0777 126.686 77.8586 126.941 79.6202C127.177 78.5249 127.439 77.46 127.727 76.4255C128.014 75.3911 128.317 74.3597 128.635 73.3313L129.089 71.88L132.269 61.6344H139.005L129.83 86.1281L139.005 111.384H132.264L129.012 101.914C128.349 100.025 127.814 98.3285 127.409 96.8255C127.037 95.5068 126.743 94.1673 126.527 92.814C126.363 94.2068 126.073 95.5816 125.66 96.9214L124.538 100.463L123.961 102.329L121.109 111.352H114.055L123.416 86.0961L114.632 61.6435Z" fill="#111D24"/>
</g>
<defs>
<clipPath id="clip0">
<rect width="112" height="51" fill="white" transform="translate(27 61)"/>
</clipPath>
</defs>
</svg>
