<svg width="132" height="34" viewBox="0 0 132 34" fill="none" xmlns="http://www.w3.org/2000/svg">
<path d="M10.6807 19.6634C10.7525 19.6051 10.826 19.5491 10.8975 19.4928C10.8252 19.5494 10.753 19.6046 10.6807 19.6634ZM8.97512 31.7589C8.91082 31.3275 8.51284 31.031 8.08656 31.0958C8.02027 31.1061 7.95795 31.1252 7.89886 31.1506C8.06769 31.332 8.22857 31.5046 8.3753 31.6621C8.62208 31.9277 8.80903 32.0584 8.95054 32.1031C8.98257 31.9948 8.99275 31.8782 8.97512 31.7589ZM9.94115 29.7284C9.51486 29.7935 9.22215 30.1963 9.28596 30.6274C9.351 31.0586 9.74849 31.3553 10.1748 31.2903C10.6011 31.2252 10.8943 30.8227 10.83 30.3913C10.7657 29.9596 10.3674 29.6634 9.94115 29.7284ZM12.2776 22.8828C12.3382 23.2874 12.7111 23.566 13.1108 23.5045C13.5106 23.4437 13.7856 23.0658 13.7253 22.6615C13.7181 22.6112 13.7054 22.563 13.6891 22.5175C13.5848 22.2291 13.3122 22.0338 13.0066 22.0321C12.9688 22.0318 12.9306 22.0338 12.8921 22.0399C12.4924 22.1009 12.2173 22.4783 12.2776 22.8828ZM12.8469 25.1291C13.2521 25.067 13.5307 24.6846 13.4693 24.2748C13.4078 23.8648 13.0299 23.5828 12.625 23.6447C12.2198 23.7067 11.9412 24.0894 12.0026 24.4992C12.0636 24.909 12.442 25.1912 12.8469 25.1291ZM12.583 26.7538C12.9932 26.6907 13.2754 26.303 13.2134 25.8879C13.1513 25.4726 12.7682 25.1869 12.3581 25.2497C11.9479 25.3125 11.6654 25.7 11.7275 26.1156C11.7895 26.5306 12.1726 26.8163 12.583 26.7538ZM12.3188 28.3777C12.7345 28.3141 13.0202 27.9216 12.9574 27.501C12.8946 27.0804 12.5068 26.7909 12.0912 26.8545C11.6753 26.9183 11.3896 27.3108 11.4524 27.7314C11.5152 28.1523 11.9032 28.4412 12.3188 28.3777ZM12.7014 29.1144C12.6379 28.6885 12.2449 28.3952 11.8238 28.4596C11.4032 28.5241 11.1137 28.9219 11.1773 29.3475C11.2408 29.7737 11.6336 30.0669 12.0544 30.0023C12.4753 29.9377 12.765 29.5402 12.7014 29.1144ZM11.5569 30.0646C11.1304 30.1297 10.8374 30.5322 10.9017 30.9636C10.966 31.3951 11.364 31.6918 11.7903 31.6265C12.2166 31.5611 12.5098 31.1589 12.4452 30.7274C12.3809 30.296 11.9832 29.9995 11.5569 30.0646ZM13.9969 23.1198C14.0478 23.4597 14.3611 23.6937 14.6965 23.6421C14.9555 23.6024 15.1516 23.4045 15.2048 23.16C14.8162 23.0585 14.4346 22.9142 14.0667 22.7271C14.0039 22.8426 13.9756 22.9793 13.9969 23.1198ZM14.4319 25.262C14.7705 25.21 15.0037 24.8904 14.9525 24.5474C14.9011 24.205 14.5853 23.969 14.2464 24.0208C13.9078 24.0728 13.6747 24.3924 13.7258 24.7354C13.7774 25.0784 14.0935 25.3138 14.4319 25.262ZM13.4552 26.3507C13.5068 26.6965 13.8256 26.9342 14.1672 26.8819C14.5086 26.8296 14.7437 26.5073 14.6918 26.1615C14.6404 25.8158 14.3217 25.5781 13.98 25.6304C13.6387 25.6826 13.4035 26.0053 13.4552 26.3507ZM13.7139 27.2397C13.369 27.2925 13.1324 27.6178 13.1843 27.9666C13.2365 28.3151 13.5577 28.5548 13.9026 28.5023C14.2469 28.4495 14.484 28.1241 14.4319 27.7754C14.3798 27.4266 14.058 27.1869 13.7139 27.2397ZM13.4472 28.8493C13.0999 28.902 12.8611 29.2304 12.9135 29.5817C12.9661 29.9332 13.2903 30.1752 13.6377 30.1219C13.9848 30.0686 14.2238 29.7407 14.1715 29.389C14.1188 29.038 13.7946 28.796 13.4472 28.8493ZM13.1808 30.4586C12.8308 30.5124 12.5892 30.8433 12.6426 31.1976C12.6957 31.5518 13.0224 31.7958 13.3728 31.7423C13.7228 31.6883 13.9639 31.3579 13.911 31.0033C13.8581 30.6488 13.5312 30.4048 13.1808 30.4586ZM16.212 23.8004C16.4464 23.7645 16.6194 23.5746 16.647 23.3474C16.3036 23.3469 15.9598 23.3158 15.6194 23.2534C15.6174 23.2891 15.6189 23.3253 15.6243 23.362C15.667 23.6474 15.93 23.8437 16.212 23.8004ZM15.9528 25.4289C16.2453 25.3841 16.4461 25.1083 16.4022 24.8123C16.358 24.5165 16.0851 24.3133 15.7927 24.358C15.5005 24.4027 15.2996 24.6789 15.3435 24.9746C15.388 25.2703 15.6606 25.4741 15.9528 25.4289ZM15.6936 27.0578C15.9963 27.0116 16.2048 26.7256 16.1589 26.4196C16.1129 26.113 15.8307 25.9022 15.5278 25.9487C15.2251 25.9952 15.0171 26.2811 15.063 26.5872C15.1089 26.8932 15.3912 27.104 15.6936 27.0578ZM15.9158 28.0259C15.8686 27.7093 15.5764 27.4915 15.2634 27.5392C14.9503 27.5872 14.735 27.8829 14.7824 28.1995C14.8296 28.5161 15.1213 28.7342 15.4347 28.6862C15.7477 28.6385 15.9627 28.3427 15.9158 28.0259ZM14.9984 29.1304C14.6752 29.1797 14.4527 29.4852 14.5017 29.8124C14.5506 30.1395 14.8522 30.3644 15.1757 30.3149C15.4987 30.2654 15.7212 29.9604 15.6723 29.6332C15.6233 29.3061 15.3217 29.0807 14.9984 29.1304ZM14.7338 30.7212C14.4001 30.7719 14.1705 31.0873 14.2211 31.4247C14.2718 31.7626 14.5828 31.9948 14.9168 31.9438C15.2502 31.8925 15.4798 31.5772 15.4292 31.2398C15.3786 30.9023 15.0675 30.6697 14.7338 30.7212ZM17.4107 23.5886C17.438 23.7715 17.6068 23.8974 17.7875 23.8698C17.9685 23.8421 18.0927 23.6713 18.0653 23.4881C18.0462 23.3607 17.9576 23.2622 17.8449 23.2228C17.7962 23.206 17.7431 23.1987 17.6885 23.207C17.6264 23.2165 17.572 23.2436 17.5271 23.2816C17.4412 23.3542 17.3928 23.4683 17.4107 23.5886ZM17.5338 25.5354C17.7453 25.5032 17.8908 25.3035 17.8588 25.0899C17.8268 24.8758 17.6294 24.7286 17.4184 24.761C17.2073 24.7934 17.0616 24.9932 17.0936 25.2067C17.1256 25.4208 17.3228 25.5681 17.5338 25.5354ZM17.2806 27.201C17.5224 27.1643 17.6887 26.9354 17.652 26.6909C17.6155 26.446 17.3898 26.2779 17.148 26.3148C16.9059 26.3517 16.7396 26.5804 16.7761 26.8249C16.8128 27.0696 17.0385 27.2379 17.2806 27.201ZM16.8776 27.8686C16.6053 27.9103 16.4176 28.1671 16.4588 28.4432C16.5 28.7189 16.7542 28.9086 17.0266 28.8669C17.2992 28.8252 17.4869 28.5679 17.4457 28.2922C17.4044 28.0163 17.15 27.8269 16.8776 27.8686ZM16.6072 29.4221C16.3041 29.4684 16.0956 29.7546 16.1417 30.0614C16.1877 30.3681 16.4702 30.579 16.7733 30.5325C17.0765 30.4862 17.2848 30.2001 17.2391 29.8933C17.1929 29.5865 16.9104 29.3757 16.6072 29.4221ZM16.3371 30.9757C16.003 31.0267 15.7738 31.3418 15.8244 31.6795C15.8751 32.0172 16.1862 32.2493 16.5199 32.1981C16.8535 32.1468 17.0832 31.832 17.0325 31.4943C16.9819 31.1566 16.6706 30.9244 16.3371 30.9757ZM19.3658 24.0464C19.4651 24.0308 19.5341 23.9369 19.519 23.8361C19.5038 23.7354 19.4107 23.6655 19.3112 23.6811C19.2114 23.6962 19.1428 23.7906 19.158 23.8914C19.1731 23.9922 19.2662 24.0615 19.3658 24.0464ZM19.1063 25.7171C19.2422 25.6962 19.3358 25.5678 19.3151 25.4301C19.2948 25.2927 19.1679 25.198 19.0316 25.2186C18.8958 25.2394 18.8022 25.3678 18.8231 25.5055C18.8437 25.6432 18.9705 25.7379 19.1063 25.7171ZM18.7528 26.7565C18.5808 26.7827 18.4621 26.9455 18.4884 27.1196C18.5142 27.2935 18.6751 27.4136 18.8472 27.3869C19.019 27.3608 19.1376 27.1982 19.1113 27.0241C19.085 26.85 18.9246 26.7304 18.7528 26.7565ZM18.4733 28.294C18.265 28.3259 18.1217 28.5229 18.1532 28.7334C18.1848 28.9445 18.3792 29.0895 18.5877 29.0576C18.796 29.0257 18.9393 28.8292 18.9077 28.6181C18.8762 28.4076 18.6816 28.2623 18.4733 28.294ZM18.194 29.832C17.9497 29.8691 17.7813 30.1003 17.8183 30.3478C17.8553 30.5953 18.0832 30.7656 18.3283 30.7285C18.5726 30.691 18.7409 30.4601 18.7039 30.2124C18.6669 29.9646 18.4385 29.7945 18.194 29.832ZM17.9146 31.3697C17.6339 31.4129 17.4409 31.6782 17.4834 31.9619C17.5259 32.2463 17.788 32.4415 18.0686 32.3983C18.3491 32.3556 18.5425 32.0905 18.4998 31.8064C18.4576 31.5222 18.1952 31.3267 17.9146 31.3697ZM20.955 24.164C20.9905 24.1585 21.0146 24.1251 21.0096 24.0889C21.0041 24.053 20.9711 24.0283 20.9356 24.0339C20.9001 24.0391 20.8755 24.0728 20.8808 24.1087C20.886 24.1447 20.919 24.1693 20.955 24.164ZM20.8115 25.6862C20.8001 25.61 20.7298 25.5573 20.6543 25.5688C20.5796 25.5804 20.5272 25.6517 20.5386 25.7279C20.5501 25.8042 20.6203 25.8565 20.6955 25.845C20.7708 25.8331 20.8227 25.7623 20.8115 25.6862ZM20.3735 27.104C20.2583 27.1214 20.1791 27.2304 20.1965 27.347C20.2141 27.4631 20.3216 27.5432 20.4366 27.5259C20.5515 27.5083 20.6307 27.3995 20.6134 27.2829C20.596 27.1663 20.4885 27.0867 20.3735 27.104ZM20.0925 28.639C19.9376 28.6628 19.8311 28.8093 19.8546 28.9656C19.878 29.1224 20.0225 29.2304 20.1771 29.2068C20.3321 29.1829 20.4386 29.0367 20.4152 28.8799C20.3919 28.7231 20.2474 28.6154 20.0925 28.639ZM19.8114 30.1742C19.6171 30.2041 19.4832 30.3882 19.5125 30.585C19.5418 30.7817 19.7238 30.9174 19.9182 30.8875C20.1128 30.8579 20.2467 30.6739 20.2174 30.4772C20.1878 30.2802 20.0061 30.1445 19.8114 30.1742ZM19.5306 31.7094C19.2963 31.7453 19.1349 31.9667 19.1704 32.2039C19.2059 32.4411 19.4244 32.6044 19.659 32.5684C19.8934 32.5323 20.0548 32.3114 20.0192 32.0737C19.9837 31.8368 19.7653 31.6737 19.5306 31.7094ZM22.2803 25.9256C22.2448 25.9309 22.2204 25.9646 22.2259 26.0005C22.2311 26.0364 22.2641 26.061 22.2996 26.0555C22.3354 26.0502 22.3597 26.0168 22.3545 25.9806C22.349 25.9447 22.3155 25.9198 22.2803 25.9256ZM21.9875 27.4568C21.9074 27.4688 21.8522 27.5447 21.8644 27.6259C21.8766 27.707 21.9515 27.7626 22.0315 27.7505C22.1114 27.7379 22.1668 27.6626 22.1544 27.5812C22.1425 27.5003 22.0675 27.445 21.9875 27.4568ZM21.6946 28.9882C21.57 29.0073 21.4841 29.1252 21.5029 29.2515C21.5218 29.3777 21.6382 29.4649 21.7634 29.4453C21.888 29.4264 21.9739 29.3083 21.9548 29.1822C21.9359 29.0561 21.8195 28.9694 21.6946 28.9882ZM21.4019 30.5199C21.2323 30.5458 21.1159 30.7058 21.1414 30.8772C21.167 31.0486 21.3252 31.1664 21.4945 31.1408C21.6638 31.1146 21.7805 30.9548 21.7549 30.7832C21.7293 30.6119 21.5712 30.4938 21.4019 30.5199ZM21.1092 32.0513C20.8951 32.0843 20.7479 32.2863 20.7805 32.5031C20.8127 32.7194 21.0126 32.8687 21.2263 32.8358C21.4404 32.8029 21.5878 32.6008 21.5553 32.384C21.5228 32.1674 21.3232 32.0187 21.1092 32.0513ZM7.65729 30.4083C7.60789 30.5081 7.53912 30.5975 7.45644 30.6722C7.07783 30.2606 6.68953 29.8307 6.35337 29.44C6.33003 29.4189 6.30669 29.3975 6.28361 29.3767C6.1622 29.2681 6.04278 29.1586 5.92585 29.047C5.91269 29.0345 5.89953 29.0224 5.88662 29.0103L5.81934 29.2862C5.81934 29.2862 5.653 30.7953 4.93326 29.3023C4.88608 29.2046 4.83717 29.1023 4.78752 28.9973C4.40841 28.1973 3.96499 27.2156 3.61071 26.404C3.61071 26.404 3.4898 26.1256 3.43419 25.996C3.35474 25.8691 3.27654 25.7412 3.20106 25.6125L3.01411 25.9862C3.01411 25.9862 2.50764 27.192 2.27277 25.7816C2.08458 24.6522 1.77747 23.0019 1.62081 21.9125C1.59127 21.8082 1.56247 21.7037 1.53466 21.5989L1.15878 22.015C1.15878 22.015 0.367286 22.9901 0.564911 21.3831C0.709901 20.2094 0.86085 18.5767 1.00013 17.5398C0.999883 17.4554 1.00038 17.3714 1.00137 17.2873L0.637158 17.4762C0.637158 17.4762 -0.382495 18.1581 0.157993 16.7546C0.562925 15.7033 1.15058 14.2028 1.57041 13.2357C1.59201 13.1578 1.61311 13.0804 1.63571 13.003L1.27422 13.0789C1.27422 13.0789 0.14111 13.3955 0.88667 12.3713C1.55353 11.4555 2.58709 10.0992 3.27927 9.25219C3.31924 9.18586 3.35921 9.11927 3.40042 9.05294L2.56772 8.95771C2.56772 8.95771 1.79088 8.82982 2.87955 8.01724C3.86817 7.27904 5.293 6.30541 6.12645 5.73655L5.25228 5.50187C5.25228 5.50187 4.42306 5.30614 5.3439 4.94382C6.52021 4.481 8.58782 3.65611 9.67575 3.29203L8.65386 2.54403C8.65386 2.54403 8.11759 2.19076 9.15388 2.14051C10.4253 2.07845 12.6098 1.96839 13.7318 1.92015L13.7248 1.92291C13.73 1.92191 13.7347 1.9209 13.7397 1.9199L13.0038 1.02767C13.0038 1.02767 12.3499 0.333942 13.4053 0.60656C14.6968 0.940234 16.8965 1.42693 18.0043 1.69276L17.4432 0.609826C17.4432 0.609826 16.8769 -0.380141 17.7774 0.162582C18.9735 0.883449 21.1479 2.06262 22.1787 2.64278L21.776 0.896012C21.776 0.896012 21.4252 -0.354262 22.3515 0.710582C23.3871 1.90055 25.1014 3.85888 25.9117 4.68502C26.8991 5.4476 27.6072 6.5828 27.8078 7.92353C28.2174 10.6645 26.3542 13.2226 23.6458 13.6372C22.2043 13.8581 20.814 13.4266 19.7668 12.5618C18.5877 11.8 17.1932 11.4975 15.7971 11.711C14.2698 11.945 12.9239 12.7666 12.007 14.0249C10.8627 15.596 10.613 17.5591 11.1607 19.2898C11.2312 19.5122 11.3151 19.7305 11.4119 19.9441C11.4156 19.9526 11.4194 19.9604 11.4233 19.969C11.6542 20.473 11.9576 20.9476 12.331 21.3753C12.2061 21.5318 12.0294 21.6461 11.8211 21.6876C12.0361 21.8157 12.1947 22.0371 12.2349 22.3059C12.3057 22.7806 11.9832 23.223 11.5147 23.2949C11.513 23.2952 11.5115 23.2952 11.5095 23.2954C11.7399 23.4168 11.9119 23.6437 11.9536 23.9233C12.0234 24.3891 11.7069 24.8236 11.2466 24.8939C11.2269 24.8972 11.2073 24.8985 11.1877 24.8997C11.4382 25.0118 11.6289 25.2459 11.6728 25.5402C11.7411 25.9972 11.4303 26.4241 10.9789 26.4932C10.9337 26.5 10.8898 26.502 10.8461 26.5015C11.1259 26.596 11.3449 26.8417 11.3918 27.1573C11.4588 27.6055 11.154 28.0241 10.7108 28.0922C10.2922 28.1565 9.90043 27.8844 9.80187 27.4761C9.68419 27.6935 9.48284 27.8616 9.23333 27.9279C9.42151 28.0611 9.55757 28.2684 9.59456 28.5164C9.59679 28.5319 9.59779 28.5473 9.59928 28.5631C9.70703 28.3229 9.92824 28.1405 10.2046 28.0983C10.6395 28.0317 11.045 28.3344 11.1108 28.7741C11.1768 29.2144 10.8776 29.6249 10.4429 29.6912C10.0082 29.7576 9.6025 29.4553 9.53696 29.0154C9.53547 29.0073 9.53547 28.9995 9.53448 28.9912C9.42002 29.2631 9.17448 29.4706 8.86439 29.5184C8.85819 29.5194 8.85173 29.5194 8.84503 29.5201C9.07294 29.6387 9.2435 29.8616 9.28472 30.1377C9.35299 30.5935 9.04265 31.0194 8.59229 31.0883C8.14912 31.1561 7.735 30.8528 7.65729 30.4083ZM8.49422 27.8025C8.34674 27.7033 8.22906 27.5621 8.15831 27.3922C8.05031 27.5284 7.90706 27.6364 7.73873 27.6982C7.87106 27.8126 7.97161 27.9653 8.0225 28.1435C8.13398 27.9824 8.29808 27.8598 8.49422 27.8025ZM8.66453 26.1731C8.561 26.0887 8.47485 25.9829 8.41279 25.8608C8.32192 25.9603 8.21094 26.0412 8.08556 26.098C8.17941 26.1919 8.25488 26.3058 8.30429 26.4344C8.39963 26.3203 8.52203 26.2299 8.66453 26.1731ZM8.84652 24.5452C8.7775 24.4796 8.71692 24.4042 8.66801 24.3206C8.59651 24.3899 8.51532 24.4497 8.4257 24.4964C8.48876 24.568 8.54213 24.6487 8.58335 24.7376C8.65907 24.66 8.74746 24.5942 8.84652 24.5452ZM9.03843 22.9203C8.99647 22.8756 8.95874 22.8271 8.92472 22.7755C8.87407 22.8203 8.81921 22.8605 8.76062 22.8959C8.7981 22.9434 8.83137 22.9946 8.86092 23.0487C8.91479 22.9994 8.97438 22.9565 9.03843 22.9203ZM9.23456 21.2944C9.19658 21.2494 9.16207 21.2014 9.13104 21.1504C9.10323 21.178 9.07493 21.2062 9.04712 21.2338C9.08064 21.2745 9.11192 21.3182 9.13973 21.364C9.16977 21.3391 9.2013 21.3157 9.23456 21.2944ZM10.5961 26.4598C10.3553 26.3794 10.1591 26.1892 10.074 25.9392C9.9625 26.1161 9.79566 26.2565 9.59332 26.3306C9.74501 26.4615 9.85475 26.643 9.89596 26.854C10.0161 26.6533 10.2205 26.506 10.468 26.4681C10.5109 26.4613 10.5536 26.4595 10.5961 26.4598ZM10.7855 24.8321C10.5931 24.7472 10.4352 24.5912 10.3491 24.3912C10.2468 24.5369 10.1065 24.655 9.9404 24.7301C10.0578 24.8479 10.1465 24.9964 10.1917 25.166C10.3173 24.9949 10.507 24.8721 10.7319 24.8376C10.7495 24.8349 10.7674 24.8336 10.7855 24.8321ZM10.9943 23.2075C10.8382 23.1263 10.7088 22.9972 10.6259 22.8366C10.5343 22.957 10.4171 23.0572 10.281 23.1288C10.3714 23.2318 10.4417 23.3542 10.4851 23.4911C10.612 23.3439 10.7882 23.2391 10.9943 23.2075ZM11.2145 21.5861C11.0879 21.5117 10.9807 21.4064 10.9037 21.278C10.8233 21.3768 10.7262 21.4612 10.6152 21.5275C10.6842 21.615 10.7413 21.7132 10.7806 21.8218C10.8958 21.7052 11.0445 21.6213 11.2145 21.5861ZM6.80969 27.5407C6.70617 27.4563 6.61977 27.3505 6.5577 27.2284C6.46683 27.3279 6.3561 27.409 6.23072 27.4658C6.32432 27.5596 6.39955 27.6731 6.4492 27.8023C6.54479 27.6882 6.66719 27.5975 6.80969 27.5407ZM6.99143 25.913C6.92216 25.8477 6.86208 25.7723 6.81292 25.6887C6.74167 25.758 6.66023 25.8176 6.57086 25.8645C6.63367 25.9359 6.68705 26.0166 6.72851 26.1055C6.80448 26.0279 6.89262 25.9618 6.99143 25.913ZM7.18334 24.2879C7.14188 24.2432 7.1039 24.1949 7.06963 24.1434C7.01874 24.1881 6.96412 24.2283 6.90578 24.2633C6.94326 24.311 6.97653 24.3623 7.00608 24.4163C7.05995 24.367 7.11904 24.3243 7.18334 24.2879ZM7.73798 29.8302C7.85566 29.6021 8.07464 29.5948 8.34525 29.3435L8.34774 29.3435C8.14167 29.3435 7.97856 29.099 7.90582 28.8656C7.7854 29.0495 7.60094 29.1897 7.37848 29.2488C7.56469 29.3809 7.6995 29.5855 7.73798 29.8302ZM10.6224 32.0724C10.5564 31.6312 10.1497 31.3277 9.71373 31.3948C9.34281 31.4516 9.07145 31.7584 9.03918 32.1209C9.32047 32.139 9.37757 31.7538 9.388 31.5443C9.61417 31.6647 9.84209 31.7782 10.0717 31.886C10.2502 32.0049 10.4377 32.127 10.6291 32.2493C10.6331 32.1915 10.6313 32.1325 10.6224 32.0724ZM12.1406 32.3363C12.0793 31.9255 11.7009 31.643 11.2947 31.7051C10.9834 31.7528 10.7473 31.9903 10.6817 32.2833C11.0812 32.5388 11.4956 32.7946 11.8809 33.0257C12.0738 32.8629 12.1811 32.6059 12.1406 32.3363ZM13.659 32.6001C13.6019 32.2197 13.2511 31.9584 12.876 32.0162C12.5001 32.0737 12.2416 32.4285 12.2987 32.8084C12.3556 33.1888 12.7064 33.4499 13.0815 33.3923C13.2514 33.3662 13.3963 33.2795 13.5001 33.1571C13.4892 33.1076 13.4763 33.0604 13.4634 33.0192C13.5021 33.0272 13.5411 33.0343 13.5796 33.0418C13.6508 32.9122 13.6824 32.7584 13.659 32.6001ZM15.1767 32.8639C15.1246 32.5144 14.8018 32.2737 14.4567 32.3265C14.1109 32.3795 13.8733 32.7061 13.9257 33.0554C13.9284 33.074 13.9324 33.0921 13.9368 33.1104C14.0687 33.1338 14.2007 33.1559 14.3333 33.1757C14.557 33.2443 14.7906 33.3137 15.027 33.3818C15.1452 33.2451 15.2058 33.0579 15.1767 32.8639ZM16.6949 33.128C16.6475 32.8086 16.3525 32.589 16.0375 32.6373C15.7222 32.6858 15.5049 32.9835 15.5528 33.3026C15.5672 33.3999 15.605 33.4873 15.6586 33.5614C15.8955 33.6278 16.1278 33.6918 16.3498 33.7526C16.5864 33.6511 16.7354 33.3973 16.6949 33.128ZM17.6182 32.9481C17.3332 32.9918 17.1368 33.2612 17.1798 33.5501C17.223 33.8386 17.4891 34.0373 17.7746 33.9941C17.8109 33.9886 17.8459 33.9788 17.8789 33.9667C18.0564 33.8227 17.8903 33.4966 17.7697 33.3076C17.9067 33.2978 18.043 33.2853 18.1796 33.2715C18.0909 33.0504 17.8618 32.9107 17.6182 32.9481ZM23.0258 30.879C22.8895 30.8996 22.7959 31.0285 22.8163 31.1664C22.8371 31.3043 22.9643 31.3988 23.1006 31.3782C23.2369 31.3571 23.3305 31.2287 23.3096 31.0905C23.2892 30.9528 23.1616 30.8581 23.0258 30.879ZM24.648 31.2244C24.5505 31.2395 24.4837 31.3315 24.4981 31.4297C24.5053 31.4775 24.5311 31.5174 24.5659 31.5448C24.6028 31.5739 24.6508 31.5888 24.7007 31.581C24.7672 31.5709 24.8176 31.5234 24.8394 31.4636C24.8491 31.4363 24.8551 31.4066 24.8506 31.3755C24.8357 31.2772 24.7449 31.2096 24.648 31.2244ZM24.9194 29.7033C24.8725 29.7103 24.8399 29.7551 24.8471 29.8028C24.8538 29.8508 24.8983 29.8835 24.9455 29.8767C24.9926 29.8691 25.0252 29.8249 25.018 29.7769C25.0113 29.7287 24.9671 29.696 24.9194 29.7033ZM23.3049 29.3357C23.2021 29.3515 23.1313 29.4485 23.1467 29.5526C23.1621 29.6566 23.2582 29.7282 23.361 29.7126C23.4638 29.697 23.5345 29.5995 23.5191 29.4955C23.5037 29.3917 23.4077 29.3199 23.3049 29.3357ZM23.5842 27.8276C23.5442 27.8337 23.5169 27.8714 23.5229 27.9116C23.5288 27.9515 23.5661 27.9797 23.606 27.9731C23.6453 27.9674 23.6731 27.9297 23.6666 27.8895C23.6607 27.8493 23.6239 27.8216 23.5842 27.8276Z" fill="#D93232"/>
<path d="M45.5172 14.2083L45.5172 14.7468C45.5172 15.0619 45.3122 15.2656 45.0056 15.2656C44.6888 15.2656 44.4944 15.0619 44.4944 14.7468L44.4944 14.0351C44.4944 13.6186 44.2693 13.4149 43.9108 13.4149C43.553 13.4149 43.3381 13.6186 43.3381 14.0351L43.3381 18.3458C43.3381 18.7626 43.553 18.9659 43.9108 18.9659C44.2689 18.9659 44.4944 18.7626 44.4944 18.3458L44.4944 17.6341C44.4944 17.3189 44.6888 17.1156 45.0056 17.1156C45.3126 17.1156 45.5172 17.3189 45.5172 17.6341L45.5172 18.1729C45.5172 19.2096 44.9545 19.8908 43.9005 19.8908C42.8265 19.8908 42.2532 19.2303 42.2532 18.1729L42.2532 14.2079C42.2532 13.1506 42.8262 12.4897 43.9005 12.4897C44.9545 12.4897 45.5172 13.1709 45.5172 14.2083Z" fill="black"/>
<path d="M49.1394 14.1876C49.1394 13.1611 49.7943 12.4897 50.8379 12.4897C51.8812 12.4897 52.5361 13.1611 52.5361 14.1876L52.5361 18.1933C52.5361 19.2201 51.8812 19.8911 50.8379 19.8911C49.7943 19.8911 49.1394 19.2201 49.1394 18.1933L49.1394 14.1876ZM51.4519 14.0351C51.4519 13.6691 51.2162 13.4149 50.8379 13.4149C50.4593 13.4149 50.224 13.6691 50.224 14.0351L50.224 18.3458C50.224 18.7118 50.4593 18.9659 50.8379 18.9659C51.2162 18.9659 51.4519 18.7118 51.4519 18.3458L51.4519 14.0351Z" fill="black"/>
<path d="M56.9257 12.6323L57.8671 12.6323C59.1359 12.6323 59.7297 13.3745 59.7297 14.5132L59.7297 17.8682C59.7297 19.0068 59.1359 19.749 57.8671 19.749L56.9257 19.749C56.6085 19.749 56.3838 19.5253 56.3838 19.2102L56.3838 13.1712C56.3838 12.8556 56.6085 12.6323 56.9257 12.6323ZM57.8777 18.8035C58.3893 18.8035 58.6451 18.4981 58.6451 18.0305L58.6451 14.3501C58.6451 13.8825 58.3897 13.5775 57.8777 13.5775L57.4684 13.5775L57.4684 18.8035L57.8777 18.8035Z" fill="black"/>
<path d="M63.5769 13.0695C63.5769 12.7544 63.7918 12.5307 64.1192 12.5307C64.436 12.5307 64.6612 12.7544 64.6612 13.0695L64.6612 19.3115C64.6612 19.6267 64.436 19.8504 64.1192 19.8504C63.7918 19.8504 63.5769 19.6267 63.5769 19.3115L63.5769 13.0695Z" fill="black"/>
<path d="M71.7723 14.2083L71.7723 14.7468C71.7723 15.0619 71.5673 15.2656 71.2607 15.2656C70.9439 15.2656 70.7495 15.0619 70.7495 14.7468L70.7495 14.0351C70.7495 13.6186 70.5244 13.4149 70.1659 13.4149C69.8081 13.4149 69.5933 13.6186 69.5933 14.0351L69.5933 18.3458C69.5933 18.7626 69.8081 18.9659 70.1659 18.9659C70.524 18.9659 70.7495 18.7626 70.7495 18.3458L70.7495 17.6341C70.7495 17.3189 70.9439 17.1156 71.2607 17.1156C71.5677 17.1156 71.7723 17.3189 71.7723 17.6341L71.7723 18.1729C71.7723 19.2096 71.2096 19.8907 70.1557 19.8907C69.0817 19.8907 68.5083 19.2303 68.5083 18.1729L68.5083 14.2079C68.5083 13.1506 69.0813 12.4897 70.1557 12.4897C71.2096 12.4897 71.7723 13.1709 71.7723 14.2083Z" fill="black"/>
<path d="M75.5378 13.1708C75.5378 12.8556 75.7629 12.6323 76.0798 12.6323L78.1266 12.6323C78.4131 12.6323 78.6071 12.8357 78.6071 13.1098C78.6071 13.3945 78.4131 13.5876 78.1266 13.5876L76.6224 13.5876L76.6224 15.6616L77.7885 15.6616C78.0652 15.6616 78.2695 15.865 78.2695 16.1391C78.2695 16.4238 78.0648 16.6169 77.7885 16.6169L76.6224 16.6169L76.6224 18.7926L78.1372 18.7926C78.4233 18.7926 78.6181 18.996 78.6181 19.2701C78.6181 19.545 78.4233 19.7479 78.1372 19.7479L76.0801 19.7479C75.7633 19.7479 75.5382 19.5243 75.5382 19.2091L75.5382 13.1708L75.5378 13.1708Z" fill="black"/>
<path d="M83.3351 16.943L83.3351 19.3115C83.3351 19.6267 83.1096 19.8503 82.7928 19.8503C82.4756 19.8503 82.2505 19.6267 82.2505 19.3115L82.2505 13.1708C82.2505 12.8556 82.4756 12.6323 82.7928 12.6323L83.7546 12.6323C84.8699 12.6323 85.5142 13.1915 85.5142 14.3708L85.5142 15.1838C85.5142 16.2513 84.7983 16.943 83.7342 16.943L83.3351 16.943ZM84.4296 14.3501C84.4296 13.8727 84.1836 13.5876 83.7236 13.5876L83.3351 13.5876L83.3351 15.9866L83.7035 15.9866C84.1639 15.9866 84.4296 15.7121 84.4296 15.2241L84.4296 14.3501Z" fill="black"/>
<path d="M89.1462 13.0695C89.1462 12.7544 89.3713 12.5307 89.6885 12.5307C90.0054 12.5307 90.2308 12.7544 90.2308 13.0695L90.2308 18.7934L91.5607 18.7934C91.8373 18.7934 92.0416 18.9967 92.0416 19.2709C92.0416 19.5457 91.8369 19.7487 91.5607 19.7487L89.6885 19.7487C89.3713 19.7487 89.1462 19.525 89.1462 19.2099L89.1462 13.0695Z" fill="black"/>
<path d="M98.9382 19.2001C99.0204 19.6165 98.7233 19.8507 98.4269 19.8507C98.1814 19.8507 97.9354 19.6881 97.885 19.3424L97.7107 18.102L96.6367 18.102L96.4726 19.3424C96.4218 19.6881 96.1963 19.8507 95.9307 19.8507C95.6339 19.8507 95.3372 19.6165 95.4194 19.2001L96.6063 13.039C96.6776 12.6934 96.8519 12.5307 97.179 12.5307C97.506 12.5307 97.6803 12.6934 97.7516 13.039L98.9382 19.2001ZM96.7693 17.1663L97.5879 17.1663L97.2195 14.4417C97.2093 14.3502 97.1888 14.2282 97.1786 14.096C97.1684 14.2282 97.1479 14.3607 97.1377 14.4417L96.7693 17.1663Z" fill="black"/>
<path d="M102.428 17.949C102.428 17.6033 102.622 17.4305 102.929 17.4305C103.256 17.4305 103.451 17.6338 103.451 17.949L103.451 18.193C103.451 18.6403 103.594 18.9863 104.054 18.9863C104.474 18.9863 104.648 18.681 104.648 18.1832C104.648 17.4203 104.228 17.0242 103.747 16.587C103 15.916 102.376 15.2348 102.376 14.2181C102.376 13.0697 103.001 12.4898 103.993 12.4898C104.944 12.4898 105.569 13.1002 105.569 14.086L105.569 14.4415C105.569 14.7465 105.364 14.9396 105.057 14.9396C104.76 14.9396 104.546 14.7465 104.546 14.4415L104.546 14.1161C104.546 13.6789 104.361 13.4143 103.993 13.4143C103.594 13.4143 103.44 13.6989 103.44 14.1361C103.44 14.7969 103.809 15.1934 104.28 15.6306C104.863 16.1796 105.712 16.9523 105.712 18.0808C105.712 19.1381 105.057 19.8901 104.034 19.8901C103.021 19.8901 102.428 19.1784 102.428 18.2333L102.428 17.949Z" fill="black"/>
<path d="M111.135 13.5881L111.135 19.312C111.135 19.6271 110.91 19.8508 110.593 19.8508C110.265 19.8508 110.051 19.6271 110.051 19.312L110.051 13.5881L109.283 13.5881C109.007 13.5881 108.802 13.3949 108.802 13.1103C108.802 12.8358 109.007 12.6328 109.283 12.6328L111.903 12.6328C112.189 12.6328 112.383 12.8361 112.383 13.1103C112.383 13.3949 112.189 13.5881 111.903 13.5881L111.135 13.5881Z" fill="black"/>
<path d="M115.832 13.0695C115.832 12.7544 116.046 12.5307 116.373 12.5307C116.691 12.5307 116.916 12.7544 116.916 13.0695L116.916 19.3115C116.916 19.6267 116.691 19.8504 116.373 19.8504C116.046 19.8504 115.832 19.6267 115.832 19.3115L115.832 13.0695Z" fill="black"/>
<path d="M124.027 14.2083L124.027 14.7468C124.027 15.0619 123.822 15.2656 123.516 15.2656C123.199 15.2656 123.004 15.0619 123.004 14.7468L123.004 14.0351C123.004 13.6186 122.779 13.4149 122.421 13.4149C122.063 13.4149 121.848 13.6186 121.848 14.0351L121.848 18.3458C121.848 18.7626 122.063 18.9659 122.421 18.9659C122.779 18.9659 123.004 18.7626 123.004 18.3458L123.004 17.6341C123.004 17.3189 123.199 17.1156 123.516 17.1156C123.823 17.1156 124.027 17.3189 124.027 17.6341L124.027 18.1729C124.027 19.2096 123.464 19.8907 122.411 19.8907C121.337 19.8907 120.763 19.2303 120.763 18.1729L120.763 14.2079C120.763 13.1506 121.336 12.4897 122.411 12.4897C123.464 12.4897 124.027 13.1709 124.027 14.2083Z" fill="black"/>
<path d="M127.65 14.1876C127.65 13.1611 128.304 12.4897 129.348 12.4897C130.391 12.4897 131.046 13.1611 131.046 14.1876L131.046 18.1933C131.046 19.2201 130.391 19.8911 129.348 19.8911C128.304 19.8911 127.65 19.2201 127.65 18.1933L127.65 14.1876ZM129.962 14.0351C129.962 13.6691 129.726 13.4149 129.348 13.4149C128.969 13.4149 128.734 13.6691 128.734 14.0351L128.734 18.3458C128.734 18.7118 128.969 18.9659 129.348 18.9659C129.726 18.9659 129.962 18.7118 129.962 18.3458L129.962 14.0351Z" fill="black"/>
</svg>
