<svg width="174" height="45" viewBox="0 0 174 45" fill="none" xmlns="http://www.w3.org/2000/svg">
<path d="M14.1391 26.0251C14.2341 25.948 14.3314 25.8738 14.426 25.7993C14.3304 25.8742 14.2347 25.9473 14.1391 26.0251ZM11.8812 42.0338C11.7961 41.4628 11.2692 41.0704 10.7049 41.1562C10.6172 41.1698 10.5347 41.1951 10.4565 41.2287C10.68 41.4688 10.8929 41.6973 11.0872 41.9058C11.4138 42.2573 11.6613 42.4302 11.8487 42.4894C11.8911 42.3461 11.9045 42.1918 11.8812 42.0338ZM13.16 39.3465C12.5957 39.4326 12.2082 39.9657 12.2927 40.5363C12.3788 41.107 12.905 41.4997 13.4693 41.4136C14.0336 41.3275 14.4218 40.7947 14.3366 40.2237C14.2515 39.6524 13.7243 39.2603 13.16 39.3465ZM16.253 30.2861C16.3332 30.8215 16.8269 31.1903 17.356 31.1088C17.8852 31.0284 18.2493 30.5282 18.1695 29.9931C18.1599 29.9266 18.1432 29.8628 18.1215 29.8026C17.9834 29.4208 17.6226 29.1624 17.218 29.1601C17.168 29.1598 17.1174 29.1624 17.0665 29.1704C16.5373 29.2512 16.1732 29.7507 16.253 30.2861ZM17.0067 33.2591C17.543 33.177 17.9118 32.6708 17.8306 32.1284C17.7491 31.5857 17.2489 31.2126 16.7128 31.2944C16.1765 31.3765 15.8077 31.883 15.8889 32.4254C15.9697 32.9678 16.4706 33.3413 17.0067 33.2591ZM16.6573 35.4094C17.2002 35.3259 17.5739 34.8128 17.4918 34.2634C17.4096 33.7137 16.9025 33.3356 16.3595 33.4187C15.8166 33.5019 15.4426 34.0147 15.5247 34.5647C15.6069 35.1141 16.114 35.4922 16.6573 35.4094ZM16.3076 37.5587C16.8578 37.4745 17.2361 36.9551 17.1529 36.3984C17.0698 35.8417 16.5564 35.4586 16.0062 35.5427C15.4557 35.6272 15.0774 36.1467 15.1606 36.7033C15.2437 37.2604 15.7574 37.6428 16.3076 37.5587ZM16.8141 38.5337C16.7299 37.97 16.2097 37.5819 15.6523 37.6671C15.0955 37.7525 14.7123 38.279 14.7964 38.8423C14.8806 39.4063 15.4005 39.7944 15.9576 39.7089C16.5147 39.6235 16.8982 39.0974 16.8141 38.5337ZM15.2989 39.7914C14.7343 39.8775 14.3465 40.4103 14.4316 40.9813C14.5167 41.5523 15.0436 41.945 15.6079 41.8586C16.1722 41.7721 16.5603 41.2397 16.4749 40.6687C16.3898 40.0977 15.8633 39.7053 15.2989 39.7914ZM18.529 30.5997C18.5964 31.0496 19.0112 31.3593 19.4552 31.2911C19.798 31.2385 20.0576 30.9765 20.128 30.6529C19.6136 30.5186 19.1085 30.3277 18.6214 30.0799C18.5382 30.2329 18.5008 30.4138 18.529 30.5997ZM19.1048 33.435C19.5531 33.3662 19.8617 32.9432 19.794 32.4893C19.726 32.036 19.308 31.7237 18.8593 31.7922C18.411 31.8611 18.1024 32.2841 18.1701 32.738C18.2385 33.1919 18.6569 33.5035 19.1048 33.435ZM17.8119 34.876C17.8802 35.3336 18.3022 35.6482 18.7545 35.579C19.2064 35.5098 19.5176 35.0832 19.4489 34.6256C19.3809 34.168 18.9589 33.8534 18.5067 33.9226C18.0548 33.9917 17.7435 34.4187 17.8119 34.876ZM18.1544 36.0525C17.6978 36.1224 17.3846 36.553 17.4533 37.0146C17.5223 37.4759 17.9476 37.7931 18.4041 37.7236C18.86 37.6538 19.1739 37.2231 19.1048 36.7615C19.0358 36.3 18.6099 35.9827 18.1544 36.0525ZM17.8014 38.1829C17.3416 38.2527 17.0254 38.6873 17.0947 39.1522C17.1644 39.6175 17.5937 39.9377 18.0535 39.8672C18.5129 39.7967 18.8294 39.3628 18.7601 38.8972C18.6904 38.4326 18.2612 38.1124 17.8014 38.1829ZM17.4487 40.3129C16.9853 40.384 16.6655 40.822 16.7362 41.2909C16.8065 41.7598 17.239 42.0827 17.7028 42.0119C18.1662 41.9404 18.4853 41.5031 18.4153 41.0338C18.3453 40.5646 17.9125 40.2417 17.4487 40.3129ZM21.4613 31.5006C21.7716 31.453 22.0007 31.2016 22.0371 30.901C21.5826 30.9003 21.1274 30.8591 20.6768 30.7766C20.6742 30.8238 20.6762 30.8717 20.6834 30.9203C20.7399 31.2981 21.088 31.5578 21.4613 31.5006ZM21.1182 33.6558C21.5054 33.5967 21.7713 33.2315 21.7131 32.8398C21.6546 32.4484 21.2934 32.1793 20.9062 32.2385C20.5194 32.2977 20.2535 32.6632 20.3117 33.0546C20.3705 33.446 20.7314 33.7157 21.1182 33.6558ZM20.7751 35.8118C21.1757 35.7506 21.4518 35.3721 21.391 34.9671C21.3302 34.5614 20.9565 34.2824 20.5555 34.3439C20.1549 34.4054 19.8795 34.7839 19.9403 35.1889C20.0011 35.594 20.3748 35.873 20.7751 35.8118ZM21.0692 37.0931C21.0068 36.6741 20.62 36.3858 20.2055 36.4489C19.7911 36.5125 19.5061 36.9039 19.5689 37.3229C19.6314 37.7419 20.0175 38.0306 20.4323 37.967C20.8467 37.9039 21.1314 37.5124 21.0692 37.0931ZM19.8548 38.555C19.4269 38.6202 19.1324 39.0246 19.1972 39.4575C19.2619 39.8905 19.6613 40.1881 20.0895 40.1226C20.5171 40.0571 20.8116 39.6534 20.7468 39.2204C20.6821 38.7874 20.2828 38.4891 19.8548 38.555ZM19.5045 40.6604C19.0628 40.7275 18.7588 41.1449 18.8258 41.5915C18.8929 42.0388 19.3047 42.3461 19.7467 42.2786C20.1881 42.2107 20.4921 41.7934 20.4251 41.3468C20.358 40.9001 19.9462 40.5922 19.5045 40.6604ZM23.0481 31.2202C23.0843 31.4623 23.3077 31.6289 23.547 31.5924C23.7866 31.5558 23.9509 31.3297 23.9148 31.0872C23.8895 30.9186 23.7721 30.7883 23.6229 30.736C23.5585 30.7138 23.4882 30.7041 23.4159 30.7151C23.3337 30.7277 23.2617 30.7636 23.2022 30.8139C23.0885 30.91 23.0244 31.061 23.0481 31.2202ZM23.2111 33.7968C23.4911 33.7543 23.6837 33.4899 23.6413 33.2072C23.5989 32.9239 23.3377 32.729 23.0583 32.7719C22.7789 32.8148 22.586 33.0792 22.6284 33.3619C22.6708 33.6452 22.9318 33.8401 23.2111 33.7968ZM22.8759 36.0013C23.196 35.9528 23.4162 35.6498 23.3676 35.3262C23.3193 35.002 23.0205 34.7795 22.7004 34.8284C22.3799 34.8773 22.1597 35.1799 22.2081 35.5035C22.2567 35.8274 22.5554 36.0502 22.8759 36.0013ZM22.3425 36.8849C21.9819 36.9401 21.7335 37.28 21.788 37.6455C21.8426 38.0103 22.1791 38.2613 22.5397 38.2061C22.9005 38.1509 23.149 37.8104 23.0944 37.4456C23.0399 37.0805 22.703 36.8297 22.3425 36.8849ZM21.9846 38.9411C21.5833 39.0023 21.3072 39.381 21.3683 39.7871C21.4291 40.1931 21.8031 40.4721 22.2044 40.4106C22.6057 40.3494 22.8815 39.9707 22.821 39.5646C22.7599 39.1586 22.3859 38.8796 21.9846 38.9411ZM21.627 40.9972C21.1846 41.0648 20.8812 41.4818 20.9483 41.9287C21.0153 42.3757 21.4272 42.6829 21.8689 42.6151C22.3106 42.5473 22.6146 42.1306 22.5476 41.6836C22.4805 41.2367 22.0684 40.9294 21.627 40.9972ZM25.6363 31.8262C25.7678 31.8055 25.8591 31.6812 25.8391 31.5478C25.819 31.4145 25.6958 31.322 25.564 31.3426C25.4319 31.3626 25.3412 31.4876 25.3612 31.621C25.3813 31.7543 25.5045 31.8461 25.6363 31.8262ZM25.2929 34.0373C25.4726 34.0097 25.5965 33.8397 25.5693 33.6575C25.5423 33.4756 25.3744 33.3502 25.1939 33.3775C25.0142 33.4051 24.8902 33.575 24.9179 33.7573C24.9451 33.9395 25.1131 34.0649 25.2929 34.0373ZM24.8248 35.413C24.5971 35.4476 24.44 35.6631 24.4748 35.8936C24.509 36.1237 24.722 36.2827 24.9497 36.2474C25.1772 36.2128 25.3343 35.9977 25.2994 35.7672C25.2646 35.5368 25.0523 35.3785 24.8248 35.413ZM24.4548 37.4479C24.179 37.4902 23.9894 37.7509 24.0311 38.0296C24.0729 38.3089 24.3302 38.5008 24.6063 38.4585C24.882 38.4163 25.0717 38.1563 25.0299 37.8769C24.9882 37.5982 24.7305 37.406 24.4548 37.4479ZM24.085 39.4835C23.7616 39.5327 23.5388 39.8386 23.5878 40.1662C23.6367 40.4938 23.9385 40.7192 24.2628 40.67C24.5862 40.6205 24.8091 40.3148 24.7601 39.9869C24.7111 39.6591 24.4088 39.4339 24.085 39.4835ZM23.7153 41.5187C23.3436 41.5759 23.0882 41.9271 23.1444 42.3025C23.2006 42.679 23.5477 42.9373 23.9191 42.8801C24.2904 42.8236 24.5465 42.4728 24.4899 42.0967C24.4341 41.7205 24.0867 41.4618 23.7153 41.5187ZM27.7401 31.9818C27.7871 31.9745 27.8189 31.9302 27.8124 31.8824C27.8051 31.8348 27.7614 31.8022 27.7144 31.8095C27.6674 31.8165 27.6349 31.8611 27.6418 31.9086C27.6487 31.9562 27.6924 31.9888 27.7401 31.9818ZM27.5501 33.9964C27.535 33.8956 27.442 33.8258 27.3421 33.8411C27.2431 33.8564 27.1738 33.9508 27.1889 34.0516C27.204 34.1527 27.297 34.2219 27.3966 34.2066C27.4962 34.1909 27.5649 34.0971 27.5501 33.9964ZM26.9703 35.873C26.8178 35.8959 26.713 36.0402 26.736 36.1945C26.7593 36.3482 26.9017 36.4543 27.0538 36.4313C27.206 36.408 27.3108 36.264 27.2878 36.1097C27.2648 35.9554 27.1225 35.85 26.9703 35.873ZM26.5983 37.9045C26.3932 37.9361 26.2522 38.13 26.2834 38.3368C26.3143 38.5443 26.5056 38.6873 26.7104 38.6561C26.9155 38.6245 27.0564 38.4309 27.0256 38.2234C26.9947 38.0159 26.8034 37.8733 26.5983 37.9045ZM26.2263 39.9364C25.9689 39.976 25.7918 40.2197 25.8305 40.4801C25.8693 40.7405 26.1102 40.9201 26.3676 40.8805C26.6252 40.8413 26.8024 40.5979 26.7636 40.3375C26.7245 40.0767 26.4839 39.8972 26.2263 39.9364ZM25.8545 41.9683C25.5443 42.0158 25.3307 42.3088 25.3777 42.6228C25.4247 42.9367 25.7139 43.1528 26.0245 43.1053C26.3347 43.0574 26.5483 42.7651 26.5013 42.4505C26.4543 42.1369 26.1651 41.9211 25.8545 41.9683ZM29.4945 34.3133C29.4475 34.3203 29.4152 34.3648 29.4225 34.4124C29.4294 34.46 29.4731 34.4925 29.5201 34.4852C29.5674 34.4782 29.5996 34.434 29.5927 34.3861C29.5855 34.3386 29.5411 34.3057 29.4945 34.3133ZM29.107 36.3399C29.0008 36.3558 28.9278 36.4563 28.944 36.5637C28.9601 36.6711 29.0593 36.7446 29.1651 36.7286C29.271 36.712 29.3443 36.6122 29.3278 36.5045C29.3121 36.3974 29.2128 36.3242 29.107 36.3399ZM28.7191 38.3668C28.5542 38.392 28.4404 38.548 28.4654 38.7153C28.4904 38.8822 28.6445 38.9976 28.8102 38.9717C28.9752 38.9467 29.0889 38.7904 29.0636 38.6235C29.0386 38.4566 28.8845 38.3418 28.7191 38.3668ZM28.3317 40.394C28.1072 40.4283 27.953 40.6401 27.9869 40.8669C28.0207 41.0937 28.2301 41.2497 28.4542 41.2157C28.6784 41.1811 28.8329 40.9696 28.799 40.7425C28.7652 40.5157 28.5558 40.3594 28.3317 40.394ZM27.9442 42.4209C27.6609 42.4645 27.466 42.7318 27.509 43.0188C27.5517 43.3051 27.8163 43.5027 28.0993 43.4591C28.3826 43.4156 28.5778 43.1482 28.5348 42.8612C28.4917 42.5745 28.2275 42.3777 27.9442 42.4209ZM10.1367 40.2463C10.0713 40.3784 9.98023 40.4968 9.87079 40.5955C9.36958 40.0508 8.85556 39.4818 8.41055 38.9647C8.37965 38.9368 8.34876 38.9085 8.31819 38.8809C8.15748 38.7372 7.99939 38.5922 7.8446 38.4446C7.82718 38.428 7.80976 38.412 7.79267 38.396L7.7036 38.7612C7.7036 38.7612 7.4834 40.7585 6.53061 38.7825C6.46816 38.6531 6.40342 38.5177 6.33768 38.3787C5.83582 37.3199 5.24883 36.0206 4.77983 34.9465C4.77983 34.9465 4.61978 34.578 4.54616 34.4064C4.44098 34.2385 4.33746 34.0692 4.23754 33.8989L3.99006 34.3934C3.99006 34.3934 3.31959 35.9894 3.00868 34.1227C2.75956 32.6279 2.353 30.4437 2.14562 29.0018C2.10651 28.8638 2.06838 28.7254 2.03157 28.5868L1.53398 29.1375C1.53398 29.1375 0.486211 30.4281 0.747825 28.3011C0.939763 26.7478 1.13959 24.5868 1.32397 23.2144C1.32364 23.1027 1.3243 22.9916 1.32561 22.8802L0.843465 23.1303C0.843465 23.1303 -0.506344 24.0328 0.20915 22.1752C0.745196 20.7838 1.52313 18.7978 2.0789 17.5178C2.10749 17.4147 2.13543 17.3123 2.16534 17.2099L1.68681 17.3103C1.68681 17.3103 0.1868 17.7293 1.17377 16.3738C2.05655 15.1617 3.42477 13.3666 4.34107 12.2455C4.39399 12.1578 4.4469 12.0696 4.50146 11.9818L3.39913 11.8558C3.39913 11.8558 2.37075 11.6865 3.81193 10.6111C5.12065 9.63402 7.00684 8.34539 8.11015 7.59249L6.95294 7.28189C6.95294 7.28189 5.85521 7.02283 7.07421 6.5433C8.63141 5.93074 11.3685 4.83897 12.8087 4.3571L11.4559 3.3671C11.4559 3.3671 10.746 2.89953 12.1178 2.83302C13.8009 2.75088 16.6928 2.60523 18.178 2.54138L18.1688 2.54503C18.1757 2.5437 18.182 2.54237 18.1885 2.54104L17.2144 1.36016C17.2144 1.36016 16.3487 0.441982 17.7458 0.8028C19.4555 1.24443 22.3675 1.88858 23.8339 2.24042L23.0912 0.807123C23.0912 0.807123 22.3415 -0.503128 23.5335 0.215182C25.117 1.16927 27.9954 2.72993 29.36 3.49779L28.8269 1.1859C28.8269 1.1859 28.3626 -0.468876 29.5888 0.940476C30.9596 2.51544 33.229 5.10734 34.3018 6.20077C35.6089 7.21006 36.5462 8.71253 36.8118 10.487C37.354 14.1148 34.8875 17.5005 31.3021 18.0492C29.3939 18.3415 27.5534 17.7705 26.1671 16.6259C24.6063 15.6176 22.7602 15.2172 20.9121 15.4999C18.8902 15.8095 17.1086 16.8969 15.8948 18.5624C14.38 20.6418 14.0494 23.24 14.7744 25.5306C14.8677 25.8249 14.9788 26.1139 15.107 26.3966C15.1119 26.4079 15.1169 26.4182 15.1221 26.4295C15.4278 27.0966 15.8294 27.7248 16.3237 28.2908C16.1584 28.498 15.9244 28.6493 15.6486 28.7042C15.9333 28.8738 16.1433 29.1667 16.1965 29.5226C16.2902 30.1508 15.8633 30.7364 15.2431 30.8315C15.2408 30.8318 15.2388 30.8318 15.2362 30.8322C15.5412 30.9928 15.7689 31.2931 15.8241 31.6632C15.9165 32.2798 15.4975 32.8547 14.8881 32.9478C14.8622 32.9522 14.8362 32.9538 14.8102 32.9555C15.1418 33.1038 15.3943 33.4137 15.4524 33.8032C15.5428 34.4081 15.1313 34.9731 14.5338 35.0645C14.474 35.0735 14.4158 35.0762 14.358 35.0755C14.7284 35.2005 15.0183 35.5258 15.0804 35.9435C15.1691 36.5367 14.7655 37.0908 14.1789 37.1809C13.6247 37.266 13.1061 36.9059 12.9756 36.3655C12.8199 36.6531 12.5533 36.8756 12.223 36.9634C12.4721 37.1397 12.6522 37.414 12.7012 37.7422C12.7042 37.7629 12.7055 37.7831 12.7075 37.8041C12.8501 37.4862 13.1429 37.2447 13.5087 37.1889C14.0845 37.1007 14.6212 37.5015 14.7083 38.0834C14.7958 38.6661 14.3997 39.2094 13.8242 39.2972C13.2488 39.385 12.7117 38.985 12.625 38.4027C12.623 38.392 12.623 38.3817 12.6217 38.3708C12.4702 38.7306 12.1451 39.0053 11.7346 39.0684C11.7264 39.0698 11.7179 39.0698 11.709 39.0708C12.0107 39.2277 12.2365 39.5227 12.291 39.8882C12.3814 40.4914 11.9706 41.0551 11.3744 41.1462C10.7878 41.236 10.2395 40.8346 10.1367 40.2463ZM11.2446 36.7975C11.0494 36.6661 10.8936 36.4792 10.7999 36.2544C10.6569 36.4346 10.4673 36.5776 10.2445 36.6594C10.4197 36.8108 10.5528 37.013 10.6201 37.2487C10.7677 37.0356 10.9849 36.8733 11.2446 36.7975ZM11.4701 34.6409C11.333 34.5291 11.219 34.3891 11.1368 34.2275C11.0165 34.3592 10.8696 34.4663 10.7036 34.5414C10.8278 34.6658 10.9278 34.8164 10.9932 34.9867C11.1194 34.8357 11.2814 34.716 11.4701 34.6409ZM11.711 32.4863C11.6196 32.3995 11.5394 32.2997 11.4747 32.189C11.38 32.2807 11.2725 32.3599 11.1539 32.4218C11.2374 32.5165 11.308 32.6233 11.3626 32.741C11.4628 32.6382 11.5798 32.5511 11.711 32.4863ZM11.965 30.3357C11.9095 30.2765 11.8595 30.2123 11.8145 30.1441C11.7474 30.2033 11.6748 30.2565 11.5972 30.3034C11.6469 30.3663 11.6909 30.4341 11.73 30.5056C11.8013 30.4404 11.8802 30.3835 11.965 30.3357ZM12.2247 28.1837C12.1744 28.1242 12.1287 28.0607 12.0876 27.9932C12.0508 28.0297 12.0133 28.067 11.9765 28.1036C12.0209 28.1574 12.0623 28.2153 12.0991 28.2758C12.1389 28.2429 12.1806 28.212 12.2247 28.1837ZM14.027 35.0203C13.7082 34.9139 13.4486 34.6621 13.3359 34.3313C13.1883 34.5654 12.9674 34.7513 12.6996 34.8494C12.9004 35.0226 13.0456 35.2627 13.1002 35.5421C13.2593 35.2764 13.5298 35.0815 13.8574 35.0313C13.9143 35.0223 13.9708 35.02 14.027 35.0203ZM14.2778 32.866C14.0231 32.7536 13.8141 32.5471 13.7 32.2824C13.5646 32.4753 13.3789 32.6316 13.159 32.731C13.3145 32.887 13.4318 33.0835 13.4916 33.308C13.6579 33.0815 13.909 32.9189 14.2068 32.8734C14.2301 32.8697 14.2538 32.868 14.2778 32.866ZM14.5542 30.7158C14.3475 30.6083 14.1762 30.4374 14.0665 30.2249C13.9452 30.3842 13.7901 30.5169 13.61 30.6117C13.7296 30.748 13.8226 30.91 13.8801 31.0912C14.0481 30.8963 14.2814 30.7577 14.5542 30.7158ZM14.8457 28.5698C14.6781 28.4714 14.5361 28.332 14.4342 28.1621C14.3278 28.2928 14.1992 28.4045 14.0523 28.4923C14.1437 28.6081 14.2193 28.7381 14.2712 28.8817C14.4237 28.7274 14.6206 28.6164 14.8457 28.5698ZM9.01463 36.4509C8.87758 36.3392 8.7632 36.1992 8.68104 36.0376C8.56075 36.1693 8.41416 36.2767 8.24819 36.3518C8.3721 36.4759 8.47168 36.6262 8.53741 36.7971C8.66394 36.6461 8.82598 36.5261 9.01463 36.4509ZM9.25521 34.2967C9.16351 34.2102 9.08397 34.1104 9.0189 33.9997C8.92457 34.0915 8.81677 34.1703 8.69846 34.2325C8.78161 34.3269 8.85227 34.4337 8.90715 34.5514C9.00772 34.4487 9.1244 34.3612 9.25521 34.2967ZM9.50926 32.1457C9.45437 32.0865 9.40409 32.0227 9.35873 31.9545C9.29136 32.0137 9.21905 32.0669 9.14182 32.1131C9.19145 32.1763 9.23549 32.2442 9.2746 32.3157C9.34592 32.2505 9.42414 32.194 9.50926 32.1457ZM10.2435 39.4811C10.3993 39.1792 10.6892 39.1695 11.0474 38.837L11.0507 38.837C10.7779 38.837 10.562 38.5134 10.4657 38.2045C10.3063 38.4479 10.0621 38.6335 9.76759 38.7116C10.0141 38.8865 10.1925 39.1572 10.2435 39.4811ZM14.0619 42.4488C13.9744 41.8649 13.4361 41.4631 12.859 41.5519C12.368 41.6271 12.0087 42.0331 11.966 42.513C12.3384 42.537 12.414 42.0272 12.4278 41.7498C12.7272 41.9091 13.0289 42.0594 13.3329 42.2021C13.5692 42.3594 13.8173 42.521 14.0707 42.6829C14.076 42.6065 14.0737 42.5283 14.0619 42.4488ZM16.0716 42.798C15.9904 42.2543 15.4896 41.8805 14.9519 41.9626C14.5397 42.0258 14.2272 42.3401 14.1404 42.7278C14.6692 43.066 15.2178 43.4046 15.7279 43.7105C15.9832 43.495 16.1252 43.1548 16.0716 42.798ZM18.0817 43.1472C18.0061 42.6437 17.5417 42.2978 17.0451 42.3743C16.5475 42.4505 16.2054 42.9201 16.281 43.4229C16.3562 43.9264 16.8206 44.2719 17.3173 44.1957C17.5421 44.1611 17.734 44.0464 17.8714 43.8844C17.8569 43.8189 17.8398 43.7564 17.8227 43.7019C17.874 43.7125 17.9256 43.7218 17.9765 43.7318C18.0709 43.5602 18.1126 43.3567 18.0817 43.1472ZM20.0908 43.4964C20.0218 43.0338 19.5945 42.7152 19.1377 42.785C18.6799 42.8552 18.3654 43.2875 18.4347 43.7498C18.4383 43.7744 18.4436 43.7983 18.4495 43.8226C18.624 43.8535 18.7989 43.8828 18.9744 43.9091C19.2705 43.9998 19.5798 44.0916 19.8926 44.1818C20.0491 44.0008 20.1293 43.7531 20.0908 43.4964ZM22.1006 43.8459C22.0378 43.4232 21.6474 43.1325 21.2303 43.1964C20.8129 43.2606 20.5253 43.6547 20.5887 44.077C20.6078 44.2057 20.6578 44.3214 20.7287 44.4195C21.0423 44.5073 21.3499 44.5921 21.6437 44.6726C21.957 44.5382 22.1542 44.2024 22.1006 43.8459ZM23.3229 43.6078C22.9456 43.6656 22.6856 44.0221 22.7425 44.4046C22.7996 44.7863 23.152 45.0494 23.5299 44.9922C23.5779 44.9849 23.6242 44.9719 23.668 44.9559C23.903 44.7654 23.6831 44.3337 23.5234 44.0836C23.7048 44.0707 23.8852 44.0541 24.066 44.0358C23.9486 43.7431 23.6453 43.5582 23.3229 43.6078ZM30.4814 40.8692C30.301 40.8965 30.1771 41.0671 30.204 41.2496C30.2316 41.4322 30.3999 41.5573 30.5804 41.53C30.7608 41.5021 30.8847 41.3321 30.8571 41.1492C30.8301 40.967 30.6612 40.8416 30.4814 40.8692ZM32.6289 41.3265C32.4997 41.3464 32.4113 41.4681 32.4304 41.5982C32.4399 41.6613 32.4741 41.7142 32.5201 41.7505C32.5691 41.789 32.6325 41.8087 32.6986 41.7984C32.7867 41.7851 32.8534 41.7222 32.8823 41.6431C32.8951 41.6068 32.903 41.5676 32.8971 41.5263C32.8774 41.3963 32.7571 41.3068 32.6289 41.3265ZM32.9881 39.3132C32.926 39.3225 32.8829 39.3817 32.8925 39.4449C32.9014 39.5084 32.9602 39.5516 33.0226 39.5427C33.0851 39.5327 33.1281 39.4742 33.1186 39.4106C33.1097 39.3468 33.0512 39.3036 32.9881 39.3132ZM30.8508 38.8267C30.7148 38.8476 30.6211 38.976 30.6415 39.1137C30.6619 39.2514 30.7891 39.3461 30.9251 39.3255C31.0612 39.3049 31.1548 39.1759 31.1345 39.0382C31.1141 38.9008 30.9869 38.8057 30.8508 38.8267ZM31.2206 36.8307C31.1677 36.8387 31.1315 36.8886 31.1394 36.9418C31.1473 36.9947 31.1966 37.0319 31.2495 37.0233C31.3014 37.0156 31.3382 36.9657 31.3297 36.9125C31.3218 36.8593 31.2732 36.8227 31.2206 36.8307Z" fill="white"/>
<path d="M60.2555 18.8051L60.2555 19.5177C60.2555 19.9349 59.9841 20.2045 59.5782 20.2045C59.1588 20.2045 58.9015 19.9349 58.9015 19.5177L58.9015 18.5758C58.9015 18.0246 58.6035 17.755 58.1289 17.755C57.6553 17.755 57.3708 18.0246 57.3708 18.5758L57.3708 24.2811C57.3708 24.8328 57.6553 25.1019 58.1289 25.1019C58.603 25.1019 58.9015 24.8328 58.9015 24.2811L58.9015 23.3392C58.9015 22.9221 59.1588 22.653 59.5782 22.653C59.9846 22.653 60.2555 22.9221 60.2555 23.3392L60.2555 24.0524C60.2555 25.4244 59.5105 26.326 58.1153 26.326C56.6936 26.326 55.9346 25.4518 55.9346 24.0524L55.9346 18.8046C55.9346 17.4052 56.6931 16.5305 58.1153 16.5305C59.5105 16.5305 60.2555 17.4321 60.2555 18.8051Z" fill="white"/>
<path d="M65.0508 18.7777C65.0508 17.4191 65.9177 16.5305 67.2993 16.5305C68.6804 16.5305 69.5473 17.4191 69.5473 18.7777L69.5473 24.0793C69.5473 25.4384 68.6804 26.3264 67.2993 26.3264C65.9177 26.3264 65.0508 25.4384 65.0508 24.0793L65.0508 18.7777ZM68.112 18.5758C68.112 18.0914 67.8 17.755 67.2993 17.755C66.7981 17.755 66.4866 18.0914 66.4866 18.5758L66.4866 24.2811C66.4866 24.7656 66.7981 25.1019 67.2993 25.1019C67.8 25.1019 68.112 24.7656 68.112 24.2811L68.112 18.5758Z" fill="white"/>
<path d="M75.358 16.7192L76.6042 16.7192C78.2838 16.7192 79.0699 17.7015 79.0699 19.2086L79.0699 23.649C79.0699 25.1561 78.2838 26.1384 76.6042 26.1384L75.358 26.1384C74.9381 26.1384 74.6406 25.8423 74.6406 25.4252L74.6406 17.4324C74.6406 17.0148 74.9381 16.7192 75.358 16.7192ZM76.6182 24.887C77.2955 24.887 77.6341 24.4828 77.6341 23.8639L77.6341 18.9928C77.6341 18.3738 77.296 17.9702 76.6182 17.9702L76.0764 17.9702L76.0764 24.887L76.6182 24.887Z" fill="white"/>
<path d="M84.1631 17.2979C84.1631 16.8807 84.4475 16.5847 84.881 16.5847C85.3004 16.5847 85.5984 16.8807 85.5984 17.2979L85.5984 25.5593C85.5984 25.9765 85.3004 26.2725 84.881 26.2725C84.4475 26.2725 84.1631 25.9765 84.1631 25.5593L84.1631 17.2979Z" fill="white"/>
<path d="M95.0123 18.8051L95.0123 19.5177C95.0123 19.9349 94.7409 20.2045 94.335 20.2045C93.9156 20.2045 93.6583 19.9349 93.6583 19.5177L93.6583 18.5758C93.6583 18.0246 93.3603 17.755 92.8857 17.755C92.4121 17.755 92.1277 18.0246 92.1277 18.5758L92.1277 24.2811C92.1277 24.8328 92.4121 25.1019 92.8857 25.1019C93.3598 25.1019 93.6583 24.8328 93.6583 24.2811L93.6583 23.3392C93.6583 22.9221 93.9156 22.653 94.335 22.653C94.7414 22.653 95.0123 22.9221 95.0123 23.3392L95.0123 24.0524C95.0123 25.4244 94.2673 26.326 92.8722 26.326C91.4504 26.326 90.6914 25.4518 90.6914 24.0524L90.6914 18.8046C90.6914 17.4052 91.4499 16.5305 92.8722 16.5305C94.2673 16.5305 95.0123 17.4321 95.0123 18.8051Z" fill="white"/>
<path d="M99.9961 17.4319C99.9961 17.0148 100.294 16.7192 100.714 16.7192L103.423 16.7192C103.802 16.7192 104.059 16.9884 104.059 17.3512C104.059 17.728 103.802 17.9836 103.423 17.9836L101.432 17.9836L101.432 20.7286L102.976 20.7286C103.342 20.7286 103.612 20.9977 103.612 21.3606C103.612 21.7373 103.341 21.993 102.976 21.993L101.432 21.993L101.432 24.8726L103.437 24.8726C103.816 24.8726 104.074 25.1417 104.074 25.5045C104.074 25.8683 103.816 26.1369 103.437 26.1369L100.714 26.1369C100.295 26.1369 99.9966 25.8409 99.9966 25.4238L99.9966 17.4319L99.9961 17.4319Z" fill="white"/>
<path d="M110.319 22.4245L110.319 25.5593C110.319 25.9764 110.02 26.2725 109.601 26.2725C109.181 26.2725 108.883 25.9764 108.883 25.5593L108.883 17.4319C108.883 17.0148 109.181 16.7192 109.601 16.7192L110.874 16.7192C112.35 16.7192 113.203 17.4593 113.203 19.0202L113.203 20.0962C113.203 21.5091 112.256 22.4245 110.847 22.4245L110.319 22.4245ZM111.767 18.9928C111.767 18.3609 111.442 17.9836 110.833 17.9836L110.319 17.9836L110.319 21.1587L110.806 21.1587C111.416 21.1587 111.767 20.7954 111.767 20.1495L111.767 18.9928Z" fill="white"/>
<path d="M118.011 17.2979C118.011 16.8807 118.309 16.5847 118.729 16.5847C119.148 16.5847 119.447 16.8807 119.447 17.2979L119.447 24.8736L121.207 24.8736C121.573 24.8736 121.844 25.1427 121.844 25.5055C121.844 25.8693 121.573 26.138 121.207 26.138L118.729 26.138C118.309 26.138 118.011 25.8419 118.011 25.4248L118.011 17.2979Z" fill="white"/>
<path d="M130.973 25.4118C131.082 25.963 130.689 26.273 130.297 26.273C129.972 26.273 129.646 26.0577 129.579 25.6002L129.348 23.9586L127.927 23.9586L127.709 25.6002C127.642 26.0577 127.344 26.273 126.992 26.273C126.599 26.273 126.206 25.963 126.315 25.4118L127.887 17.2575C127.981 16.8 128.212 16.5847 128.645 16.5847C129.078 16.5847 129.308 16.8 129.403 17.2575L130.973 25.4118ZM128.102 22.7201L129.186 22.7201L128.698 19.1139C128.685 18.9928 128.658 18.8314 128.644 18.6564C128.631 18.8314 128.603 19.0068 128.59 19.1139L128.102 22.7201Z" fill="white"/>
<path d="M135.593 23.756C135.593 23.2985 135.85 23.0697 136.256 23.0697C136.689 23.0697 136.947 23.3389 136.947 23.756L136.947 24.0789C136.947 24.671 137.137 25.129 137.746 25.129C138.301 25.129 138.532 24.7248 138.532 24.066C138.532 23.0563 137.977 22.532 137.339 21.9534C136.351 21.0653 135.524 20.1637 135.524 18.8181C135.524 17.2981 136.351 16.5306 137.665 16.5306C138.924 16.5306 139.751 17.3385 139.751 18.6432L139.751 19.1137C139.751 19.5174 139.48 19.773 139.074 19.773C138.681 19.773 138.396 19.5174 138.396 19.1137L138.396 18.6831C138.396 18.1045 138.153 17.7542 137.665 17.7542C137.137 17.7542 136.934 18.1309 136.934 18.7095C136.934 19.5842 137.421 20.109 138.045 20.6876C138.817 21.4142 139.941 22.4368 139.941 23.9304C139.941 25.3299 139.074 26.3251 137.719 26.3251C136.378 26.3251 135.593 25.3832 135.593 24.1323L135.593 23.756Z" fill="white"/>
<path d="M147.121 17.9842L147.121 25.5599C147.121 25.977 146.822 26.2731 146.403 26.2731C145.969 26.2731 145.685 25.977 145.685 25.5599L145.685 17.9842L144.669 17.9842C144.303 17.9842 144.032 17.7286 144.032 17.3518C144.032 16.9885 144.304 16.7198 144.669 16.7198L148.136 16.7198C148.515 16.7198 148.773 16.989 148.773 17.3518C148.773 17.7286 148.515 17.9842 148.136 17.9842L147.121 17.9842Z" fill="white"/>
<path d="M153.337 17.2979C153.337 16.8807 153.621 16.5847 154.054 16.5847C154.474 16.5847 154.772 16.8807 154.772 17.2979L154.772 25.5593C154.772 25.9765 154.474 26.2725 154.054 26.2725C153.621 26.2725 153.337 25.9765 153.337 25.5593L153.337 17.2979Z" fill="white"/>
<path d="M164.186 18.8051L164.186 19.5177C164.186 19.9349 163.915 20.2045 163.509 20.2045C163.089 20.2045 162.832 19.9349 162.832 19.5177L162.832 18.5758C162.832 18.0246 162.534 17.755 162.06 17.755C161.586 17.755 161.301 18.0246 161.301 18.5758L161.301 24.2811C161.301 24.8328 161.586 25.1019 162.06 25.1019C162.534 25.1019 162.832 24.8328 162.832 24.2811L162.832 23.3392C162.832 22.9221 163.089 22.653 163.509 22.653C163.915 22.653 164.186 22.9221 164.186 23.3392L164.186 24.0524C164.186 25.4244 163.441 26.326 162.046 26.326C160.624 26.326 159.865 25.4518 159.865 24.0524L159.865 18.8046C159.865 17.4052 160.624 16.5305 162.046 16.5305C163.441 16.5305 164.186 17.4321 164.186 18.8051Z" fill="white"/>
<path d="M168.981 18.7777C168.981 17.4191 169.848 16.5305 171.229 16.5305C172.611 16.5305 173.478 17.4191 173.478 18.7777L173.478 24.0793C173.478 25.4384 172.611 26.3264 171.229 26.3264C169.848 26.3264 168.981 25.4384 168.981 24.0793L168.981 18.7777ZM172.043 18.5758C172.043 18.0914 171.731 17.755 171.229 17.755C170.728 17.755 170.417 18.0914 170.417 18.5758L170.417 24.2811C170.417 24.7656 170.728 25.1019 171.229 25.1019C171.731 25.1019 172.043 24.7656 172.043 24.2811L172.043 18.5758Z" fill="white"/>
</svg>
