<svg width="97" height="119" viewBox="0 0 97 119" fill="none" xmlns="http://www.w3.org/2000/svg">
<path d="M37.1814 68.822C37.4312 68.618 37.687 68.4219 37.9359 68.2249C37.6844 68.4228 37.4329 68.6162 37.1814 68.822ZM31.2439 111.156C31.02 109.646 29.6346 108.608 28.1506 108.835C27.9199 108.871 27.7029 108.938 27.4972 109.027C28.0849 109.662 28.645 110.266 29.1558 110.818C30.0149 111.747 30.6657 112.204 31.1583 112.361C31.2698 111.982 31.3052 111.574 31.2439 111.156ZM34.6068 104.05C33.1228 104.277 32.1038 105.687 32.3259 107.196C32.5524 108.705 33.9361 109.744 35.42 109.516C36.904 109.288 37.9247 107.879 37.7009 106.369C37.477 104.859 36.0907 103.822 34.6068 104.05ZM42.7404 80.0899C42.9513 81.5058 44.2495 82.4811 45.6409 82.2656C47.0324 82.0528 47.99 80.7302 47.78 79.3152C47.755 79.1393 47.7109 78.9705 47.6538 78.8113C47.2909 77.8017 46.3419 77.1184 45.278 77.1123C45.1466 77.1114 45.0135 77.1184 44.8795 77.1395C43.488 77.3532 42.5304 78.6741 42.7404 80.0899ZM44.7222 87.9519C46.1327 87.7347 47.1024 86.3962 46.889 84.9619C46.6746 83.5267 45.3592 82.54 43.9496 82.7563C42.5391 82.9735 41.5694 84.3129 41.7828 85.7472C41.9954 87.1815 43.3126 88.1691 44.7222 87.9519ZM43.8035 93.6382C45.2313 93.4174 46.214 92.0605 45.9979 90.6077C45.7818 89.1541 44.4482 88.1542 43.0205 88.374C41.5927 88.5939 40.6091 89.9499 40.8252 91.4045C41.0413 92.8573 42.3749 93.8571 43.8035 93.6382ZM42.8839 99.3218C44.3307 99.0993 45.3255 97.7257 45.1068 96.2536C44.8882 94.7814 43.5382 93.7683 42.0914 93.9908C40.6437 94.2142 39.6489 95.5878 39.8676 97.06C40.0863 98.533 41.4371 99.5443 42.8839 99.3218ZM44.2158 101.9C43.9945 100.41 42.6264 99.3834 41.1605 99.6085C39.6965 99.8345 38.6887 101.227 38.91 102.716C39.1312 104.208 40.4985 105.234 41.9635 105.008C43.4284 104.782 44.437 103.391 44.2158 101.9ZM40.2315 105.226C38.7466 105.454 37.7268 106.863 37.9506 108.373C38.1745 109.883 39.5599 110.921 41.0439 110.693C42.5278 110.464 43.5485 109.056 43.3238 107.546C43.1 106.036 41.7154 104.998 40.2315 105.226ZM48.7255 80.9192C48.9027 82.1091 49.9934 82.9278 51.1611 82.7475C52.0625 82.6086 52.7453 81.9156 52.9302 81.0599C51.5777 80.7047 50.2493 80.1999 48.9684 79.5447C48.7497 79.9492 48.6512 80.4276 48.7255 80.9192ZM50.2398 88.4171C51.4186 88.2351 52.2302 87.1164 52.0521 85.9161C51.8732 84.7174 50.7739 83.8916 49.5942 84.0728C48.4153 84.2548 47.6037 85.3735 47.7818 86.5739C47.9615 87.7743 49.0617 88.5983 50.2398 88.4171ZM46.8397 92.2276C47.0195 93.4377 48.1292 94.2696 49.3184 94.0867C50.5068 93.9038 51.3253 92.7755 51.1447 91.5654C50.9658 90.3553 49.856 89.5234 48.6668 89.7063C47.4784 89.8892 46.6599 91.0184 46.8397 92.2276ZM47.7403 95.339C46.5398 95.5236 45.7161 96.6625 45.8968 97.8831C46.0783 99.1029 47.1966 99.9418 48.3971 99.758C49.5959 99.5733 50.4213 98.4345 50.2398 97.2139C50.0583 95.9932 48.9382 95.1543 47.7403 95.339ZM46.812 100.972C45.6029 101.157 44.7715 102.307 44.9539 103.536C45.1371 104.766 46.2658 105.613 47.4749 105.427C48.6832 105.24 49.5155 104.093 49.3331 102.861C49.1499 101.633 48.0212 100.786 46.812 100.972ZM45.8847 106.605C44.6661 106.793 43.8251 107.952 44.0109 109.191C44.1959 110.431 45.3333 111.285 46.5528 111.098C47.7714 110.909 48.6106 109.753 48.4265 108.512C48.2424 107.271 47.1042 106.417 45.8847 106.605ZM56.4366 83.3016C57.2525 83.1758 57.8549 82.511 57.9508 81.716C56.7555 81.7142 55.5585 81.6052 54.3736 81.3871C54.3667 81.512 54.3719 81.6386 54.3909 81.767C54.5395 82.766 55.4548 83.4528 56.4366 83.3016ZM55.5343 89.001C56.5524 88.8445 57.2516 87.8789 57.0986 86.843C56.9448 85.8079 55.995 85.0964 54.9769 85.253C53.9596 85.4095 53.2604 86.376 53.4134 87.4111C53.5681 88.4461 54.5171 89.1593 55.5343 89.001ZM54.632 94.7023C55.6856 94.5405 56.4115 93.5397 56.2516 92.4686C56.0918 91.3957 55.1091 90.6579 54.0547 90.8205C53.0011 90.9832 52.2769 91.984 52.4367 93.0551C52.5966 94.1263 53.5793 94.8641 54.632 94.7023ZM55.4055 98.0906C55.2413 96.9826 54.2241 96.2201 53.1342 96.3872C52.0444 96.5552 51.295 97.5903 51.4601 98.6983C51.6243 99.8064 52.6399 100.57 53.7306 100.402C54.8204 100.235 55.5689 99.1996 55.4055 98.0906ZM52.212 101.957C51.0867 102.129 50.3124 103.198 50.4826 104.343C50.6529 105.488 51.703 106.275 52.8291 106.102C53.9535 105.929 54.7279 104.861 54.5577 103.716C54.3874 102.571 53.3373 101.782 52.212 101.957ZM51.2907 107.524C50.1291 107.702 49.3297 108.805 49.506 109.986C49.6823 111.169 50.7652 111.982 51.9277 111.803C53.0884 111.624 53.8879 110.52 53.7116 109.339C53.5352 108.158 52.4523 107.344 51.2907 107.524ZM60.6093 82.5602C60.7044 83.2004 61.2921 83.641 61.9213 83.5443C62.5513 83.4475 62.9835 82.8495 62.8884 82.2085C62.8219 81.7626 62.5133 81.4179 62.1209 81.2798C61.9515 81.2209 61.7666 81.1954 61.5764 81.2244C61.3604 81.2578 61.1711 81.3528 61.0147 81.4856C60.7156 81.7397 60.5471 82.139 60.6093 82.5602ZM61.038 89.3739C61.7744 89.2613 62.2808 88.5622 62.1693 87.8147C62.0578 87.0654 61.3708 86.5501 60.6361 86.6636C59.9015 86.777 59.3942 87.4761 59.5056 88.2236C59.6171 88.9729 60.3034 89.4882 61.038 89.3739ZM60.1564 95.2035C60.9982 95.0751 61.5773 94.274 61.4494 93.4183C61.3224 92.5609 60.5367 91.9726 59.6949 92.1018C58.8523 92.2311 58.2732 93.0314 58.4002 93.8871C58.5282 94.7436 59.3138 95.3328 60.1564 95.2035ZM58.7537 97.5401C57.8056 97.6861 57.1522 98.5849 57.2957 99.5514C57.4392 100.516 58.3242 101.18 59.2723 101.034C60.2213 100.888 60.8747 99.9875 60.7312 99.0228C60.5877 98.0572 59.7018 97.3942 58.7537 97.5401ZM57.8125 102.978C56.7573 103.139 56.0313 104.141 56.192 105.215C56.3519 106.289 57.3355 107.026 58.3907 106.864C59.446 106.702 60.1711 105.7 60.0121 104.626C59.8514 103.553 58.8678 102.815 57.8125 102.978ZM56.8722 108.415C55.7089 108.593 54.9112 109.696 55.0875 110.878C55.2638 112.06 56.3467 112.873 57.5083 112.693C58.6699 112.514 59.4693 111.412 59.293 110.23C59.1167 109.048 58.0329 108.236 56.8722 108.415ZM67.4155 84.1625C67.7612 84.108 68.0015 83.7791 67.9487 83.4264C67.896 83.0738 67.5719 82.8293 67.2254 82.8838C66.8779 82.9366 66.6394 83.2673 66.6921 83.6199C66.7448 83.9725 67.0689 84.2153 67.4155 84.1625ZM66.5123 90.0097C66.9851 89.9367 67.3109 89.4874 67.2392 89.0054C67.1683 88.5244 66.7267 88.1929 66.2522 88.265C65.7794 88.338 65.4536 88.7873 65.5262 89.2693C65.5979 89.7512 66.0396 90.0827 66.5123 90.0097ZM65.2816 93.6479C64.6826 93.7393 64.2695 94.3092 64.3611 94.9186C64.451 95.5272 65.0111 95.9475 65.61 95.8543C66.2081 95.7628 66.6212 95.1939 66.5296 94.5844C66.438 93.975 65.8797 93.5564 65.2816 93.6479ZM64.3084 99.029C63.5833 99.1407 63.0846 99.8301 63.1944 100.567C63.3041 101.306 63.9809 101.813 64.7069 101.702C65.432 101.59 65.9307 100.902 65.8209 100.163C65.7111 99.4265 65.0336 98.9182 64.3084 99.029ZM63.3361 104.412C62.4857 104.542 61.8997 105.351 62.0285 106.217C62.1572 107.084 62.9507 107.68 63.8037 107.55C64.6541 107.419 65.2401 106.61 65.1113 105.743C64.9826 104.876 64.1874 104.281 63.3361 104.412ZM62.3638 109.794C61.3863 109.945 60.7148 110.874 60.8626 111.867C61.0104 112.862 61.923 113.545 62.8997 113.394C63.8763 113.245 64.5496 112.317 64.4009 111.322C64.254 110.328 63.3404 109.643 62.3638 109.794ZM72.9477 84.5741C73.0713 84.5547 73.1551 84.4378 73.1378 84.3111C73.1188 84.1854 73.0039 84.0992 72.8803 84.1185C72.7567 84.137 72.6711 84.2548 72.6893 84.3806C72.7074 84.5064 72.8224 84.5925 72.9477 84.5741ZM72.4482 89.9016C72.4084 89.6351 72.1638 89.4504 71.9011 89.4909C71.6409 89.5313 71.4586 89.7811 71.4983 90.0475C71.5381 90.3149 71.7827 90.4978 72.0445 90.4573C72.3064 90.416 72.4871 90.168 72.4482 89.9016ZM70.9236 94.8641C70.5226 94.9248 70.2468 95.3064 70.3074 95.7145C70.3687 96.1208 70.7429 96.4013 71.1431 96.3406C71.5433 96.2791 71.819 95.8983 71.7585 95.4902C71.698 95.0822 71.3237 94.8034 70.9236 94.8641ZM69.9452 100.236C69.4059 100.32 69.0351 100.833 69.1172 101.38C69.1985 101.928 69.7015 102.307 70.2399 102.224C70.7792 102.14 71.15 101.629 71.0688 101.08C70.9875 100.531 70.4845 100.154 69.9452 100.236ZM68.9669 105.61C68.2901 105.714 67.8243 106.359 67.9263 107.047C68.0283 107.736 68.6618 108.211 69.3385 108.106C70.0161 108.003 70.4819 107.359 70.38 106.67C70.2771 105.981 69.6445 105.506 68.9669 105.61ZM67.9894 110.983C67.1735 111.109 66.6117 111.883 66.7353 112.714C66.8589 113.544 67.6195 114.115 68.4362 113.99C69.2521 113.863 69.8139 113.09 69.6903 112.258C69.5667 111.429 68.8061 110.858 67.9894 110.983ZM77.5612 90.7396C77.4376 90.7581 77.3529 90.8759 77.3719 91.0017C77.3901 91.1275 77.5051 91.2136 77.6286 91.1943C77.7531 91.1758 77.8378 91.0589 77.8196 90.9322C77.8006 90.8065 77.6839 90.7194 77.5612 90.7396ZM76.5422 96.0988C76.2631 96.141 76.0712 96.4066 76.1136 96.6906C76.1559 96.9747 76.4169 97.169 76.6952 97.1268C76.9735 97.0828 77.1662 96.819 77.123 96.5341C77.0815 96.2509 76.8205 96.0574 76.5422 96.0988ZM75.5224 101.459C75.0885 101.526 74.7895 101.938 74.8552 102.38C74.9208 102.822 75.3262 103.127 75.7618 103.058C76.1957 102.992 76.4947 102.579 76.4281 102.138C76.3625 101.696 75.9571 101.393 75.5224 101.459ZM74.5034 106.82C73.9131 106.91 73.5078 107.47 73.5968 108.07C73.6858 108.67 74.2363 109.082 74.8258 108.993C75.4152 108.901 75.8214 108.342 75.7324 107.741C75.6434 107.142 75.0928 106.728 74.5034 106.82ZM73.4844 112.18C72.7394 112.295 72.2269 113.002 72.3401 113.761C72.4525 114.518 73.1482 115.04 73.8924 114.925C74.6374 114.81 75.1508 114.103 75.0375 113.344C74.9243 112.586 74.2294 112.065 73.4844 112.18ZM26.6563 106.429C26.4843 106.778 26.2449 107.091 25.9571 107.353C24.6391 105.912 23.2873 104.407 22.1171 103.04C22.0359 102.966 21.9546 102.891 21.8743 102.818C21.4516 102.438 21.0359 102.055 20.6288 101.665C20.583 101.621 20.5372 101.578 20.4923 101.536L20.2581 102.502C20.2581 102.502 19.679 107.784 17.1735 102.558C17.0093 102.216 16.839 101.858 16.6661 101.49C15.3464 98.6904 13.8028 95.2545 12.5695 92.414C12.5695 92.414 12.1486 91.4396 11.955 90.9859C11.6784 90.5418 11.4062 90.0941 11.1434 89.6439L10.4926 90.9516C10.4926 90.9516 8.7295 95.1719 7.91189 90.2357C7.25677 86.2828 6.18766 80.5068 5.64231 76.6937C5.53946 76.3287 5.4392 75.9629 5.3424 75.5961L4.03389 77.0525C4.03389 77.0525 1.27858 80.4655 1.96655 74.8407C2.47128 70.733 2.99676 65.0186 3.48162 61.3892C3.48075 61.0937 3.48248 60.8 3.48594 60.5054L2.21805 61.1667C2.21805 61.1667 -1.33153 63.5535 0.549999 58.6411C1.95963 54.9616 4.00537 49.7097 5.46686 46.3249C5.54205 46.0523 5.61551 45.7814 5.69416 45.5106L4.43578 45.7761C4.43578 45.7761 0.491227 46.8842 3.08664 43.2997C5.40809 40.0942 9.00606 35.3472 11.4157 32.3827C11.5548 32.1505 11.694 31.9175 11.8374 31.6853L8.93865 31.352C8.93865 31.352 6.23433 30.9044 10.0242 28.0604C13.4657 25.4766 18.4258 22.0689 21.3272 20.0779L18.2841 19.2566C18.2841 19.2566 15.3974 18.5715 18.603 17.3034C22.6979 15.6835 29.8956 12.7964 33.6828 11.5221L30.1255 8.90411C30.1255 8.90411 28.2587 7.66766 31.8661 7.49177C36.2921 7.27456 43.8968 6.88938 47.8025 6.72053L47.7783 6.7302C47.7965 6.72669 47.8129 6.72317 47.8302 6.71965L45.2684 3.59686C45.2684 3.59686 42.992 1.1688 46.666 2.12296C51.1619 3.29082 58.8194 4.99424 62.6758 5.92466L60.7225 2.13439C60.7225 2.13439 58.7511 -1.3305 61.8859 0.569036C66.0499 3.09207 73.6192 7.21916 77.2077 9.24972L75.8059 3.13604C75.8059 3.13604 74.5847 -1.23992 77.8093 2.48704C81.4142 6.65194 87.382 13.5061 90.203 16.3976C93.6402 19.0666 96.1051 23.0398 96.8034 27.7323C98.2295 37.3259 91.7431 46.2792 82.3147 47.7302C77.2968 48.5032 72.4568 46.9932 68.8113 43.9663C64.7069 41.2999 59.8522 40.2411 54.9924 40.9886C49.6754 41.8073 44.9902 44.683 41.7984 49.0871C37.8149 54.5861 36.9455 61.4569 38.8521 67.5143C39.0975 68.2926 39.3897 69.0568 39.7267 69.8043C39.7397 69.8342 39.7526 69.8615 39.7665 69.8914C40.5703 71.6555 41.6264 73.3167 42.9263 74.8135C42.4915 75.3613 41.8762 75.7615 41.151 75.9066C41.8995 76.3551 42.4518 77.1298 42.5918 78.0708C42.8381 79.732 41.7154 81.2807 40.0845 81.5322C40.0785 81.5331 40.0733 81.5331 40.0664 81.5339C40.8684 81.9587 41.4674 82.7528 41.6126 83.7316C41.8554 85.362 40.7535 86.8825 39.1511 87.1288C39.0828 87.1402 39.0146 87.1446 38.9463 87.149C39.8183 87.5412 40.4821 88.3608 40.6351 89.3906C40.8727 90.9903 39.7907 92.4844 38.2194 92.7262C38.0621 92.75 37.9091 92.757 37.757 92.7552C38.7311 93.0859 39.4934 93.946 39.6567 95.0505C39.8901 96.6194 38.8287 98.0845 37.286 98.3228C35.8288 98.5479 34.465 97.5955 34.1219 96.1665C33.7122 96.9272 33.0113 97.5155 32.1427 97.7477C32.7978 98.2138 33.2714 98.9393 33.4002 99.8073C33.408 99.8618 33.4115 99.9154 33.4166 99.9708C33.7917 99.1301 34.5618 98.4917 35.5237 98.3439C37.038 98.1109 38.4493 99.1706 38.6784 100.71C38.9082 102.25 37.8668 103.687 36.3535 103.919C34.8401 104.152 33.4279 103.094 33.1997 101.554C33.1945 101.526 33.1945 101.498 33.1911 101.469C32.7926 102.421 31.9379 103.147 30.8584 103.314C30.8368 103.318 30.8143 103.318 30.791 103.321C31.5844 103.736 32.1781 104.516 32.3216 105.482C32.5593 107.077 31.4789 108.568 29.9111 108.809C28.3684 109.046 26.9268 107.985 26.6563 106.429ZM29.5698 97.3089C29.0564 96.9615 28.6467 96.4672 28.4004 95.8728C28.0244 96.3494 27.5257 96.7276 26.9398 96.9439C27.4004 97.344 27.7505 97.8787 27.9276 98.5022C28.3157 97.9385 28.887 97.5094 29.5698 97.3089ZM30.1627 91.6059C29.8022 91.3104 29.5023 90.9401 29.2863 90.5127C28.97 90.861 28.5836 91.1442 28.1472 91.3429C28.4739 91.6718 28.7366 92.0702 28.9086 92.5204C29.2405 92.1212 29.6666 91.8046 30.1627 91.6059ZM30.7962 85.9081C30.5559 85.6786 30.345 85.4148 30.1748 85.1219C29.9258 85.3647 29.6432 85.574 29.3312 85.7375C29.5507 85.9882 29.7366 86.2705 29.88 86.5818C30.1436 86.31 30.4513 86.0796 30.7962 85.9081ZM31.4642 80.221C31.3182 80.0644 31.1868 79.8947 31.0684 79.7144C30.8921 79.871 30.7011 80.0117 30.4971 80.1357C30.6276 80.3019 30.7434 80.4813 30.8463 80.6704C31.0338 80.498 31.2413 80.3476 31.4642 80.221ZM32.147 74.5303C32.0148 74.3729 31.8947 74.2049 31.7866 74.0264C31.6898 74.1231 31.5913 74.2216 31.4945 74.3184C31.6112 74.4608 31.7201 74.6138 31.8169 74.7739C31.9215 74.6868 32.0312 74.605 32.147 74.5303ZM36.8867 92.6093C36.0484 92.3279 35.3656 91.6621 35.0691 90.7871C34.6811 91.4062 34.1003 91.8978 33.3959 92.1572C33.924 92.6154 34.306 93.2504 34.4495 93.9891C34.8678 93.2864 35.5791 92.7711 36.4408 92.6383C36.5903 92.6145 36.7389 92.6084 36.8867 92.6093ZM37.5462 86.9124C36.8763 86.6152 36.3267 86.0691 36.0268 85.3691C35.6707 85.8791 35.1824 86.2924 34.6042 86.5554C35.013 86.9678 35.3215 87.4876 35.4788 88.0812C35.9161 87.4823 36.5764 87.0523 37.3595 86.9318C37.4208 86.9221 37.4831 86.9177 37.5462 86.9124ZM38.273 81.2261C37.7294 80.9421 37.2791 80.4901 36.9904 79.9281C36.6715 80.3494 36.2636 80.7003 35.7899 80.9509C36.1045 81.3114 36.3491 81.7397 36.5004 82.219C36.942 81.7037 37.5557 81.337 38.273 81.2261ZM39.0396 75.5513C38.5988 75.291 38.2255 74.9225 37.9575 74.4731C37.6775 74.8187 37.3396 75.1142 36.9533 75.3464C37.1935 75.6524 37.3923 75.9963 37.5289 76.3762C37.9299 75.9681 38.4476 75.6744 39.0396 75.5513ZM23.7057 96.3925C23.3453 96.097 23.0445 95.7268 22.8284 95.2994C22.5121 95.6476 22.1266 95.9317 21.6902 96.1304C22.016 96.4585 22.2779 96.8559 22.4507 97.308C22.7835 96.9087 23.2096 96.5913 23.7057 96.3925ZM24.3383 90.6957C24.0972 90.467 23.888 90.2032 23.7169 89.9103C23.4688 90.1531 23.1854 90.3615 22.8742 90.5259C23.0929 90.7757 23.2787 91.058 23.423 91.3693C23.6875 91.0976 23.9943 90.8663 24.3383 90.6957ZM25.0064 85.0076C24.8621 84.8511 24.7298 84.6822 24.6105 84.502C24.4334 84.6585 24.2432 84.7992 24.0401 84.9214C24.1706 85.0885 24.2864 85.2679 24.3893 85.457C24.5768 85.2846 24.7825 85.1351 25.0064 85.0076ZM26.9372 104.406C27.3468 103.607 28.1091 103.582 29.0512 102.702L29.0598 102.702C28.3425 102.702 27.7747 101.847 27.5214 101.03C27.1023 101.673 26.4601 102.164 25.6857 102.371C26.3339 102.833 26.8032 103.549 26.9372 104.406ZM36.9783 112.254C36.7484 110.709 35.3327 109.647 33.8151 109.882C32.5238 110.081 31.5792 111.154 31.4668 112.423C32.4461 112.487 32.6449 111.138 32.6812 110.405C33.4685 110.826 34.2619 111.224 35.0614 111.601C35.6828 112.017 36.3353 112.444 37.0017 112.873C37.0155 112.67 37.0094 112.464 36.9783 112.254ZM42.2634 113.177C42.0499 111.739 40.7327 110.751 39.3188 110.968C38.235 111.135 37.4131 111.966 37.1849 112.991C38.5755 113.886 40.018 114.781 41.3593 115.59C42.0309 115.02 42.4042 114.121 42.2634 113.177ZM47.5493 114.1C47.3505 112.769 46.1293 111.854 44.8233 112.057C43.5148 112.258 42.6151 113.5 42.8139 114.829C43.0118 116.161 44.2331 117.075 45.539 116.873C46.1301 116.782 46.6349 116.478 46.9961 116.05C46.9581 115.877 46.9132 115.711 46.8682 115.567C47.003 115.595 47.1387 115.62 47.2727 115.646C47.5207 115.193 47.6305 114.654 47.5493 114.1ZM52.8326 115.024C52.6511 113.8 51.5275 112.958 50.3262 113.143C49.1223 113.328 48.2951 114.471 48.4775 115.694C48.487 115.759 48.5008 115.822 48.5164 115.886C48.9753 115.968 49.4351 116.046 49.8966 116.115C50.6754 116.355 51.4886 116.598 52.3114 116.836C52.7228 116.358 52.9337 115.703 52.8326 115.024ZM58.1176 115.948C57.9525 114.83 56.9258 114.062 55.829 114.23C54.7314 114.4 53.9752 115.442 54.142 116.559C54.1921 116.9 54.3235 117.206 54.5101 117.465C55.3347 117.697 56.1436 117.921 56.9163 118.134C57.7399 117.779 58.2585 116.891 58.1176 115.948ZM61.3319 115.318C60.3397 115.471 59.656 116.414 59.8055 117.425C59.9559 118.435 60.8824 119.131 61.8764 118.979C62.0025 118.96 62.1244 118.926 62.2393 118.883C62.8573 118.38 62.2791 117.238 61.8591 116.577C62.3362 116.542 62.8106 116.499 63.286 116.45C62.9774 115.676 62.1797 115.187 61.3319 115.318ZM80.1566 108.076C79.6821 108.148 79.3563 108.6 79.4272 109.082C79.4998 109.565 79.9423 109.896 80.4168 109.824C80.8913 109.75 81.2171 109.301 81.1445 108.817C81.0736 108.335 80.6294 108.003 80.1566 108.076ZM85.8038 109.286C85.4642 109.338 85.2317 109.66 85.2818 110.004C85.3068 110.171 85.3967 110.311 85.5177 110.407C85.6465 110.509 85.8133 110.561 85.987 110.533C86.2187 110.498 86.3941 110.332 86.4702 110.123C86.5039 110.027 86.5246 109.923 86.5091 109.814C86.4572 109.47 86.1409 109.234 85.8038 109.286ZM86.7485 103.962C86.5851 103.986 86.4719 104.143 86.4969 104.31C86.5203 104.478 86.675 104.592 86.8392 104.568C87.0034 104.542 87.1166 104.387 87.0916 104.219C87.0682 104.05 86.9144 103.936 86.7485 103.962ZM81.1281 102.675C80.7703 102.73 80.5239 103.07 80.5775 103.434C80.6311 103.798 80.9656 104.049 81.3234 103.994C81.6812 103.94 81.9275 103.598 81.8739 103.234C81.8204 102.871 81.4859 102.62 81.1281 102.675ZM82.1004 97.3968C81.9612 97.4179 81.8662 97.5498 81.8869 97.6905C81.9077 97.8303 82.0373 97.9288 82.1764 97.906C82.313 97.8857 82.4098 97.7538 82.3873 97.6131C82.3666 97.4724 82.2387 97.3757 82.1004 97.3968Z" fill="white"/>
</svg>
