<svg width="64" height="64" viewBox="0 0 64 64" fill="none" xmlns="http://www.w3.org/2000/svg">
<g clip-path="url(#clip0_174_3703)">
<path d="M63.9588 22.4574C63.9587 22.4572 63.9586 22.4569 63.9586 22.4567C63.9498 22.428 63.9397 22.3995 63.9282 22.3717C63.9258 22.3661 63.9229 22.3608 63.9204 22.3552C63.9106 22.3327 63.9006 22.3102 63.8888 22.2883C63.8858 22.2823 63.8818 22.2769 63.8787 22.2709C63.8668 22.2497 63.8546 22.2284 63.8409 22.2079C63.8397 22.2062 63.8382 22.2044 63.8371 22.2025C63.8037 22.1533 63.7657 22.1062 63.7219 22.0624C63.7204 22.0609 63.7189 22.0598 63.7174 22.0584L47.5944 5.93577C47.592 5.93339 47.5903 5.93089 47.5879 5.92864C47.5268 5.86739 47.4589 5.81739 47.3874 5.77639C47.3785 5.77114 47.3698 5.76552 47.3608 5.76064C47.3484 5.75402 47.3358 5.74889 47.3234 5.74289C47.3073 5.73527 47.2915 5.72714 47.2753 5.72064C47.2672 5.71752 47.259 5.71502 47.251 5.71202C47.23 5.70402 47.2089 5.69614 47.1874 5.68977C47.1817 5.68814 47.1758 5.68702 47.17 5.68552C47.1462 5.67889 47.1224 5.67277 47.0982 5.66789C47.09 5.66639 47.0817 5.66564 47.0734 5.66439C47.0517 5.66077 47.0299 5.65689 47.0078 5.65489C46.9465 5.64889 46.8847 5.64889 46.8235 5.65489C46.7994 5.65727 46.7757 5.66127 46.752 5.66527C46.7459 5.66627 46.7398 5.66677 46.7335 5.66789C46.6429 5.68539 46.556 5.71589 46.4748 5.75864C46.4743 5.75877 46.4739 5.75889 46.4735 5.75914C46.448 5.77252 46.4233 5.78739 46.399 5.80314C46.3968 5.80464 46.3943 5.80577 46.392 5.80739C46.3678 5.82352 46.3444 5.84102 46.3214 5.85927C46.3194 5.86089 46.3173 5.86214 46.3152 5.86402C46.2902 5.88452 46.2659 5.90627 46.2427 5.92939C46.242 5.93002 46.2415 5.93064 46.2409 5.93127L40.7452 11.427C40.7443 11.4278 40.7434 11.4285 40.7425 11.4293C40.3713 11.8005 40.3713 12.4025 40.7425 12.7737L41.3988 13.4299C39.0114 14.1882 34.4888 15.8918 31.7799 18.6008C31.7796 18.601 31.7795 18.6012 31.7793 18.6014L31.5274 18.8533C28.7916 16.5159 24.7991 15.0223 22.6067 14.3259L23.2635 13.6692C23.6347 13.2979 23.6347 12.6959 23.2635 12.3248L17.7626 6.82414C17.7606 6.82214 17.7591 6.81989 17.757 6.81789C17.577 6.63789 17.3374 6.53902 17.0839 6.53902C16.8354 6.53902 16.6005 6.63464 16.4231 6.80777C16.4196 6.81127 16.4153 6.81439 16.4118 6.81802C16.4115 6.81839 16.4111 6.81889 16.4107 6.81927L4.75883 18.471C4.58008 18.6498 4.48133 18.888 4.48133 19.1429C4.48133 19.3964 4.58008 19.6348 4.75883 19.8148C4.93883 19.9948 5.17708 20.0937 5.43208 20.0937C5.68558 20.0937 5.92396 19.9948 6.10396 19.8148L17.0846 8.83527L21.2465 12.997L6.45721 27.7861L2.29545 23.6242L3.41545 22.5042C3.5942 22.3242 3.69308 22.0859 3.69308 21.831C3.69308 21.5775 3.59433 21.3392 3.41545 21.1592C3.23545 20.9792 2.9972 20.8803 2.74232 20.8803C2.48882 20.8803 2.25045 20.9792 2.07045 21.1592L0.278069 22.9515C0.231819 22.9978 0.191193 23.0478 0.156693 23.1004C-0.0535571 23.4186 -0.0520571 23.8353 0.160193 24.1523C0.194318 24.2032 0.233194 24.2517 0.278069 24.2966C0.279944 24.2983 0.281819 24.2998 0.283819 24.3017L5.78483 29.8028C5.97058 29.9886 6.21383 30.0813 6.45721 30.0813C6.70046 30.0813 6.94383 29.9886 7.12958 29.8028L7.78521 29.1472C8.48209 31.3416 9.97784 35.339 12.3186 38.075C10.9053 39.6913 10.9677 42.1571 12.5077 43.6973C13.3108 44.5003 14.3657 44.902 15.4208 44.902C15.5482 44.902 15.6756 44.8957 15.8025 44.8841C15.6937 46.0624 16.0892 47.2789 16.9894 48.179C17.7675 48.957 18.802 49.3855 19.9026 49.3855C20.0309 49.3855 20.1581 49.379 20.2842 49.3675C20.176 50.5452 20.5716 51.7609 21.4711 52.6606C22.2492 53.4386 23.2837 53.8671 24.3842 53.8671C24.5125 53.8671 24.6397 53.8606 24.7659 53.8491C24.6577 55.0269 25.0532 56.2425 25.9527 57.1422C26.7559 57.9452 27.8109 58.3467 28.8658 58.3467C29.8251 58.3467 30.784 58.0135 31.554 57.3492C32.3014 57.9958 33.2448 58.3494 34.2431 58.3494C35.3436 58.3494 36.3781 57.9209 37.1564 57.1426C38.056 56.243 38.4514 55.0275 38.3431 53.8496C38.4693 53.8611 38.5965 53.8676 38.7248 53.8676C39.8253 53.8676 40.8598 53.4391 41.638 52.661C42.5377 51.7614 42.933 50.5457 42.8248 49.368C42.9509 49.3795 43.0782 49.386 43.2064 49.386C44.3069 49.386 45.3414 48.9575 46.1197 48.1794C47.0193 47.2797 47.4147 46.0641 47.3064 44.8863C47.4325 44.8979 47.5598 44.9043 47.688 44.9043C48.7885 44.9043 49.823 44.4758 50.6009 43.6978C51.3792 42.9198 51.8077 41.8852 51.8077 40.7847C51.8077 39.7906 51.4568 38.8507 50.8155 38.1046L51.0494 37.8707C51.0497 37.8705 51.0498 37.8703 51.05 37.8701C53.7591 35.1611 55.4626 30.6388 56.2209 28.2512L56.8769 28.9071C57.0627 29.0927 57.3061 29.1856 57.5493 29.1856C57.7926 29.1856 58.0359 29.0928 58.2217 28.9071C58.2219 28.9068 58.2221 28.9067 58.2223 28.9064L63.7222 23.4067C63.9787 23.1499 64.0576 22.7824 63.9588 22.4574ZM16.9891 42.3531C16.1243 43.2177 14.717 43.2177 13.8521 42.353C12.9873 41.488 12.9873 40.0807 13.8521 39.2157L15.6441 37.4237C15.6441 37.4237 15.6442 37.4236 15.6443 37.4233C16.0635 37.0046 16.6202 36.7741 17.2127 36.7741C17.8052 36.7741 18.3622 37.0048 18.7812 37.4238C19.2002 37.8428 19.4309 38.3997 19.4309 38.9923C19.4309 39.5846 19.2004 40.1413 18.7817 40.5603C18.7817 40.5603 18.7814 40.5607 18.7811 40.561L16.9891 42.3531ZM21.4707 46.8346C21.0517 47.2536 20.4949 47.4842 19.9024 47.4842C19.3097 47.4842 18.7526 47.2535 18.3337 46.8346C17.4689 45.9697 17.4689 44.5623 18.3337 43.6975L20.1257 41.9055C20.126 41.9053 20.1261 41.9051 20.1264 41.9048C20.5454 41.4862 21.102 41.2557 21.6944 41.2557C22.2869 41.2557 22.8439 41.4865 23.2629 41.9053C23.6819 42.3245 23.9125 42.8813 23.9125 43.4738C23.9125 44.0663 23.6819 44.6232 23.2631 45.0421L23.2627 45.0425L21.4707 46.8346ZM25.9524 51.3162C25.5335 51.7352 24.9765 51.9659 24.384 51.9659C23.7914 51.9659 23.2342 51.7351 22.8154 51.3162C21.9505 50.4514 21.9505 49.044 22.8154 48.179L24.6074 46.387L24.6076 46.3867C25.4726 45.5221 26.8796 45.5222 27.7446 46.387C28.1636 46.806 28.3943 47.363 28.3943 47.9555C28.3943 48.5479 28.1636 49.1049 27.7449 49.5237L27.7445 49.5241L25.9524 51.3162ZM32.2261 54.0059L30.8848 55.3472C30.8838 55.3482 30.8825 55.3491 30.8816 55.3501C30.8806 55.3511 30.8798 55.3522 30.8788 55.3532L30.4343 55.7976L30.4341 55.7977C29.569 56.6627 28.1619 56.6624 27.2971 55.7979C26.4324 54.9329 26.4324 53.5255 27.2971 52.6605L29.0891 50.8685L29.0893 50.8682C29.9544 50.0036 31.3614 50.0037 32.2264 50.8685C33.0911 51.7334 33.091 53.1409 32.2261 54.0059ZM49.2563 42.3535C48.8373 42.7725 48.2805 43.0031 47.6879 43.0031C47.0953 43.0031 46.5384 42.7723 46.1195 42.3535L42.9824 39.2163C42.611 38.8451 42.0092 38.8451 41.6379 39.2163C41.2667 39.5876 41.2667 40.1896 41.6379 40.5607L44.775 43.6978C45.6399 44.5627 45.6399 45.97 44.7752 46.8351C44.356 47.2541 43.799 47.4847 43.2064 47.4847C42.614 47.4847 42.0572 47.2541 41.6384 46.8354L41.638 46.8351L38.501 43.6981C38.1296 43.3268 37.5278 43.3268 37.1565 43.6981C36.7853 44.0693 36.7853 44.6713 37.1565 45.0426L40.2936 48.1797C40.2936 48.1797 40.2939 48.1799 40.294 48.1801C41.1584 49.0451 41.1583 50.4521 40.2938 51.317C39.8746 51.7361 39.3176 51.9667 38.725 51.9667C38.1325 51.9667 37.5755 51.736 37.1566 51.3171C36.7854 50.9459 36.1834 50.9456 35.8123 51.317C35.4409 51.6882 35.4409 52.2901 35.8121 52.6614C36.6769 53.5264 36.6769 54.9336 35.8123 55.7986C35.3931 56.2177 34.8361 56.4484 34.2435 56.4484C33.7583 56.4484 33.2981 56.2914 32.9169 56.0051L33.5714 55.3506C35.1776 53.7442 35.1775 51.1305 33.5713 49.5245C32.6715 48.625 31.4559 48.2296 30.2784 48.3376C30.2899 48.2115 30.2964 48.0842 30.2964 47.956C30.2964 46.8555 29.8679 45.821 29.0896 45.0428C28.1899 44.1433 26.9742 43.748 25.7966 43.856C25.8081 43.7298 25.8146 43.6026 25.8146 43.4743C25.8146 42.374 25.3861 41.3393 24.608 40.5612C23.83 39.7832 22.7954 39.3546 21.695 39.3547C21.5674 39.3547 21.4407 39.3611 21.3151 39.3725C21.3265 39.247 21.333 39.1203 21.333 38.9927C21.333 37.8922 20.9045 36.8577 20.1264 36.0796C19.3484 35.3016 18.3139 34.8731 17.2134 34.8731C16.1133 34.8731 15.0793 35.3012 14.3011 36.0786C14.3007 36.079 14.3003 36.0792 14.3 36.0796L13.6612 36.7185C11.2253 33.7943 9.75371 29.1559 9.31296 27.6204L21.0802 15.8532C22.6155 16.293 27.2515 17.762 30.1789 20.2022L25.0576 25.3224C24.2794 26.1004 23.8509 27.1351 23.8509 28.2357C23.8509 29.3361 24.2794 30.3707 25.0575 31.1487C25.8355 31.9268 26.87 32.3554 27.9705 32.3554C29.0705 32.3554 30.1046 31.9272 30.8828 31.1498C30.8831 31.1494 30.8835 31.1492 30.8839 31.1488C34.1764 27.8562 38.2765 28.8719 39.1973 29.1572L49.257 39.217C49.2573 39.2172 49.2575 39.2173 49.2577 39.2176C49.6764 39.6366 49.9068 40.1932 49.9068 40.7856C49.906 41.3775 49.6754 41.9343 49.2563 42.3535ZM49.7052 36.5257C49.7049 36.526 49.7048 36.5261 49.7045 36.5263L49.4802 36.7508L40.383 27.6537C40.3805 27.6513 40.3779 27.6492 40.3754 27.6468C40.361 27.6327 40.3458 27.6193 40.3304 27.6061C40.3215 27.5984 40.3126 27.5903 40.3035 27.5829C40.2899 27.5719 40.2753 27.5618 40.2608 27.5516C40.2489 27.5431 40.2369 27.5343 40.2249 27.5264C40.2133 27.5189 40.201 27.5123 40.189 27.5053C40.1731 27.4961 40.1572 27.4867 40.1409 27.4784C40.131 27.4733 40.1208 27.4691 40.1106 27.4643C40.0917 27.4554 40.0726 27.4468 40.0533 27.4393C40.0501 27.4382 40.0474 27.4367 40.0444 27.4356C39.8028 27.3451 34.0723 25.2696 29.5388 29.8034L29.5385 29.8037C29.1194 30.2226 28.5626 30.4531 27.9701 30.4531C27.3776 30.4531 26.8206 30.2223 26.4016 29.8033C25.9826 29.3842 25.752 28.8273 25.752 28.2348C25.752 27.6422 25.9827 27.0852 26.4016 26.6663L33.1241 19.9453C33.1244 19.945 33.1245 19.9449 33.1248 19.9447C35.9433 17.126 41.2607 15.4348 42.9264 14.9567L54.6938 26.7241C54.2166 28.3897 52.5294 33.7018 49.7052 36.5257ZM57.5489 26.8906L42.7594 12.1013L46.9154 7.94539L61.7047 22.7347L57.5489 26.8906Z" fill="#D93232"/>
</g>
<defs>
<clipPath id="clip0_174_3703">
<rect width="64" height="64" fill="white"/>
</clipPath>
</defs>
</svg>
