<svg width="64" height="64" viewBox="0 0 64 64" fill="none" xmlns="http://www.w3.org/2000/svg">
<path d="M49 25.9H46.91C46.1408 25.8974 45.4036 25.5913 44.8587 25.0483C44.3139 24.5053 44.0053 23.7692 44 23V11.92C44 11.1473 44.3063 10.4061 44.8517 9.85878C45.3972 9.31146 46.1373 9.00265 46.91 9H49V11H46.91C46.666 11 46.432 11.0969 46.2595 11.2695C46.0869 11.442 45.99 11.676 45.99 11.92V23C45.99 23.244 46.0869 23.478 46.2595 23.6505C46.432 23.8231 46.666 23.92 46.91 23.92H49V25.9Z" fill="#D93232"/>
<path d="M39.9999 22.0009H37.9999C37.0808 21.9814 36.1753 21.7754 35.3381 21.3955C34.501 21.0156 33.7498 20.4697 33.1299 19.7909L28.4599 15.1209C27.8981 14.5584 27.5825 13.7959 27.5825 13.0009C27.5825 12.2059 27.8981 11.4434 28.4599 10.8809C29.0322 10.3379 29.791 10.0352 30.5799 10.0352C31.3688 10.0352 32.1276 10.3379 32.6999 10.8809L37.1199 15.3009L35.6999 16.7109L31.2799 12.2909C31.0925 12.1046 30.8391 12.0001 30.5749 12.0001C30.3107 12.0001 30.0572 12.1046 29.8699 12.2909C29.6836 12.4782 29.5791 12.7317 29.5791 12.9959C29.5791 13.2601 29.6836 13.5135 29.8699 13.7009L34.5399 18.3709C34.9771 18.8616 35.509 19.2589 36.1035 19.539C36.6981 19.8191 37.3431 19.9762 37.9999 20.0009H39.9999V22.0009Z" fill="#D93232"/>
<path d="M45 15H44C41.65 15 39.53 12.94 39.29 12.71L36.29 9.71C35.4073 8.79893 34.2528 8.19888 33 8V6C35.35 6 37.47 8.06 37.71 8.29L40.71 11.29C41.5927 12.2011 42.7472 12.8011 44 13H45V15Z" fill="#D93232"/>
<path d="M31 12H21C20.2044 12 19.4413 11.6839 18.8787 11.1213C18.3161 10.5587 18 9.79565 18 9C18 8.20435 18.3161 7.44129 18.8787 6.87868C19.4413 6.31607 20.2044 6 21 6H33V8H21C20.7348 8 20.4804 8.10536 20.2929 8.29289C20.1054 8.48043 20 8.73478 20 9C20 9.26522 20.1054 9.51957 20.2929 9.70711C20.4804 9.89464 20.7348 10 21 10H31V12Z" fill="#D93232"/>
<path d="M60 27.9994H50C49.7348 27.9994 49.4804 27.894 49.2929 27.7065C49.1054 27.5189 49 27.2646 49 26.9994V7.85938C49 7.59416 49.1054 7.3398 49.2929 7.15227C49.4804 6.96473 49.7348 6.85938 50 6.85938H60C60.2652 6.85938 60.5196 6.96473 60.7071 7.15227C60.8946 7.3398 61 7.59416 61 7.85938V26.9994C61 27.2646 60.8946 27.5189 60.7071 27.7065C60.5196 27.894 60.2652 27.9994 60 27.9994ZM51 25.9994H59V8.85937H51V25.9994Z" fill="#D93232"/>
<path d="M17.09 55.0001H15V53.0001H17.08C17.324 53.0001 17.558 52.9031 17.7305 52.7306C17.9031 52.5581 18 52.3241 18 52.0801V41.0001C18 40.7561 17.9031 40.5221 17.7305 40.3495C17.558 40.177 17.324 40.0801 17.08 40.0801H15V38.0801H17.08C17.8544 38.0801 18.5971 38.3877 19.1448 38.9353C19.6924 39.4829 20 40.2256 20 41.0001V52.0801C20 52.8528 19.6937 53.594 19.1483 54.1413C18.6028 54.6886 17.8627 54.9974 17.09 55.0001Z" fill="#D93232"/>
<path d="M33.43 54C32.6346 53.9993 31.8721 53.6828 31.31 53.12L26.89 48.7L28.3 47.29L32.72 51.71C32.9074 51.8962 33.1608 52.0008 33.425 52.0008C33.6892 52.0008 33.9426 51.8962 34.13 51.71C34.3163 51.5226 34.4208 51.2692 34.4208 51.005C34.4208 50.7408 34.3163 50.4874 34.13 50.3L29.46 45.63C29.0228 45.1393 28.4909 44.742 27.8963 44.4619C27.3018 44.1818 26.6568 44.0247 26 44H19V42H26C26.9191 42.0195 27.8246 42.2255 28.6617 42.6053C29.4989 42.9852 30.2501 43.5311 30.87 44.21L35.54 48.88C35.9584 49.2989 36.2435 49.8323 36.3594 50.413C36.4753 50.9937 36.4167 51.5956 36.1911 52.1431C35.9655 52.6905 35.5829 53.159 35.0916 53.4894C34.6002 53.8199 34.0221 53.9975 33.43 54Z" fill="#D93232"/>
<path d="M31 58C28.65 58 26.53 55.94 26.29 55.71L23.29 52.71C22.4073 51.7989 21.2528 51.1989 20 51H19V49H20C22.35 49 24.47 51.06 24.71 51.29L27.71 54.29C28.5927 55.2011 29.7472 55.8011 31 56V58Z" fill="#D93232"/>
<path d="M43 58H31V56H43C43.2652 56 43.5196 55.8946 43.7071 55.7071C43.8946 55.5196 44 55.2652 44 55C44 54.7348 43.8946 54.4804 43.7071 54.2929C43.5196 54.1054 43.2652 54 43 54H33V52H43C43.7956 52 44.5587 52.3161 45.1213 52.8787C45.6839 53.4413 46 54.2044 46 55C46 55.7956 45.6839 56.5587 45.1213 57.1213C44.5587 57.6839 43.7956 58 43 58Z" fill="#D93232"/>
<path d="M14 57.14H4C3.73478 57.14 3.48043 57.0346 3.29289 56.8471C3.10536 56.6596 3 56.4052 3 56.14V37C3 36.7348 3.10536 36.4804 3.29289 36.2929C3.48043 36.1054 3.73478 36 4 36H14C14.2652 36 14.5196 36.1054 14.7071 36.2929C14.8946 36.4804 15 36.7348 15 37V56.14C15 56.4052 14.8946 56.6596 14.7071 56.8471C14.5196 57.0346 14.2652 57.14 14 57.14ZM5 55.14H13V38H5V55.14Z" fill="#D93232"/>
<path d="M40.0902 42.9997C39.3094 42.9992 38.5597 42.6942 38.0002 42.1497L30.3002 34.4497C28.8063 34.9957 27.171 35.0166 25.6637 34.509C24.1563 34.0015 22.8668 32.9957 22.0073 31.6574C21.1479 30.3191 20.7699 28.728 20.9355 27.1461C21.1011 25.5642 21.8005 24.0859 22.9185 22.9546C24.0365 21.8233 25.5064 21.1065 27.0862 20.9222C28.666 20.7379 30.2615 21.097 31.6099 21.9405C32.9583 22.7841 33.9792 24.0616 34.5046 25.5629C35.0299 27.0641 35.0284 28.6995 34.5002 30.1997L42.2002 37.8997C42.6119 38.3197 42.891 38.8513 43.003 39.4286C43.115 40.0059 43.0548 40.6034 42.83 41.1468C42.6052 41.6902 42.2257 42.1555 41.7385 42.485C41.2514 42.8144 40.6782 42.9934 40.0902 42.9997ZM30.5002 32.2597C30.6318 32.259 30.7622 32.2842 30.8841 32.334C31.0059 32.3837 31.1167 32.4571 31.2102 32.5497L39.3902 40.7297C39.5775 40.916 39.831 41.0205 40.0952 41.0205C40.3594 41.0205 40.6128 40.916 40.8002 40.7297C40.9864 40.5424 41.091 40.2889 41.091 40.0247C41.091 39.7606 40.9864 39.5071 40.8002 39.3197L32.6202 31.1397C32.4728 30.9939 32.3743 30.8059 32.3385 30.6016C32.3026 30.3974 32.3312 30.187 32.4202 29.9997C32.9279 28.9354 33.0431 27.7258 32.7454 26.5847C32.4477 25.4436 31.7562 24.4445 30.7932 23.7638C29.8302 23.0832 28.6575 22.7648 27.4825 22.865C26.3075 22.9652 25.2057 23.4775 24.3718 24.3114C23.538 25.1453 23.0256 26.2471 22.9254 27.4221C22.8252 28.5971 23.1436 29.7697 23.8242 30.7328C24.5049 31.6958 25.504 32.3873 26.6451 32.685C27.7862 32.9827 28.9958 32.8675 30.0602 32.3597C30.1973 32.2933 30.3478 32.2591 30.5002 32.2597Z" fill="#D93232"/>
<path d="M27.9202 30.8504C27.3273 30.8499 26.7477 30.6736 26.2549 30.344C25.762 30.0143 25.3779 29.5459 25.1511 28.9981C24.9242 28.4502 24.8648 27.8474 24.9804 27.2658C25.0959 26.6842 25.3812 26.1499 25.8002 25.7304C26.3713 25.1851 27.1306 24.8809 27.9202 24.8809C28.7098 24.8809 29.4691 25.1851 30.0402 25.7304C30.3203 26.0121 30.5417 26.3466 30.6915 26.7146C30.8412 27.0825 30.9164 27.4765 30.9127 27.8737C30.909 28.271 30.8264 28.6635 30.6698 29.0286C30.5131 29.3937 30.2855 29.724 30.0002 30.0004C29.4432 30.5425 28.6975 30.8472 27.9202 30.8504ZM27.9202 26.8504C27.7216 26.8492 27.5271 26.9073 27.3616 27.0171C27.1961 27.1269 27.067 27.2835 26.9908 27.4669C26.9147 27.6503 26.8949 27.8523 26.9339 28.0471C26.973 28.2418 27.0692 28.4205 27.2102 28.5604C27.3976 28.7466 27.651 28.8512 27.9152 28.8512C28.1794 28.8512 28.4329 28.7466 28.6202 28.5604C28.7612 28.4205 28.8574 28.2418 28.8965 28.0471C28.9356 27.8523 28.9158 27.6503 28.8396 27.4669C28.7634 27.2835 28.6343 27.1269 28.4688 27.0171C28.3033 26.9073 28.1088 26.8492 27.9102 26.8504H27.9202Z" fill="#D93232"/>
<path d="M35.1399 43.1507C35.0083 43.1515 34.8778 43.1262 34.756 43.0765C34.6341 43.0267 34.5233 42.9534 34.4299 42.8607L31.5999 40.0007C31.4136 39.8133 31.3091 39.5599 31.3091 39.2957C31.3091 39.0315 31.4136 38.7781 31.5999 38.5907L33.7199 36.4707L35.1299 37.8807L33.7099 39.2907L35.1299 40.7007L36.5399 39.2907L37.9999 40.7307L35.8799 42.8507C35.7838 42.9489 35.6684 43.0262 35.5411 43.0778C35.4138 43.1294 35.2772 43.1542 35.1399 43.1507Z" fill="#D93232"/>
<path d="M13 32.0005H11C11.0075 28.3153 11.9809 24.6964 13.8233 21.5047C15.6656 18.3131 18.3125 15.6602 21.5 13.8105L22.5 15.5405C19.6156 17.214 17.2204 19.6146 15.5535 22.5028C13.8865 25.391 13.0061 28.6658 13 32.0005Z" fill="#D93232"/>
<path d="M42.5 50.19L41.5 48.46C44.3844 46.7865 46.7796 44.3859 48.4465 41.4977C50.1135 38.6095 50.9939 35.3347 51 32H53C52.9925 35.6852 52.0191 39.3041 50.1767 42.4958C48.3344 45.6875 45.6875 48.3404 42.5 50.19Z" fill="#D93232"/>
</svg>
