<svg width="64" height="64" viewBox="0 0 64 64" fill="none" xmlns="http://www.w3.org/2000/svg">
<path d="M31.9999 47C32.5254 46.9985 33.046 47.1014 33.5315 47.3025C34.017 47.5036 34.4578 47.799 34.8283 48.1716L36.2426 46.7573C35.1174 45.6321 33.5912 45 31.9999 45C30.4087 45 28.8825 45.6321 27.7573 46.7573L29.1716 48.1716C29.5421 47.799 29.9829 47.5036 30.4684 47.3025C30.9539 47.1014 31.4745 46.9985 31.9999 47Z" fill="white"/>
<path d="M29.8784 48.8787L31.2928 50.2929C31.4803 50.1054 31.7346 50.0001 31.9998 50.0001C32.265 50.0001 32.5193 50.1054 32.7068 50.2929L34.1212 48.8787C33.8426 48.6001 33.5119 48.3792 33.1479 48.2284C32.7839 48.0776 32.3938 48 31.9998 48C31.6058 48 31.2157 48.0776 30.8517 48.2284C30.4877 48.3792 30.157 48.6001 29.8784 48.8787Z" fill="white"/>
<path d="M56.7783 38.7574C56.2212 38.2002 55.5598 37.7583 54.8318 37.4567C54.1038 37.1552 53.3236 37 52.5357 37C51.7477 37 50.9675 37.1552 50.2395 37.4567C49.5116 37.7583 48.8501 38.2002 48.293 38.7574L49.7072 40.1717C50.4574 39.4215 51.4748 39.0001 52.5356 39.0001C53.5964 39.0001 54.6138 39.4215 55.364 40.1717L56.7783 38.7574Z" fill="white"/>
<path d="M50.4141 40.8787L51.8284 42.2929C52.016 42.1053 52.2703 42 52.5355 42C52.8007 42 53.055 42.1053 53.2426 42.2929L54.6568 40.8787C54.3782 40.6001 54.0475 40.3792 53.6835 40.2284C53.3195 40.0776 52.9294 40 52.5354 40C52.1415 40 51.7513 40.0776 51.3874 40.2284C51.0234 40.3792 50.6926 40.6001 50.4141 40.8787Z" fill="white"/>
<path d="M32 53.0625C32.5868 53.0625 33.0625 52.5868 33.0625 52C33.0625 51.4132 32.5868 50.9375 32 50.9375C31.4132 50.9375 30.9375 51.4132 30.9375 52C30.9375 52.5868 31.4132 53.0625 32 53.0625Z" fill="white"/>
<path d="M23 12H41C41.2652 12 41.5196 11.8946 41.7071 11.7071C41.8946 11.5196 42 11.2652 42 11V4.75C41.9995 4.28602 41.815 3.84119 41.4869 3.51311C41.1588 3.18503 40.714 3.0005 40.25 3H23.75C23.286 3.0005 22.8412 3.18503 22.5131 3.51311C22.185 3.84119 22.0005 4.28602 22 4.75V11C22 11.2652 22.1054 11.5196 22.2929 11.7071C22.4804 11.8946 22.7348 12 23 12ZM36 10H28V9H36V10ZM24 5H40V10H38V8C38 7.73478 37.8946 7.48043 37.7071 7.29289C37.5196 7.10536 37.2652 7 37 7H27C26.7348 7 26.4804 7.10536 26.2929 7.29289C26.1054 7.48043 26 7.73478 26 8V10H24V5Z" fill="white"/>
<path d="M59.9999 15H47.9999C47.4697 15.0006 46.9613 15.2115 46.5864 15.5865C46.2114 15.9614 46.0005 16.4698 45.9999 17V19H41.9999C41.8042 19 41.6128 19.0574 41.4494 19.1652C41.286 19.2729 41.1579 19.4262 41.0808 19.6061L38.8058 24.9158C37.7583 23.9224 36.4287 23.2781 34.9999 23.0716V21C34.9999 20.8354 34.9593 20.6733 34.8816 20.5282C34.8039 20.383 34.6916 20.2593 34.5546 20.168L28.9999 16.4649V14H26.9999V17C26.9999 17.1646 27.0405 17.3267 27.1182 17.4718C27.1959 17.617 27.3082 17.7407 27.4451 17.832L32.9999 21.5351V23.0726C32.0696 23.2036 31.1756 23.5217 30.3716 24.0077L24.6401 19.2315C24.4604 19.0818 24.2338 18.9999 23.9999 19H15.9999V14C15.9993 13.4698 15.7884 12.9614 15.4134 12.5865C15.0385 12.2115 14.5301 12.0006 13.9999 12H3.9999C3.46966 12.0006 2.96132 12.2115 2.58638 12.5865C2.21144 12.9614 2.00053 13.4698 1.9999 14V29C1.9999 29.2652 2.10526 29.5196 2.29279 29.7071C2.48033 29.8946 2.73468 30 2.9999 30H14.9999C15.2651 30 15.5195 29.8946 15.707 29.7071C15.8945 29.5196 15.9999 29.2652 15.9999 29V21H23.6374L28.8053 25.3066C28.5702 25.5667 28.355 25.844 28.1613 26.1361C26.9835 25.8557 25.744 26.0116 24.6724 26.5751C23.6008 27.1386 22.7698 28.0714 22.3334 29.2008C20.6436 29.6137 19.1684 30.6415 18.1956 32.0836C17.2229 33.5257 16.8225 35.2786 17.0725 37H14.9999C14.8447 37 14.6915 37.0361 14.5527 37.1056C14.4138 37.175 14.293 37.2758 14.1999 37.4L11.6545 40.7938L10.496 40.1312C10.3449 40.0449 10.1739 39.9995 9.9999 39.9995C9.82588 39.9995 9.65487 40.0449 9.50377 40.1312L2.50377 44.1312C2.31206 44.2405 2.16188 44.4102 2.07664 44.6137C1.9914 44.8173 1.97588 45.0433 2.03251 45.2566C2.08913 45.4699 2.21472 45.6585 2.3897 45.7929C2.56468 45.9274 2.77922 46.0002 2.9999 46V54C2.9999 54.2652 3.10526 54.5196 3.29279 54.7071C3.48033 54.8946 3.73468 55 3.9999 55H15.9999C16.2651 55 16.5195 54.8946 16.707 54.7071C16.8945 54.5196 16.9999 54.2652 16.9999 54V46C17.2204 46 17.4347 45.9271 17.6095 45.7927C17.7843 45.6582 17.9098 45.4698 17.9664 45.2567C18.023 45.0435 18.0076 44.8177 17.9225 44.6142C17.8374 44.4108 17.6875 44.2412 17.496 44.1317L13.4045 41.7943L15.4999 39H17.6766C18.2451 40.196 19.1407 41.2065 20.2598 41.9144C21.3789 42.6223 22.6757 42.9987 23.9999 43H24.9999V58.25C25.0007 58.9791 25.2907 59.6781 25.8063 60.1936C26.3218 60.7092 27.0208 60.9992 27.7499 61H36.2499C36.979 60.9992 37.678 60.7092 38.1935 60.1936C38.7091 59.6781 38.9991 58.9791 38.9999 58.25V43H39.9999C41.7758 43.0011 43.4857 42.3271 44.7833 41.1146C46.0809 39.9021 46.8691 38.2417 46.9883 36.4698C47.1075 34.6979 46.5487 32.9469 45.4252 31.5716C44.3017 30.1962 42.6975 29.2993 40.9374 29.0625C40.8283 28.2533 40.5773 27.4698 40.196 26.7477L42.6593 21H45.9999V25C46.0005 25.5302 46.2114 26.0386 46.5864 26.4135C46.9613 26.7885 47.4697 26.9994 47.9999 27H50.6124L50.0511 28.6838C50.001 28.8341 49.9874 28.9942 50.0113 29.1508C50.0352 29.3075 50.0959 29.4562 50.1886 29.5847C50.2812 29.7133 50.4031 29.818 50.5442 29.8902C50.6852 29.9624 50.8414 30 50.9999 30H56.9999C57.1583 30 57.3145 29.9623 57.4556 29.8901C57.5966 29.8179 57.7185 29.7132 57.8111 29.5847C57.9038 29.4561 57.9645 29.3074 57.9884 29.1508C58.0123 28.9941 57.9986 28.8341 57.9485 28.6838L57.3874 27H59.9999C60.5301 26.9994 61.0385 26.7885 61.4134 26.4135C61.7884 26.0386 61.9993 25.5302 61.9999 25V17C61.9993 16.4698 61.7884 15.9614 61.4134 15.5865C61.0385 15.2115 60.5301 15.0006 59.9999 15ZM13.9999 28H3.9999V26H13.9999V28ZM13.9999 24H3.9999V14H13.9999V24ZM9.9999 42.1517L13.2343 44H6.76552L9.9999 42.1517ZM10.9999 53H8.9999V50H10.9999V53ZM14.9999 46V53H12.9999V49C12.9999 48.7348 12.8945 48.4804 12.707 48.2929C12.5195 48.1054 12.2651 48 11.9999 48H7.9999C7.73468 48 7.48033 48.1054 7.29279 48.2929C7.10526 48.4804 6.9999 48.7348 6.9999 49V53H4.9999V46H14.9999ZM33.9999 31C34.1977 31 34.391 31.0586 34.5555 31.1685C34.7199 31.2784 34.8481 31.4346 34.9238 31.6173C34.9995 31.8 35.0193 32.0011 34.9807 32.1951C34.9421 32.3891 34.8469 32.5673 34.707 32.7071C34.5672 32.847 34.389 32.9422 34.195 32.9808C34.001 33.0194 33.7999 32.9996 33.6172 32.9239C33.4345 32.8482 33.2783 32.72 33.1684 32.5556C33.0585 32.3911 32.9999 32.1978 32.9999 32C33.0002 31.7349 33.1056 31.4807 33.2931 31.2932C33.4806 31.1058 33.7348 31.0003 33.9999 31ZM36.9999 58.25C36.9997 58.4489 36.9206 58.6395 36.78 58.7801C36.6394 58.9207 36.4487 58.9998 36.2499 59H27.7499C27.551 58.9998 27.3604 58.9207 27.2198 58.7801C27.0792 58.6395 27.0001 58.4489 26.9999 58.25V57H36.9999V58.25ZM36.9999 55H26.9999V43H36.9999V55ZM36.9999 41H26.9999V39.75C27.0001 39.5511 27.0792 39.3605 27.2198 39.2199C27.3604 39.0793 27.551 39.0002 27.7499 39H36.2499C36.4487 39.0002 36.6394 39.0793 36.78 39.2199C36.9206 39.3605 36.9997 39.5511 36.9999 39.75V41ZM44.9999 36C44.9984 37.3256 44.4711 38.5965 43.5338 39.5339C42.5964 40.4712 41.3255 40.9985 39.9999 41H38.9999V39.75C38.9991 39.0209 38.7091 38.3219 38.1935 37.8064C37.678 37.2908 36.979 37.0008 36.2499 37H27.7499C27.0208 37.0008 26.3218 37.2908 25.8063 37.8064C25.2907 38.3219 25.0007 39.0209 24.9999 39.75V41H23.9999C22.7379 41.0005 21.5224 40.5237 20.5973 39.6654C19.6722 38.807 19.1059 37.6306 19.0119 36.3721C18.918 35.1137 19.3034 33.8662 20.0909 32.8801C20.8783 31.8939 22.0096 31.242 23.2576 31.0551C23.4549 31.0257 23.6389 30.938 23.7859 30.8032C23.9329 30.6684 24.0362 30.4927 24.0826 30.2987C24.1854 29.8713 24.3809 29.4716 24.6553 29.1281C24.9296 28.7846 25.2762 28.5055 25.6703 28.3107C26.0644 28.1159 26.4966 28.0102 26.9361 28.0009C27.3757 27.9916 27.8119 28.079 28.2139 28.257C28.4497 28.3616 28.7168 28.3711 28.9594 28.2834C29.202 28.1957 29.4014 28.0177 29.5158 27.7865C29.8514 27.1014 30.3403 26.5029 30.9445 26.0371C31.5487 25.5714 32.252 25.251 32.9999 25.1007V29.172C32.3327 29.4079 31.7703 29.8721 31.4123 30.4825C31.0542 31.0929 30.9234 31.8102 31.0431 32.5077C31.1628 33.2052 31.5252 33.838 32.0662 34.2941C32.6073 34.7502 33.2922 35.0004 33.9999 35.0004C34.7076 35.0004 35.3925 34.7502 35.9336 34.2941C36.4746 33.838 36.837 33.2052 36.9567 32.5077C37.0764 31.8102 36.9456 31.0929 36.5875 30.4825C36.2295 29.8721 35.6671 29.4079 34.9999 29.172V25.1006C36.1284 25.3326 37.1425 25.9466 37.8711 26.839C38.5998 27.7315 38.9984 28.8479 38.9999 30C38.9999 30.2652 39.1053 30.5196 39.2928 30.7071C39.4803 30.8946 39.7347 31 39.9999 31C41.3255 31.0015 42.5964 31.5288 43.5338 32.4661C44.4711 33.4035 44.9984 34.6744 44.9999 36ZM47.9999 17H59.9999L60.0006 22H47.9999V17ZM52.3874 28L52.7206 27H55.2791L55.6124 28H52.3874ZM59.9999 25H47.9999V24H60.001V25H59.9999Z" fill="white"/>
<path d="M9 23C9.79113 23 10.5645 22.7654 11.2223 22.3259C11.8801 21.8864 12.3928 21.2616 12.6955 20.5307C12.9983 19.7998 13.0775 18.9956 12.9231 18.2196C12.7688 17.4437 12.3878 16.731 11.8284 16.1716C11.269 15.6122 10.5563 15.2312 9.78036 15.0769C9.00444 14.9225 8.20017 15.0017 7.46927 15.3045C6.73836 15.6072 6.11365 16.1199 5.67412 16.7777C5.2346 17.4355 5 18.2089 5 19C5.00119 20.0605 5.423 21.0772 6.17289 21.8271C6.92278 22.577 7.9395 22.9988 9 23ZM9 17C9.39556 17 9.78224 17.1173 10.1111 17.3371C10.44 17.5568 10.6964 17.8692 10.8478 18.2346C10.9991 18.6001 11.0387 19.0022 10.9616 19.3902C10.8844 19.7781 10.6939 20.1345 10.4142 20.4142C10.1345 20.6939 9.77814 20.8844 9.39018 20.9616C9.00222 21.0387 8.60009 20.9991 8.23463 20.8478C7.86918 20.6964 7.55682 20.44 7.33706 20.1111C7.1173 19.7822 7 19.3956 7 19C7.00063 18.4698 7.21154 17.9614 7.58648 17.5865C7.96142 17.2115 8.46976 17.0006 9 17Z" fill="white"/>
<path d="M25 33H23V35H25V33Z" fill="white"/>
<path d="M29 33H27V35H29V33Z" fill="white"/>
<path d="M41 33H39V35H41V33Z" fill="white"/>
<path d="M61.2425 48.0299L57.6511 47.132C57.6332 47.1158 57.6141 47.1011 57.5939 47.088L55.832 44.4453C55.7407 44.3083 55.617 44.196 55.4718 44.1183C55.3267 44.0406 55.1646 44 55 44H48C47.8354 44 47.6733 44.0406 47.5282 44.1183C47.383 44.196 47.2593 44.3083 47.168 44.4453L45.168 47.4453C45.0584 47.6095 45 47.8025 45 48V53C45 53.2652 45.1054 53.5196 45.2929 53.7071C45.4804 53.8946 45.7348 54 46 54H47.172C47.379 54.5846 47.762 55.0907 48.2685 55.4487C48.7749 55.8066 49.3798 55.9988 50 55.9988C50.6202 55.9988 51.2251 55.8066 51.7315 55.4487C52.238 55.0907 52.621 54.5846 52.828 54H54.172C54.379 54.5846 54.762 55.0907 55.2685 55.4487C55.7749 55.8066 56.3798 55.9988 57 55.9988C57.6202 55.9988 58.2251 55.8066 58.7315 55.4487C59.238 55.0907 59.621 54.5846 59.828 54H61C61.2652 54 61.5196 53.8946 61.7071 53.7071C61.8946 53.5196 62 53.2652 62 53V49C62 48.777 61.9254 48.5604 61.7882 48.3846C61.6509 48.2088 61.4589 48.084 61.2425 48.0299ZM55.1315 47H52V46H54.4649L55.1315 47ZM48.5351 46H50V47H47.8685L48.5351 46ZM50 54C49.8022 54 49.6089 53.9414 49.4444 53.8315C49.28 53.7216 49.1518 53.5654 49.0761 53.3827C49.0004 53.2 48.9806 52.9989 49.0192 52.8049C49.0578 52.6109 49.153 52.4327 49.2929 52.2929C49.4327 52.153 49.6109 52.0578 49.8049 52.0192C49.9989 51.9806 50.2 52.0004 50.3827 52.0761C50.5654 52.1518 50.7216 52.28 50.8315 52.4444C50.9414 52.6089 51 52.8022 51 53C50.9997 53.2651 50.8943 53.5193 50.7068 53.7068C50.5193 53.8943 50.2651 53.9997 50 54ZM57 54C56.8022 54 56.6089 53.9414 56.4444 53.8315C56.28 53.7216 56.1518 53.5654 56.0761 53.3827C56.0004 53.2 55.9806 52.9989 56.0192 52.8049C56.0578 52.6109 56.153 52.4327 56.2929 52.2929C56.4327 52.153 56.6109 52.0578 56.8049 52.0192C56.9989 51.9806 57.2 52.0004 57.3827 52.0761C57.5654 52.1518 57.7216 52.28 57.8315 52.4444C57.9414 52.6089 58 52.8022 58 53C57.9997 53.2651 57.8943 53.5193 57.7068 53.7068C57.5193 53.8943 57.2651 53.9997 57 54ZM60 52H59.828C59.621 51.4154 59.238 50.9093 58.7315 50.5513C58.2251 50.1934 57.6202 50.0012 57 50.0012C56.3798 50.0012 55.7749 50.1934 55.2685 50.5513C54.762 50.9093 54.379 51.4154 54.172 52H52.828C52.621 51.4154 52.238 50.9093 51.7315 50.5513C51.2251 50.1934 50.6202 50.0012 50 50.0012C49.3798 50.0012 48.7749 50.1934 48.2685 50.5513C47.762 50.9093 47.379 51.4154 47.172 52H47V49H56.8769L60 49.7808V52Z" fill="white"/>
</svg>
